G04 #@! TF.GenerationSoftware,KiCad,Pcbnew,(5.1.5)-3*
G04 #@! TF.CreationDate,2020-07-06T21:55:48+02:00*
G04 #@! TF.ProjectId,Theo3,5468656f-332e-46b6-9963-61645f706362,rev?*
G04 #@! TF.SameCoordinates,Original*
G04 #@! TF.FileFunction,Paste,Bot*
G04 #@! TF.FilePolarity,Positive*
%FSLAX46Y46*%
G04 Gerber Fmt 4.6, Leading zero omitted, Abs format (unit mm)*
G04 Created by KiCad (PCBNEW (5.1.5)-3) date 2020-07-06 21:55:48*
%MOMM*%
%LPD*%
G04 APERTURE LIST*
%ADD10C,0.100000*%
%ADD11R,1.200000X1.400000*%
%ADD12R,1.000000X1.400000*%
%ADD13R,1.400000X1.000000*%
%ADD14R,1.400000X1.200000*%
%ADD15R,1.300000X1.550000*%
%ADD16R,4.200000X1.350000*%
G04 APERTURE END LIST*
D10*
G36*
X46214558Y-79258910D02*
G01*
X46228876Y-79261034D01*
X46242917Y-79264551D01*
X46256546Y-79269428D01*
X46269631Y-79275617D01*
X46282047Y-79283058D01*
X46293673Y-79291681D01*
X46304398Y-79301402D01*
X46314119Y-79312127D01*
X46322742Y-79323753D01*
X46330183Y-79336169D01*
X46336372Y-79349254D01*
X46341249Y-79362883D01*
X46344766Y-79376924D01*
X46346890Y-79391242D01*
X46347600Y-79405700D01*
X46347600Y-79750700D01*
X46346890Y-79765158D01*
X46344766Y-79779476D01*
X46341249Y-79793517D01*
X46336372Y-79807146D01*
X46330183Y-79820231D01*
X46322742Y-79832647D01*
X46314119Y-79844273D01*
X46304398Y-79854998D01*
X46293673Y-79864719D01*
X46282047Y-79873342D01*
X46269631Y-79880783D01*
X46256546Y-79886972D01*
X46242917Y-79891849D01*
X46228876Y-79895366D01*
X46214558Y-79897490D01*
X46200100Y-79898200D01*
X45905100Y-79898200D01*
X45890642Y-79897490D01*
X45876324Y-79895366D01*
X45862283Y-79891849D01*
X45848654Y-79886972D01*
X45835569Y-79880783D01*
X45823153Y-79873342D01*
X45811527Y-79864719D01*
X45800802Y-79854998D01*
X45791081Y-79844273D01*
X45782458Y-79832647D01*
X45775017Y-79820231D01*
X45768828Y-79807146D01*
X45763951Y-79793517D01*
X45760434Y-79779476D01*
X45758310Y-79765158D01*
X45757600Y-79750700D01*
X45757600Y-79405700D01*
X45758310Y-79391242D01*
X45760434Y-79376924D01*
X45763951Y-79362883D01*
X45768828Y-79349254D01*
X45775017Y-79336169D01*
X45782458Y-79323753D01*
X45791081Y-79312127D01*
X45800802Y-79301402D01*
X45811527Y-79291681D01*
X45823153Y-79283058D01*
X45835569Y-79275617D01*
X45848654Y-79269428D01*
X45862283Y-79264551D01*
X45876324Y-79261034D01*
X45890642Y-79258910D01*
X45905100Y-79258200D01*
X46200100Y-79258200D01*
X46214558Y-79258910D01*
G37*
G36*
X45244558Y-79258910D02*
G01*
X45258876Y-79261034D01*
X45272917Y-79264551D01*
X45286546Y-79269428D01*
X45299631Y-79275617D01*
X45312047Y-79283058D01*
X45323673Y-79291681D01*
X45334398Y-79301402D01*
X45344119Y-79312127D01*
X45352742Y-79323753D01*
X45360183Y-79336169D01*
X45366372Y-79349254D01*
X45371249Y-79362883D01*
X45374766Y-79376924D01*
X45376890Y-79391242D01*
X45377600Y-79405700D01*
X45377600Y-79750700D01*
X45376890Y-79765158D01*
X45374766Y-79779476D01*
X45371249Y-79793517D01*
X45366372Y-79807146D01*
X45360183Y-79820231D01*
X45352742Y-79832647D01*
X45344119Y-79844273D01*
X45334398Y-79854998D01*
X45323673Y-79864719D01*
X45312047Y-79873342D01*
X45299631Y-79880783D01*
X45286546Y-79886972D01*
X45272917Y-79891849D01*
X45258876Y-79895366D01*
X45244558Y-79897490D01*
X45230100Y-79898200D01*
X44935100Y-79898200D01*
X44920642Y-79897490D01*
X44906324Y-79895366D01*
X44892283Y-79891849D01*
X44878654Y-79886972D01*
X44865569Y-79880783D01*
X44853153Y-79873342D01*
X44841527Y-79864719D01*
X44830802Y-79854998D01*
X44821081Y-79844273D01*
X44812458Y-79832647D01*
X44805017Y-79820231D01*
X44798828Y-79807146D01*
X44793951Y-79793517D01*
X44790434Y-79779476D01*
X44788310Y-79765158D01*
X44787600Y-79750700D01*
X44787600Y-79405700D01*
X44788310Y-79391242D01*
X44790434Y-79376924D01*
X44793951Y-79362883D01*
X44798828Y-79349254D01*
X44805017Y-79336169D01*
X44812458Y-79323753D01*
X44821081Y-79312127D01*
X44830802Y-79301402D01*
X44841527Y-79291681D01*
X44853153Y-79283058D01*
X44865569Y-79275617D01*
X44878654Y-79269428D01*
X44892283Y-79264551D01*
X44906324Y-79261034D01*
X44920642Y-79258910D01*
X44935100Y-79258200D01*
X45230100Y-79258200D01*
X45244558Y-79258910D01*
G37*
G36*
X69249558Y-67856310D02*
G01*
X69263876Y-67858434D01*
X69277917Y-67861951D01*
X69291546Y-67866828D01*
X69304631Y-67873017D01*
X69317047Y-67880458D01*
X69328673Y-67889081D01*
X69339398Y-67898802D01*
X69349119Y-67909527D01*
X69357742Y-67921153D01*
X69365183Y-67933569D01*
X69371372Y-67946654D01*
X69376249Y-67960283D01*
X69379766Y-67974324D01*
X69381890Y-67988642D01*
X69382600Y-68003100D01*
X69382600Y-68298100D01*
X69381890Y-68312558D01*
X69379766Y-68326876D01*
X69376249Y-68340917D01*
X69371372Y-68354546D01*
X69365183Y-68367631D01*
X69357742Y-68380047D01*
X69349119Y-68391673D01*
X69339398Y-68402398D01*
X69328673Y-68412119D01*
X69317047Y-68420742D01*
X69304631Y-68428183D01*
X69291546Y-68434372D01*
X69277917Y-68439249D01*
X69263876Y-68442766D01*
X69249558Y-68444890D01*
X69235100Y-68445600D01*
X68890100Y-68445600D01*
X68875642Y-68444890D01*
X68861324Y-68442766D01*
X68847283Y-68439249D01*
X68833654Y-68434372D01*
X68820569Y-68428183D01*
X68808153Y-68420742D01*
X68796527Y-68412119D01*
X68785802Y-68402398D01*
X68776081Y-68391673D01*
X68767458Y-68380047D01*
X68760017Y-68367631D01*
X68753828Y-68354546D01*
X68748951Y-68340917D01*
X68745434Y-68326876D01*
X68743310Y-68312558D01*
X68742600Y-68298100D01*
X68742600Y-68003100D01*
X68743310Y-67988642D01*
X68745434Y-67974324D01*
X68748951Y-67960283D01*
X68753828Y-67946654D01*
X68760017Y-67933569D01*
X68767458Y-67921153D01*
X68776081Y-67909527D01*
X68785802Y-67898802D01*
X68796527Y-67889081D01*
X68808153Y-67880458D01*
X68820569Y-67873017D01*
X68833654Y-67866828D01*
X68847283Y-67861951D01*
X68861324Y-67858434D01*
X68875642Y-67856310D01*
X68890100Y-67855600D01*
X69235100Y-67855600D01*
X69249558Y-67856310D01*
G37*
G36*
X69249558Y-66886310D02*
G01*
X69263876Y-66888434D01*
X69277917Y-66891951D01*
X69291546Y-66896828D01*
X69304631Y-66903017D01*
X69317047Y-66910458D01*
X69328673Y-66919081D01*
X69339398Y-66928802D01*
X69349119Y-66939527D01*
X69357742Y-66951153D01*
X69365183Y-66963569D01*
X69371372Y-66976654D01*
X69376249Y-66990283D01*
X69379766Y-67004324D01*
X69381890Y-67018642D01*
X69382600Y-67033100D01*
X69382600Y-67328100D01*
X69381890Y-67342558D01*
X69379766Y-67356876D01*
X69376249Y-67370917D01*
X69371372Y-67384546D01*
X69365183Y-67397631D01*
X69357742Y-67410047D01*
X69349119Y-67421673D01*
X69339398Y-67432398D01*
X69328673Y-67442119D01*
X69317047Y-67450742D01*
X69304631Y-67458183D01*
X69291546Y-67464372D01*
X69277917Y-67469249D01*
X69263876Y-67472766D01*
X69249558Y-67474890D01*
X69235100Y-67475600D01*
X68890100Y-67475600D01*
X68875642Y-67474890D01*
X68861324Y-67472766D01*
X68847283Y-67469249D01*
X68833654Y-67464372D01*
X68820569Y-67458183D01*
X68808153Y-67450742D01*
X68796527Y-67442119D01*
X68785802Y-67432398D01*
X68776081Y-67421673D01*
X68767458Y-67410047D01*
X68760017Y-67397631D01*
X68753828Y-67384546D01*
X68748951Y-67370917D01*
X68745434Y-67356876D01*
X68743310Y-67342558D01*
X68742600Y-67328100D01*
X68742600Y-67033100D01*
X68743310Y-67018642D01*
X68745434Y-67004324D01*
X68748951Y-66990283D01*
X68753828Y-66976654D01*
X68760017Y-66963569D01*
X68767458Y-66951153D01*
X68776081Y-66939527D01*
X68785802Y-66928802D01*
X68796527Y-66919081D01*
X68808153Y-66910458D01*
X68820569Y-66903017D01*
X68833654Y-66896828D01*
X68847283Y-66891951D01*
X68861324Y-66888434D01*
X68875642Y-66886310D01*
X68890100Y-66885600D01*
X69235100Y-66885600D01*
X69249558Y-66886310D01*
G37*
G36*
X67090558Y-68059510D02*
G01*
X67104876Y-68061634D01*
X67118917Y-68065151D01*
X67132546Y-68070028D01*
X67145631Y-68076217D01*
X67158047Y-68083658D01*
X67169673Y-68092281D01*
X67180398Y-68102002D01*
X67190119Y-68112727D01*
X67198742Y-68124353D01*
X67206183Y-68136769D01*
X67212372Y-68149854D01*
X67217249Y-68163483D01*
X67220766Y-68177524D01*
X67222890Y-68191842D01*
X67223600Y-68206300D01*
X67223600Y-68501300D01*
X67222890Y-68515758D01*
X67220766Y-68530076D01*
X67217249Y-68544117D01*
X67212372Y-68557746D01*
X67206183Y-68570831D01*
X67198742Y-68583247D01*
X67190119Y-68594873D01*
X67180398Y-68605598D01*
X67169673Y-68615319D01*
X67158047Y-68623942D01*
X67145631Y-68631383D01*
X67132546Y-68637572D01*
X67118917Y-68642449D01*
X67104876Y-68645966D01*
X67090558Y-68648090D01*
X67076100Y-68648800D01*
X66731100Y-68648800D01*
X66716642Y-68648090D01*
X66702324Y-68645966D01*
X66688283Y-68642449D01*
X66674654Y-68637572D01*
X66661569Y-68631383D01*
X66649153Y-68623942D01*
X66637527Y-68615319D01*
X66626802Y-68605598D01*
X66617081Y-68594873D01*
X66608458Y-68583247D01*
X66601017Y-68570831D01*
X66594828Y-68557746D01*
X66589951Y-68544117D01*
X66586434Y-68530076D01*
X66584310Y-68515758D01*
X66583600Y-68501300D01*
X66583600Y-68206300D01*
X66584310Y-68191842D01*
X66586434Y-68177524D01*
X66589951Y-68163483D01*
X66594828Y-68149854D01*
X66601017Y-68136769D01*
X66608458Y-68124353D01*
X66617081Y-68112727D01*
X66626802Y-68102002D01*
X66637527Y-68092281D01*
X66649153Y-68083658D01*
X66661569Y-68076217D01*
X66674654Y-68070028D01*
X66688283Y-68065151D01*
X66702324Y-68061634D01*
X66716642Y-68059510D01*
X66731100Y-68058800D01*
X67076100Y-68058800D01*
X67090558Y-68059510D01*
G37*
G36*
X67090558Y-67089510D02*
G01*
X67104876Y-67091634D01*
X67118917Y-67095151D01*
X67132546Y-67100028D01*
X67145631Y-67106217D01*
X67158047Y-67113658D01*
X67169673Y-67122281D01*
X67180398Y-67132002D01*
X67190119Y-67142727D01*
X67198742Y-67154353D01*
X67206183Y-67166769D01*
X67212372Y-67179854D01*
X67217249Y-67193483D01*
X67220766Y-67207524D01*
X67222890Y-67221842D01*
X67223600Y-67236300D01*
X67223600Y-67531300D01*
X67222890Y-67545758D01*
X67220766Y-67560076D01*
X67217249Y-67574117D01*
X67212372Y-67587746D01*
X67206183Y-67600831D01*
X67198742Y-67613247D01*
X67190119Y-67624873D01*
X67180398Y-67635598D01*
X67169673Y-67645319D01*
X67158047Y-67653942D01*
X67145631Y-67661383D01*
X67132546Y-67667572D01*
X67118917Y-67672449D01*
X67104876Y-67675966D01*
X67090558Y-67678090D01*
X67076100Y-67678800D01*
X66731100Y-67678800D01*
X66716642Y-67678090D01*
X66702324Y-67675966D01*
X66688283Y-67672449D01*
X66674654Y-67667572D01*
X66661569Y-67661383D01*
X66649153Y-67653942D01*
X66637527Y-67645319D01*
X66626802Y-67635598D01*
X66617081Y-67624873D01*
X66608458Y-67613247D01*
X66601017Y-67600831D01*
X66594828Y-67587746D01*
X66589951Y-67574117D01*
X66586434Y-67560076D01*
X66584310Y-67545758D01*
X66583600Y-67531300D01*
X66583600Y-67236300D01*
X66584310Y-67221842D01*
X66586434Y-67207524D01*
X66589951Y-67193483D01*
X66594828Y-67179854D01*
X66601017Y-67166769D01*
X66608458Y-67154353D01*
X66617081Y-67142727D01*
X66626802Y-67132002D01*
X66637527Y-67122281D01*
X66649153Y-67113658D01*
X66661569Y-67106217D01*
X66674654Y-67100028D01*
X66688283Y-67095151D01*
X66702324Y-67091634D01*
X66716642Y-67089510D01*
X66731100Y-67088800D01*
X67076100Y-67088800D01*
X67090558Y-67089510D01*
G37*
G36*
X62595158Y-66889110D02*
G01*
X62609476Y-66891234D01*
X62623517Y-66894751D01*
X62637146Y-66899628D01*
X62650231Y-66905817D01*
X62662647Y-66913258D01*
X62674273Y-66921881D01*
X62684998Y-66931602D01*
X62694719Y-66942327D01*
X62703342Y-66953953D01*
X62710783Y-66966369D01*
X62716972Y-66979454D01*
X62721849Y-66993083D01*
X62725366Y-67007124D01*
X62727490Y-67021442D01*
X62728200Y-67035900D01*
X62728200Y-67380900D01*
X62727490Y-67395358D01*
X62725366Y-67409676D01*
X62721849Y-67423717D01*
X62716972Y-67437346D01*
X62710783Y-67450431D01*
X62703342Y-67462847D01*
X62694719Y-67474473D01*
X62684998Y-67485198D01*
X62674273Y-67494919D01*
X62662647Y-67503542D01*
X62650231Y-67510983D01*
X62637146Y-67517172D01*
X62623517Y-67522049D01*
X62609476Y-67525566D01*
X62595158Y-67527690D01*
X62580700Y-67528400D01*
X62285700Y-67528400D01*
X62271242Y-67527690D01*
X62256924Y-67525566D01*
X62242883Y-67522049D01*
X62229254Y-67517172D01*
X62216169Y-67510983D01*
X62203753Y-67503542D01*
X62192127Y-67494919D01*
X62181402Y-67485198D01*
X62171681Y-67474473D01*
X62163058Y-67462847D01*
X62155617Y-67450431D01*
X62149428Y-67437346D01*
X62144551Y-67423717D01*
X62141034Y-67409676D01*
X62138910Y-67395358D01*
X62138200Y-67380900D01*
X62138200Y-67035900D01*
X62138910Y-67021442D01*
X62141034Y-67007124D01*
X62144551Y-66993083D01*
X62149428Y-66979454D01*
X62155617Y-66966369D01*
X62163058Y-66953953D01*
X62171681Y-66942327D01*
X62181402Y-66931602D01*
X62192127Y-66921881D01*
X62203753Y-66913258D01*
X62216169Y-66905817D01*
X62229254Y-66899628D01*
X62242883Y-66894751D01*
X62256924Y-66891234D01*
X62271242Y-66889110D01*
X62285700Y-66888400D01*
X62580700Y-66888400D01*
X62595158Y-66889110D01*
G37*
G36*
X63565158Y-66889110D02*
G01*
X63579476Y-66891234D01*
X63593517Y-66894751D01*
X63607146Y-66899628D01*
X63620231Y-66905817D01*
X63632647Y-66913258D01*
X63644273Y-66921881D01*
X63654998Y-66931602D01*
X63664719Y-66942327D01*
X63673342Y-66953953D01*
X63680783Y-66966369D01*
X63686972Y-66979454D01*
X63691849Y-66993083D01*
X63695366Y-67007124D01*
X63697490Y-67021442D01*
X63698200Y-67035900D01*
X63698200Y-67380900D01*
X63697490Y-67395358D01*
X63695366Y-67409676D01*
X63691849Y-67423717D01*
X63686972Y-67437346D01*
X63680783Y-67450431D01*
X63673342Y-67462847D01*
X63664719Y-67474473D01*
X63654998Y-67485198D01*
X63644273Y-67494919D01*
X63632647Y-67503542D01*
X63620231Y-67510983D01*
X63607146Y-67517172D01*
X63593517Y-67522049D01*
X63579476Y-67525566D01*
X63565158Y-67527690D01*
X63550700Y-67528400D01*
X63255700Y-67528400D01*
X63241242Y-67527690D01*
X63226924Y-67525566D01*
X63212883Y-67522049D01*
X63199254Y-67517172D01*
X63186169Y-67510983D01*
X63173753Y-67503542D01*
X63162127Y-67494919D01*
X63151402Y-67485198D01*
X63141681Y-67474473D01*
X63133058Y-67462847D01*
X63125617Y-67450431D01*
X63119428Y-67437346D01*
X63114551Y-67423717D01*
X63111034Y-67409676D01*
X63108910Y-67395358D01*
X63108200Y-67380900D01*
X63108200Y-67035900D01*
X63108910Y-67021442D01*
X63111034Y-67007124D01*
X63114551Y-66993083D01*
X63119428Y-66979454D01*
X63125617Y-66966369D01*
X63133058Y-66953953D01*
X63141681Y-66942327D01*
X63151402Y-66931602D01*
X63162127Y-66921881D01*
X63173753Y-66913258D01*
X63186169Y-66905817D01*
X63199254Y-66899628D01*
X63212883Y-66894751D01*
X63226924Y-66891234D01*
X63241242Y-66889110D01*
X63255700Y-66888400D01*
X63550700Y-66888400D01*
X63565158Y-66889110D01*
G37*
G36*
X60662358Y-66889110D02*
G01*
X60676676Y-66891234D01*
X60690717Y-66894751D01*
X60704346Y-66899628D01*
X60717431Y-66905817D01*
X60729847Y-66913258D01*
X60741473Y-66921881D01*
X60752198Y-66931602D01*
X60761919Y-66942327D01*
X60770542Y-66953953D01*
X60777983Y-66966369D01*
X60784172Y-66979454D01*
X60789049Y-66993083D01*
X60792566Y-67007124D01*
X60794690Y-67021442D01*
X60795400Y-67035900D01*
X60795400Y-67380900D01*
X60794690Y-67395358D01*
X60792566Y-67409676D01*
X60789049Y-67423717D01*
X60784172Y-67437346D01*
X60777983Y-67450431D01*
X60770542Y-67462847D01*
X60761919Y-67474473D01*
X60752198Y-67485198D01*
X60741473Y-67494919D01*
X60729847Y-67503542D01*
X60717431Y-67510983D01*
X60704346Y-67517172D01*
X60690717Y-67522049D01*
X60676676Y-67525566D01*
X60662358Y-67527690D01*
X60647900Y-67528400D01*
X60352900Y-67528400D01*
X60338442Y-67527690D01*
X60324124Y-67525566D01*
X60310083Y-67522049D01*
X60296454Y-67517172D01*
X60283369Y-67510983D01*
X60270953Y-67503542D01*
X60259327Y-67494919D01*
X60248602Y-67485198D01*
X60238881Y-67474473D01*
X60230258Y-67462847D01*
X60222817Y-67450431D01*
X60216628Y-67437346D01*
X60211751Y-67423717D01*
X60208234Y-67409676D01*
X60206110Y-67395358D01*
X60205400Y-67380900D01*
X60205400Y-67035900D01*
X60206110Y-67021442D01*
X60208234Y-67007124D01*
X60211751Y-66993083D01*
X60216628Y-66979454D01*
X60222817Y-66966369D01*
X60230258Y-66953953D01*
X60238881Y-66942327D01*
X60248602Y-66931602D01*
X60259327Y-66921881D01*
X60270953Y-66913258D01*
X60283369Y-66905817D01*
X60296454Y-66899628D01*
X60310083Y-66894751D01*
X60324124Y-66891234D01*
X60338442Y-66889110D01*
X60352900Y-66888400D01*
X60647900Y-66888400D01*
X60662358Y-66889110D01*
G37*
G36*
X61632358Y-66889110D02*
G01*
X61646676Y-66891234D01*
X61660717Y-66894751D01*
X61674346Y-66899628D01*
X61687431Y-66905817D01*
X61699847Y-66913258D01*
X61711473Y-66921881D01*
X61722198Y-66931602D01*
X61731919Y-66942327D01*
X61740542Y-66953953D01*
X61747983Y-66966369D01*
X61754172Y-66979454D01*
X61759049Y-66993083D01*
X61762566Y-67007124D01*
X61764690Y-67021442D01*
X61765400Y-67035900D01*
X61765400Y-67380900D01*
X61764690Y-67395358D01*
X61762566Y-67409676D01*
X61759049Y-67423717D01*
X61754172Y-67437346D01*
X61747983Y-67450431D01*
X61740542Y-67462847D01*
X61731919Y-67474473D01*
X61722198Y-67485198D01*
X61711473Y-67494919D01*
X61699847Y-67503542D01*
X61687431Y-67510983D01*
X61674346Y-67517172D01*
X61660717Y-67522049D01*
X61646676Y-67525566D01*
X61632358Y-67527690D01*
X61617900Y-67528400D01*
X61322900Y-67528400D01*
X61308442Y-67527690D01*
X61294124Y-67525566D01*
X61280083Y-67522049D01*
X61266454Y-67517172D01*
X61253369Y-67510983D01*
X61240953Y-67503542D01*
X61229327Y-67494919D01*
X61218602Y-67485198D01*
X61208881Y-67474473D01*
X61200258Y-67462847D01*
X61192817Y-67450431D01*
X61186628Y-67437346D01*
X61181751Y-67423717D01*
X61178234Y-67409676D01*
X61176110Y-67395358D01*
X61175400Y-67380900D01*
X61175400Y-67035900D01*
X61176110Y-67021442D01*
X61178234Y-67007124D01*
X61181751Y-66993083D01*
X61186628Y-66979454D01*
X61192817Y-66966369D01*
X61200258Y-66953953D01*
X61208881Y-66942327D01*
X61218602Y-66931602D01*
X61229327Y-66921881D01*
X61240953Y-66913258D01*
X61253369Y-66905817D01*
X61266454Y-66899628D01*
X61280083Y-66894751D01*
X61294124Y-66891234D01*
X61308442Y-66889110D01*
X61322900Y-66888400D01*
X61617900Y-66888400D01*
X61632358Y-66889110D01*
G37*
G36*
X45870691Y-70988253D02*
G01*
X45891926Y-70991403D01*
X45912750Y-70996619D01*
X45932962Y-71003851D01*
X45952368Y-71013030D01*
X45970781Y-71024066D01*
X45988024Y-71036854D01*
X46003930Y-71051270D01*
X46018346Y-71067176D01*
X46031134Y-71084419D01*
X46042170Y-71102832D01*
X46051349Y-71122238D01*
X46058581Y-71142450D01*
X46063797Y-71163274D01*
X46066947Y-71184509D01*
X46068000Y-71205950D01*
X46068000Y-71643450D01*
X46066947Y-71664891D01*
X46063797Y-71686126D01*
X46058581Y-71706950D01*
X46051349Y-71727162D01*
X46042170Y-71746568D01*
X46031134Y-71764981D01*
X46018346Y-71782224D01*
X46003930Y-71798130D01*
X45988024Y-71812546D01*
X45970781Y-71825334D01*
X45952368Y-71836370D01*
X45932962Y-71845549D01*
X45912750Y-71852781D01*
X45891926Y-71857997D01*
X45870691Y-71861147D01*
X45849250Y-71862200D01*
X45336750Y-71862200D01*
X45315309Y-71861147D01*
X45294074Y-71857997D01*
X45273250Y-71852781D01*
X45253038Y-71845549D01*
X45233632Y-71836370D01*
X45215219Y-71825334D01*
X45197976Y-71812546D01*
X45182070Y-71798130D01*
X45167654Y-71782224D01*
X45154866Y-71764981D01*
X45143830Y-71746568D01*
X45134651Y-71727162D01*
X45127419Y-71706950D01*
X45122203Y-71686126D01*
X45119053Y-71664891D01*
X45118000Y-71643450D01*
X45118000Y-71205950D01*
X45119053Y-71184509D01*
X45122203Y-71163274D01*
X45127419Y-71142450D01*
X45134651Y-71122238D01*
X45143830Y-71102832D01*
X45154866Y-71084419D01*
X45167654Y-71067176D01*
X45182070Y-71051270D01*
X45197976Y-71036854D01*
X45215219Y-71024066D01*
X45233632Y-71013030D01*
X45253038Y-71003851D01*
X45273250Y-70996619D01*
X45294074Y-70991403D01*
X45315309Y-70988253D01*
X45336750Y-70987200D01*
X45849250Y-70987200D01*
X45870691Y-70988253D01*
G37*
G36*
X45870691Y-72563253D02*
G01*
X45891926Y-72566403D01*
X45912750Y-72571619D01*
X45932962Y-72578851D01*
X45952368Y-72588030D01*
X45970781Y-72599066D01*
X45988024Y-72611854D01*
X46003930Y-72626270D01*
X46018346Y-72642176D01*
X46031134Y-72659419D01*
X46042170Y-72677832D01*
X46051349Y-72697238D01*
X46058581Y-72717450D01*
X46063797Y-72738274D01*
X46066947Y-72759509D01*
X46068000Y-72780950D01*
X46068000Y-73218450D01*
X46066947Y-73239891D01*
X46063797Y-73261126D01*
X46058581Y-73281950D01*
X46051349Y-73302162D01*
X46042170Y-73321568D01*
X46031134Y-73339981D01*
X46018346Y-73357224D01*
X46003930Y-73373130D01*
X45988024Y-73387546D01*
X45970781Y-73400334D01*
X45952368Y-73411370D01*
X45932962Y-73420549D01*
X45912750Y-73427781D01*
X45891926Y-73432997D01*
X45870691Y-73436147D01*
X45849250Y-73437200D01*
X45336750Y-73437200D01*
X45315309Y-73436147D01*
X45294074Y-73432997D01*
X45273250Y-73427781D01*
X45253038Y-73420549D01*
X45233632Y-73411370D01*
X45215219Y-73400334D01*
X45197976Y-73387546D01*
X45182070Y-73373130D01*
X45167654Y-73357224D01*
X45154866Y-73339981D01*
X45143830Y-73321568D01*
X45134651Y-73302162D01*
X45127419Y-73281950D01*
X45122203Y-73261126D01*
X45119053Y-73239891D01*
X45118000Y-73218450D01*
X45118000Y-72780950D01*
X45119053Y-72759509D01*
X45122203Y-72738274D01*
X45127419Y-72717450D01*
X45134651Y-72697238D01*
X45143830Y-72677832D01*
X45154866Y-72659419D01*
X45167654Y-72642176D01*
X45182070Y-72626270D01*
X45197976Y-72611854D01*
X45215219Y-72599066D01*
X45233632Y-72588030D01*
X45253038Y-72578851D01*
X45273250Y-72571619D01*
X45294074Y-72566403D01*
X45315309Y-72563253D01*
X45336750Y-72562200D01*
X45849250Y-72562200D01*
X45870691Y-72563253D01*
G37*
G36*
X45779958Y-74303110D02*
G01*
X45794276Y-74305234D01*
X45808317Y-74308751D01*
X45821946Y-74313628D01*
X45835031Y-74319817D01*
X45847447Y-74327258D01*
X45859073Y-74335881D01*
X45869798Y-74345602D01*
X45879519Y-74356327D01*
X45888142Y-74367953D01*
X45895583Y-74380369D01*
X45901772Y-74393454D01*
X45906649Y-74407083D01*
X45910166Y-74421124D01*
X45912290Y-74435442D01*
X45913000Y-74449900D01*
X45913000Y-74744900D01*
X45912290Y-74759358D01*
X45910166Y-74773676D01*
X45906649Y-74787717D01*
X45901772Y-74801346D01*
X45895583Y-74814431D01*
X45888142Y-74826847D01*
X45879519Y-74838473D01*
X45869798Y-74849198D01*
X45859073Y-74858919D01*
X45847447Y-74867542D01*
X45835031Y-74874983D01*
X45821946Y-74881172D01*
X45808317Y-74886049D01*
X45794276Y-74889566D01*
X45779958Y-74891690D01*
X45765500Y-74892400D01*
X45420500Y-74892400D01*
X45406042Y-74891690D01*
X45391724Y-74889566D01*
X45377683Y-74886049D01*
X45364054Y-74881172D01*
X45350969Y-74874983D01*
X45338553Y-74867542D01*
X45326927Y-74858919D01*
X45316202Y-74849198D01*
X45306481Y-74838473D01*
X45297858Y-74826847D01*
X45290417Y-74814431D01*
X45284228Y-74801346D01*
X45279351Y-74787717D01*
X45275834Y-74773676D01*
X45273710Y-74759358D01*
X45273000Y-74744900D01*
X45273000Y-74449900D01*
X45273710Y-74435442D01*
X45275834Y-74421124D01*
X45279351Y-74407083D01*
X45284228Y-74393454D01*
X45290417Y-74380369D01*
X45297858Y-74367953D01*
X45306481Y-74356327D01*
X45316202Y-74345602D01*
X45326927Y-74335881D01*
X45338553Y-74327258D01*
X45350969Y-74319817D01*
X45364054Y-74313628D01*
X45377683Y-74308751D01*
X45391724Y-74305234D01*
X45406042Y-74303110D01*
X45420500Y-74302400D01*
X45765500Y-74302400D01*
X45779958Y-74303110D01*
G37*
G36*
X45779958Y-75273110D02*
G01*
X45794276Y-75275234D01*
X45808317Y-75278751D01*
X45821946Y-75283628D01*
X45835031Y-75289817D01*
X45847447Y-75297258D01*
X45859073Y-75305881D01*
X45869798Y-75315602D01*
X45879519Y-75326327D01*
X45888142Y-75337953D01*
X45895583Y-75350369D01*
X45901772Y-75363454D01*
X45906649Y-75377083D01*
X45910166Y-75391124D01*
X45912290Y-75405442D01*
X45913000Y-75419900D01*
X45913000Y-75714900D01*
X45912290Y-75729358D01*
X45910166Y-75743676D01*
X45906649Y-75757717D01*
X45901772Y-75771346D01*
X45895583Y-75784431D01*
X45888142Y-75796847D01*
X45879519Y-75808473D01*
X45869798Y-75819198D01*
X45859073Y-75828919D01*
X45847447Y-75837542D01*
X45835031Y-75844983D01*
X45821946Y-75851172D01*
X45808317Y-75856049D01*
X45794276Y-75859566D01*
X45779958Y-75861690D01*
X45765500Y-75862400D01*
X45420500Y-75862400D01*
X45406042Y-75861690D01*
X45391724Y-75859566D01*
X45377683Y-75856049D01*
X45364054Y-75851172D01*
X45350969Y-75844983D01*
X45338553Y-75837542D01*
X45326927Y-75828919D01*
X45316202Y-75819198D01*
X45306481Y-75808473D01*
X45297858Y-75796847D01*
X45290417Y-75784431D01*
X45284228Y-75771346D01*
X45279351Y-75757717D01*
X45275834Y-75743676D01*
X45273710Y-75729358D01*
X45273000Y-75714900D01*
X45273000Y-75419900D01*
X45273710Y-75405442D01*
X45275834Y-75391124D01*
X45279351Y-75377083D01*
X45284228Y-75363454D01*
X45290417Y-75350369D01*
X45297858Y-75337953D01*
X45306481Y-75326327D01*
X45316202Y-75315602D01*
X45326927Y-75305881D01*
X45338553Y-75297258D01*
X45350969Y-75289817D01*
X45364054Y-75283628D01*
X45377683Y-75278751D01*
X45391724Y-75275234D01*
X45406042Y-75273110D01*
X45420500Y-75272400D01*
X45765500Y-75272400D01*
X45779958Y-75273110D01*
G37*
D11*
X43797600Y-72229800D03*
D12*
X42077600Y-72229800D03*
X43977600Y-74429800D03*
X42077600Y-74429800D03*
D13*
X50757000Y-77404000D03*
X50757000Y-75504000D03*
X48557000Y-77404000D03*
D14*
X48557000Y-75684000D03*
D15*
X66131000Y-77539800D03*
X66131000Y-70389800D03*
X61631000Y-77539800D03*
X61631000Y-70389800D03*
D16*
X86817200Y-76231000D03*
X86817200Y-70581000D03*
M02*
