G04 #@! TF.GenerationSoftware,KiCad,Pcbnew,(5.1.5)-3*
G04 #@! TF.CreationDate,2020-07-02T22:05:55+02:00*
G04 #@! TF.ProjectId,Theo3,5468656f-332e-46b6-9963-61645f706362,rev?*
G04 #@! TF.SameCoordinates,Original*
G04 #@! TF.FileFunction,Legend,Bot*
G04 #@! TF.FilePolarity,Positive*
%FSLAX46Y46*%
G04 Gerber Fmt 4.6, Leading zero omitted, Abs format (unit mm)*
G04 Created by KiCad (PCBNEW (5.1.5)-3) date 2020-07-02 22:05:55*
%MOMM*%
%LPD*%
G04 APERTURE LIST*
%ADD10C,0.120000*%
%ADD11C,0.076200*%
%ADD12C,0.150000*%
G04 APERTURE END LIST*
D10*
X45083000Y-72049421D02*
X45083000Y-72374979D01*
X46103000Y-72049421D02*
X46103000Y-72374979D01*
X41477600Y-72129800D02*
X41477600Y-74529800D01*
X44577600Y-74529800D02*
X44577600Y-71579800D01*
X50857000Y-74904000D02*
X47907000Y-74904000D01*
X48457000Y-78004000D02*
X50857000Y-78004000D01*
X67081000Y-77114800D02*
X67331000Y-77114800D01*
X67331000Y-77114800D02*
X67331000Y-70814800D01*
X67331000Y-70814800D02*
X67081000Y-70814800D01*
X62581000Y-77114800D02*
X65181000Y-77114800D01*
X60681000Y-70814800D02*
X60431000Y-70814800D01*
X60431000Y-70814800D02*
X60431000Y-77114800D01*
X60431000Y-77114800D02*
X60681000Y-77114800D01*
X65181000Y-70814800D02*
X62581000Y-70814800D01*
D11*
X45652266Y-78972228D02*
X45676457Y-78996419D01*
X45749028Y-79020609D01*
X45797409Y-79020609D01*
X45869980Y-78996419D01*
X45918361Y-78948038D01*
X45942552Y-78899657D01*
X45966742Y-78802895D01*
X45966742Y-78730323D01*
X45942552Y-78633561D01*
X45918361Y-78585180D01*
X45869980Y-78536800D01*
X45797409Y-78512609D01*
X45749028Y-78512609D01*
X45676457Y-78536800D01*
X45652266Y-78560990D01*
X45482933Y-78512609D02*
X45168457Y-78512609D01*
X45337790Y-78706133D01*
X45265219Y-78706133D01*
X45216838Y-78730323D01*
X45192647Y-78754514D01*
X45168457Y-78802895D01*
X45168457Y-78923847D01*
X45192647Y-78972228D01*
X45216838Y-78996419D01*
X45265219Y-79020609D01*
X45410361Y-79020609D01*
X45458742Y-78996419D01*
X45482933Y-78972228D01*
X67110428Y-66310933D02*
X67134619Y-66286742D01*
X67158809Y-66214171D01*
X67158809Y-66165790D01*
X67134619Y-66093219D01*
X67086238Y-66044838D01*
X67037857Y-66020647D01*
X66941095Y-65996457D01*
X66868523Y-65996457D01*
X66771761Y-66020647D01*
X66723380Y-66044838D01*
X66675000Y-66093219D01*
X66650809Y-66165790D01*
X66650809Y-66214171D01*
X66675000Y-66286742D01*
X66699190Y-66310933D01*
X66650809Y-66746361D02*
X66650809Y-66649600D01*
X66675000Y-66601219D01*
X66699190Y-66577028D01*
X66771761Y-66528647D01*
X66868523Y-66504457D01*
X67062047Y-66504457D01*
X67110428Y-66528647D01*
X67134619Y-66552838D01*
X67158809Y-66601219D01*
X67158809Y-66697980D01*
X67134619Y-66746361D01*
X67110428Y-66770552D01*
X67062047Y-66794742D01*
X66941095Y-66794742D01*
X66892714Y-66770552D01*
X66868523Y-66746361D01*
X66844333Y-66697980D01*
X66844333Y-66601219D01*
X66868523Y-66552838D01*
X66892714Y-66528647D01*
X66941095Y-66504457D01*
X69371028Y-66133133D02*
X69395219Y-66108942D01*
X69419409Y-66036371D01*
X69419409Y-65987990D01*
X69395219Y-65915419D01*
X69346838Y-65867038D01*
X69298457Y-65842847D01*
X69201695Y-65818657D01*
X69129123Y-65818657D01*
X69032361Y-65842847D01*
X68983980Y-65867038D01*
X68935600Y-65915419D01*
X68911409Y-65987990D01*
X68911409Y-66036371D01*
X68935600Y-66108942D01*
X68959790Y-66133133D01*
X68911409Y-66302466D02*
X68911409Y-66641133D01*
X69419409Y-66423419D01*
X63369371Y-66424628D02*
X63393561Y-66448819D01*
X63466133Y-66473009D01*
X63514514Y-66473009D01*
X63587085Y-66448819D01*
X63635466Y-66400438D01*
X63659657Y-66352057D01*
X63683847Y-66255295D01*
X63683847Y-66182723D01*
X63659657Y-66085961D01*
X63635466Y-66037580D01*
X63587085Y-65989200D01*
X63514514Y-65965009D01*
X63466133Y-65965009D01*
X63393561Y-65989200D01*
X63369371Y-66013390D01*
X62885561Y-66473009D02*
X63175847Y-66473009D01*
X63030704Y-66473009D02*
X63030704Y-65965009D01*
X63079085Y-66037580D01*
X63127466Y-66085961D01*
X63175847Y-66110152D01*
X62425942Y-65965009D02*
X62667847Y-65965009D01*
X62692038Y-66206914D01*
X62667847Y-66182723D01*
X62619466Y-66158533D01*
X62498514Y-66158533D01*
X62450133Y-66182723D01*
X62425942Y-66206914D01*
X62401752Y-66255295D01*
X62401752Y-66376247D01*
X62425942Y-66424628D01*
X62450133Y-66448819D01*
X62498514Y-66473009D01*
X62619466Y-66473009D01*
X62667847Y-66448819D01*
X62692038Y-66424628D01*
X61286571Y-66424628D02*
X61310761Y-66448819D01*
X61383333Y-66473009D01*
X61431714Y-66473009D01*
X61504285Y-66448819D01*
X61552666Y-66400438D01*
X61576857Y-66352057D01*
X61601047Y-66255295D01*
X61601047Y-66182723D01*
X61576857Y-66085961D01*
X61552666Y-66037580D01*
X61504285Y-65989200D01*
X61431714Y-65965009D01*
X61383333Y-65965009D01*
X61310761Y-65989200D01*
X61286571Y-66013390D01*
X60802761Y-66473009D02*
X61093047Y-66473009D01*
X60947904Y-66473009D02*
X60947904Y-65965009D01*
X60996285Y-66037580D01*
X61044666Y-66085961D01*
X61093047Y-66110152D01*
X60367333Y-65965009D02*
X60464095Y-65965009D01*
X60512476Y-65989200D01*
X60536666Y-66013390D01*
X60585047Y-66085961D01*
X60609238Y-66182723D01*
X60609238Y-66376247D01*
X60585047Y-66424628D01*
X60560857Y-66448819D01*
X60512476Y-66473009D01*
X60415714Y-66473009D01*
X60367333Y-66448819D01*
X60343142Y-66424628D01*
X60318952Y-66376247D01*
X60318952Y-66255295D01*
X60343142Y-66206914D01*
X60367333Y-66182723D01*
X60415714Y-66158533D01*
X60512476Y-66158533D01*
X60560857Y-66182723D01*
X60585047Y-66206914D01*
X60609238Y-66255295D01*
X45723628Y-69625028D02*
X45747819Y-69600838D01*
X45772009Y-69528266D01*
X45772009Y-69479885D01*
X45747819Y-69407314D01*
X45699438Y-69358933D01*
X45651057Y-69334742D01*
X45554295Y-69310552D01*
X45481723Y-69310552D01*
X45384961Y-69334742D01*
X45336580Y-69358933D01*
X45288200Y-69407314D01*
X45264009Y-69479885D01*
X45264009Y-69528266D01*
X45288200Y-69600838D01*
X45312390Y-69625028D01*
X45312390Y-69818552D02*
X45288200Y-69842742D01*
X45264009Y-69891123D01*
X45264009Y-70012076D01*
X45288200Y-70060457D01*
X45312390Y-70084647D01*
X45360771Y-70108838D01*
X45409152Y-70108838D01*
X45481723Y-70084647D01*
X45772009Y-69794361D01*
X45772009Y-70108838D01*
X45433342Y-70544266D02*
X45772009Y-70544266D01*
X45239819Y-70423314D02*
X45602676Y-70302361D01*
X45602676Y-70616838D01*
X45774428Y-76483028D02*
X45798619Y-76458838D01*
X45822809Y-76386266D01*
X45822809Y-76337885D01*
X45798619Y-76265314D01*
X45750238Y-76216933D01*
X45701857Y-76192742D01*
X45605095Y-76168552D01*
X45532523Y-76168552D01*
X45435761Y-76192742D01*
X45387380Y-76216933D01*
X45339000Y-76265314D01*
X45314809Y-76337885D01*
X45314809Y-76386266D01*
X45339000Y-76458838D01*
X45363190Y-76483028D01*
X45363190Y-76676552D02*
X45339000Y-76700742D01*
X45314809Y-76749123D01*
X45314809Y-76870076D01*
X45339000Y-76918457D01*
X45363190Y-76942647D01*
X45411571Y-76966838D01*
X45459952Y-76966838D01*
X45532523Y-76942647D01*
X45822809Y-76652361D01*
X45822809Y-76966838D01*
X45314809Y-77426457D02*
X45314809Y-77184552D01*
X45556714Y-77160361D01*
X45532523Y-77184552D01*
X45508333Y-77232933D01*
X45508333Y-77353885D01*
X45532523Y-77402266D01*
X45556714Y-77426457D01*
X45605095Y-77450647D01*
X45726047Y-77450647D01*
X45774428Y-77426457D01*
X45798619Y-77402266D01*
X45822809Y-77353885D01*
X45822809Y-77232933D01*
X45798619Y-77184552D01*
X45774428Y-77160361D01*
X41149209Y-72929447D02*
X40641209Y-72929447D01*
X40641209Y-73050400D01*
X40665400Y-73122971D01*
X40713780Y-73171352D01*
X40762161Y-73195542D01*
X40858923Y-73219733D01*
X40931495Y-73219733D01*
X41028257Y-73195542D01*
X41076638Y-73171352D01*
X41125019Y-73122971D01*
X41149209Y-73050400D01*
X41149209Y-72929447D01*
X40689590Y-73413257D02*
X40665400Y-73437447D01*
X40641209Y-73485828D01*
X40641209Y-73606780D01*
X40665400Y-73655161D01*
X40689590Y-73679352D01*
X40737971Y-73703542D01*
X40786352Y-73703542D01*
X40858923Y-73679352D01*
X41149209Y-73389066D01*
X41149209Y-73703542D01*
X50031952Y-78792009D02*
X50031952Y-78284009D01*
X49911000Y-78284009D01*
X49838428Y-78308200D01*
X49790047Y-78356580D01*
X49765857Y-78404961D01*
X49741666Y-78501723D01*
X49741666Y-78574295D01*
X49765857Y-78671057D01*
X49790047Y-78719438D01*
X49838428Y-78767819D01*
X49911000Y-78792009D01*
X50031952Y-78792009D01*
X49282047Y-78284009D02*
X49523952Y-78284009D01*
X49548142Y-78525914D01*
X49523952Y-78501723D01*
X49475571Y-78477533D01*
X49354619Y-78477533D01*
X49306238Y-78501723D01*
X49282047Y-78525914D01*
X49257857Y-78574295D01*
X49257857Y-78695247D01*
X49282047Y-78743628D01*
X49306238Y-78767819D01*
X49354619Y-78792009D01*
X49475571Y-78792009D01*
X49523952Y-78767819D01*
X49548142Y-78743628D01*
D12*
X59688361Y-72860066D02*
X59735980Y-73002923D01*
X59735980Y-73241019D01*
X59688361Y-73336257D01*
X59640742Y-73383876D01*
X59545504Y-73431495D01*
X59450266Y-73431495D01*
X59355028Y-73383876D01*
X59307409Y-73336257D01*
X59259790Y-73241019D01*
X59212171Y-73050542D01*
X59164552Y-72955304D01*
X59116933Y-72907685D01*
X59021695Y-72860066D01*
X58926457Y-72860066D01*
X58831219Y-72907685D01*
X58783600Y-72955304D01*
X58735980Y-73050542D01*
X58735980Y-73288638D01*
X58783600Y-73431495D01*
X58735980Y-73764828D02*
X59735980Y-74002923D01*
X59021695Y-74193400D01*
X59735980Y-74383876D01*
X58735980Y-74621971D01*
X59735980Y-75526733D02*
X59735980Y-74955304D01*
X59735980Y-75241019D02*
X58735980Y-75241019D01*
X58878838Y-75145780D01*
X58974076Y-75050542D01*
X59021695Y-74955304D01*
M02*
