G04 #@! TF.GenerationSoftware,KiCad,Pcbnew,(5.1.5)-3*
G04 #@! TF.CreationDate,2020-07-02T22:05:55+02:00*
G04 #@! TF.ProjectId,Theo3,5468656f-332e-46b6-9963-61645f706362,rev?*
G04 #@! TF.SameCoordinates,Original*
G04 #@! TF.FileFunction,Copper,L2,Bot*
G04 #@! TF.FilePolarity,Positive*
%FSLAX46Y46*%
G04 Gerber Fmt 4.6, Leading zero omitted, Abs format (unit mm)*
G04 Created by KiCad (PCBNEW (5.1.5)-3) date 2020-07-02 22:05:55*
%MOMM*%
%LPD*%
G04 APERTURE LIST*
%ADD10C,0.500000*%
%ADD11C,0.100000*%
%ADD12R,1.200000X1.400000*%
%ADD13R,1.000000X1.400000*%
%ADD14R,1.400000X1.000000*%
%ADD15R,1.400000X1.200000*%
%ADD16O,1.700000X1.700000*%
%ADD17R,1.700000X1.700000*%
%ADD18O,3.800000X1.900000*%
%ADD19R,1.300000X1.550000*%
%ADD20R,4.200000X1.350000*%
%ADD21C,0.508000*%
%ADD22C,0.800000*%
%ADD23C,0.762000*%
%ADD24C,0.762000*%
%ADD25C,0.508000*%
%ADD26C,0.203200*%
%ADD27C,0.254000*%
G04 APERTURE END LIST*
D10*
X87706200Y-80518000D03*
X41148000Y-66243200D03*
G04 #@! TA.AperFunction,SMDPad,CuDef*
D11*
G36*
X46214558Y-79258910D02*
G01*
X46228876Y-79261034D01*
X46242917Y-79264551D01*
X46256546Y-79269428D01*
X46269631Y-79275617D01*
X46282047Y-79283058D01*
X46293673Y-79291681D01*
X46304398Y-79301402D01*
X46314119Y-79312127D01*
X46322742Y-79323753D01*
X46330183Y-79336169D01*
X46336372Y-79349254D01*
X46341249Y-79362883D01*
X46344766Y-79376924D01*
X46346890Y-79391242D01*
X46347600Y-79405700D01*
X46347600Y-79750700D01*
X46346890Y-79765158D01*
X46344766Y-79779476D01*
X46341249Y-79793517D01*
X46336372Y-79807146D01*
X46330183Y-79820231D01*
X46322742Y-79832647D01*
X46314119Y-79844273D01*
X46304398Y-79854998D01*
X46293673Y-79864719D01*
X46282047Y-79873342D01*
X46269631Y-79880783D01*
X46256546Y-79886972D01*
X46242917Y-79891849D01*
X46228876Y-79895366D01*
X46214558Y-79897490D01*
X46200100Y-79898200D01*
X45905100Y-79898200D01*
X45890642Y-79897490D01*
X45876324Y-79895366D01*
X45862283Y-79891849D01*
X45848654Y-79886972D01*
X45835569Y-79880783D01*
X45823153Y-79873342D01*
X45811527Y-79864719D01*
X45800802Y-79854998D01*
X45791081Y-79844273D01*
X45782458Y-79832647D01*
X45775017Y-79820231D01*
X45768828Y-79807146D01*
X45763951Y-79793517D01*
X45760434Y-79779476D01*
X45758310Y-79765158D01*
X45757600Y-79750700D01*
X45757600Y-79405700D01*
X45758310Y-79391242D01*
X45760434Y-79376924D01*
X45763951Y-79362883D01*
X45768828Y-79349254D01*
X45775017Y-79336169D01*
X45782458Y-79323753D01*
X45791081Y-79312127D01*
X45800802Y-79301402D01*
X45811527Y-79291681D01*
X45823153Y-79283058D01*
X45835569Y-79275617D01*
X45848654Y-79269428D01*
X45862283Y-79264551D01*
X45876324Y-79261034D01*
X45890642Y-79258910D01*
X45905100Y-79258200D01*
X46200100Y-79258200D01*
X46214558Y-79258910D01*
G37*
G04 #@! TD.AperFunction*
G04 #@! TA.AperFunction,SMDPad,CuDef*
G36*
X45244558Y-79258910D02*
G01*
X45258876Y-79261034D01*
X45272917Y-79264551D01*
X45286546Y-79269428D01*
X45299631Y-79275617D01*
X45312047Y-79283058D01*
X45323673Y-79291681D01*
X45334398Y-79301402D01*
X45344119Y-79312127D01*
X45352742Y-79323753D01*
X45360183Y-79336169D01*
X45366372Y-79349254D01*
X45371249Y-79362883D01*
X45374766Y-79376924D01*
X45376890Y-79391242D01*
X45377600Y-79405700D01*
X45377600Y-79750700D01*
X45376890Y-79765158D01*
X45374766Y-79779476D01*
X45371249Y-79793517D01*
X45366372Y-79807146D01*
X45360183Y-79820231D01*
X45352742Y-79832647D01*
X45344119Y-79844273D01*
X45334398Y-79854998D01*
X45323673Y-79864719D01*
X45312047Y-79873342D01*
X45299631Y-79880783D01*
X45286546Y-79886972D01*
X45272917Y-79891849D01*
X45258876Y-79895366D01*
X45244558Y-79897490D01*
X45230100Y-79898200D01*
X44935100Y-79898200D01*
X44920642Y-79897490D01*
X44906324Y-79895366D01*
X44892283Y-79891849D01*
X44878654Y-79886972D01*
X44865569Y-79880783D01*
X44853153Y-79873342D01*
X44841527Y-79864719D01*
X44830802Y-79854998D01*
X44821081Y-79844273D01*
X44812458Y-79832647D01*
X44805017Y-79820231D01*
X44798828Y-79807146D01*
X44793951Y-79793517D01*
X44790434Y-79779476D01*
X44788310Y-79765158D01*
X44787600Y-79750700D01*
X44787600Y-79405700D01*
X44788310Y-79391242D01*
X44790434Y-79376924D01*
X44793951Y-79362883D01*
X44798828Y-79349254D01*
X44805017Y-79336169D01*
X44812458Y-79323753D01*
X44821081Y-79312127D01*
X44830802Y-79301402D01*
X44841527Y-79291681D01*
X44853153Y-79283058D01*
X44865569Y-79275617D01*
X44878654Y-79269428D01*
X44892283Y-79264551D01*
X44906324Y-79261034D01*
X44920642Y-79258910D01*
X44935100Y-79258200D01*
X45230100Y-79258200D01*
X45244558Y-79258910D01*
G37*
G04 #@! TD.AperFunction*
G04 #@! TA.AperFunction,SMDPad,CuDef*
G36*
X69249558Y-67856310D02*
G01*
X69263876Y-67858434D01*
X69277917Y-67861951D01*
X69291546Y-67866828D01*
X69304631Y-67873017D01*
X69317047Y-67880458D01*
X69328673Y-67889081D01*
X69339398Y-67898802D01*
X69349119Y-67909527D01*
X69357742Y-67921153D01*
X69365183Y-67933569D01*
X69371372Y-67946654D01*
X69376249Y-67960283D01*
X69379766Y-67974324D01*
X69381890Y-67988642D01*
X69382600Y-68003100D01*
X69382600Y-68298100D01*
X69381890Y-68312558D01*
X69379766Y-68326876D01*
X69376249Y-68340917D01*
X69371372Y-68354546D01*
X69365183Y-68367631D01*
X69357742Y-68380047D01*
X69349119Y-68391673D01*
X69339398Y-68402398D01*
X69328673Y-68412119D01*
X69317047Y-68420742D01*
X69304631Y-68428183D01*
X69291546Y-68434372D01*
X69277917Y-68439249D01*
X69263876Y-68442766D01*
X69249558Y-68444890D01*
X69235100Y-68445600D01*
X68890100Y-68445600D01*
X68875642Y-68444890D01*
X68861324Y-68442766D01*
X68847283Y-68439249D01*
X68833654Y-68434372D01*
X68820569Y-68428183D01*
X68808153Y-68420742D01*
X68796527Y-68412119D01*
X68785802Y-68402398D01*
X68776081Y-68391673D01*
X68767458Y-68380047D01*
X68760017Y-68367631D01*
X68753828Y-68354546D01*
X68748951Y-68340917D01*
X68745434Y-68326876D01*
X68743310Y-68312558D01*
X68742600Y-68298100D01*
X68742600Y-68003100D01*
X68743310Y-67988642D01*
X68745434Y-67974324D01*
X68748951Y-67960283D01*
X68753828Y-67946654D01*
X68760017Y-67933569D01*
X68767458Y-67921153D01*
X68776081Y-67909527D01*
X68785802Y-67898802D01*
X68796527Y-67889081D01*
X68808153Y-67880458D01*
X68820569Y-67873017D01*
X68833654Y-67866828D01*
X68847283Y-67861951D01*
X68861324Y-67858434D01*
X68875642Y-67856310D01*
X68890100Y-67855600D01*
X69235100Y-67855600D01*
X69249558Y-67856310D01*
G37*
G04 #@! TD.AperFunction*
G04 #@! TA.AperFunction,SMDPad,CuDef*
G36*
X69249558Y-66886310D02*
G01*
X69263876Y-66888434D01*
X69277917Y-66891951D01*
X69291546Y-66896828D01*
X69304631Y-66903017D01*
X69317047Y-66910458D01*
X69328673Y-66919081D01*
X69339398Y-66928802D01*
X69349119Y-66939527D01*
X69357742Y-66951153D01*
X69365183Y-66963569D01*
X69371372Y-66976654D01*
X69376249Y-66990283D01*
X69379766Y-67004324D01*
X69381890Y-67018642D01*
X69382600Y-67033100D01*
X69382600Y-67328100D01*
X69381890Y-67342558D01*
X69379766Y-67356876D01*
X69376249Y-67370917D01*
X69371372Y-67384546D01*
X69365183Y-67397631D01*
X69357742Y-67410047D01*
X69349119Y-67421673D01*
X69339398Y-67432398D01*
X69328673Y-67442119D01*
X69317047Y-67450742D01*
X69304631Y-67458183D01*
X69291546Y-67464372D01*
X69277917Y-67469249D01*
X69263876Y-67472766D01*
X69249558Y-67474890D01*
X69235100Y-67475600D01*
X68890100Y-67475600D01*
X68875642Y-67474890D01*
X68861324Y-67472766D01*
X68847283Y-67469249D01*
X68833654Y-67464372D01*
X68820569Y-67458183D01*
X68808153Y-67450742D01*
X68796527Y-67442119D01*
X68785802Y-67432398D01*
X68776081Y-67421673D01*
X68767458Y-67410047D01*
X68760017Y-67397631D01*
X68753828Y-67384546D01*
X68748951Y-67370917D01*
X68745434Y-67356876D01*
X68743310Y-67342558D01*
X68742600Y-67328100D01*
X68742600Y-67033100D01*
X68743310Y-67018642D01*
X68745434Y-67004324D01*
X68748951Y-66990283D01*
X68753828Y-66976654D01*
X68760017Y-66963569D01*
X68767458Y-66951153D01*
X68776081Y-66939527D01*
X68785802Y-66928802D01*
X68796527Y-66919081D01*
X68808153Y-66910458D01*
X68820569Y-66903017D01*
X68833654Y-66896828D01*
X68847283Y-66891951D01*
X68861324Y-66888434D01*
X68875642Y-66886310D01*
X68890100Y-66885600D01*
X69235100Y-66885600D01*
X69249558Y-66886310D01*
G37*
G04 #@! TD.AperFunction*
G04 #@! TA.AperFunction,SMDPad,CuDef*
G36*
X67090558Y-68059510D02*
G01*
X67104876Y-68061634D01*
X67118917Y-68065151D01*
X67132546Y-68070028D01*
X67145631Y-68076217D01*
X67158047Y-68083658D01*
X67169673Y-68092281D01*
X67180398Y-68102002D01*
X67190119Y-68112727D01*
X67198742Y-68124353D01*
X67206183Y-68136769D01*
X67212372Y-68149854D01*
X67217249Y-68163483D01*
X67220766Y-68177524D01*
X67222890Y-68191842D01*
X67223600Y-68206300D01*
X67223600Y-68501300D01*
X67222890Y-68515758D01*
X67220766Y-68530076D01*
X67217249Y-68544117D01*
X67212372Y-68557746D01*
X67206183Y-68570831D01*
X67198742Y-68583247D01*
X67190119Y-68594873D01*
X67180398Y-68605598D01*
X67169673Y-68615319D01*
X67158047Y-68623942D01*
X67145631Y-68631383D01*
X67132546Y-68637572D01*
X67118917Y-68642449D01*
X67104876Y-68645966D01*
X67090558Y-68648090D01*
X67076100Y-68648800D01*
X66731100Y-68648800D01*
X66716642Y-68648090D01*
X66702324Y-68645966D01*
X66688283Y-68642449D01*
X66674654Y-68637572D01*
X66661569Y-68631383D01*
X66649153Y-68623942D01*
X66637527Y-68615319D01*
X66626802Y-68605598D01*
X66617081Y-68594873D01*
X66608458Y-68583247D01*
X66601017Y-68570831D01*
X66594828Y-68557746D01*
X66589951Y-68544117D01*
X66586434Y-68530076D01*
X66584310Y-68515758D01*
X66583600Y-68501300D01*
X66583600Y-68206300D01*
X66584310Y-68191842D01*
X66586434Y-68177524D01*
X66589951Y-68163483D01*
X66594828Y-68149854D01*
X66601017Y-68136769D01*
X66608458Y-68124353D01*
X66617081Y-68112727D01*
X66626802Y-68102002D01*
X66637527Y-68092281D01*
X66649153Y-68083658D01*
X66661569Y-68076217D01*
X66674654Y-68070028D01*
X66688283Y-68065151D01*
X66702324Y-68061634D01*
X66716642Y-68059510D01*
X66731100Y-68058800D01*
X67076100Y-68058800D01*
X67090558Y-68059510D01*
G37*
G04 #@! TD.AperFunction*
G04 #@! TA.AperFunction,SMDPad,CuDef*
G36*
X67090558Y-67089510D02*
G01*
X67104876Y-67091634D01*
X67118917Y-67095151D01*
X67132546Y-67100028D01*
X67145631Y-67106217D01*
X67158047Y-67113658D01*
X67169673Y-67122281D01*
X67180398Y-67132002D01*
X67190119Y-67142727D01*
X67198742Y-67154353D01*
X67206183Y-67166769D01*
X67212372Y-67179854D01*
X67217249Y-67193483D01*
X67220766Y-67207524D01*
X67222890Y-67221842D01*
X67223600Y-67236300D01*
X67223600Y-67531300D01*
X67222890Y-67545758D01*
X67220766Y-67560076D01*
X67217249Y-67574117D01*
X67212372Y-67587746D01*
X67206183Y-67600831D01*
X67198742Y-67613247D01*
X67190119Y-67624873D01*
X67180398Y-67635598D01*
X67169673Y-67645319D01*
X67158047Y-67653942D01*
X67145631Y-67661383D01*
X67132546Y-67667572D01*
X67118917Y-67672449D01*
X67104876Y-67675966D01*
X67090558Y-67678090D01*
X67076100Y-67678800D01*
X66731100Y-67678800D01*
X66716642Y-67678090D01*
X66702324Y-67675966D01*
X66688283Y-67672449D01*
X66674654Y-67667572D01*
X66661569Y-67661383D01*
X66649153Y-67653942D01*
X66637527Y-67645319D01*
X66626802Y-67635598D01*
X66617081Y-67624873D01*
X66608458Y-67613247D01*
X66601017Y-67600831D01*
X66594828Y-67587746D01*
X66589951Y-67574117D01*
X66586434Y-67560076D01*
X66584310Y-67545758D01*
X66583600Y-67531300D01*
X66583600Y-67236300D01*
X66584310Y-67221842D01*
X66586434Y-67207524D01*
X66589951Y-67193483D01*
X66594828Y-67179854D01*
X66601017Y-67166769D01*
X66608458Y-67154353D01*
X66617081Y-67142727D01*
X66626802Y-67132002D01*
X66637527Y-67122281D01*
X66649153Y-67113658D01*
X66661569Y-67106217D01*
X66674654Y-67100028D01*
X66688283Y-67095151D01*
X66702324Y-67091634D01*
X66716642Y-67089510D01*
X66731100Y-67088800D01*
X67076100Y-67088800D01*
X67090558Y-67089510D01*
G37*
G04 #@! TD.AperFunction*
G04 #@! TA.AperFunction,SMDPad,CuDef*
G36*
X62595158Y-66889110D02*
G01*
X62609476Y-66891234D01*
X62623517Y-66894751D01*
X62637146Y-66899628D01*
X62650231Y-66905817D01*
X62662647Y-66913258D01*
X62674273Y-66921881D01*
X62684998Y-66931602D01*
X62694719Y-66942327D01*
X62703342Y-66953953D01*
X62710783Y-66966369D01*
X62716972Y-66979454D01*
X62721849Y-66993083D01*
X62725366Y-67007124D01*
X62727490Y-67021442D01*
X62728200Y-67035900D01*
X62728200Y-67380900D01*
X62727490Y-67395358D01*
X62725366Y-67409676D01*
X62721849Y-67423717D01*
X62716972Y-67437346D01*
X62710783Y-67450431D01*
X62703342Y-67462847D01*
X62694719Y-67474473D01*
X62684998Y-67485198D01*
X62674273Y-67494919D01*
X62662647Y-67503542D01*
X62650231Y-67510983D01*
X62637146Y-67517172D01*
X62623517Y-67522049D01*
X62609476Y-67525566D01*
X62595158Y-67527690D01*
X62580700Y-67528400D01*
X62285700Y-67528400D01*
X62271242Y-67527690D01*
X62256924Y-67525566D01*
X62242883Y-67522049D01*
X62229254Y-67517172D01*
X62216169Y-67510983D01*
X62203753Y-67503542D01*
X62192127Y-67494919D01*
X62181402Y-67485198D01*
X62171681Y-67474473D01*
X62163058Y-67462847D01*
X62155617Y-67450431D01*
X62149428Y-67437346D01*
X62144551Y-67423717D01*
X62141034Y-67409676D01*
X62138910Y-67395358D01*
X62138200Y-67380900D01*
X62138200Y-67035900D01*
X62138910Y-67021442D01*
X62141034Y-67007124D01*
X62144551Y-66993083D01*
X62149428Y-66979454D01*
X62155617Y-66966369D01*
X62163058Y-66953953D01*
X62171681Y-66942327D01*
X62181402Y-66931602D01*
X62192127Y-66921881D01*
X62203753Y-66913258D01*
X62216169Y-66905817D01*
X62229254Y-66899628D01*
X62242883Y-66894751D01*
X62256924Y-66891234D01*
X62271242Y-66889110D01*
X62285700Y-66888400D01*
X62580700Y-66888400D01*
X62595158Y-66889110D01*
G37*
G04 #@! TD.AperFunction*
G04 #@! TA.AperFunction,SMDPad,CuDef*
G36*
X63565158Y-66889110D02*
G01*
X63579476Y-66891234D01*
X63593517Y-66894751D01*
X63607146Y-66899628D01*
X63620231Y-66905817D01*
X63632647Y-66913258D01*
X63644273Y-66921881D01*
X63654998Y-66931602D01*
X63664719Y-66942327D01*
X63673342Y-66953953D01*
X63680783Y-66966369D01*
X63686972Y-66979454D01*
X63691849Y-66993083D01*
X63695366Y-67007124D01*
X63697490Y-67021442D01*
X63698200Y-67035900D01*
X63698200Y-67380900D01*
X63697490Y-67395358D01*
X63695366Y-67409676D01*
X63691849Y-67423717D01*
X63686972Y-67437346D01*
X63680783Y-67450431D01*
X63673342Y-67462847D01*
X63664719Y-67474473D01*
X63654998Y-67485198D01*
X63644273Y-67494919D01*
X63632647Y-67503542D01*
X63620231Y-67510983D01*
X63607146Y-67517172D01*
X63593517Y-67522049D01*
X63579476Y-67525566D01*
X63565158Y-67527690D01*
X63550700Y-67528400D01*
X63255700Y-67528400D01*
X63241242Y-67527690D01*
X63226924Y-67525566D01*
X63212883Y-67522049D01*
X63199254Y-67517172D01*
X63186169Y-67510983D01*
X63173753Y-67503542D01*
X63162127Y-67494919D01*
X63151402Y-67485198D01*
X63141681Y-67474473D01*
X63133058Y-67462847D01*
X63125617Y-67450431D01*
X63119428Y-67437346D01*
X63114551Y-67423717D01*
X63111034Y-67409676D01*
X63108910Y-67395358D01*
X63108200Y-67380900D01*
X63108200Y-67035900D01*
X63108910Y-67021442D01*
X63111034Y-67007124D01*
X63114551Y-66993083D01*
X63119428Y-66979454D01*
X63125617Y-66966369D01*
X63133058Y-66953953D01*
X63141681Y-66942327D01*
X63151402Y-66931602D01*
X63162127Y-66921881D01*
X63173753Y-66913258D01*
X63186169Y-66905817D01*
X63199254Y-66899628D01*
X63212883Y-66894751D01*
X63226924Y-66891234D01*
X63241242Y-66889110D01*
X63255700Y-66888400D01*
X63550700Y-66888400D01*
X63565158Y-66889110D01*
G37*
G04 #@! TD.AperFunction*
G04 #@! TA.AperFunction,SMDPad,CuDef*
G36*
X60662358Y-66889110D02*
G01*
X60676676Y-66891234D01*
X60690717Y-66894751D01*
X60704346Y-66899628D01*
X60717431Y-66905817D01*
X60729847Y-66913258D01*
X60741473Y-66921881D01*
X60752198Y-66931602D01*
X60761919Y-66942327D01*
X60770542Y-66953953D01*
X60777983Y-66966369D01*
X60784172Y-66979454D01*
X60789049Y-66993083D01*
X60792566Y-67007124D01*
X60794690Y-67021442D01*
X60795400Y-67035900D01*
X60795400Y-67380900D01*
X60794690Y-67395358D01*
X60792566Y-67409676D01*
X60789049Y-67423717D01*
X60784172Y-67437346D01*
X60777983Y-67450431D01*
X60770542Y-67462847D01*
X60761919Y-67474473D01*
X60752198Y-67485198D01*
X60741473Y-67494919D01*
X60729847Y-67503542D01*
X60717431Y-67510983D01*
X60704346Y-67517172D01*
X60690717Y-67522049D01*
X60676676Y-67525566D01*
X60662358Y-67527690D01*
X60647900Y-67528400D01*
X60352900Y-67528400D01*
X60338442Y-67527690D01*
X60324124Y-67525566D01*
X60310083Y-67522049D01*
X60296454Y-67517172D01*
X60283369Y-67510983D01*
X60270953Y-67503542D01*
X60259327Y-67494919D01*
X60248602Y-67485198D01*
X60238881Y-67474473D01*
X60230258Y-67462847D01*
X60222817Y-67450431D01*
X60216628Y-67437346D01*
X60211751Y-67423717D01*
X60208234Y-67409676D01*
X60206110Y-67395358D01*
X60205400Y-67380900D01*
X60205400Y-67035900D01*
X60206110Y-67021442D01*
X60208234Y-67007124D01*
X60211751Y-66993083D01*
X60216628Y-66979454D01*
X60222817Y-66966369D01*
X60230258Y-66953953D01*
X60238881Y-66942327D01*
X60248602Y-66931602D01*
X60259327Y-66921881D01*
X60270953Y-66913258D01*
X60283369Y-66905817D01*
X60296454Y-66899628D01*
X60310083Y-66894751D01*
X60324124Y-66891234D01*
X60338442Y-66889110D01*
X60352900Y-66888400D01*
X60647900Y-66888400D01*
X60662358Y-66889110D01*
G37*
G04 #@! TD.AperFunction*
G04 #@! TA.AperFunction,SMDPad,CuDef*
G36*
X61632358Y-66889110D02*
G01*
X61646676Y-66891234D01*
X61660717Y-66894751D01*
X61674346Y-66899628D01*
X61687431Y-66905817D01*
X61699847Y-66913258D01*
X61711473Y-66921881D01*
X61722198Y-66931602D01*
X61731919Y-66942327D01*
X61740542Y-66953953D01*
X61747983Y-66966369D01*
X61754172Y-66979454D01*
X61759049Y-66993083D01*
X61762566Y-67007124D01*
X61764690Y-67021442D01*
X61765400Y-67035900D01*
X61765400Y-67380900D01*
X61764690Y-67395358D01*
X61762566Y-67409676D01*
X61759049Y-67423717D01*
X61754172Y-67437346D01*
X61747983Y-67450431D01*
X61740542Y-67462847D01*
X61731919Y-67474473D01*
X61722198Y-67485198D01*
X61711473Y-67494919D01*
X61699847Y-67503542D01*
X61687431Y-67510983D01*
X61674346Y-67517172D01*
X61660717Y-67522049D01*
X61646676Y-67525566D01*
X61632358Y-67527690D01*
X61617900Y-67528400D01*
X61322900Y-67528400D01*
X61308442Y-67527690D01*
X61294124Y-67525566D01*
X61280083Y-67522049D01*
X61266454Y-67517172D01*
X61253369Y-67510983D01*
X61240953Y-67503542D01*
X61229327Y-67494919D01*
X61218602Y-67485198D01*
X61208881Y-67474473D01*
X61200258Y-67462847D01*
X61192817Y-67450431D01*
X61186628Y-67437346D01*
X61181751Y-67423717D01*
X61178234Y-67409676D01*
X61176110Y-67395358D01*
X61175400Y-67380900D01*
X61175400Y-67035900D01*
X61176110Y-67021442D01*
X61178234Y-67007124D01*
X61181751Y-66993083D01*
X61186628Y-66979454D01*
X61192817Y-66966369D01*
X61200258Y-66953953D01*
X61208881Y-66942327D01*
X61218602Y-66931602D01*
X61229327Y-66921881D01*
X61240953Y-66913258D01*
X61253369Y-66905817D01*
X61266454Y-66899628D01*
X61280083Y-66894751D01*
X61294124Y-66891234D01*
X61308442Y-66889110D01*
X61322900Y-66888400D01*
X61617900Y-66888400D01*
X61632358Y-66889110D01*
G37*
G04 #@! TD.AperFunction*
G04 #@! TA.AperFunction,SMDPad,CuDef*
G36*
X45870691Y-70988253D02*
G01*
X45891926Y-70991403D01*
X45912750Y-70996619D01*
X45932962Y-71003851D01*
X45952368Y-71013030D01*
X45970781Y-71024066D01*
X45988024Y-71036854D01*
X46003930Y-71051270D01*
X46018346Y-71067176D01*
X46031134Y-71084419D01*
X46042170Y-71102832D01*
X46051349Y-71122238D01*
X46058581Y-71142450D01*
X46063797Y-71163274D01*
X46066947Y-71184509D01*
X46068000Y-71205950D01*
X46068000Y-71643450D01*
X46066947Y-71664891D01*
X46063797Y-71686126D01*
X46058581Y-71706950D01*
X46051349Y-71727162D01*
X46042170Y-71746568D01*
X46031134Y-71764981D01*
X46018346Y-71782224D01*
X46003930Y-71798130D01*
X45988024Y-71812546D01*
X45970781Y-71825334D01*
X45952368Y-71836370D01*
X45932962Y-71845549D01*
X45912750Y-71852781D01*
X45891926Y-71857997D01*
X45870691Y-71861147D01*
X45849250Y-71862200D01*
X45336750Y-71862200D01*
X45315309Y-71861147D01*
X45294074Y-71857997D01*
X45273250Y-71852781D01*
X45253038Y-71845549D01*
X45233632Y-71836370D01*
X45215219Y-71825334D01*
X45197976Y-71812546D01*
X45182070Y-71798130D01*
X45167654Y-71782224D01*
X45154866Y-71764981D01*
X45143830Y-71746568D01*
X45134651Y-71727162D01*
X45127419Y-71706950D01*
X45122203Y-71686126D01*
X45119053Y-71664891D01*
X45118000Y-71643450D01*
X45118000Y-71205950D01*
X45119053Y-71184509D01*
X45122203Y-71163274D01*
X45127419Y-71142450D01*
X45134651Y-71122238D01*
X45143830Y-71102832D01*
X45154866Y-71084419D01*
X45167654Y-71067176D01*
X45182070Y-71051270D01*
X45197976Y-71036854D01*
X45215219Y-71024066D01*
X45233632Y-71013030D01*
X45253038Y-71003851D01*
X45273250Y-70996619D01*
X45294074Y-70991403D01*
X45315309Y-70988253D01*
X45336750Y-70987200D01*
X45849250Y-70987200D01*
X45870691Y-70988253D01*
G37*
G04 #@! TD.AperFunction*
G04 #@! TA.AperFunction,SMDPad,CuDef*
G36*
X45870691Y-72563253D02*
G01*
X45891926Y-72566403D01*
X45912750Y-72571619D01*
X45932962Y-72578851D01*
X45952368Y-72588030D01*
X45970781Y-72599066D01*
X45988024Y-72611854D01*
X46003930Y-72626270D01*
X46018346Y-72642176D01*
X46031134Y-72659419D01*
X46042170Y-72677832D01*
X46051349Y-72697238D01*
X46058581Y-72717450D01*
X46063797Y-72738274D01*
X46066947Y-72759509D01*
X46068000Y-72780950D01*
X46068000Y-73218450D01*
X46066947Y-73239891D01*
X46063797Y-73261126D01*
X46058581Y-73281950D01*
X46051349Y-73302162D01*
X46042170Y-73321568D01*
X46031134Y-73339981D01*
X46018346Y-73357224D01*
X46003930Y-73373130D01*
X45988024Y-73387546D01*
X45970781Y-73400334D01*
X45952368Y-73411370D01*
X45932962Y-73420549D01*
X45912750Y-73427781D01*
X45891926Y-73432997D01*
X45870691Y-73436147D01*
X45849250Y-73437200D01*
X45336750Y-73437200D01*
X45315309Y-73436147D01*
X45294074Y-73432997D01*
X45273250Y-73427781D01*
X45253038Y-73420549D01*
X45233632Y-73411370D01*
X45215219Y-73400334D01*
X45197976Y-73387546D01*
X45182070Y-73373130D01*
X45167654Y-73357224D01*
X45154866Y-73339981D01*
X45143830Y-73321568D01*
X45134651Y-73302162D01*
X45127419Y-73281950D01*
X45122203Y-73261126D01*
X45119053Y-73239891D01*
X45118000Y-73218450D01*
X45118000Y-72780950D01*
X45119053Y-72759509D01*
X45122203Y-72738274D01*
X45127419Y-72717450D01*
X45134651Y-72697238D01*
X45143830Y-72677832D01*
X45154866Y-72659419D01*
X45167654Y-72642176D01*
X45182070Y-72626270D01*
X45197976Y-72611854D01*
X45215219Y-72599066D01*
X45233632Y-72588030D01*
X45253038Y-72578851D01*
X45273250Y-72571619D01*
X45294074Y-72566403D01*
X45315309Y-72563253D01*
X45336750Y-72562200D01*
X45849250Y-72562200D01*
X45870691Y-72563253D01*
G37*
G04 #@! TD.AperFunction*
G04 #@! TA.AperFunction,SMDPad,CuDef*
G36*
X45779958Y-74303110D02*
G01*
X45794276Y-74305234D01*
X45808317Y-74308751D01*
X45821946Y-74313628D01*
X45835031Y-74319817D01*
X45847447Y-74327258D01*
X45859073Y-74335881D01*
X45869798Y-74345602D01*
X45879519Y-74356327D01*
X45888142Y-74367953D01*
X45895583Y-74380369D01*
X45901772Y-74393454D01*
X45906649Y-74407083D01*
X45910166Y-74421124D01*
X45912290Y-74435442D01*
X45913000Y-74449900D01*
X45913000Y-74744900D01*
X45912290Y-74759358D01*
X45910166Y-74773676D01*
X45906649Y-74787717D01*
X45901772Y-74801346D01*
X45895583Y-74814431D01*
X45888142Y-74826847D01*
X45879519Y-74838473D01*
X45869798Y-74849198D01*
X45859073Y-74858919D01*
X45847447Y-74867542D01*
X45835031Y-74874983D01*
X45821946Y-74881172D01*
X45808317Y-74886049D01*
X45794276Y-74889566D01*
X45779958Y-74891690D01*
X45765500Y-74892400D01*
X45420500Y-74892400D01*
X45406042Y-74891690D01*
X45391724Y-74889566D01*
X45377683Y-74886049D01*
X45364054Y-74881172D01*
X45350969Y-74874983D01*
X45338553Y-74867542D01*
X45326927Y-74858919D01*
X45316202Y-74849198D01*
X45306481Y-74838473D01*
X45297858Y-74826847D01*
X45290417Y-74814431D01*
X45284228Y-74801346D01*
X45279351Y-74787717D01*
X45275834Y-74773676D01*
X45273710Y-74759358D01*
X45273000Y-74744900D01*
X45273000Y-74449900D01*
X45273710Y-74435442D01*
X45275834Y-74421124D01*
X45279351Y-74407083D01*
X45284228Y-74393454D01*
X45290417Y-74380369D01*
X45297858Y-74367953D01*
X45306481Y-74356327D01*
X45316202Y-74345602D01*
X45326927Y-74335881D01*
X45338553Y-74327258D01*
X45350969Y-74319817D01*
X45364054Y-74313628D01*
X45377683Y-74308751D01*
X45391724Y-74305234D01*
X45406042Y-74303110D01*
X45420500Y-74302400D01*
X45765500Y-74302400D01*
X45779958Y-74303110D01*
G37*
G04 #@! TD.AperFunction*
G04 #@! TA.AperFunction,SMDPad,CuDef*
G36*
X45779958Y-75273110D02*
G01*
X45794276Y-75275234D01*
X45808317Y-75278751D01*
X45821946Y-75283628D01*
X45835031Y-75289817D01*
X45847447Y-75297258D01*
X45859073Y-75305881D01*
X45869798Y-75315602D01*
X45879519Y-75326327D01*
X45888142Y-75337953D01*
X45895583Y-75350369D01*
X45901772Y-75363454D01*
X45906649Y-75377083D01*
X45910166Y-75391124D01*
X45912290Y-75405442D01*
X45913000Y-75419900D01*
X45913000Y-75714900D01*
X45912290Y-75729358D01*
X45910166Y-75743676D01*
X45906649Y-75757717D01*
X45901772Y-75771346D01*
X45895583Y-75784431D01*
X45888142Y-75796847D01*
X45879519Y-75808473D01*
X45869798Y-75819198D01*
X45859073Y-75828919D01*
X45847447Y-75837542D01*
X45835031Y-75844983D01*
X45821946Y-75851172D01*
X45808317Y-75856049D01*
X45794276Y-75859566D01*
X45779958Y-75861690D01*
X45765500Y-75862400D01*
X45420500Y-75862400D01*
X45406042Y-75861690D01*
X45391724Y-75859566D01*
X45377683Y-75856049D01*
X45364054Y-75851172D01*
X45350969Y-75844983D01*
X45338553Y-75837542D01*
X45326927Y-75828919D01*
X45316202Y-75819198D01*
X45306481Y-75808473D01*
X45297858Y-75796847D01*
X45290417Y-75784431D01*
X45284228Y-75771346D01*
X45279351Y-75757717D01*
X45275834Y-75743676D01*
X45273710Y-75729358D01*
X45273000Y-75714900D01*
X45273000Y-75419900D01*
X45273710Y-75405442D01*
X45275834Y-75391124D01*
X45279351Y-75377083D01*
X45284228Y-75363454D01*
X45290417Y-75350369D01*
X45297858Y-75337953D01*
X45306481Y-75326327D01*
X45316202Y-75315602D01*
X45326927Y-75305881D01*
X45338553Y-75297258D01*
X45350969Y-75289817D01*
X45364054Y-75283628D01*
X45377683Y-75278751D01*
X45391724Y-75275234D01*
X45406042Y-75273110D01*
X45420500Y-75272400D01*
X45765500Y-75272400D01*
X45779958Y-75273110D01*
G37*
G04 #@! TD.AperFunction*
D12*
X43797600Y-72229800D03*
D13*
X42077600Y-72229800D03*
X43977600Y-74429800D03*
X42077600Y-74429800D03*
D14*
X50757000Y-77404000D03*
X50757000Y-75504000D03*
X48557000Y-77404000D03*
D15*
X48557000Y-75684000D03*
D16*
X48336200Y-79552800D03*
X50876200Y-79552800D03*
X53416200Y-79552800D03*
D17*
X55956200Y-79552800D03*
D18*
X38954800Y-79131400D03*
X38954800Y-67731400D03*
D19*
X66131000Y-77539800D03*
X66131000Y-70389800D03*
X61631000Y-77539800D03*
X61631000Y-70389800D03*
D20*
X86817200Y-76231000D03*
X86817200Y-70581000D03*
D21*
X69418200Y-74625200D03*
X72974200Y-80416400D03*
X75031600Y-80746600D03*
X77495400Y-80695800D03*
X79883000Y-80594200D03*
X82270600Y-80594200D03*
X84607400Y-80543400D03*
X86360000Y-80543400D03*
X76454000Y-79324200D03*
X78740000Y-79298800D03*
X81432400Y-79171800D03*
X83642200Y-79273400D03*
X83007200Y-75946000D03*
X81381600Y-77216000D03*
X78232000Y-77444600D03*
X75209400Y-77393800D03*
X73507600Y-76073000D03*
X77012800Y-76225400D03*
X79222600Y-76022200D03*
X83007200Y-70866000D03*
X72491600Y-66802000D03*
X75057000Y-66725800D03*
X77368400Y-66725800D03*
X79730600Y-66852800D03*
X82321400Y-66370200D03*
X84963000Y-66370200D03*
X87528400Y-66344800D03*
X80899000Y-68427600D03*
X78486000Y-68427600D03*
X76022200Y-68326000D03*
X73685400Y-68173600D03*
X72466200Y-69646800D03*
X74980800Y-69570600D03*
X77317600Y-69545200D03*
X79705200Y-69545200D03*
X73710800Y-70815200D03*
X71475600Y-70942200D03*
X76225400Y-70891400D03*
X78536800Y-70891400D03*
X81026000Y-70866000D03*
X72034400Y-72161400D03*
X72999600Y-72161400D03*
X73914000Y-72136000D03*
X74904600Y-72136000D03*
X75895200Y-72110600D03*
X76885800Y-72136000D03*
X77851000Y-72136000D03*
X78740000Y-72136000D03*
X79730600Y-72136000D03*
X80670400Y-72136000D03*
X81635600Y-72136000D03*
X82524600Y-72136000D03*
X83312000Y-72161400D03*
X84175600Y-72161400D03*
X85013800Y-72161400D03*
X85902800Y-72161400D03*
X86791800Y-72161400D03*
X87655400Y-72161400D03*
X88569800Y-72161400D03*
X82524600Y-74320400D03*
X83362800Y-74320400D03*
X84124800Y-74320400D03*
X84861400Y-74650600D03*
X85877400Y-74650600D03*
X86817200Y-74650600D03*
X87706200Y-74650600D03*
X88569800Y-74650600D03*
X81635600Y-75234800D03*
X80441800Y-75260200D03*
X79578200Y-74396600D03*
X78765400Y-74422000D03*
X77876400Y-74447400D03*
X76987400Y-74447400D03*
X76174600Y-74422000D03*
X75361800Y-75285600D03*
X74523600Y-74422000D03*
X73660000Y-74422000D03*
X72694800Y-74422000D03*
X71729600Y-74422000D03*
X71729600Y-75361800D03*
X71729600Y-76327000D03*
X43967400Y-66065400D03*
X37236400Y-69977000D03*
X46228000Y-66065400D03*
X53111400Y-66014600D03*
X55194200Y-66014600D03*
X52019200Y-80822800D03*
X39801800Y-69672200D03*
X64058800Y-65989200D03*
X66192400Y-65963800D03*
X70027800Y-70815200D03*
X71729600Y-77825600D03*
X70739000Y-66141600D03*
X70891400Y-69773800D03*
X67411600Y-80822800D03*
X38938200Y-80797400D03*
X37388800Y-77190600D03*
X37973000Y-73863200D03*
X51485800Y-65989200D03*
X49301400Y-65989200D03*
X61976000Y-65963800D03*
X68478400Y-66065400D03*
X73914000Y-79324200D03*
X70942200Y-68046600D03*
X67310000Y-78130400D03*
X70739000Y-79197200D03*
X70078600Y-72186800D03*
X71120000Y-72186800D03*
X71348600Y-80746600D03*
X39471600Y-66040000D03*
X69494400Y-80645000D03*
X68580000Y-79197200D03*
X68554600Y-77901800D03*
X67513200Y-69646800D03*
X57886600Y-66014600D03*
X58750200Y-67284600D03*
X59690000Y-65989200D03*
D22*
X64566800Y-75641200D03*
X65963800Y-72644000D03*
X63144400Y-72644000D03*
X63144400Y-74117200D03*
X65963800Y-75641200D03*
X65963800Y-74117200D03*
X64566800Y-74117200D03*
X64516000Y-72644000D03*
X63144400Y-75641200D03*
D21*
X67995800Y-70993000D03*
X58013600Y-71831200D03*
X54483000Y-70180200D03*
X52374800Y-72720200D03*
X57302400Y-76555600D03*
X60553600Y-77520800D03*
X54305200Y-75920600D03*
X54559200Y-72034400D03*
X64897000Y-66776600D03*
X60375800Y-71094600D03*
X44602400Y-71348600D03*
X57353200Y-67741800D03*
X45008800Y-69240400D03*
X65735200Y-78587600D03*
X56413400Y-75971400D03*
X52374800Y-71221600D03*
X43713400Y-79857600D03*
X46786800Y-69291200D03*
X42138600Y-80797400D03*
X42341800Y-78917800D03*
X54483000Y-68326000D03*
X52654200Y-67843400D03*
X48260000Y-67691000D03*
X45593000Y-80797400D03*
X49580800Y-80797400D03*
X45694600Y-70154800D03*
X43688000Y-69977000D03*
X48133000Y-69418200D03*
X55575200Y-73964800D03*
X60096400Y-69824600D03*
X58166000Y-79248000D03*
X60223400Y-75895200D03*
X49530000Y-76022200D03*
X43789600Y-73202800D03*
X44602400Y-75768200D03*
X46431200Y-75717400D03*
X68656200Y-69494400D03*
D23*
X48234600Y-73355200D03*
X49453800Y-73355200D03*
X49453800Y-72212200D03*
X48234600Y-72212200D03*
D21*
X58290600Y-76634200D03*
X50622200Y-69824600D03*
X47955200Y-66497200D03*
X42341800Y-66624200D03*
X49098200Y-68199000D03*
X68427600Y-76098400D03*
X68476000Y-72824200D03*
X68021200Y-77089000D03*
X69062600Y-70993000D03*
X45821600Y-73787000D03*
X45339000Y-73787000D03*
X59232800Y-71856600D03*
X55194200Y-75920600D03*
X69723000Y-67157600D03*
X66294000Y-68351400D03*
X68707000Y-74422000D03*
X70177800Y-78285200D03*
X60223400Y-74957800D03*
X68506200Y-71854200D03*
X64058800Y-67208400D03*
X59817000Y-67208400D03*
X39979600Y-72644000D03*
X43738800Y-76931400D03*
X40005000Y-74142600D03*
X65682000Y-80037800D03*
X59258200Y-78333600D03*
X51155600Y-70231000D03*
X59055000Y-79070200D03*
X49555400Y-69596000D03*
X57251600Y-66751200D03*
X64566800Y-67945000D03*
X57251600Y-68605400D03*
X64566800Y-68757800D03*
X57251600Y-70561200D03*
X64541400Y-69494400D03*
X57150000Y-72364600D03*
X64058800Y-70053200D03*
X63500000Y-78486000D03*
X51790600Y-69672200D03*
X64617600Y-79171800D03*
X51866800Y-68097400D03*
D24*
X44602700Y-71424700D02*
X43797600Y-72229800D01*
X45593000Y-71424700D02*
X44602700Y-71424700D01*
D25*
X43789600Y-72237800D02*
X43797600Y-72229800D01*
X43789600Y-73202800D02*
X43789600Y-72237800D01*
X44653200Y-75717400D02*
X44602400Y-75768200D01*
X46431200Y-75717400D02*
X44653200Y-75717400D01*
X48895200Y-76022200D02*
X48557000Y-75684000D01*
X49530000Y-76022200D02*
X48895200Y-76022200D01*
X61470400Y-67208400D02*
X62433200Y-67208400D01*
X65735200Y-77935600D02*
X66131000Y-77539800D01*
X65735200Y-78587600D02*
X65735200Y-77935600D01*
D24*
X45593000Y-72948900D02*
X45593000Y-74498200D01*
D25*
X48557000Y-79332000D02*
X48336200Y-79552800D01*
X48557000Y-77404000D02*
X48557000Y-79332000D01*
X48310800Y-79578200D02*
X48336200Y-79552800D01*
X46052600Y-79578200D02*
X48310800Y-79578200D01*
D24*
X45593000Y-74597400D02*
X46708200Y-74597400D01*
X46708200Y-74597400D02*
X47294800Y-75184000D01*
X47294800Y-78511400D02*
X48336200Y-79552800D01*
X47294800Y-75184000D02*
X47294800Y-78511400D01*
D25*
X55194200Y-75920600D02*
X55194200Y-75895200D01*
X55194200Y-75895200D02*
X59232800Y-71856600D01*
D26*
X69700000Y-67180600D02*
X69723000Y-67157600D01*
D27*
X69062600Y-67180600D02*
X69700000Y-67180600D01*
D26*
X66901200Y-68351400D02*
X66903600Y-68353800D01*
D27*
X66243200Y-68351400D02*
X66901200Y-68351400D01*
D25*
X68707000Y-74422000D02*
X68707000Y-75336400D01*
X70177800Y-76807200D02*
X70177800Y-78285200D01*
X68707000Y-75336400D02*
X70177800Y-76807200D01*
X60223400Y-74957800D02*
X60223400Y-73177400D01*
X60223400Y-73177400D02*
X61747400Y-71653400D01*
X68305400Y-71653400D02*
X68506200Y-71854200D01*
X61747400Y-71653400D02*
X68305400Y-71653400D01*
D27*
X63403200Y-67208400D02*
X64109600Y-67208400D01*
X59740800Y-67208400D02*
X60500400Y-67208400D01*
D25*
X41663400Y-72644000D02*
X42077600Y-72229800D01*
X39979600Y-72644000D02*
X41663400Y-72644000D01*
X43820200Y-74587200D02*
X43977600Y-74429800D01*
X43738800Y-76931400D02*
X43738800Y-74587200D01*
X41790400Y-74142600D02*
X42077600Y-74429800D01*
X40005000Y-74142600D02*
X41790400Y-74142600D01*
X50757000Y-79433600D02*
X50876200Y-79552800D01*
X50757000Y-77404000D02*
X50757000Y-79433600D01*
X53551000Y-79595800D02*
X53543200Y-79603600D01*
X50757000Y-75504000D02*
X51297800Y-75504000D01*
X51297800Y-75504000D02*
X51892200Y-76098400D01*
X51892200Y-78028800D02*
X53416200Y-79552800D01*
X51892200Y-76098400D02*
X51892200Y-78028800D01*
D27*
X61512400Y-70389800D02*
X61631000Y-70389800D01*
X61631000Y-70979524D02*
X61631000Y-70389800D01*
X59664600Y-72945924D02*
X61631000Y-70979524D01*
X65176401Y-79532201D02*
X65682000Y-80037800D01*
X65176401Y-78613001D02*
X65176401Y-79532201D01*
X61631000Y-77539800D02*
X64103200Y-77539800D01*
X64103200Y-77539800D02*
X65176401Y-78613001D01*
X59664600Y-72945924D02*
X59664600Y-76174600D01*
X59664600Y-76174600D02*
X59994800Y-76504800D01*
X60596000Y-76504800D02*
X61631000Y-77539800D01*
X59994800Y-76504800D02*
X60596000Y-76504800D01*
X50876210Y-73328740D02*
X52882820Y-75335350D01*
X52882820Y-75335350D02*
X52882820Y-77618474D01*
X52882820Y-77618474D02*
X53216936Y-77952590D01*
X50876210Y-70510390D02*
X51155600Y-70231000D01*
X50876210Y-73328740D02*
X50876210Y-70510390D01*
D26*
X58978790Y-77952590D02*
X58978800Y-77952600D01*
X53216936Y-77952590D02*
X58978790Y-77952590D01*
X59232800Y-78206600D02*
X58978790Y-77952590D01*
X59232800Y-78257400D02*
X59232800Y-78206600D01*
D27*
X49555400Y-69596000D02*
X49555400Y-70561200D01*
X49555400Y-70561200D02*
X50444400Y-71450200D01*
X50444400Y-71450200D02*
X50444400Y-73507600D01*
X50444400Y-73507600D02*
X52451010Y-75514210D01*
X52451010Y-75514210D02*
X52451010Y-77797334D01*
X52451010Y-77797334D02*
X53038076Y-78384400D01*
D26*
X58369200Y-78384400D02*
X59004200Y-79019400D01*
X53038076Y-78384400D02*
X58369200Y-78384400D01*
D27*
X58445400Y-67945000D02*
X57251600Y-66751200D01*
X64566800Y-67945000D02*
X58445400Y-67945000D01*
X64566800Y-68757800D02*
X64490590Y-68757800D01*
X64490590Y-68757800D02*
X64109590Y-68376800D01*
X57480200Y-68376800D02*
X57251600Y-68605400D01*
X64109590Y-68376800D02*
X57480200Y-68376800D01*
X64541400Y-69494400D02*
X64490590Y-69494400D01*
X64490590Y-69494400D02*
X63804800Y-68808610D01*
X63804800Y-68808610D02*
X58267590Y-68808610D01*
X57251600Y-69824600D02*
X57251600Y-70561200D01*
X58267590Y-68808610D02*
X57251600Y-69824600D01*
X64058800Y-70053200D02*
X64058800Y-69799220D01*
X64058800Y-69799220D02*
X63500000Y-69240420D01*
X63500000Y-69240420D02*
X58470780Y-69240420D01*
X58470780Y-69240420D02*
X57810400Y-69900800D01*
X57810400Y-69900800D02*
X57810400Y-70815200D01*
X57277000Y-71348600D02*
X57277000Y-72364600D01*
X57810400Y-70815200D02*
X57277000Y-71348600D01*
D26*
X60700572Y-78994000D02*
X62540229Y-78994000D01*
X53289230Y-75167010D02*
X53289230Y-77444630D01*
X51282620Y-73160400D02*
X53289230Y-75167010D01*
X63149829Y-78384400D02*
X63500000Y-78384400D01*
X51790600Y-69672200D02*
X51790600Y-70358020D01*
X51790600Y-70358020D02*
X51282620Y-70866000D01*
X53289230Y-77444630D02*
X53416180Y-77571580D01*
X62540229Y-78994000D02*
X63149829Y-78384400D01*
X51282620Y-70866000D02*
X51282620Y-73160400D01*
X59278152Y-77571580D02*
X60700572Y-78994000D01*
X53416180Y-77571580D02*
X59278152Y-77571580D01*
X64719200Y-79121000D02*
X64719200Y-78730550D01*
X64719200Y-78730550D02*
X63934860Y-77946210D01*
X62382400Y-78613000D02*
X60858400Y-78613000D01*
X53695600Y-77190570D02*
X53695600Y-75031600D01*
X53695600Y-75031600D02*
X51663630Y-72999630D01*
X51663630Y-72999630D02*
X51663630Y-71023818D01*
X51663630Y-71023818D02*
X52324000Y-70363448D01*
X52324000Y-68554600D02*
X51866800Y-68097400D01*
X52324000Y-70363448D02*
X52324000Y-68554600D01*
X62382400Y-78613000D02*
X62382401Y-78613000D01*
X63049190Y-77946210D02*
X62382400Y-78613000D01*
X63934860Y-77946210D02*
X63049190Y-77946210D01*
X59435970Y-77190570D02*
X60858400Y-78613000D01*
X53695600Y-77190570D02*
X59435970Y-77190570D01*
G36*
X88798800Y-69548789D02*
G01*
X87058500Y-69550400D01*
X86969600Y-69639300D01*
X86969600Y-70428600D01*
X86989600Y-70428600D01*
X86989600Y-70733400D01*
X86969600Y-70733400D01*
X86969600Y-71522700D01*
X87058500Y-71611600D01*
X88798800Y-71613211D01*
X88798801Y-75198789D01*
X87058500Y-75200400D01*
X86969600Y-75289300D01*
X86969600Y-76078600D01*
X86989600Y-76078600D01*
X86989600Y-76383400D01*
X86969600Y-76383400D01*
X86969600Y-77172700D01*
X87058500Y-77261600D01*
X88798801Y-77263211D01*
X88798801Y-81204200D01*
X36169200Y-81204200D01*
X36169200Y-79131400D01*
X36743929Y-79131400D01*
X36768156Y-79377384D01*
X36839907Y-79613914D01*
X36956424Y-79831902D01*
X37113230Y-80022970D01*
X37304298Y-80179776D01*
X37522286Y-80296293D01*
X37758816Y-80368044D01*
X37943159Y-80386200D01*
X39966441Y-80386200D01*
X40150784Y-80368044D01*
X40387314Y-80296293D01*
X40605302Y-80179776D01*
X40796370Y-80022970D01*
X40898766Y-79898200D01*
X44430279Y-79898200D01*
X44437145Y-79967910D01*
X44457478Y-80034941D01*
X44490498Y-80096717D01*
X44534936Y-80150864D01*
X44589083Y-80195302D01*
X44650859Y-80228322D01*
X44717890Y-80248655D01*
X44787600Y-80255521D01*
X44841300Y-80253800D01*
X44930200Y-80164900D01*
X44930200Y-79730600D01*
X44520900Y-79730600D01*
X44432000Y-79819500D01*
X44430279Y-79898200D01*
X40898766Y-79898200D01*
X40953176Y-79831902D01*
X41069693Y-79613914D01*
X41141444Y-79377384D01*
X41153182Y-79258200D01*
X44430279Y-79258200D01*
X44432000Y-79336900D01*
X44520900Y-79425800D01*
X44930200Y-79425800D01*
X44930200Y-78991500D01*
X44841300Y-78902600D01*
X44787600Y-78900879D01*
X44717890Y-78907745D01*
X44650859Y-78928078D01*
X44589083Y-78961098D01*
X44534936Y-79005536D01*
X44490498Y-79059683D01*
X44457478Y-79121459D01*
X44437145Y-79188490D01*
X44430279Y-79258200D01*
X41153182Y-79258200D01*
X41165671Y-79131400D01*
X41141444Y-78885416D01*
X41069693Y-78648886D01*
X40953176Y-78430898D01*
X40796370Y-78239830D01*
X40605302Y-78083024D01*
X40387314Y-77966507D01*
X40150784Y-77894756D01*
X39966441Y-77876600D01*
X37943159Y-77876600D01*
X37758816Y-77894756D01*
X37522286Y-77966507D01*
X37304298Y-78083024D01*
X37113230Y-78239830D01*
X36956424Y-78430898D01*
X36839907Y-78648886D01*
X36768156Y-78885416D01*
X36743929Y-79131400D01*
X36169200Y-79131400D01*
X36169200Y-75632436D01*
X37950000Y-75632436D01*
X37950000Y-75830364D01*
X37988614Y-76024489D01*
X38064358Y-76207351D01*
X38174321Y-76371923D01*
X38314277Y-76511879D01*
X38478849Y-76621842D01*
X38661711Y-76697586D01*
X38855836Y-76736200D01*
X39053764Y-76736200D01*
X39247889Y-76697586D01*
X39430751Y-76621842D01*
X39595323Y-76511879D01*
X39735279Y-76371923D01*
X39845242Y-76207351D01*
X39920986Y-76024489D01*
X39959600Y-75830364D01*
X39959600Y-75632436D01*
X39920986Y-75438311D01*
X39845242Y-75255449D01*
X39735279Y-75090877D01*
X39595323Y-74950921D01*
X39430751Y-74840958D01*
X39247889Y-74765214D01*
X39053764Y-74726600D01*
X38855836Y-74726600D01*
X38661711Y-74765214D01*
X38478849Y-74840958D01*
X38314277Y-74950921D01*
X38174321Y-75090877D01*
X38064358Y-75255449D01*
X37988614Y-75438311D01*
X37950000Y-75632436D01*
X36169200Y-75632436D01*
X36169200Y-74142600D01*
X39443497Y-74142600D01*
X39446200Y-74170044D01*
X39446200Y-74197637D01*
X39451583Y-74224700D01*
X39454286Y-74252144D01*
X39462291Y-74278532D01*
X39467674Y-74305596D01*
X39478235Y-74331091D01*
X39486239Y-74357478D01*
X39499239Y-74381798D01*
X39509798Y-74407291D01*
X39525126Y-74430231D01*
X39538127Y-74454554D01*
X39555625Y-74475875D01*
X39570952Y-74498814D01*
X39590457Y-74518319D01*
X39607957Y-74539643D01*
X39629281Y-74557143D01*
X39648786Y-74576648D01*
X39671725Y-74591975D01*
X39693046Y-74609473D01*
X39717369Y-74622474D01*
X39740309Y-74637802D01*
X39765802Y-74648361D01*
X39790122Y-74661361D01*
X39816509Y-74669365D01*
X39842004Y-74679926D01*
X39869068Y-74685309D01*
X39895456Y-74693314D01*
X39922900Y-74696017D01*
X39949963Y-74701400D01*
X41271326Y-74701400D01*
X41271326Y-75129800D01*
X41277211Y-75189551D01*
X41294640Y-75247006D01*
X41322942Y-75299957D01*
X41361032Y-75346368D01*
X41407443Y-75384458D01*
X41460394Y-75412760D01*
X41517849Y-75430189D01*
X41577600Y-75436074D01*
X42577600Y-75436074D01*
X42637351Y-75430189D01*
X42694806Y-75412760D01*
X42747757Y-75384458D01*
X42794168Y-75346368D01*
X42832258Y-75299957D01*
X42860560Y-75247006D01*
X42877989Y-75189551D01*
X42883874Y-75129800D01*
X42883874Y-73729800D01*
X43171326Y-73729800D01*
X43171326Y-75129800D01*
X43177211Y-75189551D01*
X43180001Y-75198747D01*
X43180000Y-76876363D01*
X43180000Y-76986437D01*
X43185383Y-77013501D01*
X43188086Y-77040943D01*
X43196090Y-77067329D01*
X43201474Y-77094396D01*
X43212036Y-77119894D01*
X43220039Y-77146277D01*
X43233037Y-77170595D01*
X43243598Y-77196091D01*
X43258927Y-77219032D01*
X43271927Y-77243354D01*
X43289425Y-77264675D01*
X43304752Y-77287614D01*
X43324257Y-77307119D01*
X43341757Y-77328443D01*
X43363081Y-77345943D01*
X43382586Y-77365448D01*
X43405525Y-77380775D01*
X43426846Y-77398273D01*
X43451169Y-77411274D01*
X43474109Y-77426602D01*
X43499602Y-77437161D01*
X43523922Y-77450161D01*
X43550309Y-77458165D01*
X43575804Y-77468726D01*
X43602868Y-77474109D01*
X43629256Y-77482114D01*
X43656700Y-77484817D01*
X43683763Y-77490200D01*
X43711356Y-77490200D01*
X43738800Y-77492903D01*
X43766244Y-77490200D01*
X43793837Y-77490200D01*
X43820900Y-77484817D01*
X43848343Y-77482114D01*
X43874729Y-77474110D01*
X43901796Y-77468726D01*
X43927294Y-77458164D01*
X43953677Y-77450161D01*
X43977995Y-77437163D01*
X44003491Y-77426602D01*
X44026432Y-77411273D01*
X44050754Y-77398273D01*
X44072075Y-77380775D01*
X44095014Y-77365448D01*
X44114519Y-77345943D01*
X44135843Y-77328443D01*
X44153343Y-77307119D01*
X44172848Y-77287614D01*
X44188175Y-77264675D01*
X44205673Y-77243354D01*
X44218674Y-77219031D01*
X44234002Y-77196091D01*
X44244561Y-77170598D01*
X44257561Y-77146278D01*
X44265565Y-77119891D01*
X44276126Y-77094396D01*
X44281509Y-77067332D01*
X44289514Y-77040944D01*
X44292217Y-77013500D01*
X44297600Y-76986437D01*
X44297600Y-75862400D01*
X44915679Y-75862400D01*
X44922545Y-75932110D01*
X44942878Y-75999141D01*
X44975898Y-76060917D01*
X45020336Y-76115064D01*
X45074483Y-76159502D01*
X45136259Y-76192522D01*
X45203290Y-76212855D01*
X45273000Y-76219721D01*
X45351700Y-76218000D01*
X45440600Y-76129100D01*
X45440600Y-75719800D01*
X45745400Y-75719800D01*
X45745400Y-76129100D01*
X45834300Y-76218000D01*
X45913000Y-76219721D01*
X45982710Y-76212855D01*
X46049741Y-76192522D01*
X46111517Y-76159502D01*
X46165664Y-76115064D01*
X46210102Y-76060917D01*
X46243122Y-75999141D01*
X46263455Y-75932110D01*
X46270321Y-75862400D01*
X46268600Y-75808700D01*
X46179700Y-75719800D01*
X45745400Y-75719800D01*
X45440600Y-75719800D01*
X45006300Y-75719800D01*
X44917400Y-75808700D01*
X44915679Y-75862400D01*
X44297600Y-75862400D01*
X44297600Y-75436074D01*
X44477600Y-75436074D01*
X44537351Y-75430189D01*
X44594806Y-75412760D01*
X44647757Y-75384458D01*
X44694168Y-75346368D01*
X44732258Y-75299957D01*
X44760560Y-75247006D01*
X44777989Y-75189551D01*
X44783874Y-75129800D01*
X44783874Y-73860508D01*
X44801674Y-73949996D01*
X44843798Y-74051691D01*
X44904952Y-74143214D01*
X44907201Y-74145463D01*
X44907201Y-74531889D01*
X44908768Y-74547795D01*
X44903882Y-74597400D01*
X44917123Y-74731840D01*
X44956338Y-74861114D01*
X45020019Y-74980253D01*
X45039509Y-75004001D01*
X45020336Y-75019736D01*
X44975898Y-75073883D01*
X44942878Y-75135659D01*
X44922545Y-75202690D01*
X44915679Y-75272400D01*
X44917400Y-75326100D01*
X45006300Y-75415000D01*
X45440600Y-75415000D01*
X45440600Y-75395000D01*
X45745400Y-75395000D01*
X45745400Y-75415000D01*
X46179700Y-75415000D01*
X46268600Y-75326100D01*
X46269975Y-75283200D01*
X46424133Y-75283200D01*
X46609000Y-75468067D01*
X46609001Y-78477712D01*
X46605683Y-78511400D01*
X46618924Y-78645840D01*
X46658139Y-78775114D01*
X46721820Y-78894253D01*
X46781299Y-78966728D01*
X46807521Y-78998680D01*
X46832768Y-79019400D01*
X46435364Y-79019400D01*
X46373752Y-78986467D01*
X46288627Y-78960645D01*
X46200100Y-78951926D01*
X45905100Y-78951926D01*
X45816573Y-78960645D01*
X45731448Y-78986467D01*
X45652997Y-79028401D01*
X45650626Y-79030347D01*
X45630264Y-79005536D01*
X45576117Y-78961098D01*
X45514341Y-78928078D01*
X45447310Y-78907745D01*
X45377600Y-78900879D01*
X45323900Y-78902600D01*
X45235000Y-78991500D01*
X45235000Y-79425800D01*
X45255000Y-79425800D01*
X45255000Y-79730600D01*
X45235000Y-79730600D01*
X45235000Y-80164900D01*
X45323900Y-80253800D01*
X45377600Y-80255521D01*
X45447310Y-80248655D01*
X45514341Y-80228322D01*
X45576117Y-80195302D01*
X45630264Y-80150864D01*
X45650626Y-80126053D01*
X45652997Y-80127999D01*
X45731448Y-80169933D01*
X45816573Y-80195755D01*
X45905100Y-80204474D01*
X46200100Y-80204474D01*
X46288627Y-80195755D01*
X46373752Y-80169933D01*
X46435364Y-80137000D01*
X47337683Y-80137000D01*
X47439208Y-80288942D01*
X47600058Y-80449792D01*
X47789197Y-80576171D01*
X47999357Y-80663222D01*
X48222462Y-80707600D01*
X48449938Y-80707600D01*
X48673043Y-80663222D01*
X48883203Y-80576171D01*
X49072342Y-80449792D01*
X49233192Y-80288942D01*
X49359571Y-80099803D01*
X49446622Y-79889643D01*
X49491000Y-79666538D01*
X49491000Y-79439062D01*
X49446622Y-79215957D01*
X49359571Y-79005797D01*
X49233192Y-78816658D01*
X49115800Y-78699266D01*
X49115800Y-78210274D01*
X49257000Y-78210274D01*
X49316751Y-78204389D01*
X49374206Y-78186960D01*
X49427157Y-78158658D01*
X49473568Y-78120568D01*
X49511658Y-78074157D01*
X49539960Y-78021206D01*
X49557389Y-77963751D01*
X49563274Y-77904000D01*
X49563274Y-76904000D01*
X49557389Y-76844249D01*
X49539960Y-76786794D01*
X49511658Y-76733843D01*
X49473568Y-76687432D01*
X49427157Y-76649342D01*
X49374206Y-76621040D01*
X49372570Y-76620544D01*
X49393741Y-76614122D01*
X49455517Y-76581102D01*
X49509664Y-76536664D01*
X49554102Y-76482517D01*
X49587122Y-76420741D01*
X49607455Y-76353710D01*
X49614321Y-76284000D01*
X49612600Y-75925300D01*
X49523700Y-75836400D01*
X48709400Y-75836400D01*
X48709400Y-75856400D01*
X48404600Y-75856400D01*
X48404600Y-75836400D01*
X48384600Y-75836400D01*
X48384600Y-75531600D01*
X48404600Y-75531600D01*
X48404600Y-74817300D01*
X48709400Y-74817300D01*
X48709400Y-75531600D01*
X49523700Y-75531600D01*
X49612600Y-75442700D01*
X49614321Y-75084000D01*
X49607455Y-75014290D01*
X49587122Y-74947259D01*
X49554102Y-74885483D01*
X49509664Y-74831336D01*
X49455517Y-74786898D01*
X49393741Y-74753878D01*
X49326710Y-74733545D01*
X49257000Y-74726679D01*
X48798300Y-74728400D01*
X48709400Y-74817300D01*
X48404600Y-74817300D01*
X48315700Y-74728400D01*
X47857000Y-74726679D01*
X47810431Y-74731266D01*
X47803555Y-74722888D01*
X47803554Y-74722887D01*
X47782079Y-74696720D01*
X47755914Y-74675247D01*
X47216958Y-74136291D01*
X47195480Y-74110120D01*
X47091053Y-74024419D01*
X46971914Y-73960738D01*
X46842640Y-73921523D01*
X46741889Y-73911600D01*
X46741879Y-73911600D01*
X46708200Y-73908283D01*
X46674521Y-73911600D01*
X46366563Y-73911600D01*
X46380400Y-73842037D01*
X46380400Y-73731963D01*
X46358926Y-73624004D01*
X46316802Y-73522309D01*
X46295959Y-73491116D01*
X46334309Y-73419368D01*
X46364186Y-73320877D01*
X46374274Y-73218450D01*
X46374274Y-72780950D01*
X46364186Y-72678523D01*
X46334309Y-72580032D01*
X46285792Y-72489262D01*
X46220498Y-72409702D01*
X46140938Y-72344408D01*
X46050168Y-72295891D01*
X45951677Y-72266014D01*
X45849250Y-72255926D01*
X45336750Y-72255926D01*
X45234323Y-72266014D01*
X45135832Y-72295891D01*
X45045062Y-72344408D01*
X44965502Y-72409702D01*
X44900208Y-72489262D01*
X44851691Y-72580032D01*
X44821814Y-72678523D01*
X44811726Y-72780950D01*
X44811726Y-73218450D01*
X44821814Y-73320877D01*
X44851691Y-73419368D01*
X44878752Y-73469997D01*
X44843798Y-73522309D01*
X44801674Y-73624004D01*
X44782800Y-73718893D01*
X44777989Y-73670049D01*
X44760560Y-73612594D01*
X44732258Y-73559643D01*
X44694168Y-73513232D01*
X44647757Y-73475142D01*
X44594806Y-73446840D01*
X44537351Y-73429411D01*
X44477600Y-73423526D01*
X43477600Y-73423526D01*
X43417849Y-73429411D01*
X43360394Y-73446840D01*
X43307443Y-73475142D01*
X43261032Y-73513232D01*
X43222942Y-73559643D01*
X43194640Y-73612594D01*
X43177211Y-73670049D01*
X43171326Y-73729800D01*
X42883874Y-73729800D01*
X42877989Y-73670049D01*
X42860560Y-73612594D01*
X42832258Y-73559643D01*
X42794168Y-73513232D01*
X42747757Y-73475142D01*
X42694806Y-73446840D01*
X42637351Y-73429411D01*
X42577600Y-73423526D01*
X41577600Y-73423526D01*
X41517849Y-73429411D01*
X41460394Y-73446840D01*
X41407443Y-73475142D01*
X41361032Y-73513232D01*
X41322942Y-73559643D01*
X41310030Y-73583800D01*
X39949963Y-73583800D01*
X39922900Y-73589183D01*
X39895456Y-73591886D01*
X39869068Y-73599891D01*
X39842004Y-73605274D01*
X39816509Y-73615835D01*
X39790122Y-73623839D01*
X39765802Y-73636839D01*
X39740309Y-73647398D01*
X39717369Y-73662726D01*
X39693046Y-73675727D01*
X39671725Y-73693225D01*
X39648786Y-73708552D01*
X39629281Y-73728057D01*
X39607957Y-73745557D01*
X39590457Y-73766881D01*
X39570952Y-73786386D01*
X39555625Y-73809325D01*
X39538127Y-73830646D01*
X39525126Y-73854969D01*
X39509798Y-73877909D01*
X39499239Y-73903402D01*
X39486239Y-73927722D01*
X39478235Y-73954109D01*
X39467674Y-73979604D01*
X39462291Y-74006668D01*
X39454286Y-74033056D01*
X39451583Y-74060500D01*
X39446200Y-74087563D01*
X39446200Y-74115156D01*
X39443497Y-74142600D01*
X36169200Y-74142600D01*
X36169200Y-72644000D01*
X39418097Y-72644000D01*
X39420800Y-72671444D01*
X39420800Y-72699037D01*
X39426183Y-72726100D01*
X39428886Y-72753544D01*
X39436891Y-72779932D01*
X39442274Y-72806996D01*
X39452835Y-72832491D01*
X39460839Y-72858878D01*
X39473839Y-72883198D01*
X39484398Y-72908691D01*
X39499726Y-72931631D01*
X39512727Y-72955954D01*
X39530225Y-72977275D01*
X39545552Y-73000214D01*
X39565057Y-73019719D01*
X39582557Y-73041043D01*
X39603881Y-73058543D01*
X39623386Y-73078048D01*
X39646325Y-73093375D01*
X39667646Y-73110873D01*
X39691969Y-73123874D01*
X39714909Y-73139202D01*
X39740402Y-73149761D01*
X39764722Y-73162761D01*
X39791109Y-73170765D01*
X39816604Y-73181326D01*
X39843668Y-73186709D01*
X39870056Y-73194714D01*
X39897500Y-73197417D01*
X39924563Y-73202800D01*
X41441760Y-73202800D01*
X41460394Y-73212760D01*
X41517849Y-73230189D01*
X41577600Y-73236074D01*
X42577600Y-73236074D01*
X42637351Y-73230189D01*
X42694806Y-73212760D01*
X42747757Y-73184458D01*
X42794168Y-73146368D01*
X42832258Y-73099957D01*
X42860560Y-73047006D01*
X42861056Y-73045370D01*
X42867478Y-73066541D01*
X42900498Y-73128317D01*
X42944936Y-73182464D01*
X42999083Y-73226902D01*
X43060859Y-73259922D01*
X43127890Y-73280255D01*
X43197600Y-73287121D01*
X43556300Y-73285400D01*
X43645200Y-73196500D01*
X43645200Y-72382200D01*
X43950000Y-72382200D01*
X43950000Y-73196500D01*
X44038900Y-73285400D01*
X44397600Y-73287121D01*
X44467310Y-73280255D01*
X44534341Y-73259922D01*
X44596117Y-73226902D01*
X44650264Y-73182464D01*
X44694702Y-73128317D01*
X44727722Y-73066541D01*
X44748055Y-72999510D01*
X44754921Y-72929800D01*
X44753200Y-72471100D01*
X44664300Y-72382200D01*
X43950000Y-72382200D01*
X43645200Y-72382200D01*
X43625200Y-72382200D01*
X43625200Y-72077400D01*
X43645200Y-72077400D01*
X43645200Y-71263100D01*
X43950000Y-71263100D01*
X43950000Y-72077400D01*
X44664300Y-72077400D01*
X44753200Y-71988500D01*
X44753673Y-71862200D01*
X44760679Y-71862200D01*
X44767545Y-71931910D01*
X44787878Y-71998941D01*
X44820898Y-72060717D01*
X44865336Y-72114864D01*
X44919483Y-72159302D01*
X44981259Y-72192322D01*
X45048290Y-72212655D01*
X45118000Y-72219521D01*
X45351700Y-72217800D01*
X45440600Y-72128900D01*
X45440600Y-71577100D01*
X45745400Y-71577100D01*
X45745400Y-72128900D01*
X45834300Y-72217800D01*
X46068000Y-72219521D01*
X46137710Y-72212655D01*
X46204741Y-72192322D01*
X46266517Y-72159302D01*
X46320664Y-72114864D01*
X46365102Y-72060717D01*
X46398122Y-71998941D01*
X46418455Y-71931910D01*
X46425321Y-71862200D01*
X46423600Y-71666000D01*
X46334700Y-71577100D01*
X45745400Y-71577100D01*
X45440600Y-71577100D01*
X44851300Y-71577100D01*
X44762400Y-71666000D01*
X44760679Y-71862200D01*
X44753673Y-71862200D01*
X44754921Y-71529800D01*
X44748055Y-71460090D01*
X44727722Y-71393059D01*
X44694702Y-71331283D01*
X44650264Y-71277136D01*
X44596117Y-71232698D01*
X44534341Y-71199678D01*
X44467310Y-71179345D01*
X44397600Y-71172479D01*
X44038900Y-71174200D01*
X43950000Y-71263100D01*
X43645200Y-71263100D01*
X43556300Y-71174200D01*
X43197600Y-71172479D01*
X43127890Y-71179345D01*
X43060859Y-71199678D01*
X42999083Y-71232698D01*
X42944936Y-71277136D01*
X42900498Y-71331283D01*
X42867478Y-71393059D01*
X42861056Y-71414230D01*
X42860560Y-71412594D01*
X42832258Y-71359643D01*
X42794168Y-71313232D01*
X42747757Y-71275142D01*
X42694806Y-71246840D01*
X42637351Y-71229411D01*
X42577600Y-71223526D01*
X41577600Y-71223526D01*
X41517849Y-71229411D01*
X41460394Y-71246840D01*
X41407443Y-71275142D01*
X41361032Y-71313232D01*
X41322942Y-71359643D01*
X41294640Y-71412594D01*
X41277211Y-71470049D01*
X41271326Y-71529800D01*
X41271326Y-72085200D01*
X39924563Y-72085200D01*
X39897500Y-72090583D01*
X39870056Y-72093286D01*
X39843668Y-72101291D01*
X39816604Y-72106674D01*
X39791109Y-72117235D01*
X39764722Y-72125239D01*
X39740402Y-72138239D01*
X39714909Y-72148798D01*
X39691969Y-72164126D01*
X39667646Y-72177127D01*
X39646325Y-72194625D01*
X39623386Y-72209952D01*
X39603881Y-72229457D01*
X39582557Y-72246957D01*
X39565057Y-72268281D01*
X39545552Y-72287786D01*
X39530225Y-72310725D01*
X39512727Y-72332046D01*
X39499726Y-72356369D01*
X39484398Y-72379309D01*
X39473839Y-72404802D01*
X39460839Y-72429122D01*
X39452835Y-72455509D01*
X39442274Y-72481004D01*
X39436891Y-72508068D01*
X39428886Y-72534456D01*
X39426183Y-72561900D01*
X39420800Y-72588963D01*
X39420800Y-72616556D01*
X39418097Y-72644000D01*
X36169200Y-72644000D01*
X36169200Y-71032436D01*
X37950000Y-71032436D01*
X37950000Y-71230364D01*
X37988614Y-71424489D01*
X38064358Y-71607351D01*
X38174321Y-71771923D01*
X38314277Y-71911879D01*
X38478849Y-72021842D01*
X38661711Y-72097586D01*
X38855836Y-72136200D01*
X39053764Y-72136200D01*
X39247889Y-72097586D01*
X39430751Y-72021842D01*
X39595323Y-71911879D01*
X39735279Y-71771923D01*
X39845242Y-71607351D01*
X39920986Y-71424489D01*
X39959600Y-71230364D01*
X39959600Y-71032436D01*
X39950602Y-70987200D01*
X44760679Y-70987200D01*
X44762400Y-71183400D01*
X44851300Y-71272300D01*
X45440600Y-71272300D01*
X45440600Y-70720500D01*
X45745400Y-70720500D01*
X45745400Y-71272300D01*
X46334700Y-71272300D01*
X46423600Y-71183400D01*
X46425321Y-70987200D01*
X46418455Y-70917490D01*
X46398122Y-70850459D01*
X46365102Y-70788683D01*
X46320664Y-70734536D01*
X46266517Y-70690098D01*
X46204741Y-70657078D01*
X46137710Y-70636745D01*
X46068000Y-70629879D01*
X45834300Y-70631600D01*
X45745400Y-70720500D01*
X45440600Y-70720500D01*
X45351700Y-70631600D01*
X45118000Y-70629879D01*
X45048290Y-70636745D01*
X44981259Y-70657078D01*
X44919483Y-70690098D01*
X44865336Y-70734536D01*
X44820898Y-70788683D01*
X44787878Y-70850459D01*
X44767545Y-70917490D01*
X44760679Y-70987200D01*
X39950602Y-70987200D01*
X39920986Y-70838311D01*
X39845242Y-70655449D01*
X39735279Y-70490877D01*
X39595323Y-70350921D01*
X39430751Y-70240958D01*
X39247889Y-70165214D01*
X39053764Y-70126600D01*
X38855836Y-70126600D01*
X38661711Y-70165214D01*
X38478849Y-70240958D01*
X38314277Y-70350921D01*
X38174321Y-70490877D01*
X38064358Y-70655449D01*
X37988614Y-70838311D01*
X37950000Y-71032436D01*
X36169200Y-71032436D01*
X36169200Y-69540963D01*
X48996600Y-69540963D01*
X48996600Y-69651037D01*
X49018074Y-69758996D01*
X49060198Y-69860691D01*
X49121352Y-69952214D01*
X49123600Y-69954462D01*
X49123601Y-70539980D01*
X49121511Y-70561200D01*
X49129848Y-70645847D01*
X49145537Y-70697564D01*
X49154540Y-70727242D01*
X49194635Y-70802256D01*
X49248595Y-70868006D01*
X49265074Y-70881530D01*
X50012600Y-71629057D01*
X50012601Y-73486380D01*
X50010511Y-73507600D01*
X50018848Y-73592247D01*
X50035579Y-73647398D01*
X50043540Y-73673642D01*
X50083635Y-73748656D01*
X50137595Y-73814406D01*
X50154074Y-73827930D01*
X51023869Y-74697726D01*
X50057000Y-74697726D01*
X49997249Y-74703611D01*
X49939794Y-74721040D01*
X49886843Y-74749342D01*
X49840432Y-74787432D01*
X49802342Y-74833843D01*
X49774040Y-74886794D01*
X49756611Y-74944249D01*
X49750726Y-75004000D01*
X49750726Y-76004000D01*
X49756611Y-76063751D01*
X49774040Y-76121206D01*
X49802342Y-76174157D01*
X49840432Y-76220568D01*
X49886843Y-76258658D01*
X49939794Y-76286960D01*
X49997249Y-76304389D01*
X50057000Y-76310274D01*
X51313811Y-76310274D01*
X51333400Y-76329863D01*
X51333400Y-76597726D01*
X50057000Y-76597726D01*
X49997249Y-76603611D01*
X49939794Y-76621040D01*
X49886843Y-76649342D01*
X49840432Y-76687432D01*
X49802342Y-76733843D01*
X49774040Y-76786794D01*
X49756611Y-76844249D01*
X49750726Y-76904000D01*
X49750726Y-77904000D01*
X49756611Y-77963751D01*
X49774040Y-78021206D01*
X49802342Y-78074157D01*
X49840432Y-78120568D01*
X49886843Y-78158658D01*
X49939794Y-78186960D01*
X49997249Y-78204389D01*
X50057000Y-78210274D01*
X50198200Y-78210274D01*
X50198201Y-78616958D01*
X50140058Y-78655808D01*
X49979208Y-78816658D01*
X49852829Y-79005797D01*
X49765778Y-79215957D01*
X49721400Y-79439062D01*
X49721400Y-79666538D01*
X49765778Y-79889643D01*
X49852829Y-80099803D01*
X49979208Y-80288942D01*
X50140058Y-80449792D01*
X50329197Y-80576171D01*
X50539357Y-80663222D01*
X50762462Y-80707600D01*
X50989938Y-80707600D01*
X51213043Y-80663222D01*
X51423203Y-80576171D01*
X51612342Y-80449792D01*
X51773192Y-80288942D01*
X51899571Y-80099803D01*
X51986622Y-79889643D01*
X52031000Y-79666538D01*
X52031000Y-79439062D01*
X51986622Y-79215957D01*
X51899571Y-79005797D01*
X51773192Y-78816658D01*
X51612342Y-78655808D01*
X51423203Y-78529429D01*
X51315800Y-78484941D01*
X51315800Y-78210274D01*
X51363306Y-78210274D01*
X51373439Y-78243677D01*
X51399340Y-78292134D01*
X51425328Y-78340754D01*
X51495158Y-78425843D01*
X51516476Y-78443338D01*
X52303010Y-79229872D01*
X52261400Y-79439062D01*
X52261400Y-79666538D01*
X52305778Y-79889643D01*
X52392829Y-80099803D01*
X52519208Y-80288942D01*
X52680058Y-80449792D01*
X52869197Y-80576171D01*
X53079357Y-80663222D01*
X53302462Y-80707600D01*
X53529938Y-80707600D01*
X53753043Y-80663222D01*
X53963203Y-80576171D01*
X54152342Y-80449792D01*
X54199334Y-80402800D01*
X54748879Y-80402800D01*
X54755745Y-80472510D01*
X54776078Y-80539541D01*
X54809098Y-80601317D01*
X54853536Y-80655464D01*
X54907683Y-80699902D01*
X54969459Y-80732922D01*
X55036490Y-80753255D01*
X55106200Y-80760121D01*
X55714900Y-80758400D01*
X55803800Y-80669500D01*
X55803800Y-79705200D01*
X56108600Y-79705200D01*
X56108600Y-80669500D01*
X56197500Y-80758400D01*
X56806200Y-80760121D01*
X56875910Y-80753255D01*
X56942941Y-80732922D01*
X57004717Y-80699902D01*
X57058864Y-80655464D01*
X57103302Y-80601317D01*
X57136322Y-80539541D01*
X57156655Y-80472510D01*
X57163521Y-80402800D01*
X57161800Y-79794100D01*
X57072900Y-79705200D01*
X56108600Y-79705200D01*
X55803800Y-79705200D01*
X54839500Y-79705200D01*
X54750600Y-79794100D01*
X54748879Y-80402800D01*
X54199334Y-80402800D01*
X54313192Y-80288942D01*
X54439571Y-80099803D01*
X54526622Y-79889643D01*
X54571000Y-79666538D01*
X54571000Y-79439062D01*
X54526622Y-79215957D01*
X54439571Y-79005797D01*
X54313192Y-78816658D01*
X54287334Y-78790800D01*
X54749128Y-78790800D01*
X54750600Y-79311500D01*
X54839500Y-79400400D01*
X55803800Y-79400400D01*
X55803800Y-79380400D01*
X56108600Y-79380400D01*
X56108600Y-79400400D01*
X57072900Y-79400400D01*
X57161800Y-79311500D01*
X57163272Y-78790800D01*
X58200864Y-78790800D01*
X58496200Y-79086137D01*
X58496200Y-79125237D01*
X58517674Y-79233196D01*
X58559798Y-79334891D01*
X58620952Y-79426414D01*
X58698786Y-79504248D01*
X58790309Y-79565402D01*
X58892004Y-79607526D01*
X58999963Y-79629000D01*
X59110037Y-79629000D01*
X59217996Y-79607526D01*
X59319691Y-79565402D01*
X59411214Y-79504248D01*
X59489048Y-79426414D01*
X59550202Y-79334891D01*
X59592326Y-79233196D01*
X59613800Y-79125237D01*
X59613800Y-79015163D01*
X59592326Y-78907204D01*
X59551838Y-78809460D01*
X59614414Y-78767648D01*
X59692248Y-78689814D01*
X59744079Y-78612244D01*
X60399095Y-79267260D01*
X60411814Y-79282758D01*
X60427312Y-79295477D01*
X60427317Y-79295482D01*
X60446836Y-79311500D01*
X60473696Y-79333544D01*
X60544297Y-79371281D01*
X60620903Y-79394519D01*
X60628176Y-79395235D01*
X60680612Y-79400400D01*
X60680619Y-79400400D01*
X60700572Y-79402365D01*
X60720525Y-79400400D01*
X62520276Y-79400400D01*
X62540229Y-79402365D01*
X62560182Y-79400400D01*
X62560189Y-79400400D01*
X62619897Y-79394519D01*
X62696504Y-79371281D01*
X62767105Y-79333544D01*
X62828987Y-79282758D01*
X62841711Y-79267254D01*
X63170840Y-78938125D01*
X63235309Y-78981202D01*
X63337004Y-79023326D01*
X63444963Y-79044800D01*
X63555037Y-79044800D01*
X63662996Y-79023326D01*
X63764691Y-78981202D01*
X63856214Y-78920048D01*
X63934048Y-78842214D01*
X63995202Y-78750691D01*
X64037326Y-78648996D01*
X64041571Y-78627657D01*
X64206526Y-78792612D01*
X64183552Y-78815586D01*
X64122398Y-78907109D01*
X64080274Y-79008804D01*
X64058800Y-79116763D01*
X64058800Y-79226837D01*
X64080274Y-79334796D01*
X64122398Y-79436491D01*
X64183552Y-79528014D01*
X64261386Y-79605848D01*
X64352909Y-79667002D01*
X64454604Y-79709126D01*
X64562563Y-79730600D01*
X64672637Y-79730600D01*
X64780596Y-79709126D01*
X64781220Y-79708868D01*
X64815636Y-79773257D01*
X64869596Y-79839007D01*
X64886075Y-79852531D01*
X65123200Y-80089656D01*
X65123200Y-80092837D01*
X65144674Y-80200796D01*
X65186798Y-80302491D01*
X65247952Y-80394014D01*
X65325786Y-80471848D01*
X65417309Y-80533002D01*
X65519004Y-80575126D01*
X65626963Y-80596600D01*
X65737037Y-80596600D01*
X65844996Y-80575126D01*
X65946691Y-80533002D01*
X66038214Y-80471848D01*
X66051314Y-80458748D01*
X87104600Y-80458748D01*
X87104600Y-80577252D01*
X87127719Y-80693480D01*
X87173069Y-80802965D01*
X87238907Y-80901498D01*
X87322702Y-80985293D01*
X87421235Y-81051131D01*
X87530720Y-81096481D01*
X87646948Y-81119600D01*
X87765452Y-81119600D01*
X87881680Y-81096481D01*
X87991165Y-81051131D01*
X88089698Y-80985293D01*
X88173493Y-80901498D01*
X88239331Y-80802965D01*
X88284681Y-80693480D01*
X88307800Y-80577252D01*
X88307800Y-80458748D01*
X88284681Y-80342520D01*
X88239331Y-80233035D01*
X88173493Y-80134502D01*
X88089698Y-80050707D01*
X87991165Y-79984869D01*
X87881680Y-79939519D01*
X87765452Y-79916400D01*
X87646948Y-79916400D01*
X87530720Y-79939519D01*
X87421235Y-79984869D01*
X87322702Y-80050707D01*
X87238907Y-80134502D01*
X87173069Y-80233035D01*
X87127719Y-80342520D01*
X87104600Y-80458748D01*
X66051314Y-80458748D01*
X66116048Y-80394014D01*
X66177202Y-80302491D01*
X66219326Y-80200796D01*
X66240800Y-80092837D01*
X66240800Y-79982763D01*
X66219326Y-79874804D01*
X66177202Y-79773109D01*
X66116048Y-79681586D01*
X66038214Y-79603752D01*
X65946691Y-79542598D01*
X65844996Y-79500474D01*
X65737037Y-79479000D01*
X65733856Y-79479000D01*
X65608201Y-79353345D01*
X65608201Y-78671585D01*
X65889700Y-78670400D01*
X65978600Y-78581500D01*
X65978600Y-77692200D01*
X66283400Y-77692200D01*
X66283400Y-78581500D01*
X66372300Y-78670400D01*
X66781000Y-78672121D01*
X66850710Y-78665255D01*
X66917741Y-78644922D01*
X66979517Y-78611902D01*
X67033664Y-78567464D01*
X67078102Y-78513317D01*
X67111122Y-78451541D01*
X67131455Y-78384510D01*
X67138321Y-78314800D01*
X67136600Y-77781100D01*
X67047700Y-77692200D01*
X66283400Y-77692200D01*
X65978600Y-77692200D01*
X65214300Y-77692200D01*
X65125400Y-77781100D01*
X65124853Y-77950795D01*
X64423535Y-77249479D01*
X64410006Y-77232994D01*
X64344256Y-77179034D01*
X64269242Y-77138939D01*
X64187848Y-77114248D01*
X64124410Y-77108000D01*
X64103200Y-77105911D01*
X64081990Y-77108000D01*
X62587274Y-77108000D01*
X62587274Y-76764800D01*
X65123679Y-76764800D01*
X65125400Y-77298500D01*
X65214300Y-77387400D01*
X65978600Y-77387400D01*
X65978600Y-76498100D01*
X66283400Y-76498100D01*
X66283400Y-77387400D01*
X67047700Y-77387400D01*
X67136600Y-77298500D01*
X67138321Y-76764800D01*
X67131455Y-76695090D01*
X67111122Y-76628059D01*
X67078102Y-76566283D01*
X67033664Y-76512136D01*
X66979517Y-76467698D01*
X66917741Y-76434678D01*
X66850710Y-76414345D01*
X66781000Y-76407479D01*
X66372300Y-76409200D01*
X66283400Y-76498100D01*
X65978600Y-76498100D01*
X65889700Y-76409200D01*
X65481000Y-76407479D01*
X65411290Y-76414345D01*
X65344259Y-76434678D01*
X65282483Y-76467698D01*
X65228336Y-76512136D01*
X65183898Y-76566283D01*
X65150878Y-76628059D01*
X65130545Y-76695090D01*
X65123679Y-76764800D01*
X62587274Y-76764800D01*
X62581389Y-76705049D01*
X62563960Y-76647594D01*
X62535658Y-76594643D01*
X62497568Y-76548232D01*
X62451157Y-76510142D01*
X62398206Y-76481840D01*
X62340751Y-76464411D01*
X62281000Y-76458526D01*
X61160382Y-76458526D01*
X60916335Y-76214479D01*
X60902806Y-76197994D01*
X60837056Y-76144034D01*
X60762042Y-76103939D01*
X60680648Y-76079248D01*
X60617210Y-76073000D01*
X60596000Y-76070911D01*
X60574790Y-76073000D01*
X60173657Y-76073000D01*
X60096400Y-75995743D01*
X60096400Y-75503219D01*
X60113856Y-75508514D01*
X60141300Y-75511217D01*
X60168363Y-75516600D01*
X60195956Y-75516600D01*
X60223400Y-75519303D01*
X60250844Y-75516600D01*
X60278437Y-75516600D01*
X60305500Y-75511217D01*
X60332943Y-75508514D01*
X60359329Y-75500510D01*
X60386396Y-75495126D01*
X60411894Y-75484564D01*
X60438277Y-75476561D01*
X60462595Y-75463563D01*
X60488091Y-75453002D01*
X60511032Y-75437673D01*
X60535354Y-75424673D01*
X60556675Y-75407175D01*
X60579614Y-75391848D01*
X60599119Y-75372343D01*
X60620443Y-75354843D01*
X60635578Y-75336400D01*
X68145497Y-75336400D01*
X68148200Y-75363842D01*
X68148200Y-75363844D01*
X68153731Y-75419997D01*
X68156287Y-75445944D01*
X68188239Y-75551277D01*
X68203399Y-75579639D01*
X68240128Y-75648354D01*
X68309958Y-75733443D01*
X68331276Y-75750938D01*
X69619000Y-77038662D01*
X69619001Y-78230158D01*
X69619000Y-78230163D01*
X69619000Y-78340237D01*
X69624385Y-78367310D01*
X69627087Y-78394744D01*
X69635089Y-78421122D01*
X69640474Y-78448196D01*
X69651038Y-78473700D01*
X69659040Y-78500078D01*
X69672035Y-78524390D01*
X69682598Y-78549891D01*
X69697931Y-78572839D01*
X69710928Y-78597154D01*
X69728421Y-78618469D01*
X69743752Y-78641414D01*
X69763263Y-78660925D01*
X69780758Y-78682243D01*
X69802076Y-78699738D01*
X69821586Y-78719248D01*
X69844530Y-78734579D01*
X69865847Y-78752073D01*
X69890165Y-78765071D01*
X69913109Y-78780402D01*
X69938606Y-78790963D01*
X69962923Y-78803961D01*
X69989306Y-78811964D01*
X70014804Y-78822526D01*
X70041871Y-78827910D01*
X70068257Y-78835914D01*
X70095700Y-78838617D01*
X70122763Y-78844000D01*
X70150356Y-78844000D01*
X70177800Y-78846703D01*
X70205244Y-78844000D01*
X70232837Y-78844000D01*
X70259900Y-78838617D01*
X70287344Y-78835914D01*
X70313732Y-78827909D01*
X70340796Y-78822526D01*
X70366291Y-78811965D01*
X70392678Y-78803961D01*
X70416998Y-78790961D01*
X70442491Y-78780402D01*
X70465431Y-78765074D01*
X70489754Y-78752073D01*
X70511075Y-78734575D01*
X70534014Y-78719248D01*
X70553519Y-78699743D01*
X70574843Y-78682243D01*
X70592343Y-78660919D01*
X70611848Y-78641414D01*
X70627175Y-78618475D01*
X70644673Y-78597154D01*
X70657674Y-78572831D01*
X70673002Y-78549891D01*
X70683561Y-78524398D01*
X70696561Y-78500078D01*
X70704565Y-78473691D01*
X70715126Y-78448196D01*
X70720509Y-78421132D01*
X70728514Y-78394744D01*
X70731217Y-78367300D01*
X70736600Y-78340237D01*
X70736600Y-76906000D01*
X84359879Y-76906000D01*
X84366745Y-76975710D01*
X84387078Y-77042741D01*
X84420098Y-77104517D01*
X84464536Y-77158664D01*
X84518683Y-77203102D01*
X84580459Y-77236122D01*
X84647490Y-77256455D01*
X84717200Y-77263321D01*
X86575900Y-77261600D01*
X86664800Y-77172700D01*
X86664800Y-76383400D01*
X84450500Y-76383400D01*
X84361600Y-76472300D01*
X84359879Y-76906000D01*
X70736600Y-76906000D01*
X70736600Y-76834641D01*
X70739303Y-76807199D01*
X70732310Y-76736200D01*
X70728514Y-76697656D01*
X70696561Y-76592322D01*
X70644673Y-76495246D01*
X70574843Y-76410157D01*
X70553519Y-76392657D01*
X69716862Y-75556000D01*
X84359879Y-75556000D01*
X84361600Y-75989700D01*
X84450500Y-76078600D01*
X86664800Y-76078600D01*
X86664800Y-75289300D01*
X86575900Y-75200400D01*
X84717200Y-75198679D01*
X84647490Y-75205545D01*
X84580459Y-75225878D01*
X84518683Y-75258898D01*
X84464536Y-75303336D01*
X84420098Y-75357483D01*
X84387078Y-75419259D01*
X84366745Y-75486290D01*
X84359879Y-75556000D01*
X69716862Y-75556000D01*
X69265800Y-75104938D01*
X69265800Y-74366963D01*
X69260417Y-74339900D01*
X69257714Y-74312456D01*
X69249709Y-74286068D01*
X69244326Y-74259004D01*
X69233765Y-74233509D01*
X69225761Y-74207122D01*
X69212761Y-74182802D01*
X69202202Y-74157309D01*
X69186874Y-74134369D01*
X69173873Y-74110046D01*
X69156375Y-74088725D01*
X69141048Y-74065786D01*
X69121543Y-74046281D01*
X69104043Y-74024957D01*
X69082719Y-74007457D01*
X69063214Y-73987952D01*
X69040275Y-73972625D01*
X69018954Y-73955127D01*
X68994632Y-73942127D01*
X68971691Y-73926798D01*
X68946195Y-73916237D01*
X68921877Y-73903239D01*
X68895494Y-73895236D01*
X68869996Y-73884674D01*
X68842929Y-73879290D01*
X68816543Y-73871286D01*
X68789100Y-73868583D01*
X68762037Y-73863200D01*
X68734444Y-73863200D01*
X68707000Y-73860497D01*
X68679556Y-73863200D01*
X68651963Y-73863200D01*
X68624900Y-73868583D01*
X68597456Y-73871286D01*
X68571068Y-73879291D01*
X68544004Y-73884674D01*
X68518509Y-73895235D01*
X68492122Y-73903239D01*
X68467802Y-73916239D01*
X68442309Y-73926798D01*
X68419369Y-73942126D01*
X68395046Y-73955127D01*
X68373725Y-73972625D01*
X68350786Y-73987952D01*
X68331281Y-74007457D01*
X68309957Y-74024957D01*
X68292457Y-74046281D01*
X68272952Y-74065786D01*
X68257625Y-74088725D01*
X68240127Y-74110046D01*
X68227127Y-74134368D01*
X68211798Y-74157309D01*
X68201237Y-74182805D01*
X68188239Y-74207123D01*
X68180236Y-74233506D01*
X68169674Y-74259004D01*
X68164290Y-74286071D01*
X68156286Y-74312457D01*
X68153583Y-74339899D01*
X68148200Y-74366963D01*
X68148200Y-75308958D01*
X68145497Y-75336400D01*
X60635578Y-75336400D01*
X60637943Y-75333519D01*
X60657448Y-75314014D01*
X60672775Y-75291075D01*
X60690273Y-75269754D01*
X60703274Y-75245431D01*
X60718602Y-75222491D01*
X60729161Y-75196998D01*
X60742161Y-75172678D01*
X60750165Y-75146291D01*
X60760726Y-75120796D01*
X60766109Y-75093732D01*
X60774114Y-75067344D01*
X60776817Y-75039900D01*
X60782200Y-75012837D01*
X60782200Y-73408862D01*
X61978862Y-72212200D01*
X68073938Y-72212200D01*
X68149986Y-72288248D01*
X68172931Y-72303580D01*
X68194246Y-72321072D01*
X68218562Y-72334069D01*
X68241509Y-72349402D01*
X68267007Y-72359964D01*
X68291323Y-72372961D01*
X68317705Y-72380964D01*
X68343204Y-72391526D01*
X68370274Y-72396911D01*
X68396655Y-72404913D01*
X68424094Y-72407616D01*
X68451163Y-72413000D01*
X68478757Y-72413000D01*
X68506199Y-72415703D01*
X68533641Y-72413000D01*
X68561237Y-72413000D01*
X68588307Y-72407615D01*
X68615744Y-72404913D01*
X68642124Y-72396911D01*
X68669196Y-72391526D01*
X68694695Y-72380964D01*
X68721077Y-72372961D01*
X68745393Y-72359964D01*
X68770891Y-72349402D01*
X68793838Y-72334069D01*
X68818154Y-72321072D01*
X68839468Y-72303580D01*
X68862414Y-72288248D01*
X68881928Y-72268734D01*
X68903242Y-72251242D01*
X68920734Y-72229928D01*
X68940248Y-72210414D01*
X68955580Y-72187468D01*
X68973072Y-72166154D01*
X68986069Y-72141838D01*
X69001402Y-72118891D01*
X69011964Y-72093393D01*
X69024961Y-72069077D01*
X69032964Y-72042695D01*
X69043526Y-72017196D01*
X69048911Y-71990124D01*
X69056913Y-71963744D01*
X69059615Y-71936307D01*
X69065000Y-71909237D01*
X69065000Y-71881641D01*
X69067703Y-71854199D01*
X69065000Y-71826757D01*
X69065000Y-71799163D01*
X69059616Y-71772094D01*
X69056913Y-71744655D01*
X69048911Y-71718274D01*
X69043526Y-71691204D01*
X69032964Y-71665705D01*
X69024961Y-71639323D01*
X69011964Y-71615007D01*
X69001402Y-71589509D01*
X68986069Y-71566562D01*
X68973072Y-71542246D01*
X68955580Y-71520931D01*
X68940248Y-71497986D01*
X68719943Y-71277681D01*
X68702443Y-71256357D01*
X68702008Y-71256000D01*
X84359879Y-71256000D01*
X84366745Y-71325710D01*
X84387078Y-71392741D01*
X84420098Y-71454517D01*
X84464536Y-71508664D01*
X84518683Y-71553102D01*
X84580459Y-71586122D01*
X84647490Y-71606455D01*
X84717200Y-71613321D01*
X86575900Y-71611600D01*
X86664800Y-71522700D01*
X86664800Y-70733400D01*
X84450500Y-70733400D01*
X84361600Y-70822300D01*
X84359879Y-71256000D01*
X68702008Y-71256000D01*
X68617354Y-71186527D01*
X68520278Y-71134639D01*
X68414944Y-71102686D01*
X68332844Y-71094600D01*
X68332842Y-71094600D01*
X68305400Y-71091897D01*
X68277958Y-71094600D01*
X67138095Y-71094600D01*
X67136600Y-70631100D01*
X67047700Y-70542200D01*
X66283400Y-70542200D01*
X66283400Y-70562200D01*
X65978600Y-70562200D01*
X65978600Y-70542200D01*
X65214300Y-70542200D01*
X65125400Y-70631100D01*
X65123905Y-71094600D01*
X62587274Y-71094600D01*
X62587274Y-69672220D01*
X63321144Y-69672220D01*
X63526645Y-69877721D01*
X63521474Y-69890204D01*
X63500000Y-69998163D01*
X63500000Y-70108237D01*
X63521474Y-70216196D01*
X63563598Y-70317891D01*
X63624752Y-70409414D01*
X63702586Y-70487248D01*
X63794109Y-70548402D01*
X63895804Y-70590526D01*
X64003763Y-70612000D01*
X64113837Y-70612000D01*
X64221796Y-70590526D01*
X64323491Y-70548402D01*
X64415014Y-70487248D01*
X64492848Y-70409414D01*
X64554002Y-70317891D01*
X64596126Y-70216196D01*
X64617600Y-70108237D01*
X64617600Y-70048990D01*
X64704396Y-70031726D01*
X64806091Y-69989602D01*
X64897614Y-69928448D01*
X64975448Y-69850614D01*
X65036602Y-69759091D01*
X65078726Y-69657396D01*
X65087198Y-69614800D01*
X65123679Y-69614800D01*
X65125400Y-70148500D01*
X65214300Y-70237400D01*
X65978600Y-70237400D01*
X65978600Y-69348100D01*
X66283400Y-69348100D01*
X66283400Y-70237400D01*
X67047700Y-70237400D01*
X67136600Y-70148500D01*
X67137381Y-69906000D01*
X84359879Y-69906000D01*
X84361600Y-70339700D01*
X84450500Y-70428600D01*
X86664800Y-70428600D01*
X86664800Y-69639300D01*
X86575900Y-69550400D01*
X84717200Y-69548679D01*
X84647490Y-69555545D01*
X84580459Y-69575878D01*
X84518683Y-69608898D01*
X84464536Y-69653336D01*
X84420098Y-69707483D01*
X84387078Y-69769259D01*
X84366745Y-69836290D01*
X84359879Y-69906000D01*
X67137381Y-69906000D01*
X67138321Y-69614800D01*
X67131455Y-69545090D01*
X67111122Y-69478059D01*
X67078102Y-69416283D01*
X67033664Y-69362136D01*
X66979517Y-69317698D01*
X66917741Y-69284678D01*
X66850710Y-69264345D01*
X66781000Y-69257479D01*
X66372300Y-69259200D01*
X66283400Y-69348100D01*
X65978600Y-69348100D01*
X65889700Y-69259200D01*
X65481000Y-69257479D01*
X65411290Y-69264345D01*
X65344259Y-69284678D01*
X65282483Y-69317698D01*
X65228336Y-69362136D01*
X65183898Y-69416283D01*
X65150878Y-69478059D01*
X65130545Y-69545090D01*
X65123679Y-69614800D01*
X65087198Y-69614800D01*
X65100200Y-69549437D01*
X65100200Y-69439363D01*
X65078726Y-69331404D01*
X65036602Y-69229709D01*
X64975940Y-69138922D01*
X65000848Y-69114014D01*
X65062002Y-69022491D01*
X65104126Y-68920796D01*
X65125600Y-68812837D01*
X65125600Y-68702763D01*
X65104126Y-68594804D01*
X65062002Y-68493109D01*
X65000848Y-68401586D01*
X64950662Y-68351400D01*
X65000848Y-68301214D01*
X65004089Y-68296363D01*
X65735200Y-68296363D01*
X65735200Y-68406437D01*
X65756674Y-68514396D01*
X65798798Y-68616091D01*
X65859952Y-68707614D01*
X65937786Y-68785448D01*
X66029309Y-68846602D01*
X66131004Y-68888726D01*
X66238963Y-68910200D01*
X66349037Y-68910200D01*
X66456996Y-68888726D01*
X66480066Y-68879170D01*
X66557448Y-68920533D01*
X66642573Y-68946355D01*
X66731100Y-68955074D01*
X67076100Y-68955074D01*
X67164627Y-68946355D01*
X67249752Y-68920533D01*
X67328203Y-68878599D01*
X67396967Y-68822167D01*
X67453399Y-68753403D01*
X67495333Y-68674952D01*
X67521155Y-68589827D01*
X67529874Y-68501300D01*
X67529874Y-68445600D01*
X68385279Y-68445600D01*
X68392145Y-68515310D01*
X68412478Y-68582341D01*
X68445498Y-68644117D01*
X68489936Y-68698264D01*
X68544083Y-68742702D01*
X68605859Y-68775722D01*
X68672890Y-68796055D01*
X68742600Y-68802921D01*
X68821300Y-68801200D01*
X68910200Y-68712300D01*
X68910200Y-68303000D01*
X69215000Y-68303000D01*
X69215000Y-68712300D01*
X69303900Y-68801200D01*
X69382600Y-68802921D01*
X69452310Y-68796055D01*
X69519341Y-68775722D01*
X69581117Y-68742702D01*
X69635264Y-68698264D01*
X69679702Y-68644117D01*
X69712722Y-68582341D01*
X69733055Y-68515310D01*
X69739921Y-68445600D01*
X69738200Y-68391900D01*
X69649300Y-68303000D01*
X69215000Y-68303000D01*
X68910200Y-68303000D01*
X68475900Y-68303000D01*
X68387000Y-68391900D01*
X68385279Y-68445600D01*
X67529874Y-68445600D01*
X67529874Y-68206300D01*
X67521155Y-68117773D01*
X67495333Y-68032648D01*
X67453399Y-67954197D01*
X67451453Y-67951826D01*
X67476264Y-67931464D01*
X67520702Y-67877317D01*
X67532309Y-67855600D01*
X68385279Y-67855600D01*
X68387000Y-67909300D01*
X68475900Y-67998200D01*
X68910200Y-67998200D01*
X68910200Y-67978200D01*
X69215000Y-67978200D01*
X69215000Y-67998200D01*
X69649300Y-67998200D01*
X69738200Y-67909300D01*
X69739921Y-67855600D01*
X69733055Y-67785890D01*
X69712722Y-67718859D01*
X69711408Y-67716400D01*
X69778037Y-67716400D01*
X69885996Y-67694926D01*
X69987691Y-67652802D01*
X70079214Y-67591648D01*
X70157048Y-67513814D01*
X70218202Y-67422291D01*
X70260326Y-67320596D01*
X70281800Y-67212637D01*
X70281800Y-67102563D01*
X70260326Y-66994604D01*
X70218202Y-66892909D01*
X70157048Y-66801386D01*
X70079214Y-66723552D01*
X69987691Y-66662398D01*
X69885996Y-66620274D01*
X69778037Y-66598800D01*
X69667963Y-66598800D01*
X69560004Y-66620274D01*
X69481541Y-66652775D01*
X69408752Y-66613867D01*
X69323627Y-66588045D01*
X69235100Y-66579326D01*
X68890100Y-66579326D01*
X68801573Y-66588045D01*
X68716448Y-66613867D01*
X68637997Y-66655801D01*
X68569233Y-66712233D01*
X68512801Y-66780997D01*
X68470867Y-66859448D01*
X68445045Y-66944573D01*
X68436326Y-67033100D01*
X68436326Y-67328100D01*
X68445045Y-67416627D01*
X68470867Y-67501752D01*
X68512801Y-67580203D01*
X68514747Y-67582574D01*
X68489936Y-67602936D01*
X68445498Y-67657083D01*
X68412478Y-67718859D01*
X68392145Y-67785890D01*
X68385279Y-67855600D01*
X67532309Y-67855600D01*
X67553722Y-67815541D01*
X67574055Y-67748510D01*
X67580921Y-67678800D01*
X67579200Y-67625100D01*
X67490300Y-67536200D01*
X67056000Y-67536200D01*
X67056000Y-67556200D01*
X66751200Y-67556200D01*
X66751200Y-67536200D01*
X66316900Y-67536200D01*
X66228000Y-67625100D01*
X66226279Y-67678800D01*
X66233145Y-67748510D01*
X66246519Y-67792600D01*
X66238963Y-67792600D01*
X66131004Y-67814074D01*
X66029309Y-67856198D01*
X65937786Y-67917352D01*
X65859952Y-67995186D01*
X65798798Y-68086709D01*
X65756674Y-68188404D01*
X65735200Y-68296363D01*
X65004089Y-68296363D01*
X65062002Y-68209691D01*
X65104126Y-68107996D01*
X65125600Y-68000037D01*
X65125600Y-67889963D01*
X65104126Y-67782004D01*
X65062002Y-67680309D01*
X65000848Y-67588786D01*
X64923014Y-67510952D01*
X64831491Y-67449798D01*
X64729796Y-67407674D01*
X64621837Y-67386200D01*
X64589994Y-67386200D01*
X64596126Y-67371396D01*
X64617600Y-67263437D01*
X64617600Y-67153363D01*
X64604758Y-67088800D01*
X66226279Y-67088800D01*
X66228000Y-67142500D01*
X66316900Y-67231400D01*
X66751200Y-67231400D01*
X66751200Y-66822100D01*
X67056000Y-66822100D01*
X67056000Y-67231400D01*
X67490300Y-67231400D01*
X67579200Y-67142500D01*
X67580921Y-67088800D01*
X67574055Y-67019090D01*
X67553722Y-66952059D01*
X67520702Y-66890283D01*
X67476264Y-66836136D01*
X67422117Y-66791698D01*
X67360341Y-66758678D01*
X67293310Y-66738345D01*
X67223600Y-66731479D01*
X67144900Y-66733200D01*
X67056000Y-66822100D01*
X66751200Y-66822100D01*
X66662300Y-66733200D01*
X66583600Y-66731479D01*
X66513890Y-66738345D01*
X66446859Y-66758678D01*
X66385083Y-66791698D01*
X66330936Y-66836136D01*
X66286498Y-66890283D01*
X66253478Y-66952059D01*
X66233145Y-67019090D01*
X66226279Y-67088800D01*
X64604758Y-67088800D01*
X64596126Y-67045404D01*
X64554002Y-66943709D01*
X64492848Y-66852186D01*
X64415014Y-66774352D01*
X64323491Y-66713198D01*
X64221796Y-66671074D01*
X64113837Y-66649600D01*
X64003763Y-66649600D01*
X63895804Y-66671074D01*
X63844099Y-66692491D01*
X63802803Y-66658601D01*
X63724352Y-66616667D01*
X63639227Y-66590845D01*
X63550700Y-66582126D01*
X63255700Y-66582126D01*
X63167173Y-66590845D01*
X63082048Y-66616667D01*
X63003597Y-66658601D01*
X63001226Y-66660547D01*
X62980864Y-66635736D01*
X62926717Y-66591298D01*
X62864941Y-66558278D01*
X62797910Y-66537945D01*
X62728200Y-66531079D01*
X62674500Y-66532800D01*
X62585600Y-66621700D01*
X62585600Y-67056000D01*
X62605600Y-67056000D01*
X62605600Y-67360800D01*
X62585600Y-67360800D01*
X62585600Y-67380800D01*
X62280800Y-67380800D01*
X62280800Y-67360800D01*
X61622800Y-67360800D01*
X61622800Y-67380800D01*
X61318000Y-67380800D01*
X61318000Y-67360800D01*
X61298000Y-67360800D01*
X61298000Y-67056000D01*
X61318000Y-67056000D01*
X61318000Y-66621700D01*
X61622800Y-66621700D01*
X61622800Y-67056000D01*
X62280800Y-67056000D01*
X62280800Y-66621700D01*
X62191900Y-66532800D01*
X62138200Y-66531079D01*
X62068490Y-66537945D01*
X62001459Y-66558278D01*
X61951800Y-66584821D01*
X61902141Y-66558278D01*
X61835110Y-66537945D01*
X61765400Y-66531079D01*
X61711700Y-66532800D01*
X61622800Y-66621700D01*
X61318000Y-66621700D01*
X61229100Y-66532800D01*
X61175400Y-66531079D01*
X61105690Y-66537945D01*
X61038659Y-66558278D01*
X60976883Y-66591298D01*
X60922736Y-66635736D01*
X60902374Y-66660547D01*
X60900003Y-66658601D01*
X60821552Y-66616667D01*
X60736427Y-66590845D01*
X60647900Y-66582126D01*
X60352900Y-66582126D01*
X60264373Y-66590845D01*
X60179248Y-66616667D01*
X60100797Y-66658601D01*
X60050176Y-66700144D01*
X59979996Y-66671074D01*
X59872037Y-66649600D01*
X59761963Y-66649600D01*
X59654004Y-66671074D01*
X59552309Y-66713198D01*
X59460786Y-66774352D01*
X59382952Y-66852186D01*
X59321798Y-66943709D01*
X59279674Y-67045404D01*
X59258200Y-67153363D01*
X59258200Y-67263437D01*
X59279674Y-67371396D01*
X59321798Y-67473091D01*
X59348598Y-67513200D01*
X58624258Y-67513200D01*
X57810400Y-66699344D01*
X57810400Y-66696163D01*
X57788926Y-66588204D01*
X57746802Y-66486509D01*
X57685648Y-66394986D01*
X57607814Y-66317152D01*
X57516291Y-66255998D01*
X57414596Y-66213874D01*
X57306637Y-66192400D01*
X57196563Y-66192400D01*
X57088604Y-66213874D01*
X56986909Y-66255998D01*
X56895386Y-66317152D01*
X56817552Y-66394986D01*
X56756398Y-66486509D01*
X56714274Y-66588204D01*
X56692800Y-66696163D01*
X56692800Y-66806237D01*
X56714274Y-66914196D01*
X56756398Y-67015891D01*
X56817552Y-67107414D01*
X56895386Y-67185248D01*
X56986909Y-67246402D01*
X57088604Y-67288526D01*
X57196563Y-67310000D01*
X57199744Y-67310000D01*
X57834743Y-67945000D01*
X57501409Y-67945000D01*
X57480199Y-67942911D01*
X57402751Y-67950539D01*
X57395552Y-67951248D01*
X57314158Y-67975939D01*
X57239144Y-68016034D01*
X57201899Y-68046600D01*
X57196563Y-68046600D01*
X57088604Y-68068074D01*
X56986909Y-68110198D01*
X56895386Y-68171352D01*
X56817552Y-68249186D01*
X56756398Y-68340709D01*
X56714274Y-68442404D01*
X56692800Y-68550363D01*
X56692800Y-68660437D01*
X56714274Y-68768396D01*
X56756398Y-68870091D01*
X56817552Y-68961614D01*
X56895386Y-69039448D01*
X56986909Y-69100602D01*
X57088604Y-69142726D01*
X57196563Y-69164200D01*
X57301344Y-69164200D01*
X56961279Y-69504265D01*
X56944794Y-69517794D01*
X56890834Y-69583545D01*
X56850739Y-69658559D01*
X56827412Y-69735456D01*
X56826048Y-69739953D01*
X56817711Y-69824600D01*
X56819800Y-69845811D01*
X56819801Y-70202737D01*
X56817552Y-70204986D01*
X56756398Y-70296509D01*
X56714274Y-70398204D01*
X56692800Y-70506163D01*
X56692800Y-70616237D01*
X56714274Y-70724196D01*
X56756398Y-70825891D01*
X56817552Y-70917414D01*
X56895386Y-70995248D01*
X56968371Y-71044015D01*
X56916234Y-71107545D01*
X56876139Y-71182559D01*
X56853861Y-71256000D01*
X56851448Y-71263953D01*
X56843111Y-71348600D01*
X56845200Y-71369810D01*
X56845201Y-71896198D01*
X56793786Y-71930552D01*
X56715952Y-72008386D01*
X56654798Y-72099909D01*
X56612674Y-72201604D01*
X56591200Y-72309563D01*
X56591200Y-72419637D01*
X56612674Y-72527596D01*
X56654798Y-72629291D01*
X56715952Y-72720814D01*
X56793786Y-72798648D01*
X56885309Y-72859802D01*
X56987004Y-72901926D01*
X57094963Y-72923400D01*
X57205037Y-72923400D01*
X57312996Y-72901926D01*
X57414691Y-72859802D01*
X57488962Y-72810176D01*
X54818480Y-75480658D01*
X54797157Y-75498157D01*
X54727327Y-75583246D01*
X54675439Y-75680322D01*
X54643486Y-75785656D01*
X54636176Y-75859876D01*
X54635828Y-75863410D01*
X54635400Y-75865563D01*
X54635400Y-75867756D01*
X54632697Y-75895200D01*
X54635400Y-75922642D01*
X54635400Y-75975637D01*
X54640783Y-76002701D01*
X54643486Y-76030143D01*
X54651490Y-76056529D01*
X54656874Y-76083596D01*
X54667436Y-76109094D01*
X54675439Y-76135477D01*
X54688437Y-76159795D01*
X54698998Y-76185291D01*
X54714327Y-76208232D01*
X54727327Y-76232554D01*
X54744825Y-76253875D01*
X54760152Y-76276814D01*
X54779657Y-76296319D01*
X54797157Y-76317643D01*
X54818481Y-76335143D01*
X54837986Y-76354648D01*
X54860925Y-76369975D01*
X54882246Y-76387473D01*
X54906569Y-76400474D01*
X54929509Y-76415802D01*
X54955002Y-76426361D01*
X54979322Y-76439361D01*
X55005709Y-76447365D01*
X55031204Y-76457926D01*
X55058268Y-76463309D01*
X55084656Y-76471314D01*
X55112100Y-76474017D01*
X55139163Y-76479400D01*
X55166756Y-76479400D01*
X55194200Y-76482103D01*
X55221644Y-76479400D01*
X55249237Y-76479400D01*
X55276300Y-76474017D01*
X55303743Y-76471314D01*
X55330129Y-76463310D01*
X55357196Y-76457926D01*
X55382694Y-76447364D01*
X55409077Y-76439361D01*
X55433395Y-76426363D01*
X55458891Y-76415802D01*
X55481832Y-76400473D01*
X55506154Y-76387473D01*
X55527475Y-76369975D01*
X55550414Y-76354648D01*
X55569919Y-76335143D01*
X55591243Y-76317643D01*
X55608743Y-76296319D01*
X55628248Y-76276814D01*
X55643575Y-76253875D01*
X55661073Y-76232554D01*
X55674074Y-76208231D01*
X55679396Y-76200266D01*
X59647337Y-72232326D01*
X59647342Y-72232320D01*
X59666848Y-72212814D01*
X59682176Y-72189874D01*
X59699672Y-72168555D01*
X59712672Y-72144234D01*
X59728002Y-72121291D01*
X59738562Y-72095797D01*
X59751561Y-72071478D01*
X59759565Y-72045093D01*
X59770126Y-72019596D01*
X59775510Y-71992527D01*
X59783513Y-71966145D01*
X59786216Y-71938706D01*
X59791600Y-71911637D01*
X59791600Y-71884042D01*
X59794303Y-71856600D01*
X59791600Y-71829158D01*
X59791600Y-71801563D01*
X59786216Y-71774493D01*
X59783513Y-71747056D01*
X59775511Y-71720676D01*
X59770126Y-71693604D01*
X59759564Y-71668105D01*
X59751561Y-71641723D01*
X59738564Y-71617407D01*
X59728002Y-71591909D01*
X59712669Y-71568962D01*
X59699672Y-71544646D01*
X59682180Y-71523332D01*
X59666848Y-71500386D01*
X59647334Y-71480872D01*
X59629842Y-71459558D01*
X59608528Y-71442066D01*
X59589014Y-71422552D01*
X59566068Y-71407220D01*
X59544754Y-71389728D01*
X59520438Y-71376731D01*
X59497491Y-71361398D01*
X59471993Y-71350836D01*
X59447677Y-71337839D01*
X59421295Y-71329836D01*
X59395796Y-71319274D01*
X59368724Y-71313889D01*
X59342344Y-71305887D01*
X59314907Y-71303184D01*
X59287837Y-71297800D01*
X59260242Y-71297800D01*
X59232800Y-71295097D01*
X59205358Y-71297800D01*
X59177763Y-71297800D01*
X59150694Y-71303184D01*
X59123255Y-71305887D01*
X59096873Y-71313890D01*
X59069804Y-71319274D01*
X59044307Y-71329835D01*
X59017922Y-71337839D01*
X58993603Y-71350838D01*
X58968109Y-71361398D01*
X58945166Y-71376728D01*
X58920845Y-71389728D01*
X58899526Y-71407224D01*
X58876586Y-71422552D01*
X58857080Y-71442058D01*
X58857074Y-71442063D01*
X57595576Y-72703562D01*
X57645202Y-72629291D01*
X57687326Y-72527596D01*
X57708800Y-72419637D01*
X57708800Y-71527456D01*
X58100726Y-71135531D01*
X58117206Y-71122006D01*
X58171166Y-71056256D01*
X58211261Y-70981242D01*
X58235952Y-70899848D01*
X58242200Y-70836410D01*
X58244289Y-70815200D01*
X58242200Y-70793990D01*
X58242200Y-70079656D01*
X58649638Y-69672220D01*
X60674726Y-69672220D01*
X60674726Y-71164800D01*
X60680611Y-71224551D01*
X60698040Y-71282006D01*
X60704944Y-71294923D01*
X59374279Y-72625589D01*
X59357794Y-72639118D01*
X59303834Y-72704869D01*
X59263739Y-72779883D01*
X59239776Y-72858877D01*
X59239048Y-72861277D01*
X59230711Y-72945924D01*
X59232800Y-72967134D01*
X59232801Y-76153380D01*
X59230711Y-76174600D01*
X59239048Y-76259247D01*
X59254365Y-76309737D01*
X59263740Y-76340642D01*
X59303835Y-76415656D01*
X59357795Y-76481406D01*
X59374273Y-76494930D01*
X59674472Y-76795130D01*
X59687994Y-76811606D01*
X59753744Y-76865566D01*
X59828758Y-76905661D01*
X59910152Y-76930352D01*
X59973590Y-76936600D01*
X59973597Y-76936600D01*
X59994799Y-76938688D01*
X60016002Y-76936600D01*
X60417144Y-76936600D01*
X60674726Y-77194182D01*
X60674726Y-77854589D01*
X59737452Y-76917316D01*
X59724728Y-76901812D01*
X59662846Y-76851026D01*
X59592245Y-76813289D01*
X59515638Y-76790051D01*
X59455930Y-76784170D01*
X59455923Y-76784170D01*
X59435970Y-76782205D01*
X59416017Y-76784170D01*
X54102000Y-76784170D01*
X54102000Y-75051553D01*
X54103965Y-75031600D01*
X54102000Y-75011647D01*
X54102000Y-75011640D01*
X54096119Y-74951932D01*
X54072881Y-74875325D01*
X54035144Y-74804724D01*
X54014317Y-74779346D01*
X53997082Y-74758345D01*
X53997077Y-74758340D01*
X53984358Y-74742842D01*
X53968860Y-74730123D01*
X52070030Y-72831294D01*
X52070030Y-71192154D01*
X52597255Y-70664929D01*
X52612758Y-70652206D01*
X52663544Y-70590324D01*
X52701281Y-70519723D01*
X52724519Y-70443116D01*
X52730400Y-70383408D01*
X52730400Y-70383402D01*
X52732365Y-70363449D01*
X52730400Y-70343496D01*
X52730400Y-68574552D01*
X52732365Y-68554599D01*
X52730400Y-68534646D01*
X52730400Y-68534640D01*
X52724519Y-68474932D01*
X52720429Y-68461447D01*
X52711213Y-68431068D01*
X52701281Y-68398325D01*
X52663544Y-68327724D01*
X52612758Y-68265842D01*
X52597254Y-68253118D01*
X52425600Y-68081464D01*
X52425600Y-68042363D01*
X52404126Y-67934404D01*
X52362002Y-67832709D01*
X52300848Y-67741186D01*
X52223014Y-67663352D01*
X52131491Y-67602198D01*
X52029796Y-67560074D01*
X51921837Y-67538600D01*
X51811763Y-67538600D01*
X51703804Y-67560074D01*
X51602109Y-67602198D01*
X51510586Y-67663352D01*
X51432752Y-67741186D01*
X51371598Y-67832709D01*
X51329474Y-67934404D01*
X51308000Y-68042363D01*
X51308000Y-68152437D01*
X51329474Y-68260396D01*
X51371598Y-68362091D01*
X51432752Y-68453614D01*
X51510586Y-68531448D01*
X51602109Y-68592602D01*
X51703804Y-68634726D01*
X51811763Y-68656200D01*
X51850864Y-68656200D01*
X51917601Y-68722937D01*
X51917601Y-69127714D01*
X51845637Y-69113400D01*
X51735563Y-69113400D01*
X51627604Y-69134874D01*
X51525909Y-69176998D01*
X51434386Y-69238152D01*
X51356552Y-69315986D01*
X51295398Y-69407509D01*
X51253274Y-69509204D01*
X51231800Y-69617163D01*
X51231800Y-69676410D01*
X51210637Y-69672200D01*
X51100563Y-69672200D01*
X50992604Y-69693674D01*
X50890909Y-69735798D01*
X50799386Y-69796952D01*
X50721552Y-69874786D01*
X50660398Y-69966309D01*
X50618274Y-70068004D01*
X50596800Y-70175963D01*
X50596800Y-70179144D01*
X50585884Y-70190060D01*
X50569405Y-70203584D01*
X50515445Y-70269334D01*
X50490690Y-70315648D01*
X50475350Y-70344348D01*
X50450658Y-70425743D01*
X50442321Y-70510390D01*
X50444411Y-70531610D01*
X50444411Y-70839554D01*
X49987200Y-70382344D01*
X49987200Y-69954462D01*
X49989448Y-69952214D01*
X50050602Y-69860691D01*
X50092726Y-69758996D01*
X50114200Y-69651037D01*
X50114200Y-69540963D01*
X50092726Y-69433004D01*
X50050602Y-69331309D01*
X49989448Y-69239786D01*
X49911614Y-69161952D01*
X49820091Y-69100798D01*
X49718396Y-69058674D01*
X49610437Y-69037200D01*
X49500363Y-69037200D01*
X49392404Y-69058674D01*
X49290709Y-69100798D01*
X49199186Y-69161952D01*
X49121352Y-69239786D01*
X49060198Y-69331309D01*
X49018074Y-69433004D01*
X48996600Y-69540963D01*
X36169200Y-69540963D01*
X36169200Y-67731400D01*
X36743929Y-67731400D01*
X36768156Y-67977384D01*
X36839907Y-68213914D01*
X36956424Y-68431902D01*
X37113230Y-68622970D01*
X37304298Y-68779776D01*
X37522286Y-68896293D01*
X37758816Y-68968044D01*
X37943159Y-68986200D01*
X39966441Y-68986200D01*
X40150784Y-68968044D01*
X40387314Y-68896293D01*
X40605302Y-68779776D01*
X40796370Y-68622970D01*
X40953176Y-68431902D01*
X41069693Y-68213914D01*
X41141444Y-67977384D01*
X41165671Y-67731400D01*
X41141444Y-67485416D01*
X41069693Y-67248886D01*
X40953176Y-67030898D01*
X40796370Y-66839830D01*
X40605302Y-66683024D01*
X40387314Y-66566507D01*
X40150784Y-66494756D01*
X39966441Y-66476600D01*
X37943159Y-66476600D01*
X37758816Y-66494756D01*
X37522286Y-66566507D01*
X37304298Y-66683024D01*
X37113230Y-66839830D01*
X36956424Y-67030898D01*
X36839907Y-67248886D01*
X36768156Y-67485416D01*
X36743929Y-67731400D01*
X36169200Y-67731400D01*
X36169200Y-66183948D01*
X40546400Y-66183948D01*
X40546400Y-66302452D01*
X40569519Y-66418680D01*
X40614869Y-66528165D01*
X40680707Y-66626698D01*
X40764502Y-66710493D01*
X40863035Y-66776331D01*
X40972520Y-66821681D01*
X41088748Y-66844800D01*
X41207252Y-66844800D01*
X41323480Y-66821681D01*
X41432965Y-66776331D01*
X41531498Y-66710493D01*
X41615293Y-66626698D01*
X41681131Y-66528165D01*
X41726481Y-66418680D01*
X41749600Y-66302452D01*
X41749600Y-66183948D01*
X41726481Y-66067720D01*
X41681131Y-65958235D01*
X41615293Y-65859702D01*
X41531498Y-65775907D01*
X41432965Y-65710069D01*
X41323480Y-65664719D01*
X41207252Y-65641600D01*
X41088748Y-65641600D01*
X40972520Y-65664719D01*
X40863035Y-65710069D01*
X40764502Y-65775907D01*
X40680707Y-65859702D01*
X40614869Y-65958235D01*
X40569519Y-66067720D01*
X40546400Y-66183948D01*
X36169200Y-66183948D01*
X36169200Y-65607800D01*
X88798800Y-65607800D01*
X88798800Y-69548789D01*
G37*
X88798800Y-69548789D02*
X87058500Y-69550400D01*
X86969600Y-69639300D01*
X86969600Y-70428600D01*
X86989600Y-70428600D01*
X86989600Y-70733400D01*
X86969600Y-70733400D01*
X86969600Y-71522700D01*
X87058500Y-71611600D01*
X88798800Y-71613211D01*
X88798801Y-75198789D01*
X87058500Y-75200400D01*
X86969600Y-75289300D01*
X86969600Y-76078600D01*
X86989600Y-76078600D01*
X86989600Y-76383400D01*
X86969600Y-76383400D01*
X86969600Y-77172700D01*
X87058500Y-77261600D01*
X88798801Y-77263211D01*
X88798801Y-81204200D01*
X36169200Y-81204200D01*
X36169200Y-79131400D01*
X36743929Y-79131400D01*
X36768156Y-79377384D01*
X36839907Y-79613914D01*
X36956424Y-79831902D01*
X37113230Y-80022970D01*
X37304298Y-80179776D01*
X37522286Y-80296293D01*
X37758816Y-80368044D01*
X37943159Y-80386200D01*
X39966441Y-80386200D01*
X40150784Y-80368044D01*
X40387314Y-80296293D01*
X40605302Y-80179776D01*
X40796370Y-80022970D01*
X40898766Y-79898200D01*
X44430279Y-79898200D01*
X44437145Y-79967910D01*
X44457478Y-80034941D01*
X44490498Y-80096717D01*
X44534936Y-80150864D01*
X44589083Y-80195302D01*
X44650859Y-80228322D01*
X44717890Y-80248655D01*
X44787600Y-80255521D01*
X44841300Y-80253800D01*
X44930200Y-80164900D01*
X44930200Y-79730600D01*
X44520900Y-79730600D01*
X44432000Y-79819500D01*
X44430279Y-79898200D01*
X40898766Y-79898200D01*
X40953176Y-79831902D01*
X41069693Y-79613914D01*
X41141444Y-79377384D01*
X41153182Y-79258200D01*
X44430279Y-79258200D01*
X44432000Y-79336900D01*
X44520900Y-79425800D01*
X44930200Y-79425800D01*
X44930200Y-78991500D01*
X44841300Y-78902600D01*
X44787600Y-78900879D01*
X44717890Y-78907745D01*
X44650859Y-78928078D01*
X44589083Y-78961098D01*
X44534936Y-79005536D01*
X44490498Y-79059683D01*
X44457478Y-79121459D01*
X44437145Y-79188490D01*
X44430279Y-79258200D01*
X41153182Y-79258200D01*
X41165671Y-79131400D01*
X41141444Y-78885416D01*
X41069693Y-78648886D01*
X40953176Y-78430898D01*
X40796370Y-78239830D01*
X40605302Y-78083024D01*
X40387314Y-77966507D01*
X40150784Y-77894756D01*
X39966441Y-77876600D01*
X37943159Y-77876600D01*
X37758816Y-77894756D01*
X37522286Y-77966507D01*
X37304298Y-78083024D01*
X37113230Y-78239830D01*
X36956424Y-78430898D01*
X36839907Y-78648886D01*
X36768156Y-78885416D01*
X36743929Y-79131400D01*
X36169200Y-79131400D01*
X36169200Y-75632436D01*
X37950000Y-75632436D01*
X37950000Y-75830364D01*
X37988614Y-76024489D01*
X38064358Y-76207351D01*
X38174321Y-76371923D01*
X38314277Y-76511879D01*
X38478849Y-76621842D01*
X38661711Y-76697586D01*
X38855836Y-76736200D01*
X39053764Y-76736200D01*
X39247889Y-76697586D01*
X39430751Y-76621842D01*
X39595323Y-76511879D01*
X39735279Y-76371923D01*
X39845242Y-76207351D01*
X39920986Y-76024489D01*
X39959600Y-75830364D01*
X39959600Y-75632436D01*
X39920986Y-75438311D01*
X39845242Y-75255449D01*
X39735279Y-75090877D01*
X39595323Y-74950921D01*
X39430751Y-74840958D01*
X39247889Y-74765214D01*
X39053764Y-74726600D01*
X38855836Y-74726600D01*
X38661711Y-74765214D01*
X38478849Y-74840958D01*
X38314277Y-74950921D01*
X38174321Y-75090877D01*
X38064358Y-75255449D01*
X37988614Y-75438311D01*
X37950000Y-75632436D01*
X36169200Y-75632436D01*
X36169200Y-74142600D01*
X39443497Y-74142600D01*
X39446200Y-74170044D01*
X39446200Y-74197637D01*
X39451583Y-74224700D01*
X39454286Y-74252144D01*
X39462291Y-74278532D01*
X39467674Y-74305596D01*
X39478235Y-74331091D01*
X39486239Y-74357478D01*
X39499239Y-74381798D01*
X39509798Y-74407291D01*
X39525126Y-74430231D01*
X39538127Y-74454554D01*
X39555625Y-74475875D01*
X39570952Y-74498814D01*
X39590457Y-74518319D01*
X39607957Y-74539643D01*
X39629281Y-74557143D01*
X39648786Y-74576648D01*
X39671725Y-74591975D01*
X39693046Y-74609473D01*
X39717369Y-74622474D01*
X39740309Y-74637802D01*
X39765802Y-74648361D01*
X39790122Y-74661361D01*
X39816509Y-74669365D01*
X39842004Y-74679926D01*
X39869068Y-74685309D01*
X39895456Y-74693314D01*
X39922900Y-74696017D01*
X39949963Y-74701400D01*
X41271326Y-74701400D01*
X41271326Y-75129800D01*
X41277211Y-75189551D01*
X41294640Y-75247006D01*
X41322942Y-75299957D01*
X41361032Y-75346368D01*
X41407443Y-75384458D01*
X41460394Y-75412760D01*
X41517849Y-75430189D01*
X41577600Y-75436074D01*
X42577600Y-75436074D01*
X42637351Y-75430189D01*
X42694806Y-75412760D01*
X42747757Y-75384458D01*
X42794168Y-75346368D01*
X42832258Y-75299957D01*
X42860560Y-75247006D01*
X42877989Y-75189551D01*
X42883874Y-75129800D01*
X42883874Y-73729800D01*
X43171326Y-73729800D01*
X43171326Y-75129800D01*
X43177211Y-75189551D01*
X43180001Y-75198747D01*
X43180000Y-76876363D01*
X43180000Y-76986437D01*
X43185383Y-77013501D01*
X43188086Y-77040943D01*
X43196090Y-77067329D01*
X43201474Y-77094396D01*
X43212036Y-77119894D01*
X43220039Y-77146277D01*
X43233037Y-77170595D01*
X43243598Y-77196091D01*
X43258927Y-77219032D01*
X43271927Y-77243354D01*
X43289425Y-77264675D01*
X43304752Y-77287614D01*
X43324257Y-77307119D01*
X43341757Y-77328443D01*
X43363081Y-77345943D01*
X43382586Y-77365448D01*
X43405525Y-77380775D01*
X43426846Y-77398273D01*
X43451169Y-77411274D01*
X43474109Y-77426602D01*
X43499602Y-77437161D01*
X43523922Y-77450161D01*
X43550309Y-77458165D01*
X43575804Y-77468726D01*
X43602868Y-77474109D01*
X43629256Y-77482114D01*
X43656700Y-77484817D01*
X43683763Y-77490200D01*
X43711356Y-77490200D01*
X43738800Y-77492903D01*
X43766244Y-77490200D01*
X43793837Y-77490200D01*
X43820900Y-77484817D01*
X43848343Y-77482114D01*
X43874729Y-77474110D01*
X43901796Y-77468726D01*
X43927294Y-77458164D01*
X43953677Y-77450161D01*
X43977995Y-77437163D01*
X44003491Y-77426602D01*
X44026432Y-77411273D01*
X44050754Y-77398273D01*
X44072075Y-77380775D01*
X44095014Y-77365448D01*
X44114519Y-77345943D01*
X44135843Y-77328443D01*
X44153343Y-77307119D01*
X44172848Y-77287614D01*
X44188175Y-77264675D01*
X44205673Y-77243354D01*
X44218674Y-77219031D01*
X44234002Y-77196091D01*
X44244561Y-77170598D01*
X44257561Y-77146278D01*
X44265565Y-77119891D01*
X44276126Y-77094396D01*
X44281509Y-77067332D01*
X44289514Y-77040944D01*
X44292217Y-77013500D01*
X44297600Y-76986437D01*
X44297600Y-75862400D01*
X44915679Y-75862400D01*
X44922545Y-75932110D01*
X44942878Y-75999141D01*
X44975898Y-76060917D01*
X45020336Y-76115064D01*
X45074483Y-76159502D01*
X45136259Y-76192522D01*
X45203290Y-76212855D01*
X45273000Y-76219721D01*
X45351700Y-76218000D01*
X45440600Y-76129100D01*
X45440600Y-75719800D01*
X45745400Y-75719800D01*
X45745400Y-76129100D01*
X45834300Y-76218000D01*
X45913000Y-76219721D01*
X45982710Y-76212855D01*
X46049741Y-76192522D01*
X46111517Y-76159502D01*
X46165664Y-76115064D01*
X46210102Y-76060917D01*
X46243122Y-75999141D01*
X46263455Y-75932110D01*
X46270321Y-75862400D01*
X46268600Y-75808700D01*
X46179700Y-75719800D01*
X45745400Y-75719800D01*
X45440600Y-75719800D01*
X45006300Y-75719800D01*
X44917400Y-75808700D01*
X44915679Y-75862400D01*
X44297600Y-75862400D01*
X44297600Y-75436074D01*
X44477600Y-75436074D01*
X44537351Y-75430189D01*
X44594806Y-75412760D01*
X44647757Y-75384458D01*
X44694168Y-75346368D01*
X44732258Y-75299957D01*
X44760560Y-75247006D01*
X44777989Y-75189551D01*
X44783874Y-75129800D01*
X44783874Y-73860508D01*
X44801674Y-73949996D01*
X44843798Y-74051691D01*
X44904952Y-74143214D01*
X44907201Y-74145463D01*
X44907201Y-74531889D01*
X44908768Y-74547795D01*
X44903882Y-74597400D01*
X44917123Y-74731840D01*
X44956338Y-74861114D01*
X45020019Y-74980253D01*
X45039509Y-75004001D01*
X45020336Y-75019736D01*
X44975898Y-75073883D01*
X44942878Y-75135659D01*
X44922545Y-75202690D01*
X44915679Y-75272400D01*
X44917400Y-75326100D01*
X45006300Y-75415000D01*
X45440600Y-75415000D01*
X45440600Y-75395000D01*
X45745400Y-75395000D01*
X45745400Y-75415000D01*
X46179700Y-75415000D01*
X46268600Y-75326100D01*
X46269975Y-75283200D01*
X46424133Y-75283200D01*
X46609000Y-75468067D01*
X46609001Y-78477712D01*
X46605683Y-78511400D01*
X46618924Y-78645840D01*
X46658139Y-78775114D01*
X46721820Y-78894253D01*
X46781299Y-78966728D01*
X46807521Y-78998680D01*
X46832768Y-79019400D01*
X46435364Y-79019400D01*
X46373752Y-78986467D01*
X46288627Y-78960645D01*
X46200100Y-78951926D01*
X45905100Y-78951926D01*
X45816573Y-78960645D01*
X45731448Y-78986467D01*
X45652997Y-79028401D01*
X45650626Y-79030347D01*
X45630264Y-79005536D01*
X45576117Y-78961098D01*
X45514341Y-78928078D01*
X45447310Y-78907745D01*
X45377600Y-78900879D01*
X45323900Y-78902600D01*
X45235000Y-78991500D01*
X45235000Y-79425800D01*
X45255000Y-79425800D01*
X45255000Y-79730600D01*
X45235000Y-79730600D01*
X45235000Y-80164900D01*
X45323900Y-80253800D01*
X45377600Y-80255521D01*
X45447310Y-80248655D01*
X45514341Y-80228322D01*
X45576117Y-80195302D01*
X45630264Y-80150864D01*
X45650626Y-80126053D01*
X45652997Y-80127999D01*
X45731448Y-80169933D01*
X45816573Y-80195755D01*
X45905100Y-80204474D01*
X46200100Y-80204474D01*
X46288627Y-80195755D01*
X46373752Y-80169933D01*
X46435364Y-80137000D01*
X47337683Y-80137000D01*
X47439208Y-80288942D01*
X47600058Y-80449792D01*
X47789197Y-80576171D01*
X47999357Y-80663222D01*
X48222462Y-80707600D01*
X48449938Y-80707600D01*
X48673043Y-80663222D01*
X48883203Y-80576171D01*
X49072342Y-80449792D01*
X49233192Y-80288942D01*
X49359571Y-80099803D01*
X49446622Y-79889643D01*
X49491000Y-79666538D01*
X49491000Y-79439062D01*
X49446622Y-79215957D01*
X49359571Y-79005797D01*
X49233192Y-78816658D01*
X49115800Y-78699266D01*
X49115800Y-78210274D01*
X49257000Y-78210274D01*
X49316751Y-78204389D01*
X49374206Y-78186960D01*
X49427157Y-78158658D01*
X49473568Y-78120568D01*
X49511658Y-78074157D01*
X49539960Y-78021206D01*
X49557389Y-77963751D01*
X49563274Y-77904000D01*
X49563274Y-76904000D01*
X49557389Y-76844249D01*
X49539960Y-76786794D01*
X49511658Y-76733843D01*
X49473568Y-76687432D01*
X49427157Y-76649342D01*
X49374206Y-76621040D01*
X49372570Y-76620544D01*
X49393741Y-76614122D01*
X49455517Y-76581102D01*
X49509664Y-76536664D01*
X49554102Y-76482517D01*
X49587122Y-76420741D01*
X49607455Y-76353710D01*
X49614321Y-76284000D01*
X49612600Y-75925300D01*
X49523700Y-75836400D01*
X48709400Y-75836400D01*
X48709400Y-75856400D01*
X48404600Y-75856400D01*
X48404600Y-75836400D01*
X48384600Y-75836400D01*
X48384600Y-75531600D01*
X48404600Y-75531600D01*
X48404600Y-74817300D01*
X48709400Y-74817300D01*
X48709400Y-75531600D01*
X49523700Y-75531600D01*
X49612600Y-75442700D01*
X49614321Y-75084000D01*
X49607455Y-75014290D01*
X49587122Y-74947259D01*
X49554102Y-74885483D01*
X49509664Y-74831336D01*
X49455517Y-74786898D01*
X49393741Y-74753878D01*
X49326710Y-74733545D01*
X49257000Y-74726679D01*
X48798300Y-74728400D01*
X48709400Y-74817300D01*
X48404600Y-74817300D01*
X48315700Y-74728400D01*
X47857000Y-74726679D01*
X47810431Y-74731266D01*
X47803555Y-74722888D01*
X47803554Y-74722887D01*
X47782079Y-74696720D01*
X47755914Y-74675247D01*
X47216958Y-74136291D01*
X47195480Y-74110120D01*
X47091053Y-74024419D01*
X46971914Y-73960738D01*
X46842640Y-73921523D01*
X46741889Y-73911600D01*
X46741879Y-73911600D01*
X46708200Y-73908283D01*
X46674521Y-73911600D01*
X46366563Y-73911600D01*
X46380400Y-73842037D01*
X46380400Y-73731963D01*
X46358926Y-73624004D01*
X46316802Y-73522309D01*
X46295959Y-73491116D01*
X46334309Y-73419368D01*
X46364186Y-73320877D01*
X46374274Y-73218450D01*
X46374274Y-72780950D01*
X46364186Y-72678523D01*
X46334309Y-72580032D01*
X46285792Y-72489262D01*
X46220498Y-72409702D01*
X46140938Y-72344408D01*
X46050168Y-72295891D01*
X45951677Y-72266014D01*
X45849250Y-72255926D01*
X45336750Y-72255926D01*
X45234323Y-72266014D01*
X45135832Y-72295891D01*
X45045062Y-72344408D01*
X44965502Y-72409702D01*
X44900208Y-72489262D01*
X44851691Y-72580032D01*
X44821814Y-72678523D01*
X44811726Y-72780950D01*
X44811726Y-73218450D01*
X44821814Y-73320877D01*
X44851691Y-73419368D01*
X44878752Y-73469997D01*
X44843798Y-73522309D01*
X44801674Y-73624004D01*
X44782800Y-73718893D01*
X44777989Y-73670049D01*
X44760560Y-73612594D01*
X44732258Y-73559643D01*
X44694168Y-73513232D01*
X44647757Y-73475142D01*
X44594806Y-73446840D01*
X44537351Y-73429411D01*
X44477600Y-73423526D01*
X43477600Y-73423526D01*
X43417849Y-73429411D01*
X43360394Y-73446840D01*
X43307443Y-73475142D01*
X43261032Y-73513232D01*
X43222942Y-73559643D01*
X43194640Y-73612594D01*
X43177211Y-73670049D01*
X43171326Y-73729800D01*
X42883874Y-73729800D01*
X42877989Y-73670049D01*
X42860560Y-73612594D01*
X42832258Y-73559643D01*
X42794168Y-73513232D01*
X42747757Y-73475142D01*
X42694806Y-73446840D01*
X42637351Y-73429411D01*
X42577600Y-73423526D01*
X41577600Y-73423526D01*
X41517849Y-73429411D01*
X41460394Y-73446840D01*
X41407443Y-73475142D01*
X41361032Y-73513232D01*
X41322942Y-73559643D01*
X41310030Y-73583800D01*
X39949963Y-73583800D01*
X39922900Y-73589183D01*
X39895456Y-73591886D01*
X39869068Y-73599891D01*
X39842004Y-73605274D01*
X39816509Y-73615835D01*
X39790122Y-73623839D01*
X39765802Y-73636839D01*
X39740309Y-73647398D01*
X39717369Y-73662726D01*
X39693046Y-73675727D01*
X39671725Y-73693225D01*
X39648786Y-73708552D01*
X39629281Y-73728057D01*
X39607957Y-73745557D01*
X39590457Y-73766881D01*
X39570952Y-73786386D01*
X39555625Y-73809325D01*
X39538127Y-73830646D01*
X39525126Y-73854969D01*
X39509798Y-73877909D01*
X39499239Y-73903402D01*
X39486239Y-73927722D01*
X39478235Y-73954109D01*
X39467674Y-73979604D01*
X39462291Y-74006668D01*
X39454286Y-74033056D01*
X39451583Y-74060500D01*
X39446200Y-74087563D01*
X39446200Y-74115156D01*
X39443497Y-74142600D01*
X36169200Y-74142600D01*
X36169200Y-72644000D01*
X39418097Y-72644000D01*
X39420800Y-72671444D01*
X39420800Y-72699037D01*
X39426183Y-72726100D01*
X39428886Y-72753544D01*
X39436891Y-72779932D01*
X39442274Y-72806996D01*
X39452835Y-72832491D01*
X39460839Y-72858878D01*
X39473839Y-72883198D01*
X39484398Y-72908691D01*
X39499726Y-72931631D01*
X39512727Y-72955954D01*
X39530225Y-72977275D01*
X39545552Y-73000214D01*
X39565057Y-73019719D01*
X39582557Y-73041043D01*
X39603881Y-73058543D01*
X39623386Y-73078048D01*
X39646325Y-73093375D01*
X39667646Y-73110873D01*
X39691969Y-73123874D01*
X39714909Y-73139202D01*
X39740402Y-73149761D01*
X39764722Y-73162761D01*
X39791109Y-73170765D01*
X39816604Y-73181326D01*
X39843668Y-73186709D01*
X39870056Y-73194714D01*
X39897500Y-73197417D01*
X39924563Y-73202800D01*
X41441760Y-73202800D01*
X41460394Y-73212760D01*
X41517849Y-73230189D01*
X41577600Y-73236074D01*
X42577600Y-73236074D01*
X42637351Y-73230189D01*
X42694806Y-73212760D01*
X42747757Y-73184458D01*
X42794168Y-73146368D01*
X42832258Y-73099957D01*
X42860560Y-73047006D01*
X42861056Y-73045370D01*
X42867478Y-73066541D01*
X42900498Y-73128317D01*
X42944936Y-73182464D01*
X42999083Y-73226902D01*
X43060859Y-73259922D01*
X43127890Y-73280255D01*
X43197600Y-73287121D01*
X43556300Y-73285400D01*
X43645200Y-73196500D01*
X43645200Y-72382200D01*
X43950000Y-72382200D01*
X43950000Y-73196500D01*
X44038900Y-73285400D01*
X44397600Y-73287121D01*
X44467310Y-73280255D01*
X44534341Y-73259922D01*
X44596117Y-73226902D01*
X44650264Y-73182464D01*
X44694702Y-73128317D01*
X44727722Y-73066541D01*
X44748055Y-72999510D01*
X44754921Y-72929800D01*
X44753200Y-72471100D01*
X44664300Y-72382200D01*
X43950000Y-72382200D01*
X43645200Y-72382200D01*
X43625200Y-72382200D01*
X43625200Y-72077400D01*
X43645200Y-72077400D01*
X43645200Y-71263100D01*
X43950000Y-71263100D01*
X43950000Y-72077400D01*
X44664300Y-72077400D01*
X44753200Y-71988500D01*
X44753673Y-71862200D01*
X44760679Y-71862200D01*
X44767545Y-71931910D01*
X44787878Y-71998941D01*
X44820898Y-72060717D01*
X44865336Y-72114864D01*
X44919483Y-72159302D01*
X44981259Y-72192322D01*
X45048290Y-72212655D01*
X45118000Y-72219521D01*
X45351700Y-72217800D01*
X45440600Y-72128900D01*
X45440600Y-71577100D01*
X45745400Y-71577100D01*
X45745400Y-72128900D01*
X45834300Y-72217800D01*
X46068000Y-72219521D01*
X46137710Y-72212655D01*
X46204741Y-72192322D01*
X46266517Y-72159302D01*
X46320664Y-72114864D01*
X46365102Y-72060717D01*
X46398122Y-71998941D01*
X46418455Y-71931910D01*
X46425321Y-71862200D01*
X46423600Y-71666000D01*
X46334700Y-71577100D01*
X45745400Y-71577100D01*
X45440600Y-71577100D01*
X44851300Y-71577100D01*
X44762400Y-71666000D01*
X44760679Y-71862200D01*
X44753673Y-71862200D01*
X44754921Y-71529800D01*
X44748055Y-71460090D01*
X44727722Y-71393059D01*
X44694702Y-71331283D01*
X44650264Y-71277136D01*
X44596117Y-71232698D01*
X44534341Y-71199678D01*
X44467310Y-71179345D01*
X44397600Y-71172479D01*
X44038900Y-71174200D01*
X43950000Y-71263100D01*
X43645200Y-71263100D01*
X43556300Y-71174200D01*
X43197600Y-71172479D01*
X43127890Y-71179345D01*
X43060859Y-71199678D01*
X42999083Y-71232698D01*
X42944936Y-71277136D01*
X42900498Y-71331283D01*
X42867478Y-71393059D01*
X42861056Y-71414230D01*
X42860560Y-71412594D01*
X42832258Y-71359643D01*
X42794168Y-71313232D01*
X42747757Y-71275142D01*
X42694806Y-71246840D01*
X42637351Y-71229411D01*
X42577600Y-71223526D01*
X41577600Y-71223526D01*
X41517849Y-71229411D01*
X41460394Y-71246840D01*
X41407443Y-71275142D01*
X41361032Y-71313232D01*
X41322942Y-71359643D01*
X41294640Y-71412594D01*
X41277211Y-71470049D01*
X41271326Y-71529800D01*
X41271326Y-72085200D01*
X39924563Y-72085200D01*
X39897500Y-72090583D01*
X39870056Y-72093286D01*
X39843668Y-72101291D01*
X39816604Y-72106674D01*
X39791109Y-72117235D01*
X39764722Y-72125239D01*
X39740402Y-72138239D01*
X39714909Y-72148798D01*
X39691969Y-72164126D01*
X39667646Y-72177127D01*
X39646325Y-72194625D01*
X39623386Y-72209952D01*
X39603881Y-72229457D01*
X39582557Y-72246957D01*
X39565057Y-72268281D01*
X39545552Y-72287786D01*
X39530225Y-72310725D01*
X39512727Y-72332046D01*
X39499726Y-72356369D01*
X39484398Y-72379309D01*
X39473839Y-72404802D01*
X39460839Y-72429122D01*
X39452835Y-72455509D01*
X39442274Y-72481004D01*
X39436891Y-72508068D01*
X39428886Y-72534456D01*
X39426183Y-72561900D01*
X39420800Y-72588963D01*
X39420800Y-72616556D01*
X39418097Y-72644000D01*
X36169200Y-72644000D01*
X36169200Y-71032436D01*
X37950000Y-71032436D01*
X37950000Y-71230364D01*
X37988614Y-71424489D01*
X38064358Y-71607351D01*
X38174321Y-71771923D01*
X38314277Y-71911879D01*
X38478849Y-72021842D01*
X38661711Y-72097586D01*
X38855836Y-72136200D01*
X39053764Y-72136200D01*
X39247889Y-72097586D01*
X39430751Y-72021842D01*
X39595323Y-71911879D01*
X39735279Y-71771923D01*
X39845242Y-71607351D01*
X39920986Y-71424489D01*
X39959600Y-71230364D01*
X39959600Y-71032436D01*
X39950602Y-70987200D01*
X44760679Y-70987200D01*
X44762400Y-71183400D01*
X44851300Y-71272300D01*
X45440600Y-71272300D01*
X45440600Y-70720500D01*
X45745400Y-70720500D01*
X45745400Y-71272300D01*
X46334700Y-71272300D01*
X46423600Y-71183400D01*
X46425321Y-70987200D01*
X46418455Y-70917490D01*
X46398122Y-70850459D01*
X46365102Y-70788683D01*
X46320664Y-70734536D01*
X46266517Y-70690098D01*
X46204741Y-70657078D01*
X46137710Y-70636745D01*
X46068000Y-70629879D01*
X45834300Y-70631600D01*
X45745400Y-70720500D01*
X45440600Y-70720500D01*
X45351700Y-70631600D01*
X45118000Y-70629879D01*
X45048290Y-70636745D01*
X44981259Y-70657078D01*
X44919483Y-70690098D01*
X44865336Y-70734536D01*
X44820898Y-70788683D01*
X44787878Y-70850459D01*
X44767545Y-70917490D01*
X44760679Y-70987200D01*
X39950602Y-70987200D01*
X39920986Y-70838311D01*
X39845242Y-70655449D01*
X39735279Y-70490877D01*
X39595323Y-70350921D01*
X39430751Y-70240958D01*
X39247889Y-70165214D01*
X39053764Y-70126600D01*
X38855836Y-70126600D01*
X38661711Y-70165214D01*
X38478849Y-70240958D01*
X38314277Y-70350921D01*
X38174321Y-70490877D01*
X38064358Y-70655449D01*
X37988614Y-70838311D01*
X37950000Y-71032436D01*
X36169200Y-71032436D01*
X36169200Y-69540963D01*
X48996600Y-69540963D01*
X48996600Y-69651037D01*
X49018074Y-69758996D01*
X49060198Y-69860691D01*
X49121352Y-69952214D01*
X49123600Y-69954462D01*
X49123601Y-70539980D01*
X49121511Y-70561200D01*
X49129848Y-70645847D01*
X49145537Y-70697564D01*
X49154540Y-70727242D01*
X49194635Y-70802256D01*
X49248595Y-70868006D01*
X49265074Y-70881530D01*
X50012600Y-71629057D01*
X50012601Y-73486380D01*
X50010511Y-73507600D01*
X50018848Y-73592247D01*
X50035579Y-73647398D01*
X50043540Y-73673642D01*
X50083635Y-73748656D01*
X50137595Y-73814406D01*
X50154074Y-73827930D01*
X51023869Y-74697726D01*
X50057000Y-74697726D01*
X49997249Y-74703611D01*
X49939794Y-74721040D01*
X49886843Y-74749342D01*
X49840432Y-74787432D01*
X49802342Y-74833843D01*
X49774040Y-74886794D01*
X49756611Y-74944249D01*
X49750726Y-75004000D01*
X49750726Y-76004000D01*
X49756611Y-76063751D01*
X49774040Y-76121206D01*
X49802342Y-76174157D01*
X49840432Y-76220568D01*
X49886843Y-76258658D01*
X49939794Y-76286960D01*
X49997249Y-76304389D01*
X50057000Y-76310274D01*
X51313811Y-76310274D01*
X51333400Y-76329863D01*
X51333400Y-76597726D01*
X50057000Y-76597726D01*
X49997249Y-76603611D01*
X49939794Y-76621040D01*
X49886843Y-76649342D01*
X49840432Y-76687432D01*
X49802342Y-76733843D01*
X49774040Y-76786794D01*
X49756611Y-76844249D01*
X49750726Y-76904000D01*
X49750726Y-77904000D01*
X49756611Y-77963751D01*
X49774040Y-78021206D01*
X49802342Y-78074157D01*
X49840432Y-78120568D01*
X49886843Y-78158658D01*
X49939794Y-78186960D01*
X49997249Y-78204389D01*
X50057000Y-78210274D01*
X50198200Y-78210274D01*
X50198201Y-78616958D01*
X50140058Y-78655808D01*
X49979208Y-78816658D01*
X49852829Y-79005797D01*
X49765778Y-79215957D01*
X49721400Y-79439062D01*
X49721400Y-79666538D01*
X49765778Y-79889643D01*
X49852829Y-80099803D01*
X49979208Y-80288942D01*
X50140058Y-80449792D01*
X50329197Y-80576171D01*
X50539357Y-80663222D01*
X50762462Y-80707600D01*
X50989938Y-80707600D01*
X51213043Y-80663222D01*
X51423203Y-80576171D01*
X51612342Y-80449792D01*
X51773192Y-80288942D01*
X51899571Y-80099803D01*
X51986622Y-79889643D01*
X52031000Y-79666538D01*
X52031000Y-79439062D01*
X51986622Y-79215957D01*
X51899571Y-79005797D01*
X51773192Y-78816658D01*
X51612342Y-78655808D01*
X51423203Y-78529429D01*
X51315800Y-78484941D01*
X51315800Y-78210274D01*
X51363306Y-78210274D01*
X51373439Y-78243677D01*
X51399340Y-78292134D01*
X51425328Y-78340754D01*
X51495158Y-78425843D01*
X51516476Y-78443338D01*
X52303010Y-79229872D01*
X52261400Y-79439062D01*
X52261400Y-79666538D01*
X52305778Y-79889643D01*
X52392829Y-80099803D01*
X52519208Y-80288942D01*
X52680058Y-80449792D01*
X52869197Y-80576171D01*
X53079357Y-80663222D01*
X53302462Y-80707600D01*
X53529938Y-80707600D01*
X53753043Y-80663222D01*
X53963203Y-80576171D01*
X54152342Y-80449792D01*
X54199334Y-80402800D01*
X54748879Y-80402800D01*
X54755745Y-80472510D01*
X54776078Y-80539541D01*
X54809098Y-80601317D01*
X54853536Y-80655464D01*
X54907683Y-80699902D01*
X54969459Y-80732922D01*
X55036490Y-80753255D01*
X55106200Y-80760121D01*
X55714900Y-80758400D01*
X55803800Y-80669500D01*
X55803800Y-79705200D01*
X56108600Y-79705200D01*
X56108600Y-80669500D01*
X56197500Y-80758400D01*
X56806200Y-80760121D01*
X56875910Y-80753255D01*
X56942941Y-80732922D01*
X57004717Y-80699902D01*
X57058864Y-80655464D01*
X57103302Y-80601317D01*
X57136322Y-80539541D01*
X57156655Y-80472510D01*
X57163521Y-80402800D01*
X57161800Y-79794100D01*
X57072900Y-79705200D01*
X56108600Y-79705200D01*
X55803800Y-79705200D01*
X54839500Y-79705200D01*
X54750600Y-79794100D01*
X54748879Y-80402800D01*
X54199334Y-80402800D01*
X54313192Y-80288942D01*
X54439571Y-80099803D01*
X54526622Y-79889643D01*
X54571000Y-79666538D01*
X54571000Y-79439062D01*
X54526622Y-79215957D01*
X54439571Y-79005797D01*
X54313192Y-78816658D01*
X54287334Y-78790800D01*
X54749128Y-78790800D01*
X54750600Y-79311500D01*
X54839500Y-79400400D01*
X55803800Y-79400400D01*
X55803800Y-79380400D01*
X56108600Y-79380400D01*
X56108600Y-79400400D01*
X57072900Y-79400400D01*
X57161800Y-79311500D01*
X57163272Y-78790800D01*
X58200864Y-78790800D01*
X58496200Y-79086137D01*
X58496200Y-79125237D01*
X58517674Y-79233196D01*
X58559798Y-79334891D01*
X58620952Y-79426414D01*
X58698786Y-79504248D01*
X58790309Y-79565402D01*
X58892004Y-79607526D01*
X58999963Y-79629000D01*
X59110037Y-79629000D01*
X59217996Y-79607526D01*
X59319691Y-79565402D01*
X59411214Y-79504248D01*
X59489048Y-79426414D01*
X59550202Y-79334891D01*
X59592326Y-79233196D01*
X59613800Y-79125237D01*
X59613800Y-79015163D01*
X59592326Y-78907204D01*
X59551838Y-78809460D01*
X59614414Y-78767648D01*
X59692248Y-78689814D01*
X59744079Y-78612244D01*
X60399095Y-79267260D01*
X60411814Y-79282758D01*
X60427312Y-79295477D01*
X60427317Y-79295482D01*
X60446836Y-79311500D01*
X60473696Y-79333544D01*
X60544297Y-79371281D01*
X60620903Y-79394519D01*
X60628176Y-79395235D01*
X60680612Y-79400400D01*
X60680619Y-79400400D01*
X60700572Y-79402365D01*
X60720525Y-79400400D01*
X62520276Y-79400400D01*
X62540229Y-79402365D01*
X62560182Y-79400400D01*
X62560189Y-79400400D01*
X62619897Y-79394519D01*
X62696504Y-79371281D01*
X62767105Y-79333544D01*
X62828987Y-79282758D01*
X62841711Y-79267254D01*
X63170840Y-78938125D01*
X63235309Y-78981202D01*
X63337004Y-79023326D01*
X63444963Y-79044800D01*
X63555037Y-79044800D01*
X63662996Y-79023326D01*
X63764691Y-78981202D01*
X63856214Y-78920048D01*
X63934048Y-78842214D01*
X63995202Y-78750691D01*
X64037326Y-78648996D01*
X64041571Y-78627657D01*
X64206526Y-78792612D01*
X64183552Y-78815586D01*
X64122398Y-78907109D01*
X64080274Y-79008804D01*
X64058800Y-79116763D01*
X64058800Y-79226837D01*
X64080274Y-79334796D01*
X64122398Y-79436491D01*
X64183552Y-79528014D01*
X64261386Y-79605848D01*
X64352909Y-79667002D01*
X64454604Y-79709126D01*
X64562563Y-79730600D01*
X64672637Y-79730600D01*
X64780596Y-79709126D01*
X64781220Y-79708868D01*
X64815636Y-79773257D01*
X64869596Y-79839007D01*
X64886075Y-79852531D01*
X65123200Y-80089656D01*
X65123200Y-80092837D01*
X65144674Y-80200796D01*
X65186798Y-80302491D01*
X65247952Y-80394014D01*
X65325786Y-80471848D01*
X65417309Y-80533002D01*
X65519004Y-80575126D01*
X65626963Y-80596600D01*
X65737037Y-80596600D01*
X65844996Y-80575126D01*
X65946691Y-80533002D01*
X66038214Y-80471848D01*
X66051314Y-80458748D01*
X87104600Y-80458748D01*
X87104600Y-80577252D01*
X87127719Y-80693480D01*
X87173069Y-80802965D01*
X87238907Y-80901498D01*
X87322702Y-80985293D01*
X87421235Y-81051131D01*
X87530720Y-81096481D01*
X87646948Y-81119600D01*
X87765452Y-81119600D01*
X87881680Y-81096481D01*
X87991165Y-81051131D01*
X88089698Y-80985293D01*
X88173493Y-80901498D01*
X88239331Y-80802965D01*
X88284681Y-80693480D01*
X88307800Y-80577252D01*
X88307800Y-80458748D01*
X88284681Y-80342520D01*
X88239331Y-80233035D01*
X88173493Y-80134502D01*
X88089698Y-80050707D01*
X87991165Y-79984869D01*
X87881680Y-79939519D01*
X87765452Y-79916400D01*
X87646948Y-79916400D01*
X87530720Y-79939519D01*
X87421235Y-79984869D01*
X87322702Y-80050707D01*
X87238907Y-80134502D01*
X87173069Y-80233035D01*
X87127719Y-80342520D01*
X87104600Y-80458748D01*
X66051314Y-80458748D01*
X66116048Y-80394014D01*
X66177202Y-80302491D01*
X66219326Y-80200796D01*
X66240800Y-80092837D01*
X66240800Y-79982763D01*
X66219326Y-79874804D01*
X66177202Y-79773109D01*
X66116048Y-79681586D01*
X66038214Y-79603752D01*
X65946691Y-79542598D01*
X65844996Y-79500474D01*
X65737037Y-79479000D01*
X65733856Y-79479000D01*
X65608201Y-79353345D01*
X65608201Y-78671585D01*
X65889700Y-78670400D01*
X65978600Y-78581500D01*
X65978600Y-77692200D01*
X66283400Y-77692200D01*
X66283400Y-78581500D01*
X66372300Y-78670400D01*
X66781000Y-78672121D01*
X66850710Y-78665255D01*
X66917741Y-78644922D01*
X66979517Y-78611902D01*
X67033664Y-78567464D01*
X67078102Y-78513317D01*
X67111122Y-78451541D01*
X67131455Y-78384510D01*
X67138321Y-78314800D01*
X67136600Y-77781100D01*
X67047700Y-77692200D01*
X66283400Y-77692200D01*
X65978600Y-77692200D01*
X65214300Y-77692200D01*
X65125400Y-77781100D01*
X65124853Y-77950795D01*
X64423535Y-77249479D01*
X64410006Y-77232994D01*
X64344256Y-77179034D01*
X64269242Y-77138939D01*
X64187848Y-77114248D01*
X64124410Y-77108000D01*
X64103200Y-77105911D01*
X64081990Y-77108000D01*
X62587274Y-77108000D01*
X62587274Y-76764800D01*
X65123679Y-76764800D01*
X65125400Y-77298500D01*
X65214300Y-77387400D01*
X65978600Y-77387400D01*
X65978600Y-76498100D01*
X66283400Y-76498100D01*
X66283400Y-77387400D01*
X67047700Y-77387400D01*
X67136600Y-77298500D01*
X67138321Y-76764800D01*
X67131455Y-76695090D01*
X67111122Y-76628059D01*
X67078102Y-76566283D01*
X67033664Y-76512136D01*
X66979517Y-76467698D01*
X66917741Y-76434678D01*
X66850710Y-76414345D01*
X66781000Y-76407479D01*
X66372300Y-76409200D01*
X66283400Y-76498100D01*
X65978600Y-76498100D01*
X65889700Y-76409200D01*
X65481000Y-76407479D01*
X65411290Y-76414345D01*
X65344259Y-76434678D01*
X65282483Y-76467698D01*
X65228336Y-76512136D01*
X65183898Y-76566283D01*
X65150878Y-76628059D01*
X65130545Y-76695090D01*
X65123679Y-76764800D01*
X62587274Y-76764800D01*
X62581389Y-76705049D01*
X62563960Y-76647594D01*
X62535658Y-76594643D01*
X62497568Y-76548232D01*
X62451157Y-76510142D01*
X62398206Y-76481840D01*
X62340751Y-76464411D01*
X62281000Y-76458526D01*
X61160382Y-76458526D01*
X60916335Y-76214479D01*
X60902806Y-76197994D01*
X60837056Y-76144034D01*
X60762042Y-76103939D01*
X60680648Y-76079248D01*
X60617210Y-76073000D01*
X60596000Y-76070911D01*
X60574790Y-76073000D01*
X60173657Y-76073000D01*
X60096400Y-75995743D01*
X60096400Y-75503219D01*
X60113856Y-75508514D01*
X60141300Y-75511217D01*
X60168363Y-75516600D01*
X60195956Y-75516600D01*
X60223400Y-75519303D01*
X60250844Y-75516600D01*
X60278437Y-75516600D01*
X60305500Y-75511217D01*
X60332943Y-75508514D01*
X60359329Y-75500510D01*
X60386396Y-75495126D01*
X60411894Y-75484564D01*
X60438277Y-75476561D01*
X60462595Y-75463563D01*
X60488091Y-75453002D01*
X60511032Y-75437673D01*
X60535354Y-75424673D01*
X60556675Y-75407175D01*
X60579614Y-75391848D01*
X60599119Y-75372343D01*
X60620443Y-75354843D01*
X60635578Y-75336400D01*
X68145497Y-75336400D01*
X68148200Y-75363842D01*
X68148200Y-75363844D01*
X68153731Y-75419997D01*
X68156287Y-75445944D01*
X68188239Y-75551277D01*
X68203399Y-75579639D01*
X68240128Y-75648354D01*
X68309958Y-75733443D01*
X68331276Y-75750938D01*
X69619000Y-77038662D01*
X69619001Y-78230158D01*
X69619000Y-78230163D01*
X69619000Y-78340237D01*
X69624385Y-78367310D01*
X69627087Y-78394744D01*
X69635089Y-78421122D01*
X69640474Y-78448196D01*
X69651038Y-78473700D01*
X69659040Y-78500078D01*
X69672035Y-78524390D01*
X69682598Y-78549891D01*
X69697931Y-78572839D01*
X69710928Y-78597154D01*
X69728421Y-78618469D01*
X69743752Y-78641414D01*
X69763263Y-78660925D01*
X69780758Y-78682243D01*
X69802076Y-78699738D01*
X69821586Y-78719248D01*
X69844530Y-78734579D01*
X69865847Y-78752073D01*
X69890165Y-78765071D01*
X69913109Y-78780402D01*
X69938606Y-78790963D01*
X69962923Y-78803961D01*
X69989306Y-78811964D01*
X70014804Y-78822526D01*
X70041871Y-78827910D01*
X70068257Y-78835914D01*
X70095700Y-78838617D01*
X70122763Y-78844000D01*
X70150356Y-78844000D01*
X70177800Y-78846703D01*
X70205244Y-78844000D01*
X70232837Y-78844000D01*
X70259900Y-78838617D01*
X70287344Y-78835914D01*
X70313732Y-78827909D01*
X70340796Y-78822526D01*
X70366291Y-78811965D01*
X70392678Y-78803961D01*
X70416998Y-78790961D01*
X70442491Y-78780402D01*
X70465431Y-78765074D01*
X70489754Y-78752073D01*
X70511075Y-78734575D01*
X70534014Y-78719248D01*
X70553519Y-78699743D01*
X70574843Y-78682243D01*
X70592343Y-78660919D01*
X70611848Y-78641414D01*
X70627175Y-78618475D01*
X70644673Y-78597154D01*
X70657674Y-78572831D01*
X70673002Y-78549891D01*
X70683561Y-78524398D01*
X70696561Y-78500078D01*
X70704565Y-78473691D01*
X70715126Y-78448196D01*
X70720509Y-78421132D01*
X70728514Y-78394744D01*
X70731217Y-78367300D01*
X70736600Y-78340237D01*
X70736600Y-76906000D01*
X84359879Y-76906000D01*
X84366745Y-76975710D01*
X84387078Y-77042741D01*
X84420098Y-77104517D01*
X84464536Y-77158664D01*
X84518683Y-77203102D01*
X84580459Y-77236122D01*
X84647490Y-77256455D01*
X84717200Y-77263321D01*
X86575900Y-77261600D01*
X86664800Y-77172700D01*
X86664800Y-76383400D01*
X84450500Y-76383400D01*
X84361600Y-76472300D01*
X84359879Y-76906000D01*
X70736600Y-76906000D01*
X70736600Y-76834641D01*
X70739303Y-76807199D01*
X70732310Y-76736200D01*
X70728514Y-76697656D01*
X70696561Y-76592322D01*
X70644673Y-76495246D01*
X70574843Y-76410157D01*
X70553519Y-76392657D01*
X69716862Y-75556000D01*
X84359879Y-75556000D01*
X84361600Y-75989700D01*
X84450500Y-76078600D01*
X86664800Y-76078600D01*
X86664800Y-75289300D01*
X86575900Y-75200400D01*
X84717200Y-75198679D01*
X84647490Y-75205545D01*
X84580459Y-75225878D01*
X84518683Y-75258898D01*
X84464536Y-75303336D01*
X84420098Y-75357483D01*
X84387078Y-75419259D01*
X84366745Y-75486290D01*
X84359879Y-75556000D01*
X69716862Y-75556000D01*
X69265800Y-75104938D01*
X69265800Y-74366963D01*
X69260417Y-74339900D01*
X69257714Y-74312456D01*
X69249709Y-74286068D01*
X69244326Y-74259004D01*
X69233765Y-74233509D01*
X69225761Y-74207122D01*
X69212761Y-74182802D01*
X69202202Y-74157309D01*
X69186874Y-74134369D01*
X69173873Y-74110046D01*
X69156375Y-74088725D01*
X69141048Y-74065786D01*
X69121543Y-74046281D01*
X69104043Y-74024957D01*
X69082719Y-74007457D01*
X69063214Y-73987952D01*
X69040275Y-73972625D01*
X69018954Y-73955127D01*
X68994632Y-73942127D01*
X68971691Y-73926798D01*
X68946195Y-73916237D01*
X68921877Y-73903239D01*
X68895494Y-73895236D01*
X68869996Y-73884674D01*
X68842929Y-73879290D01*
X68816543Y-73871286D01*
X68789100Y-73868583D01*
X68762037Y-73863200D01*
X68734444Y-73863200D01*
X68707000Y-73860497D01*
X68679556Y-73863200D01*
X68651963Y-73863200D01*
X68624900Y-73868583D01*
X68597456Y-73871286D01*
X68571068Y-73879291D01*
X68544004Y-73884674D01*
X68518509Y-73895235D01*
X68492122Y-73903239D01*
X68467802Y-73916239D01*
X68442309Y-73926798D01*
X68419369Y-73942126D01*
X68395046Y-73955127D01*
X68373725Y-73972625D01*
X68350786Y-73987952D01*
X68331281Y-74007457D01*
X68309957Y-74024957D01*
X68292457Y-74046281D01*
X68272952Y-74065786D01*
X68257625Y-74088725D01*
X68240127Y-74110046D01*
X68227127Y-74134368D01*
X68211798Y-74157309D01*
X68201237Y-74182805D01*
X68188239Y-74207123D01*
X68180236Y-74233506D01*
X68169674Y-74259004D01*
X68164290Y-74286071D01*
X68156286Y-74312457D01*
X68153583Y-74339899D01*
X68148200Y-74366963D01*
X68148200Y-75308958D01*
X68145497Y-75336400D01*
X60635578Y-75336400D01*
X60637943Y-75333519D01*
X60657448Y-75314014D01*
X60672775Y-75291075D01*
X60690273Y-75269754D01*
X60703274Y-75245431D01*
X60718602Y-75222491D01*
X60729161Y-75196998D01*
X60742161Y-75172678D01*
X60750165Y-75146291D01*
X60760726Y-75120796D01*
X60766109Y-75093732D01*
X60774114Y-75067344D01*
X60776817Y-75039900D01*
X60782200Y-75012837D01*
X60782200Y-73408862D01*
X61978862Y-72212200D01*
X68073938Y-72212200D01*
X68149986Y-72288248D01*
X68172931Y-72303580D01*
X68194246Y-72321072D01*
X68218562Y-72334069D01*
X68241509Y-72349402D01*
X68267007Y-72359964D01*
X68291323Y-72372961D01*
X68317705Y-72380964D01*
X68343204Y-72391526D01*
X68370274Y-72396911D01*
X68396655Y-72404913D01*
X68424094Y-72407616D01*
X68451163Y-72413000D01*
X68478757Y-72413000D01*
X68506199Y-72415703D01*
X68533641Y-72413000D01*
X68561237Y-72413000D01*
X68588307Y-72407615D01*
X68615744Y-72404913D01*
X68642124Y-72396911D01*
X68669196Y-72391526D01*
X68694695Y-72380964D01*
X68721077Y-72372961D01*
X68745393Y-72359964D01*
X68770891Y-72349402D01*
X68793838Y-72334069D01*
X68818154Y-72321072D01*
X68839468Y-72303580D01*
X68862414Y-72288248D01*
X68881928Y-72268734D01*
X68903242Y-72251242D01*
X68920734Y-72229928D01*
X68940248Y-72210414D01*
X68955580Y-72187468D01*
X68973072Y-72166154D01*
X68986069Y-72141838D01*
X69001402Y-72118891D01*
X69011964Y-72093393D01*
X69024961Y-72069077D01*
X69032964Y-72042695D01*
X69043526Y-72017196D01*
X69048911Y-71990124D01*
X69056913Y-71963744D01*
X69059615Y-71936307D01*
X69065000Y-71909237D01*
X69065000Y-71881641D01*
X69067703Y-71854199D01*
X69065000Y-71826757D01*
X69065000Y-71799163D01*
X69059616Y-71772094D01*
X69056913Y-71744655D01*
X69048911Y-71718274D01*
X69043526Y-71691204D01*
X69032964Y-71665705D01*
X69024961Y-71639323D01*
X69011964Y-71615007D01*
X69001402Y-71589509D01*
X68986069Y-71566562D01*
X68973072Y-71542246D01*
X68955580Y-71520931D01*
X68940248Y-71497986D01*
X68719943Y-71277681D01*
X68702443Y-71256357D01*
X68702008Y-71256000D01*
X84359879Y-71256000D01*
X84366745Y-71325710D01*
X84387078Y-71392741D01*
X84420098Y-71454517D01*
X84464536Y-71508664D01*
X84518683Y-71553102D01*
X84580459Y-71586122D01*
X84647490Y-71606455D01*
X84717200Y-71613321D01*
X86575900Y-71611600D01*
X86664800Y-71522700D01*
X86664800Y-70733400D01*
X84450500Y-70733400D01*
X84361600Y-70822300D01*
X84359879Y-71256000D01*
X68702008Y-71256000D01*
X68617354Y-71186527D01*
X68520278Y-71134639D01*
X68414944Y-71102686D01*
X68332844Y-71094600D01*
X68332842Y-71094600D01*
X68305400Y-71091897D01*
X68277958Y-71094600D01*
X67138095Y-71094600D01*
X67136600Y-70631100D01*
X67047700Y-70542200D01*
X66283400Y-70542200D01*
X66283400Y-70562200D01*
X65978600Y-70562200D01*
X65978600Y-70542200D01*
X65214300Y-70542200D01*
X65125400Y-70631100D01*
X65123905Y-71094600D01*
X62587274Y-71094600D01*
X62587274Y-69672220D01*
X63321144Y-69672220D01*
X63526645Y-69877721D01*
X63521474Y-69890204D01*
X63500000Y-69998163D01*
X63500000Y-70108237D01*
X63521474Y-70216196D01*
X63563598Y-70317891D01*
X63624752Y-70409414D01*
X63702586Y-70487248D01*
X63794109Y-70548402D01*
X63895804Y-70590526D01*
X64003763Y-70612000D01*
X64113837Y-70612000D01*
X64221796Y-70590526D01*
X64323491Y-70548402D01*
X64415014Y-70487248D01*
X64492848Y-70409414D01*
X64554002Y-70317891D01*
X64596126Y-70216196D01*
X64617600Y-70108237D01*
X64617600Y-70048990D01*
X64704396Y-70031726D01*
X64806091Y-69989602D01*
X64897614Y-69928448D01*
X64975448Y-69850614D01*
X65036602Y-69759091D01*
X65078726Y-69657396D01*
X65087198Y-69614800D01*
X65123679Y-69614800D01*
X65125400Y-70148500D01*
X65214300Y-70237400D01*
X65978600Y-70237400D01*
X65978600Y-69348100D01*
X66283400Y-69348100D01*
X66283400Y-70237400D01*
X67047700Y-70237400D01*
X67136600Y-70148500D01*
X67137381Y-69906000D01*
X84359879Y-69906000D01*
X84361600Y-70339700D01*
X84450500Y-70428600D01*
X86664800Y-70428600D01*
X86664800Y-69639300D01*
X86575900Y-69550400D01*
X84717200Y-69548679D01*
X84647490Y-69555545D01*
X84580459Y-69575878D01*
X84518683Y-69608898D01*
X84464536Y-69653336D01*
X84420098Y-69707483D01*
X84387078Y-69769259D01*
X84366745Y-69836290D01*
X84359879Y-69906000D01*
X67137381Y-69906000D01*
X67138321Y-69614800D01*
X67131455Y-69545090D01*
X67111122Y-69478059D01*
X67078102Y-69416283D01*
X67033664Y-69362136D01*
X66979517Y-69317698D01*
X66917741Y-69284678D01*
X66850710Y-69264345D01*
X66781000Y-69257479D01*
X66372300Y-69259200D01*
X66283400Y-69348100D01*
X65978600Y-69348100D01*
X65889700Y-69259200D01*
X65481000Y-69257479D01*
X65411290Y-69264345D01*
X65344259Y-69284678D01*
X65282483Y-69317698D01*
X65228336Y-69362136D01*
X65183898Y-69416283D01*
X65150878Y-69478059D01*
X65130545Y-69545090D01*
X65123679Y-69614800D01*
X65087198Y-69614800D01*
X65100200Y-69549437D01*
X65100200Y-69439363D01*
X65078726Y-69331404D01*
X65036602Y-69229709D01*
X64975940Y-69138922D01*
X65000848Y-69114014D01*
X65062002Y-69022491D01*
X65104126Y-68920796D01*
X65125600Y-68812837D01*
X65125600Y-68702763D01*
X65104126Y-68594804D01*
X65062002Y-68493109D01*
X65000848Y-68401586D01*
X64950662Y-68351400D01*
X65000848Y-68301214D01*
X65004089Y-68296363D01*
X65735200Y-68296363D01*
X65735200Y-68406437D01*
X65756674Y-68514396D01*
X65798798Y-68616091D01*
X65859952Y-68707614D01*
X65937786Y-68785448D01*
X66029309Y-68846602D01*
X66131004Y-68888726D01*
X66238963Y-68910200D01*
X66349037Y-68910200D01*
X66456996Y-68888726D01*
X66480066Y-68879170D01*
X66557448Y-68920533D01*
X66642573Y-68946355D01*
X66731100Y-68955074D01*
X67076100Y-68955074D01*
X67164627Y-68946355D01*
X67249752Y-68920533D01*
X67328203Y-68878599D01*
X67396967Y-68822167D01*
X67453399Y-68753403D01*
X67495333Y-68674952D01*
X67521155Y-68589827D01*
X67529874Y-68501300D01*
X67529874Y-68445600D01*
X68385279Y-68445600D01*
X68392145Y-68515310D01*
X68412478Y-68582341D01*
X68445498Y-68644117D01*
X68489936Y-68698264D01*
X68544083Y-68742702D01*
X68605859Y-68775722D01*
X68672890Y-68796055D01*
X68742600Y-68802921D01*
X68821300Y-68801200D01*
X68910200Y-68712300D01*
X68910200Y-68303000D01*
X69215000Y-68303000D01*
X69215000Y-68712300D01*
X69303900Y-68801200D01*
X69382600Y-68802921D01*
X69452310Y-68796055D01*
X69519341Y-68775722D01*
X69581117Y-68742702D01*
X69635264Y-68698264D01*
X69679702Y-68644117D01*
X69712722Y-68582341D01*
X69733055Y-68515310D01*
X69739921Y-68445600D01*
X69738200Y-68391900D01*
X69649300Y-68303000D01*
X69215000Y-68303000D01*
X68910200Y-68303000D01*
X68475900Y-68303000D01*
X68387000Y-68391900D01*
X68385279Y-68445600D01*
X67529874Y-68445600D01*
X67529874Y-68206300D01*
X67521155Y-68117773D01*
X67495333Y-68032648D01*
X67453399Y-67954197D01*
X67451453Y-67951826D01*
X67476264Y-67931464D01*
X67520702Y-67877317D01*
X67532309Y-67855600D01*
X68385279Y-67855600D01*
X68387000Y-67909300D01*
X68475900Y-67998200D01*
X68910200Y-67998200D01*
X68910200Y-67978200D01*
X69215000Y-67978200D01*
X69215000Y-67998200D01*
X69649300Y-67998200D01*
X69738200Y-67909300D01*
X69739921Y-67855600D01*
X69733055Y-67785890D01*
X69712722Y-67718859D01*
X69711408Y-67716400D01*
X69778037Y-67716400D01*
X69885996Y-67694926D01*
X69987691Y-67652802D01*
X70079214Y-67591648D01*
X70157048Y-67513814D01*
X70218202Y-67422291D01*
X70260326Y-67320596D01*
X70281800Y-67212637D01*
X70281800Y-67102563D01*
X70260326Y-66994604D01*
X70218202Y-66892909D01*
X70157048Y-66801386D01*
X70079214Y-66723552D01*
X69987691Y-66662398D01*
X69885996Y-66620274D01*
X69778037Y-66598800D01*
X69667963Y-66598800D01*
X69560004Y-66620274D01*
X69481541Y-66652775D01*
X69408752Y-66613867D01*
X69323627Y-66588045D01*
X69235100Y-66579326D01*
X68890100Y-66579326D01*
X68801573Y-66588045D01*
X68716448Y-66613867D01*
X68637997Y-66655801D01*
X68569233Y-66712233D01*
X68512801Y-66780997D01*
X68470867Y-66859448D01*
X68445045Y-66944573D01*
X68436326Y-67033100D01*
X68436326Y-67328100D01*
X68445045Y-67416627D01*
X68470867Y-67501752D01*
X68512801Y-67580203D01*
X68514747Y-67582574D01*
X68489936Y-67602936D01*
X68445498Y-67657083D01*
X68412478Y-67718859D01*
X68392145Y-67785890D01*
X68385279Y-67855600D01*
X67532309Y-67855600D01*
X67553722Y-67815541D01*
X67574055Y-67748510D01*
X67580921Y-67678800D01*
X67579200Y-67625100D01*
X67490300Y-67536200D01*
X67056000Y-67536200D01*
X67056000Y-67556200D01*
X66751200Y-67556200D01*
X66751200Y-67536200D01*
X66316900Y-67536200D01*
X66228000Y-67625100D01*
X66226279Y-67678800D01*
X66233145Y-67748510D01*
X66246519Y-67792600D01*
X66238963Y-67792600D01*
X66131004Y-67814074D01*
X66029309Y-67856198D01*
X65937786Y-67917352D01*
X65859952Y-67995186D01*
X65798798Y-68086709D01*
X65756674Y-68188404D01*
X65735200Y-68296363D01*
X65004089Y-68296363D01*
X65062002Y-68209691D01*
X65104126Y-68107996D01*
X65125600Y-68000037D01*
X65125600Y-67889963D01*
X65104126Y-67782004D01*
X65062002Y-67680309D01*
X65000848Y-67588786D01*
X64923014Y-67510952D01*
X64831491Y-67449798D01*
X64729796Y-67407674D01*
X64621837Y-67386200D01*
X64589994Y-67386200D01*
X64596126Y-67371396D01*
X64617600Y-67263437D01*
X64617600Y-67153363D01*
X64604758Y-67088800D01*
X66226279Y-67088800D01*
X66228000Y-67142500D01*
X66316900Y-67231400D01*
X66751200Y-67231400D01*
X66751200Y-66822100D01*
X67056000Y-66822100D01*
X67056000Y-67231400D01*
X67490300Y-67231400D01*
X67579200Y-67142500D01*
X67580921Y-67088800D01*
X67574055Y-67019090D01*
X67553722Y-66952059D01*
X67520702Y-66890283D01*
X67476264Y-66836136D01*
X67422117Y-66791698D01*
X67360341Y-66758678D01*
X67293310Y-66738345D01*
X67223600Y-66731479D01*
X67144900Y-66733200D01*
X67056000Y-66822100D01*
X66751200Y-66822100D01*
X66662300Y-66733200D01*
X66583600Y-66731479D01*
X66513890Y-66738345D01*
X66446859Y-66758678D01*
X66385083Y-66791698D01*
X66330936Y-66836136D01*
X66286498Y-66890283D01*
X66253478Y-66952059D01*
X66233145Y-67019090D01*
X66226279Y-67088800D01*
X64604758Y-67088800D01*
X64596126Y-67045404D01*
X64554002Y-66943709D01*
X64492848Y-66852186D01*
X64415014Y-66774352D01*
X64323491Y-66713198D01*
X64221796Y-66671074D01*
X64113837Y-66649600D01*
X64003763Y-66649600D01*
X63895804Y-66671074D01*
X63844099Y-66692491D01*
X63802803Y-66658601D01*
X63724352Y-66616667D01*
X63639227Y-66590845D01*
X63550700Y-66582126D01*
X63255700Y-66582126D01*
X63167173Y-66590845D01*
X63082048Y-66616667D01*
X63003597Y-66658601D01*
X63001226Y-66660547D01*
X62980864Y-66635736D01*
X62926717Y-66591298D01*
X62864941Y-66558278D01*
X62797910Y-66537945D01*
X62728200Y-66531079D01*
X62674500Y-66532800D01*
X62585600Y-66621700D01*
X62585600Y-67056000D01*
X62605600Y-67056000D01*
X62605600Y-67360800D01*
X62585600Y-67360800D01*
X62585600Y-67380800D01*
X62280800Y-67380800D01*
X62280800Y-67360800D01*
X61622800Y-67360800D01*
X61622800Y-67380800D01*
X61318000Y-67380800D01*
X61318000Y-67360800D01*
X61298000Y-67360800D01*
X61298000Y-67056000D01*
X61318000Y-67056000D01*
X61318000Y-66621700D01*
X61622800Y-66621700D01*
X61622800Y-67056000D01*
X62280800Y-67056000D01*
X62280800Y-66621700D01*
X62191900Y-66532800D01*
X62138200Y-66531079D01*
X62068490Y-66537945D01*
X62001459Y-66558278D01*
X61951800Y-66584821D01*
X61902141Y-66558278D01*
X61835110Y-66537945D01*
X61765400Y-66531079D01*
X61711700Y-66532800D01*
X61622800Y-66621700D01*
X61318000Y-66621700D01*
X61229100Y-66532800D01*
X61175400Y-66531079D01*
X61105690Y-66537945D01*
X61038659Y-66558278D01*
X60976883Y-66591298D01*
X60922736Y-66635736D01*
X60902374Y-66660547D01*
X60900003Y-66658601D01*
X60821552Y-66616667D01*
X60736427Y-66590845D01*
X60647900Y-66582126D01*
X60352900Y-66582126D01*
X60264373Y-66590845D01*
X60179248Y-66616667D01*
X60100797Y-66658601D01*
X60050176Y-66700144D01*
X59979996Y-66671074D01*
X59872037Y-66649600D01*
X59761963Y-66649600D01*
X59654004Y-66671074D01*
X59552309Y-66713198D01*
X59460786Y-66774352D01*
X59382952Y-66852186D01*
X59321798Y-66943709D01*
X59279674Y-67045404D01*
X59258200Y-67153363D01*
X59258200Y-67263437D01*
X59279674Y-67371396D01*
X59321798Y-67473091D01*
X59348598Y-67513200D01*
X58624258Y-67513200D01*
X57810400Y-66699344D01*
X57810400Y-66696163D01*
X57788926Y-66588204D01*
X57746802Y-66486509D01*
X57685648Y-66394986D01*
X57607814Y-66317152D01*
X57516291Y-66255998D01*
X57414596Y-66213874D01*
X57306637Y-66192400D01*
X57196563Y-66192400D01*
X57088604Y-66213874D01*
X56986909Y-66255998D01*
X56895386Y-66317152D01*
X56817552Y-66394986D01*
X56756398Y-66486509D01*
X56714274Y-66588204D01*
X56692800Y-66696163D01*
X56692800Y-66806237D01*
X56714274Y-66914196D01*
X56756398Y-67015891D01*
X56817552Y-67107414D01*
X56895386Y-67185248D01*
X56986909Y-67246402D01*
X57088604Y-67288526D01*
X57196563Y-67310000D01*
X57199744Y-67310000D01*
X57834743Y-67945000D01*
X57501409Y-67945000D01*
X57480199Y-67942911D01*
X57402751Y-67950539D01*
X57395552Y-67951248D01*
X57314158Y-67975939D01*
X57239144Y-68016034D01*
X57201899Y-68046600D01*
X57196563Y-68046600D01*
X57088604Y-68068074D01*
X56986909Y-68110198D01*
X56895386Y-68171352D01*
X56817552Y-68249186D01*
X56756398Y-68340709D01*
X56714274Y-68442404D01*
X56692800Y-68550363D01*
X56692800Y-68660437D01*
X56714274Y-68768396D01*
X56756398Y-68870091D01*
X56817552Y-68961614D01*
X56895386Y-69039448D01*
X56986909Y-69100602D01*
X57088604Y-69142726D01*
X57196563Y-69164200D01*
X57301344Y-69164200D01*
X56961279Y-69504265D01*
X56944794Y-69517794D01*
X56890834Y-69583545D01*
X56850739Y-69658559D01*
X56827412Y-69735456D01*
X56826048Y-69739953D01*
X56817711Y-69824600D01*
X56819800Y-69845811D01*
X56819801Y-70202737D01*
X56817552Y-70204986D01*
X56756398Y-70296509D01*
X56714274Y-70398204D01*
X56692800Y-70506163D01*
X56692800Y-70616237D01*
X56714274Y-70724196D01*
X56756398Y-70825891D01*
X56817552Y-70917414D01*
X56895386Y-70995248D01*
X56968371Y-71044015D01*
X56916234Y-71107545D01*
X56876139Y-71182559D01*
X56853861Y-71256000D01*
X56851448Y-71263953D01*
X56843111Y-71348600D01*
X56845200Y-71369810D01*
X56845201Y-71896198D01*
X56793786Y-71930552D01*
X56715952Y-72008386D01*
X56654798Y-72099909D01*
X56612674Y-72201604D01*
X56591200Y-72309563D01*
X56591200Y-72419637D01*
X56612674Y-72527596D01*
X56654798Y-72629291D01*
X56715952Y-72720814D01*
X56793786Y-72798648D01*
X56885309Y-72859802D01*
X56987004Y-72901926D01*
X57094963Y-72923400D01*
X57205037Y-72923400D01*
X57312996Y-72901926D01*
X57414691Y-72859802D01*
X57488962Y-72810176D01*
X54818480Y-75480658D01*
X54797157Y-75498157D01*
X54727327Y-75583246D01*
X54675439Y-75680322D01*
X54643486Y-75785656D01*
X54636176Y-75859876D01*
X54635828Y-75863410D01*
X54635400Y-75865563D01*
X54635400Y-75867756D01*
X54632697Y-75895200D01*
X54635400Y-75922642D01*
X54635400Y-75975637D01*
X54640783Y-76002701D01*
X54643486Y-76030143D01*
X54651490Y-76056529D01*
X54656874Y-76083596D01*
X54667436Y-76109094D01*
X54675439Y-76135477D01*
X54688437Y-76159795D01*
X54698998Y-76185291D01*
X54714327Y-76208232D01*
X54727327Y-76232554D01*
X54744825Y-76253875D01*
X54760152Y-76276814D01*
X54779657Y-76296319D01*
X54797157Y-76317643D01*
X54818481Y-76335143D01*
X54837986Y-76354648D01*
X54860925Y-76369975D01*
X54882246Y-76387473D01*
X54906569Y-76400474D01*
X54929509Y-76415802D01*
X54955002Y-76426361D01*
X54979322Y-76439361D01*
X55005709Y-76447365D01*
X55031204Y-76457926D01*
X55058268Y-76463309D01*
X55084656Y-76471314D01*
X55112100Y-76474017D01*
X55139163Y-76479400D01*
X55166756Y-76479400D01*
X55194200Y-76482103D01*
X55221644Y-76479400D01*
X55249237Y-76479400D01*
X55276300Y-76474017D01*
X55303743Y-76471314D01*
X55330129Y-76463310D01*
X55357196Y-76457926D01*
X55382694Y-76447364D01*
X55409077Y-76439361D01*
X55433395Y-76426363D01*
X55458891Y-76415802D01*
X55481832Y-76400473D01*
X55506154Y-76387473D01*
X55527475Y-76369975D01*
X55550414Y-76354648D01*
X55569919Y-76335143D01*
X55591243Y-76317643D01*
X55608743Y-76296319D01*
X55628248Y-76276814D01*
X55643575Y-76253875D01*
X55661073Y-76232554D01*
X55674074Y-76208231D01*
X55679396Y-76200266D01*
X59647337Y-72232326D01*
X59647342Y-72232320D01*
X59666848Y-72212814D01*
X59682176Y-72189874D01*
X59699672Y-72168555D01*
X59712672Y-72144234D01*
X59728002Y-72121291D01*
X59738562Y-72095797D01*
X59751561Y-72071478D01*
X59759565Y-72045093D01*
X59770126Y-72019596D01*
X59775510Y-71992527D01*
X59783513Y-71966145D01*
X59786216Y-71938706D01*
X59791600Y-71911637D01*
X59791600Y-71884042D01*
X59794303Y-71856600D01*
X59791600Y-71829158D01*
X59791600Y-71801563D01*
X59786216Y-71774493D01*
X59783513Y-71747056D01*
X59775511Y-71720676D01*
X59770126Y-71693604D01*
X59759564Y-71668105D01*
X59751561Y-71641723D01*
X59738564Y-71617407D01*
X59728002Y-71591909D01*
X59712669Y-71568962D01*
X59699672Y-71544646D01*
X59682180Y-71523332D01*
X59666848Y-71500386D01*
X59647334Y-71480872D01*
X59629842Y-71459558D01*
X59608528Y-71442066D01*
X59589014Y-71422552D01*
X59566068Y-71407220D01*
X59544754Y-71389728D01*
X59520438Y-71376731D01*
X59497491Y-71361398D01*
X59471993Y-71350836D01*
X59447677Y-71337839D01*
X59421295Y-71329836D01*
X59395796Y-71319274D01*
X59368724Y-71313889D01*
X59342344Y-71305887D01*
X59314907Y-71303184D01*
X59287837Y-71297800D01*
X59260242Y-71297800D01*
X59232800Y-71295097D01*
X59205358Y-71297800D01*
X59177763Y-71297800D01*
X59150694Y-71303184D01*
X59123255Y-71305887D01*
X59096873Y-71313890D01*
X59069804Y-71319274D01*
X59044307Y-71329835D01*
X59017922Y-71337839D01*
X58993603Y-71350838D01*
X58968109Y-71361398D01*
X58945166Y-71376728D01*
X58920845Y-71389728D01*
X58899526Y-71407224D01*
X58876586Y-71422552D01*
X58857080Y-71442058D01*
X58857074Y-71442063D01*
X57595576Y-72703562D01*
X57645202Y-72629291D01*
X57687326Y-72527596D01*
X57708800Y-72419637D01*
X57708800Y-71527456D01*
X58100726Y-71135531D01*
X58117206Y-71122006D01*
X58171166Y-71056256D01*
X58211261Y-70981242D01*
X58235952Y-70899848D01*
X58242200Y-70836410D01*
X58244289Y-70815200D01*
X58242200Y-70793990D01*
X58242200Y-70079656D01*
X58649638Y-69672220D01*
X60674726Y-69672220D01*
X60674726Y-71164800D01*
X60680611Y-71224551D01*
X60698040Y-71282006D01*
X60704944Y-71294923D01*
X59374279Y-72625589D01*
X59357794Y-72639118D01*
X59303834Y-72704869D01*
X59263739Y-72779883D01*
X59239776Y-72858877D01*
X59239048Y-72861277D01*
X59230711Y-72945924D01*
X59232800Y-72967134D01*
X59232801Y-76153380D01*
X59230711Y-76174600D01*
X59239048Y-76259247D01*
X59254365Y-76309737D01*
X59263740Y-76340642D01*
X59303835Y-76415656D01*
X59357795Y-76481406D01*
X59374273Y-76494930D01*
X59674472Y-76795130D01*
X59687994Y-76811606D01*
X59753744Y-76865566D01*
X59828758Y-76905661D01*
X59910152Y-76930352D01*
X59973590Y-76936600D01*
X59973597Y-76936600D01*
X59994799Y-76938688D01*
X60016002Y-76936600D01*
X60417144Y-76936600D01*
X60674726Y-77194182D01*
X60674726Y-77854589D01*
X59737452Y-76917316D01*
X59724728Y-76901812D01*
X59662846Y-76851026D01*
X59592245Y-76813289D01*
X59515638Y-76790051D01*
X59455930Y-76784170D01*
X59455923Y-76784170D01*
X59435970Y-76782205D01*
X59416017Y-76784170D01*
X54102000Y-76784170D01*
X54102000Y-75051553D01*
X54103965Y-75031600D01*
X54102000Y-75011647D01*
X54102000Y-75011640D01*
X54096119Y-74951932D01*
X54072881Y-74875325D01*
X54035144Y-74804724D01*
X54014317Y-74779346D01*
X53997082Y-74758345D01*
X53997077Y-74758340D01*
X53984358Y-74742842D01*
X53968860Y-74730123D01*
X52070030Y-72831294D01*
X52070030Y-71192154D01*
X52597255Y-70664929D01*
X52612758Y-70652206D01*
X52663544Y-70590324D01*
X52701281Y-70519723D01*
X52724519Y-70443116D01*
X52730400Y-70383408D01*
X52730400Y-70383402D01*
X52732365Y-70363449D01*
X52730400Y-70343496D01*
X52730400Y-68574552D01*
X52732365Y-68554599D01*
X52730400Y-68534646D01*
X52730400Y-68534640D01*
X52724519Y-68474932D01*
X52720429Y-68461447D01*
X52711213Y-68431068D01*
X52701281Y-68398325D01*
X52663544Y-68327724D01*
X52612758Y-68265842D01*
X52597254Y-68253118D01*
X52425600Y-68081464D01*
X52425600Y-68042363D01*
X52404126Y-67934404D01*
X52362002Y-67832709D01*
X52300848Y-67741186D01*
X52223014Y-67663352D01*
X52131491Y-67602198D01*
X52029796Y-67560074D01*
X51921837Y-67538600D01*
X51811763Y-67538600D01*
X51703804Y-67560074D01*
X51602109Y-67602198D01*
X51510586Y-67663352D01*
X51432752Y-67741186D01*
X51371598Y-67832709D01*
X51329474Y-67934404D01*
X51308000Y-68042363D01*
X51308000Y-68152437D01*
X51329474Y-68260396D01*
X51371598Y-68362091D01*
X51432752Y-68453614D01*
X51510586Y-68531448D01*
X51602109Y-68592602D01*
X51703804Y-68634726D01*
X51811763Y-68656200D01*
X51850864Y-68656200D01*
X51917601Y-68722937D01*
X51917601Y-69127714D01*
X51845637Y-69113400D01*
X51735563Y-69113400D01*
X51627604Y-69134874D01*
X51525909Y-69176998D01*
X51434386Y-69238152D01*
X51356552Y-69315986D01*
X51295398Y-69407509D01*
X51253274Y-69509204D01*
X51231800Y-69617163D01*
X51231800Y-69676410D01*
X51210637Y-69672200D01*
X51100563Y-69672200D01*
X50992604Y-69693674D01*
X50890909Y-69735798D01*
X50799386Y-69796952D01*
X50721552Y-69874786D01*
X50660398Y-69966309D01*
X50618274Y-70068004D01*
X50596800Y-70175963D01*
X50596800Y-70179144D01*
X50585884Y-70190060D01*
X50569405Y-70203584D01*
X50515445Y-70269334D01*
X50490690Y-70315648D01*
X50475350Y-70344348D01*
X50450658Y-70425743D01*
X50442321Y-70510390D01*
X50444411Y-70531610D01*
X50444411Y-70839554D01*
X49987200Y-70382344D01*
X49987200Y-69954462D01*
X49989448Y-69952214D01*
X50050602Y-69860691D01*
X50092726Y-69758996D01*
X50114200Y-69651037D01*
X50114200Y-69540963D01*
X50092726Y-69433004D01*
X50050602Y-69331309D01*
X49989448Y-69239786D01*
X49911614Y-69161952D01*
X49820091Y-69100798D01*
X49718396Y-69058674D01*
X49610437Y-69037200D01*
X49500363Y-69037200D01*
X49392404Y-69058674D01*
X49290709Y-69100798D01*
X49199186Y-69161952D01*
X49121352Y-69239786D01*
X49060198Y-69331309D01*
X49018074Y-69433004D01*
X48996600Y-69540963D01*
X36169200Y-69540963D01*
X36169200Y-67731400D01*
X36743929Y-67731400D01*
X36768156Y-67977384D01*
X36839907Y-68213914D01*
X36956424Y-68431902D01*
X37113230Y-68622970D01*
X37304298Y-68779776D01*
X37522286Y-68896293D01*
X37758816Y-68968044D01*
X37943159Y-68986200D01*
X39966441Y-68986200D01*
X40150784Y-68968044D01*
X40387314Y-68896293D01*
X40605302Y-68779776D01*
X40796370Y-68622970D01*
X40953176Y-68431902D01*
X41069693Y-68213914D01*
X41141444Y-67977384D01*
X41165671Y-67731400D01*
X41141444Y-67485416D01*
X41069693Y-67248886D01*
X40953176Y-67030898D01*
X40796370Y-66839830D01*
X40605302Y-66683024D01*
X40387314Y-66566507D01*
X40150784Y-66494756D01*
X39966441Y-66476600D01*
X37943159Y-66476600D01*
X37758816Y-66494756D01*
X37522286Y-66566507D01*
X37304298Y-66683024D01*
X37113230Y-66839830D01*
X36956424Y-67030898D01*
X36839907Y-67248886D01*
X36768156Y-67485416D01*
X36743929Y-67731400D01*
X36169200Y-67731400D01*
X36169200Y-66183948D01*
X40546400Y-66183948D01*
X40546400Y-66302452D01*
X40569519Y-66418680D01*
X40614869Y-66528165D01*
X40680707Y-66626698D01*
X40764502Y-66710493D01*
X40863035Y-66776331D01*
X40972520Y-66821681D01*
X41088748Y-66844800D01*
X41207252Y-66844800D01*
X41323480Y-66821681D01*
X41432965Y-66776331D01*
X41531498Y-66710493D01*
X41615293Y-66626698D01*
X41681131Y-66528165D01*
X41726481Y-66418680D01*
X41749600Y-66302452D01*
X41749600Y-66183948D01*
X41726481Y-66067720D01*
X41681131Y-65958235D01*
X41615293Y-65859702D01*
X41531498Y-65775907D01*
X41432965Y-65710069D01*
X41323480Y-65664719D01*
X41207252Y-65641600D01*
X41088748Y-65641600D01*
X40972520Y-65664719D01*
X40863035Y-65710069D01*
X40764502Y-65775907D01*
X40680707Y-65859702D01*
X40614869Y-65958235D01*
X40569519Y-66067720D01*
X40546400Y-66183948D01*
X36169200Y-66183948D01*
X36169200Y-65607800D01*
X88798800Y-65607800D01*
X88798800Y-69548789D01*
M02*
