M48
; DRILL file {KiCad (5.1.5)-3} date 07/02/20 22:09:08
; FORMAT={-:-/ absolute / metric / decimal}
; #@! TF.CreationDate,2020-07-02T22:09:08+02:00
; #@! TF.GenerationSoftware,Kicad,Pcbnew,(5.1.5)-3
; #@! TF.FileFunction,Plated,1,2,PTH
FMAT,2
METRIC
T1C0.200
T2C0.300
T3C0.400
T4C1.000
%
G90
G05
T1
X37.236Y-69.977
X37.389Y-77.191
X37.973Y-73.863
X38.938Y-80.797
X39.472Y-66.04
X39.802Y-69.672
X39.98Y-72.644
X40.005Y-74.143
X42.139Y-80.797
X42.342Y-66.624
X42.342Y-78.918
X43.688Y-69.977
X43.713Y-79.858
X43.739Y-76.931
X43.79Y-73.203
X43.967Y-66.065
X44.602Y-71.349
X44.602Y-75.768
X45.009Y-69.24
X45.339Y-73.787
X45.593Y-80.797
X45.695Y-70.155
X45.822Y-73.787
X46.228Y-66.065
X46.431Y-75.717
X46.787Y-69.291
X47.955Y-66.497
X48.133Y-69.418
X48.26Y-67.691
X49.098Y-68.199
X49.301Y-65.989
X49.53Y-76.022
X49.555Y-69.596
X49.581Y-80.797
X50.622Y-69.825
X51.156Y-70.231
X51.486Y-65.989
X51.791Y-69.672
X51.867Y-68.097
X52.019Y-80.823
X52.375Y-71.222
X52.375Y-72.72
X52.654Y-67.843
X53.111Y-66.015
X54.305Y-75.921
X54.483Y-68.326
X54.483Y-70.18
X54.559Y-72.034
X55.194Y-66.015
X55.194Y-75.921
X55.575Y-73.965
X56.413Y-75.971
X57.15Y-72.365
X57.252Y-66.751
X57.252Y-68.605
X57.252Y-70.561
X57.302Y-76.556
X57.353Y-67.742
X57.887Y-66.015
X58.014Y-71.831
X58.166Y-79.248
X58.291Y-76.634
X58.75Y-67.285
X59.055Y-79.07
X59.233Y-71.857
X59.258Y-78.334
X59.69Y-65.989
X59.817Y-67.208
X60.096Y-69.825
X60.223Y-74.958
X60.223Y-75.895
X60.376Y-71.095
X60.554Y-77.521
X61.976Y-65.964
X63.5Y-78.486
X64.059Y-65.989
X64.059Y-67.208
X64.059Y-70.053
X64.541Y-69.494
X64.567Y-67.945
X64.567Y-68.758
X64.618Y-79.172
X64.897Y-66.777
X65.682Y-80.038
X65.735Y-78.588
X66.192Y-65.964
X66.294Y-68.351
X67.31Y-78.13
X67.412Y-80.823
X67.513Y-69.647
X67.996Y-70.993
X68.021Y-77.089
X68.428Y-76.098
X68.476Y-72.824
X68.478Y-66.065
X68.506Y-71.854
X68.555Y-77.902
X68.58Y-79.197
X68.656Y-69.494
X68.707Y-74.422
X69.063Y-70.993
X69.418Y-74.625
X69.494Y-80.645
X69.723Y-67.158
X70.028Y-70.815
X70.079Y-72.187
X70.178Y-78.285
X70.739Y-66.142
X70.739Y-79.197
X70.891Y-69.774
X70.942Y-68.047
X71.12Y-72.187
X71.349Y-80.747
X71.476Y-70.942
X71.73Y-74.422
X71.73Y-75.362
X71.73Y-76.327
X71.73Y-77.826
X72.034Y-72.161
X72.466Y-69.647
X72.492Y-66.802
X72.695Y-74.422
X72.974Y-80.416
X73.0Y-72.161
X73.508Y-76.073
X73.66Y-74.422
X73.685Y-68.174
X73.711Y-70.815
X73.914Y-72.136
X73.914Y-79.324
X74.524Y-74.422
X74.905Y-72.136
X74.981Y-69.571
X75.032Y-80.747
X75.057Y-66.726
X75.209Y-77.394
X75.362Y-75.286
X75.895Y-72.111
X76.022Y-68.326
X76.175Y-74.422
X76.225Y-70.891
X76.454Y-79.324
X76.886Y-72.136
X76.987Y-74.447
X77.013Y-76.225
X77.318Y-69.545
X77.368Y-66.726
X77.495Y-80.696
X77.851Y-72.136
X77.876Y-74.447
X78.232Y-77.445
X78.486Y-68.428
X78.537Y-70.891
X78.74Y-72.136
X78.74Y-79.299
X78.765Y-74.422
X79.223Y-76.022
X79.578Y-74.397
X79.705Y-69.545
X79.731Y-66.853
X79.731Y-72.136
X79.883Y-80.594
X80.442Y-75.26
X80.67Y-72.136
X80.899Y-68.428
X81.026Y-70.866
X81.382Y-77.216
X81.432Y-79.172
X81.636Y-72.136
X81.636Y-75.235
X82.271Y-80.594
X82.321Y-66.37
X82.525Y-72.136
X82.525Y-74.32
X83.007Y-70.866
X83.007Y-75.946
X83.312Y-72.161
X83.363Y-74.32
X83.642Y-79.273
X84.125Y-74.32
X84.176Y-72.161
X84.607Y-80.543
X84.861Y-74.651
X84.963Y-66.37
X85.014Y-72.161
X85.877Y-74.651
X85.903Y-72.161
X86.36Y-80.543
X86.792Y-72.161
X86.817Y-74.651
X87.528Y-66.345
X87.655Y-72.161
X87.706Y-74.651
X88.57Y-72.161
X88.57Y-74.651
T2
X48.235Y-72.212
X48.235Y-73.355
X49.454Y-72.212
X49.454Y-73.355
T3
X63.144Y-72.644
X63.144Y-74.117
X63.144Y-75.641
X64.516Y-72.644
X64.567Y-74.117
X64.567Y-75.641
X65.964Y-72.644
X65.964Y-74.117
X65.964Y-75.641
T4
X48.336Y-79.553
X50.876Y-79.553
X53.416Y-79.553
X55.956Y-79.553
T4
G00X39.705Y-67.731
M15
G01X38.205Y-67.731
M16
G05
G00X39.705Y-79.131
M15
G01X38.205Y-79.131
M16
G05
T0
M30
