G04 #@! TF.GenerationSoftware,KiCad,Pcbnew,(5.1.5)-3*
G04 #@! TF.CreationDate,2020-07-02T22:05:55+02:00*
G04 #@! TF.ProjectId,Theo3,5468656f-332e-46b6-9963-61645f706362,rev?*
G04 #@! TF.SameCoordinates,Original*
G04 #@! TF.FileFunction,Soldermask,Top*
G04 #@! TF.FilePolarity,Negative*
%FSLAX46Y46*%
G04 Gerber Fmt 4.6, Leading zero omitted, Abs format (unit mm)*
G04 Created by KiCad (PCBNEW (5.1.5)-3) date 2020-07-02 22:05:55*
%MOMM*%
%LPD*%
G04 APERTURE LIST*
%ADD10C,0.100000*%
G04 APERTURE END LIST*
D10*
G36*
X87826643Y-80037214D02*
G01*
X87883290Y-80060678D01*
X87917639Y-80074906D01*
X87958863Y-80102451D01*
X87999530Y-80129624D01*
X88069176Y-80199270D01*
X88084813Y-80222672D01*
X88115999Y-80269345D01*
X88123895Y-80281163D01*
X88161586Y-80372157D01*
X88180800Y-80468753D01*
X88180800Y-80567247D01*
X88161586Y-80663843D01*
X88161585Y-80663845D01*
X88123894Y-80754839D01*
X88069175Y-80836731D01*
X87999531Y-80906375D01*
X87917639Y-80961094D01*
X87917638Y-80961095D01*
X87917637Y-80961095D01*
X87826643Y-80998786D01*
X87730047Y-81018000D01*
X87631553Y-81018000D01*
X87534957Y-80998786D01*
X87443963Y-80961095D01*
X87443962Y-80961095D01*
X87443961Y-80961094D01*
X87362069Y-80906375D01*
X87292425Y-80836731D01*
X87237706Y-80754839D01*
X87200015Y-80663845D01*
X87200014Y-80663843D01*
X87180800Y-80567247D01*
X87180800Y-80468753D01*
X87200014Y-80372157D01*
X87237705Y-80281163D01*
X87245602Y-80269345D01*
X87276787Y-80222672D01*
X87292424Y-80199270D01*
X87362070Y-80129624D01*
X87402737Y-80102451D01*
X87443961Y-80074906D01*
X87478310Y-80060678D01*
X87534957Y-80037214D01*
X87631553Y-80018000D01*
X87730047Y-80018000D01*
X87826643Y-80037214D01*
G37*
G36*
X56857200Y-80453800D02*
G01*
X55055200Y-80453800D01*
X55055200Y-78651800D01*
X56857200Y-78651800D01*
X56857200Y-80453800D01*
G37*
G36*
X48449712Y-78656727D02*
G01*
X48599012Y-78686424D01*
X48762984Y-78754344D01*
X48910554Y-78852947D01*
X49036053Y-78978446D01*
X49134656Y-79126016D01*
X49202576Y-79289988D01*
X49237200Y-79464059D01*
X49237200Y-79641541D01*
X49202576Y-79815612D01*
X49134656Y-79979584D01*
X49036053Y-80127154D01*
X48910554Y-80252653D01*
X48762984Y-80351256D01*
X48599012Y-80419176D01*
X48449712Y-80448873D01*
X48424942Y-80453800D01*
X48247458Y-80453800D01*
X48222688Y-80448873D01*
X48073388Y-80419176D01*
X47909416Y-80351256D01*
X47761846Y-80252653D01*
X47636347Y-80127154D01*
X47537744Y-79979584D01*
X47469824Y-79815612D01*
X47435200Y-79641541D01*
X47435200Y-79464059D01*
X47469824Y-79289988D01*
X47537744Y-79126016D01*
X47636347Y-78978446D01*
X47761846Y-78852947D01*
X47909416Y-78754344D01*
X48073388Y-78686424D01*
X48222688Y-78656727D01*
X48247458Y-78651800D01*
X48424942Y-78651800D01*
X48449712Y-78656727D01*
G37*
G36*
X50989712Y-78656727D02*
G01*
X51139012Y-78686424D01*
X51302984Y-78754344D01*
X51450554Y-78852947D01*
X51576053Y-78978446D01*
X51674656Y-79126016D01*
X51742576Y-79289988D01*
X51777200Y-79464059D01*
X51777200Y-79641541D01*
X51742576Y-79815612D01*
X51674656Y-79979584D01*
X51576053Y-80127154D01*
X51450554Y-80252653D01*
X51302984Y-80351256D01*
X51139012Y-80419176D01*
X50989712Y-80448873D01*
X50964942Y-80453800D01*
X50787458Y-80453800D01*
X50762688Y-80448873D01*
X50613388Y-80419176D01*
X50449416Y-80351256D01*
X50301846Y-80252653D01*
X50176347Y-80127154D01*
X50077744Y-79979584D01*
X50009824Y-79815612D01*
X49975200Y-79641541D01*
X49975200Y-79464059D01*
X50009824Y-79289988D01*
X50077744Y-79126016D01*
X50176347Y-78978446D01*
X50301846Y-78852947D01*
X50449416Y-78754344D01*
X50613388Y-78686424D01*
X50762688Y-78656727D01*
X50787458Y-78651800D01*
X50964942Y-78651800D01*
X50989712Y-78656727D01*
G37*
G36*
X53529712Y-78656727D02*
G01*
X53679012Y-78686424D01*
X53842984Y-78754344D01*
X53990554Y-78852947D01*
X54116053Y-78978446D01*
X54214656Y-79126016D01*
X54282576Y-79289988D01*
X54317200Y-79464059D01*
X54317200Y-79641541D01*
X54282576Y-79815612D01*
X54214656Y-79979584D01*
X54116053Y-80127154D01*
X53990554Y-80252653D01*
X53842984Y-80351256D01*
X53679012Y-80419176D01*
X53529712Y-80448873D01*
X53504942Y-80453800D01*
X53327458Y-80453800D01*
X53302688Y-80448873D01*
X53153388Y-80419176D01*
X52989416Y-80351256D01*
X52841846Y-80252653D01*
X52716347Y-80127154D01*
X52617744Y-79979584D01*
X52549824Y-79815612D01*
X52515200Y-79641541D01*
X52515200Y-79464059D01*
X52549824Y-79289988D01*
X52617744Y-79126016D01*
X52716347Y-78978446D01*
X52841846Y-78852947D01*
X52989416Y-78754344D01*
X53153388Y-78686424D01*
X53302688Y-78656727D01*
X53327458Y-78651800D01*
X53504942Y-78651800D01*
X53529712Y-78656727D01*
G37*
G36*
X64338738Y-79667116D02*
G01*
X64359357Y-79673371D01*
X64378353Y-79683524D01*
X64395008Y-79697192D01*
X64408676Y-79713847D01*
X64418829Y-79732843D01*
X64425084Y-79753462D01*
X64427800Y-79781040D01*
X64427800Y-80289760D01*
X64425084Y-80317338D01*
X64418829Y-80337957D01*
X64408676Y-80356953D01*
X64395008Y-80373608D01*
X64378353Y-80387276D01*
X64359357Y-80397429D01*
X64338738Y-80403684D01*
X64311160Y-80406400D01*
X63852440Y-80406400D01*
X63824862Y-80403684D01*
X63804243Y-80397429D01*
X63785247Y-80387276D01*
X63768592Y-80373608D01*
X63754924Y-80356953D01*
X63744771Y-80337957D01*
X63738516Y-80317338D01*
X63735800Y-80289760D01*
X63735800Y-79781040D01*
X63738516Y-79753462D01*
X63744771Y-79732843D01*
X63754924Y-79713847D01*
X63768592Y-79697192D01*
X63785247Y-79683524D01*
X63804243Y-79673371D01*
X63824862Y-79667116D01*
X63852440Y-79664400D01*
X64311160Y-79664400D01*
X64338738Y-79667116D01*
G37*
G36*
X65308738Y-79667116D02*
G01*
X65329357Y-79673371D01*
X65348353Y-79683524D01*
X65365008Y-79697192D01*
X65378676Y-79713847D01*
X65388829Y-79732843D01*
X65395084Y-79753462D01*
X65397800Y-79781040D01*
X65397800Y-80289760D01*
X65395084Y-80317338D01*
X65388829Y-80337957D01*
X65378676Y-80356953D01*
X65365008Y-80373608D01*
X65348353Y-80387276D01*
X65329357Y-80397429D01*
X65308738Y-80403684D01*
X65281160Y-80406400D01*
X64822440Y-80406400D01*
X64794862Y-80403684D01*
X64774243Y-80397429D01*
X64755247Y-80387276D01*
X64738592Y-80373608D01*
X64724924Y-80356953D01*
X64714771Y-80337957D01*
X64708516Y-80317338D01*
X64705800Y-80289760D01*
X64705800Y-79781040D01*
X64708516Y-79753462D01*
X64714771Y-79732843D01*
X64724924Y-79713847D01*
X64738592Y-79697192D01*
X64755247Y-79683524D01*
X64774243Y-79673371D01*
X64794862Y-79667116D01*
X64822440Y-79664400D01*
X65281160Y-79664400D01*
X65308738Y-79667116D01*
G37*
G36*
X66626738Y-79694516D02*
G01*
X66647357Y-79700771D01*
X66666353Y-79710924D01*
X66683008Y-79724592D01*
X66696676Y-79741247D01*
X66706829Y-79760243D01*
X66713084Y-79780862D01*
X66715821Y-79808654D01*
X66720601Y-79832687D01*
X66729978Y-79855326D01*
X66743592Y-79875701D01*
X66760919Y-79893028D01*
X66781293Y-79906642D01*
X66803932Y-79916019D01*
X66827965Y-79920800D01*
X66852469Y-79920800D01*
X66876502Y-79916020D01*
X66899141Y-79906643D01*
X66919516Y-79893029D01*
X66936843Y-79875702D01*
X66950457Y-79855328D01*
X66959834Y-79832689D01*
X66964615Y-79808655D01*
X66967116Y-79783262D01*
X66973371Y-79762643D01*
X66983524Y-79743647D01*
X66997192Y-79726992D01*
X67013847Y-79713324D01*
X67032843Y-79703171D01*
X67053462Y-79696916D01*
X67081040Y-79694200D01*
X67589760Y-79694200D01*
X67617338Y-79696916D01*
X67637957Y-79703171D01*
X67656953Y-79713324D01*
X67673608Y-79726992D01*
X67687276Y-79743647D01*
X67697429Y-79762643D01*
X67703684Y-79783262D01*
X67706400Y-79810840D01*
X67706400Y-80269560D01*
X67703684Y-80297138D01*
X67697429Y-80317757D01*
X67687276Y-80336753D01*
X67673608Y-80353408D01*
X67656953Y-80367076D01*
X67637957Y-80377229D01*
X67617338Y-80383484D01*
X67589760Y-80386200D01*
X67081040Y-80386200D01*
X67053462Y-80383484D01*
X67032843Y-80377229D01*
X67013847Y-80367076D01*
X66997192Y-80353408D01*
X66983524Y-80336753D01*
X66973371Y-80317757D01*
X66967116Y-80297138D01*
X66964379Y-80269346D01*
X66959599Y-80245313D01*
X66950222Y-80222674D01*
X66936608Y-80202299D01*
X66919281Y-80184972D01*
X66898907Y-80171358D01*
X66876268Y-80161981D01*
X66852235Y-80157200D01*
X66827731Y-80157200D01*
X66803698Y-80161980D01*
X66781059Y-80171357D01*
X66760684Y-80184971D01*
X66743357Y-80202298D01*
X66729743Y-80222672D01*
X66720366Y-80245311D01*
X66715585Y-80269345D01*
X66713084Y-80294738D01*
X66706829Y-80315357D01*
X66696676Y-80334353D01*
X66683008Y-80351008D01*
X66666353Y-80364676D01*
X66647357Y-80374829D01*
X66626738Y-80381084D01*
X66599160Y-80383800D01*
X66090440Y-80383800D01*
X66062862Y-80381084D01*
X66042243Y-80374829D01*
X66023247Y-80364676D01*
X66006592Y-80351008D01*
X65992924Y-80334353D01*
X65982771Y-80315357D01*
X65976516Y-80294738D01*
X65973800Y-80267160D01*
X65973800Y-79808440D01*
X65976516Y-79780862D01*
X65982771Y-79760243D01*
X65992924Y-79741247D01*
X66006592Y-79724592D01*
X66023247Y-79710924D01*
X66042243Y-79700771D01*
X66062862Y-79694516D01*
X66090440Y-79691800D01*
X66599160Y-79691800D01*
X66626738Y-79694516D01*
G37*
G36*
X40101028Y-78144883D02*
G01*
X40289722Y-78202123D01*
X40463615Y-78295071D01*
X40616039Y-78420161D01*
X40741129Y-78572585D01*
X40834077Y-78746478D01*
X40834078Y-78746481D01*
X40836463Y-78754344D01*
X40891317Y-78935172D01*
X40910643Y-79131400D01*
X40891317Y-79327628D01*
X40834077Y-79516322D01*
X40741129Y-79690215D01*
X40616039Y-79842639D01*
X40463615Y-79967729D01*
X40289722Y-80060677D01*
X40101028Y-80117917D01*
X39953975Y-80132400D01*
X37955625Y-80132400D01*
X37808572Y-80117917D01*
X37619878Y-80060677D01*
X37445985Y-79967729D01*
X37293561Y-79842639D01*
X37168471Y-79690215D01*
X37075523Y-79516322D01*
X37018283Y-79327628D01*
X36998957Y-79131400D01*
X37018283Y-78935172D01*
X37073137Y-78754344D01*
X37075522Y-78746481D01*
X37075523Y-78746478D01*
X37168471Y-78572585D01*
X37293561Y-78420161D01*
X37445985Y-78295071D01*
X37619878Y-78202123D01*
X37808572Y-78144883D01*
X37955625Y-78130400D01*
X39953975Y-78130400D01*
X40101028Y-78144883D01*
G37*
G36*
X66626738Y-78724516D02*
G01*
X66647357Y-78730771D01*
X66666353Y-78740924D01*
X66683008Y-78754592D01*
X66696676Y-78771247D01*
X66706829Y-78790243D01*
X66713084Y-78810862D01*
X66715821Y-78838654D01*
X66720601Y-78862687D01*
X66729978Y-78885326D01*
X66743592Y-78905701D01*
X66760919Y-78923028D01*
X66781293Y-78936642D01*
X66803932Y-78946019D01*
X66827965Y-78950800D01*
X66852469Y-78950800D01*
X66876502Y-78946020D01*
X66899141Y-78936643D01*
X66919516Y-78923029D01*
X66936843Y-78905702D01*
X66950457Y-78885328D01*
X66959834Y-78862689D01*
X66964615Y-78838655D01*
X66967116Y-78813262D01*
X66973371Y-78792643D01*
X66983524Y-78773647D01*
X66997192Y-78756992D01*
X67013847Y-78743324D01*
X67032843Y-78733171D01*
X67053462Y-78726916D01*
X67081040Y-78724200D01*
X67589760Y-78724200D01*
X67617338Y-78726916D01*
X67637957Y-78733171D01*
X67656953Y-78743324D01*
X67673608Y-78756992D01*
X67687276Y-78773647D01*
X67697429Y-78792643D01*
X67703684Y-78813262D01*
X67706400Y-78840840D01*
X67706400Y-79299560D01*
X67703684Y-79327138D01*
X67697429Y-79347757D01*
X67687276Y-79366753D01*
X67673608Y-79383408D01*
X67656953Y-79397076D01*
X67637957Y-79407229D01*
X67617338Y-79413484D01*
X67589760Y-79416200D01*
X67081040Y-79416200D01*
X67053462Y-79413484D01*
X67032843Y-79407229D01*
X67013847Y-79397076D01*
X66997192Y-79383408D01*
X66983524Y-79366753D01*
X66973371Y-79347757D01*
X66967116Y-79327138D01*
X66964379Y-79299346D01*
X66959599Y-79275313D01*
X66950222Y-79252674D01*
X66936608Y-79232299D01*
X66919281Y-79214972D01*
X66898907Y-79201358D01*
X66876268Y-79191981D01*
X66852235Y-79187200D01*
X66827731Y-79187200D01*
X66803698Y-79191980D01*
X66781059Y-79201357D01*
X66760684Y-79214971D01*
X66743357Y-79232298D01*
X66729743Y-79252672D01*
X66720366Y-79275311D01*
X66715585Y-79299345D01*
X66713084Y-79324738D01*
X66706829Y-79345357D01*
X66696676Y-79364353D01*
X66683008Y-79381008D01*
X66666353Y-79394676D01*
X66647357Y-79404829D01*
X66626738Y-79411084D01*
X66599160Y-79413800D01*
X66090440Y-79413800D01*
X66062862Y-79411084D01*
X66042243Y-79404829D01*
X66023247Y-79394676D01*
X66006592Y-79381008D01*
X65992924Y-79364353D01*
X65982771Y-79345357D01*
X65976516Y-79324738D01*
X65973800Y-79297160D01*
X65973800Y-78838440D01*
X65976516Y-78810862D01*
X65982771Y-78790243D01*
X65992924Y-78771247D01*
X66006592Y-78754592D01*
X66023247Y-78740924D01*
X66042243Y-78730771D01*
X66062862Y-78724516D01*
X66090440Y-78721800D01*
X66599160Y-78721800D01*
X66626738Y-78724516D01*
G37*
G36*
X62027338Y-78600316D02*
G01*
X62047957Y-78606571D01*
X62066953Y-78616724D01*
X62083608Y-78630392D01*
X62097276Y-78647047D01*
X62107429Y-78666043D01*
X62113684Y-78686662D01*
X62116400Y-78714240D01*
X62116400Y-79222960D01*
X62113684Y-79250538D01*
X62107429Y-79271157D01*
X62097276Y-79290153D01*
X62083608Y-79306808D01*
X62066953Y-79320476D01*
X62047957Y-79330629D01*
X62027338Y-79336884D01*
X61999760Y-79339600D01*
X61541040Y-79339600D01*
X61513462Y-79336884D01*
X61492843Y-79330629D01*
X61473847Y-79320476D01*
X61457192Y-79306808D01*
X61443524Y-79290153D01*
X61433371Y-79271157D01*
X61427116Y-79250538D01*
X61424400Y-79222960D01*
X61424400Y-78714240D01*
X61427116Y-78686662D01*
X61433371Y-78666043D01*
X61443524Y-78647047D01*
X61457192Y-78630392D01*
X61473847Y-78616724D01*
X61492843Y-78606571D01*
X61513462Y-78600316D01*
X61541040Y-78597600D01*
X61999760Y-78597600D01*
X62027338Y-78600316D01*
G37*
G36*
X62997338Y-78600316D02*
G01*
X63017957Y-78606571D01*
X63036953Y-78616724D01*
X63053608Y-78630392D01*
X63067276Y-78647047D01*
X63077429Y-78666043D01*
X63083684Y-78686662D01*
X63086400Y-78714240D01*
X63086400Y-79222960D01*
X63083684Y-79250538D01*
X63077429Y-79271157D01*
X63067276Y-79290153D01*
X63053608Y-79306808D01*
X63036953Y-79320476D01*
X63017957Y-79330629D01*
X62997338Y-79336884D01*
X62969760Y-79339600D01*
X62511040Y-79339600D01*
X62483462Y-79336884D01*
X62462843Y-79330629D01*
X62443847Y-79320476D01*
X62427192Y-79306808D01*
X62413524Y-79290153D01*
X62403371Y-79271157D01*
X62397116Y-79250538D01*
X62394400Y-79222960D01*
X62394400Y-78714240D01*
X62397116Y-78686662D01*
X62403371Y-78666043D01*
X62413524Y-78647047D01*
X62427192Y-78630392D01*
X62443847Y-78616724D01*
X62462843Y-78606571D01*
X62483462Y-78600316D01*
X62511040Y-78597600D01*
X62969760Y-78597600D01*
X62997338Y-78600316D01*
G37*
G36*
X60096938Y-78600316D02*
G01*
X60117557Y-78606571D01*
X60136553Y-78616724D01*
X60153208Y-78630392D01*
X60166876Y-78647047D01*
X60177029Y-78666043D01*
X60183284Y-78686662D01*
X60186000Y-78714240D01*
X60186000Y-79222960D01*
X60183284Y-79250538D01*
X60177029Y-79271157D01*
X60166876Y-79290153D01*
X60153208Y-79306808D01*
X60136553Y-79320476D01*
X60117557Y-79330629D01*
X60096938Y-79336884D01*
X60069360Y-79339600D01*
X59610640Y-79339600D01*
X59583062Y-79336884D01*
X59562443Y-79330629D01*
X59543447Y-79320476D01*
X59526792Y-79306808D01*
X59513124Y-79290153D01*
X59502971Y-79271157D01*
X59496716Y-79250538D01*
X59494000Y-79222960D01*
X59494000Y-78714240D01*
X59496716Y-78686662D01*
X59502971Y-78666043D01*
X59513124Y-78647047D01*
X59526792Y-78630392D01*
X59543447Y-78616724D01*
X59562443Y-78606571D01*
X59583062Y-78600316D01*
X59610640Y-78597600D01*
X60069360Y-78597600D01*
X60096938Y-78600316D01*
G37*
G36*
X61066938Y-78600316D02*
G01*
X61087557Y-78606571D01*
X61106553Y-78616724D01*
X61123208Y-78630392D01*
X61136876Y-78647047D01*
X61147029Y-78666043D01*
X61153284Y-78686662D01*
X61156000Y-78714240D01*
X61156000Y-79222960D01*
X61153284Y-79250538D01*
X61147029Y-79271157D01*
X61136876Y-79290153D01*
X61123208Y-79306808D01*
X61106553Y-79320476D01*
X61087557Y-79330629D01*
X61066938Y-79336884D01*
X61039360Y-79339600D01*
X60580640Y-79339600D01*
X60553062Y-79336884D01*
X60532443Y-79330629D01*
X60513447Y-79320476D01*
X60496792Y-79306808D01*
X60483124Y-79290153D01*
X60472971Y-79271157D01*
X60466716Y-79250538D01*
X60464000Y-79222960D01*
X60464000Y-78714240D01*
X60466716Y-78686662D01*
X60472971Y-78666043D01*
X60483124Y-78647047D01*
X60496792Y-78630392D01*
X60513447Y-78616724D01*
X60532443Y-78606571D01*
X60553062Y-78600316D01*
X60580640Y-78597600D01*
X61039360Y-78597600D01*
X61066938Y-78600316D01*
G37*
G36*
X45071391Y-77887885D02*
G01*
X45105369Y-77898193D01*
X45136690Y-77914934D01*
X45164139Y-77937461D01*
X45186666Y-77964910D01*
X45203407Y-77996231D01*
X45213715Y-78030209D01*
X45217800Y-78071690D01*
X45217800Y-78747910D01*
X45213715Y-78789391D01*
X45203407Y-78823369D01*
X45186666Y-78854690D01*
X45164139Y-78882139D01*
X45136690Y-78904666D01*
X45105369Y-78921407D01*
X45071391Y-78931715D01*
X45029910Y-78935800D01*
X44428690Y-78935800D01*
X44387209Y-78931715D01*
X44353231Y-78921407D01*
X44321910Y-78904666D01*
X44294461Y-78882139D01*
X44271934Y-78854690D01*
X44255193Y-78823369D01*
X44244885Y-78789391D01*
X44240800Y-78747910D01*
X44240800Y-78071690D01*
X44244885Y-78030209D01*
X44255193Y-77996231D01*
X44271934Y-77964910D01*
X44294461Y-77937461D01*
X44321910Y-77914934D01*
X44353231Y-77898193D01*
X44387209Y-77887885D01*
X44428690Y-77883800D01*
X45029910Y-77883800D01*
X45071391Y-77887885D01*
G37*
G36*
X46646391Y-77887885D02*
G01*
X46680369Y-77898193D01*
X46711690Y-77914934D01*
X46739139Y-77937461D01*
X46761666Y-77964910D01*
X46778407Y-77996231D01*
X46788715Y-78030209D01*
X46792800Y-78071690D01*
X46792800Y-78747910D01*
X46788715Y-78789391D01*
X46778407Y-78823369D01*
X46761666Y-78854690D01*
X46739139Y-78882139D01*
X46711690Y-78904666D01*
X46680369Y-78921407D01*
X46646391Y-78931715D01*
X46604910Y-78935800D01*
X46003690Y-78935800D01*
X45962209Y-78931715D01*
X45928231Y-78921407D01*
X45896910Y-78904666D01*
X45869461Y-78882139D01*
X45846934Y-78854690D01*
X45830193Y-78823369D01*
X45819885Y-78789391D01*
X45815800Y-78747910D01*
X45815800Y-78071690D01*
X45819885Y-78030209D01*
X45830193Y-77996231D01*
X45846934Y-77964910D01*
X45869461Y-77937461D01*
X45896910Y-77914934D01*
X45928231Y-77898193D01*
X45962209Y-77887885D01*
X46003690Y-77883800D01*
X46604910Y-77883800D01*
X46646391Y-77887885D01*
G37*
G36*
X69725538Y-77941916D02*
G01*
X69746157Y-77948171D01*
X69765153Y-77958324D01*
X69781808Y-77971992D01*
X69795476Y-77988647D01*
X69805629Y-78007643D01*
X69811884Y-78028262D01*
X69814600Y-78055840D01*
X69814600Y-78514560D01*
X69811884Y-78542138D01*
X69805629Y-78562757D01*
X69795476Y-78581753D01*
X69781808Y-78598408D01*
X69765153Y-78612076D01*
X69746157Y-78622229D01*
X69725538Y-78628484D01*
X69697960Y-78631200D01*
X69189240Y-78631200D01*
X69161662Y-78628484D01*
X69141043Y-78622229D01*
X69122047Y-78612076D01*
X69105392Y-78598408D01*
X69091724Y-78581753D01*
X69081571Y-78562757D01*
X69075316Y-78542138D01*
X69072600Y-78514560D01*
X69072600Y-78055840D01*
X69075316Y-78028262D01*
X69081571Y-78007643D01*
X69091724Y-77988647D01*
X69105392Y-77971992D01*
X69122047Y-77958324D01*
X69141043Y-77948171D01*
X69161662Y-77941916D01*
X69189240Y-77939200D01*
X69697960Y-77939200D01*
X69725538Y-77941916D01*
G37*
G36*
X71042391Y-77315885D02*
G01*
X71076369Y-77326193D01*
X71107690Y-77342934D01*
X71135139Y-77365461D01*
X71157666Y-77392910D01*
X71174407Y-77424231D01*
X71184715Y-77458209D01*
X71188800Y-77499690D01*
X71188800Y-78100910D01*
X71184715Y-78142391D01*
X71174407Y-78176369D01*
X71157666Y-78207690D01*
X71135139Y-78235139D01*
X71107690Y-78257666D01*
X71076369Y-78274407D01*
X71042391Y-78284715D01*
X71000910Y-78288800D01*
X70324690Y-78288800D01*
X70283209Y-78284715D01*
X70249231Y-78274407D01*
X70217910Y-78257666D01*
X70190461Y-78235139D01*
X70167934Y-78207690D01*
X70151193Y-78176369D01*
X70140885Y-78142391D01*
X70136800Y-78100910D01*
X70136800Y-77499690D01*
X70140885Y-77458209D01*
X70151193Y-77424231D01*
X70167934Y-77392910D01*
X70190461Y-77365461D01*
X70217910Y-77342934D01*
X70249231Y-77326193D01*
X70283209Y-77315885D01*
X70324690Y-77311800D01*
X71000910Y-77311800D01*
X71042391Y-77315885D01*
G37*
G36*
X48186338Y-77408516D02*
G01*
X48206957Y-77414771D01*
X48225953Y-77424924D01*
X48242608Y-77438592D01*
X48256276Y-77455247D01*
X48266429Y-77474243D01*
X48272684Y-77494862D01*
X48275303Y-77521455D01*
X48280083Y-77545488D01*
X48289461Y-77568127D01*
X48303074Y-77588501D01*
X48320401Y-77605828D01*
X48340776Y-77619442D01*
X48363414Y-77628819D01*
X48387448Y-77633600D01*
X48411952Y-77633600D01*
X48435985Y-77628820D01*
X48458624Y-77619442D01*
X48478998Y-77605829D01*
X48496325Y-77588502D01*
X48509939Y-77568127D01*
X48519316Y-77545489D01*
X48524097Y-77521455D01*
X48526716Y-77494862D01*
X48532971Y-77474243D01*
X48543124Y-77455247D01*
X48556792Y-77438592D01*
X48573447Y-77424924D01*
X48592443Y-77414771D01*
X48613062Y-77408516D01*
X48640640Y-77405800D01*
X49149360Y-77405800D01*
X49176938Y-77408516D01*
X49197557Y-77414771D01*
X49216553Y-77424924D01*
X49233208Y-77438592D01*
X49246876Y-77455247D01*
X49257029Y-77474243D01*
X49263284Y-77494862D01*
X49266000Y-77522440D01*
X49266000Y-77981160D01*
X49263284Y-78008738D01*
X49257029Y-78029357D01*
X49246876Y-78048353D01*
X49233208Y-78065008D01*
X49216553Y-78078676D01*
X49197557Y-78088829D01*
X49176938Y-78095084D01*
X49149360Y-78097800D01*
X48640640Y-78097800D01*
X48613062Y-78095084D01*
X48592443Y-78088829D01*
X48573447Y-78078676D01*
X48556792Y-78065008D01*
X48543124Y-78048353D01*
X48532971Y-78029357D01*
X48526716Y-78008738D01*
X48524097Y-77982145D01*
X48519317Y-77958112D01*
X48509939Y-77935473D01*
X48496326Y-77915099D01*
X48478999Y-77897772D01*
X48458624Y-77884158D01*
X48435986Y-77874781D01*
X48411952Y-77870000D01*
X48387448Y-77870000D01*
X48363415Y-77874780D01*
X48340776Y-77884158D01*
X48320402Y-77897771D01*
X48303075Y-77915098D01*
X48289461Y-77935473D01*
X48280084Y-77958111D01*
X48275303Y-77982145D01*
X48272684Y-78008738D01*
X48266429Y-78029357D01*
X48256276Y-78048353D01*
X48242608Y-78065008D01*
X48225953Y-78078676D01*
X48206957Y-78088829D01*
X48186338Y-78095084D01*
X48158760Y-78097800D01*
X47650040Y-78097800D01*
X47622462Y-78095084D01*
X47601843Y-78088829D01*
X47582847Y-78078676D01*
X47566192Y-78065008D01*
X47552524Y-78048353D01*
X47542371Y-78029357D01*
X47536116Y-78008738D01*
X47533400Y-77981160D01*
X47533400Y-77522440D01*
X47536116Y-77494862D01*
X47542371Y-77474243D01*
X47552524Y-77455247D01*
X47566192Y-77438592D01*
X47582847Y-77424924D01*
X47601843Y-77414771D01*
X47622462Y-77408516D01*
X47650040Y-77405800D01*
X48158760Y-77405800D01*
X48186338Y-77408516D01*
G37*
G36*
X63278216Y-70469443D02*
G01*
X63282356Y-70470699D01*
X63301516Y-70478635D01*
X63325550Y-70483415D01*
X63350054Y-70483415D01*
X63374087Y-70478634D01*
X63393245Y-70470699D01*
X63397384Y-70469443D01*
X63405943Y-70468600D01*
X63669657Y-70468600D01*
X63678216Y-70469443D01*
X63680545Y-70470150D01*
X63682687Y-70471295D01*
X63684565Y-70472835D01*
X63686105Y-70474713D01*
X63687250Y-70476855D01*
X63687957Y-70479184D01*
X63688800Y-70487743D01*
X63688800Y-70543601D01*
X63691202Y-70567987D01*
X63698315Y-70591436D01*
X63709866Y-70613047D01*
X63725411Y-70631989D01*
X63744353Y-70647534D01*
X63765964Y-70659085D01*
X63789413Y-70666198D01*
X63813799Y-70668600D01*
X64061801Y-70668600D01*
X64086187Y-70666198D01*
X64109636Y-70659085D01*
X64131247Y-70647534D01*
X64150189Y-70631989D01*
X64165734Y-70613047D01*
X64177285Y-70591436D01*
X64184398Y-70567987D01*
X64186800Y-70543601D01*
X64186800Y-70487743D01*
X64187643Y-70479184D01*
X64188350Y-70476855D01*
X64189495Y-70474713D01*
X64191035Y-70472835D01*
X64192913Y-70471295D01*
X64195055Y-70470150D01*
X64197384Y-70469443D01*
X64205943Y-70468600D01*
X64469657Y-70468600D01*
X64478216Y-70469443D01*
X64482356Y-70470699D01*
X64501516Y-70478635D01*
X64525550Y-70483415D01*
X64550054Y-70483415D01*
X64574087Y-70478634D01*
X64593245Y-70470699D01*
X64597384Y-70469443D01*
X64605943Y-70468600D01*
X64869657Y-70468600D01*
X64878216Y-70469443D01*
X64882356Y-70470699D01*
X64901516Y-70478635D01*
X64925550Y-70483415D01*
X64950054Y-70483415D01*
X64974087Y-70478634D01*
X64993245Y-70470699D01*
X64997384Y-70469443D01*
X65005943Y-70468600D01*
X65269657Y-70468600D01*
X65278216Y-70469443D01*
X65282356Y-70470699D01*
X65301516Y-70478635D01*
X65325550Y-70483415D01*
X65350054Y-70483415D01*
X65374087Y-70478634D01*
X65393245Y-70470699D01*
X65397384Y-70469443D01*
X65405943Y-70468600D01*
X65669657Y-70468600D01*
X65678216Y-70469443D01*
X65682356Y-70470699D01*
X65701516Y-70478635D01*
X65725550Y-70483415D01*
X65750054Y-70483415D01*
X65774087Y-70478634D01*
X65793245Y-70470699D01*
X65797384Y-70469443D01*
X65805943Y-70468600D01*
X66069657Y-70468600D01*
X66078216Y-70469443D01*
X66082356Y-70470699D01*
X66101516Y-70478635D01*
X66125550Y-70483415D01*
X66150054Y-70483415D01*
X66174087Y-70478634D01*
X66193245Y-70470699D01*
X66197384Y-70469443D01*
X66205943Y-70468600D01*
X66469657Y-70468600D01*
X66478216Y-70469443D01*
X66482356Y-70470699D01*
X66501516Y-70478635D01*
X66525550Y-70483415D01*
X66550054Y-70483415D01*
X66574087Y-70478634D01*
X66593245Y-70470699D01*
X66597384Y-70469443D01*
X66605943Y-70468600D01*
X66869657Y-70468600D01*
X66878216Y-70469443D01*
X66880545Y-70470150D01*
X66882687Y-70471295D01*
X66884565Y-70472835D01*
X66886105Y-70474713D01*
X66887250Y-70476855D01*
X66887957Y-70479184D01*
X66888800Y-70487743D01*
X66888800Y-71551457D01*
X66887957Y-71560016D01*
X66886422Y-71565076D01*
X66881642Y-71589109D01*
X66881642Y-71613613D01*
X66886423Y-71637647D01*
X66895800Y-71660285D01*
X66909414Y-71680660D01*
X66926741Y-71697987D01*
X66947115Y-71711600D01*
X66969754Y-71720978D01*
X66993787Y-71725758D01*
X67018291Y-71725758D01*
X67042324Y-71720978D01*
X67047384Y-71719443D01*
X67055943Y-71718600D01*
X68119657Y-71718600D01*
X68128216Y-71719443D01*
X68130545Y-71720150D01*
X68132687Y-71721295D01*
X68134565Y-71722835D01*
X68136105Y-71724713D01*
X68137250Y-71726855D01*
X68137957Y-71729184D01*
X68138800Y-71737743D01*
X68138800Y-72001457D01*
X68137957Y-72010016D01*
X68136701Y-72014156D01*
X68128765Y-72033316D01*
X68123985Y-72057350D01*
X68123985Y-72081854D01*
X68128766Y-72105887D01*
X68136701Y-72125045D01*
X68137957Y-72129184D01*
X68138800Y-72137743D01*
X68138800Y-72401457D01*
X68137957Y-72410016D01*
X68136701Y-72414156D01*
X68128765Y-72433316D01*
X68123985Y-72457350D01*
X68123985Y-72481854D01*
X68128766Y-72505887D01*
X68136701Y-72525045D01*
X68137957Y-72529184D01*
X68138800Y-72537743D01*
X68138800Y-72801457D01*
X68137957Y-72810016D01*
X68136701Y-72814156D01*
X68128765Y-72833316D01*
X68123985Y-72857350D01*
X68123985Y-72881854D01*
X68128766Y-72905887D01*
X68136701Y-72925045D01*
X68137957Y-72929184D01*
X68138800Y-72937743D01*
X68138800Y-73201457D01*
X68137957Y-73210016D01*
X68136701Y-73214156D01*
X68128765Y-73233316D01*
X68123985Y-73257350D01*
X68123985Y-73281854D01*
X68128766Y-73305887D01*
X68136701Y-73325045D01*
X68137957Y-73329184D01*
X68138800Y-73337743D01*
X68138800Y-73601457D01*
X68137957Y-73610016D01*
X68136701Y-73614156D01*
X68128765Y-73633316D01*
X68123985Y-73657350D01*
X68123985Y-73681854D01*
X68128766Y-73705887D01*
X68136701Y-73725045D01*
X68137957Y-73729184D01*
X68138800Y-73737743D01*
X68138800Y-74001457D01*
X68137957Y-74010016D01*
X68136701Y-74014156D01*
X68128765Y-74033316D01*
X68123985Y-74057350D01*
X68123985Y-74081854D01*
X68128766Y-74105887D01*
X68136701Y-74125045D01*
X68137957Y-74129184D01*
X68138800Y-74137743D01*
X68138800Y-74401457D01*
X68137957Y-74410016D01*
X68136701Y-74414156D01*
X68128765Y-74433316D01*
X68123985Y-74457350D01*
X68123985Y-74481854D01*
X68128766Y-74505887D01*
X68136701Y-74525045D01*
X68137957Y-74529184D01*
X68138800Y-74537743D01*
X68138800Y-74801457D01*
X68137957Y-74810016D01*
X68137250Y-74812345D01*
X68136105Y-74814487D01*
X68134565Y-74816365D01*
X68132687Y-74817905D01*
X68130545Y-74819050D01*
X68128216Y-74819757D01*
X68119657Y-74820600D01*
X68063799Y-74820600D01*
X68039413Y-74823002D01*
X68015964Y-74830115D01*
X67994353Y-74841666D01*
X67975411Y-74857211D01*
X67959866Y-74876153D01*
X67948315Y-74897764D01*
X67941202Y-74921213D01*
X67938800Y-74945599D01*
X67938800Y-75201457D01*
X67937957Y-75210016D01*
X67936701Y-75214156D01*
X67928765Y-75233316D01*
X67923985Y-75257350D01*
X67923985Y-75281854D01*
X67928766Y-75305887D01*
X67936701Y-75325045D01*
X67937957Y-75329184D01*
X67938800Y-75337743D01*
X67938800Y-75601457D01*
X67937957Y-75610016D01*
X67936701Y-75614156D01*
X67928765Y-75633316D01*
X67923985Y-75657350D01*
X67923985Y-75681854D01*
X67928766Y-75705887D01*
X67936701Y-75725045D01*
X67937957Y-75729184D01*
X67938800Y-75737743D01*
X67938800Y-76001457D01*
X67937957Y-76010016D01*
X67936701Y-76014156D01*
X67928765Y-76033316D01*
X67923985Y-76057350D01*
X67923985Y-76081854D01*
X67928766Y-76105887D01*
X67936701Y-76125045D01*
X67937957Y-76129184D01*
X67938800Y-76137743D01*
X67938800Y-76401457D01*
X67937957Y-76410016D01*
X67937250Y-76412345D01*
X67936105Y-76414487D01*
X67934565Y-76416365D01*
X67932687Y-76417905D01*
X67930545Y-76419050D01*
X67928216Y-76419757D01*
X67919657Y-76420600D01*
X67055943Y-76420600D01*
X67047384Y-76419757D01*
X67042324Y-76418222D01*
X67018291Y-76413442D01*
X66993787Y-76413442D01*
X66969753Y-76418223D01*
X66947115Y-76427600D01*
X66926740Y-76441214D01*
X66909413Y-76458541D01*
X66895800Y-76478915D01*
X66886422Y-76501554D01*
X66881642Y-76525587D01*
X66881642Y-76550091D01*
X66886422Y-76574124D01*
X66887957Y-76579184D01*
X66888800Y-76587743D01*
X66888800Y-77651457D01*
X66887957Y-77660016D01*
X66887250Y-77662345D01*
X66886105Y-77664487D01*
X66884565Y-77666365D01*
X66882687Y-77667905D01*
X66880545Y-77669050D01*
X66878216Y-77669757D01*
X66869657Y-77670600D01*
X66605943Y-77670600D01*
X66597384Y-77669757D01*
X66593244Y-77668501D01*
X66574084Y-77660565D01*
X66550050Y-77655785D01*
X66525546Y-77655785D01*
X66501513Y-77660566D01*
X66482355Y-77668501D01*
X66478216Y-77669757D01*
X66469657Y-77670600D01*
X66205943Y-77670600D01*
X66197384Y-77669757D01*
X66195055Y-77669050D01*
X66192913Y-77667905D01*
X66191035Y-77666365D01*
X66189495Y-77664487D01*
X66188350Y-77662345D01*
X66187643Y-77660016D01*
X66186800Y-77651457D01*
X66186800Y-77595599D01*
X66184398Y-77571213D01*
X66177285Y-77547764D01*
X66165734Y-77526153D01*
X66150189Y-77507211D01*
X66131247Y-77491666D01*
X66109636Y-77480115D01*
X66086187Y-77473002D01*
X66061801Y-77470600D01*
X65805943Y-77470600D01*
X65797384Y-77469757D01*
X65793244Y-77468501D01*
X65774084Y-77460565D01*
X65750050Y-77455785D01*
X65725546Y-77455785D01*
X65701513Y-77460566D01*
X65682355Y-77468501D01*
X65678216Y-77469757D01*
X65669657Y-77470600D01*
X65405943Y-77470600D01*
X65397384Y-77469757D01*
X65393244Y-77468501D01*
X65374084Y-77460565D01*
X65350050Y-77455785D01*
X65325546Y-77455785D01*
X65301513Y-77460566D01*
X65282355Y-77468501D01*
X65278216Y-77469757D01*
X65269657Y-77470600D01*
X65013799Y-77470600D01*
X64989413Y-77473002D01*
X64965964Y-77480115D01*
X64944353Y-77491666D01*
X64925411Y-77507211D01*
X64909866Y-77526153D01*
X64898315Y-77547764D01*
X64891202Y-77571213D01*
X64888800Y-77595599D01*
X64888800Y-77651457D01*
X64887957Y-77660016D01*
X64887250Y-77662345D01*
X64886105Y-77664487D01*
X64884565Y-77666365D01*
X64882687Y-77667905D01*
X64880545Y-77669050D01*
X64878216Y-77669757D01*
X64869657Y-77670600D01*
X64605943Y-77670600D01*
X64597384Y-77669757D01*
X64593244Y-77668501D01*
X64574084Y-77660565D01*
X64550050Y-77655785D01*
X64525546Y-77655785D01*
X64501513Y-77660566D01*
X64482355Y-77668501D01*
X64478216Y-77669757D01*
X64469657Y-77670600D01*
X64205943Y-77670600D01*
X64197384Y-77669757D01*
X64195055Y-77669050D01*
X64192913Y-77667905D01*
X64191035Y-77666365D01*
X64189495Y-77664487D01*
X64188350Y-77662345D01*
X64187643Y-77660016D01*
X64186800Y-77651457D01*
X64186800Y-77595599D01*
X64184398Y-77571213D01*
X64177285Y-77547764D01*
X64165734Y-77526153D01*
X64150189Y-77507211D01*
X64131247Y-77491666D01*
X64109636Y-77480115D01*
X64086187Y-77473002D01*
X64061801Y-77470600D01*
X63813799Y-77470600D01*
X63789413Y-77473002D01*
X63765964Y-77480115D01*
X63744353Y-77491666D01*
X63725411Y-77507211D01*
X63709866Y-77526153D01*
X63698315Y-77547764D01*
X63691202Y-77571213D01*
X63688800Y-77595599D01*
X63688800Y-77651457D01*
X63687957Y-77660016D01*
X63687250Y-77662345D01*
X63686105Y-77664487D01*
X63684565Y-77666365D01*
X63682687Y-77667905D01*
X63680545Y-77669050D01*
X63678216Y-77669757D01*
X63669657Y-77670600D01*
X63405943Y-77670600D01*
X63397384Y-77669757D01*
X63395055Y-77669050D01*
X63392913Y-77667905D01*
X63391035Y-77666365D01*
X63389495Y-77664487D01*
X63388350Y-77662345D01*
X63387643Y-77660016D01*
X63386800Y-77651457D01*
X63386800Y-77595599D01*
X63384398Y-77571213D01*
X63377285Y-77547764D01*
X63365734Y-77526153D01*
X63350189Y-77507211D01*
X63331247Y-77491666D01*
X63309636Y-77480115D01*
X63286187Y-77473002D01*
X63261801Y-77470600D01*
X63013799Y-77470600D01*
X62989413Y-77473002D01*
X62965964Y-77480115D01*
X62944353Y-77491666D01*
X62925411Y-77507211D01*
X62909866Y-77526153D01*
X62898315Y-77547764D01*
X62891202Y-77571213D01*
X62888800Y-77595599D01*
X62888800Y-77651457D01*
X62887957Y-77660016D01*
X62887250Y-77662345D01*
X62886105Y-77664487D01*
X62884565Y-77666365D01*
X62882687Y-77667905D01*
X62880545Y-77669050D01*
X62878216Y-77669757D01*
X62869657Y-77670600D01*
X62605943Y-77670600D01*
X62597384Y-77669757D01*
X62593244Y-77668501D01*
X62574084Y-77660565D01*
X62550050Y-77655785D01*
X62525546Y-77655785D01*
X62501513Y-77660566D01*
X62482355Y-77668501D01*
X62478216Y-77669757D01*
X62469657Y-77670600D01*
X62205943Y-77670600D01*
X62197384Y-77669757D01*
X62195055Y-77669050D01*
X62192913Y-77667905D01*
X62191035Y-77666365D01*
X62189495Y-77664487D01*
X62188350Y-77662345D01*
X62187643Y-77660016D01*
X62186800Y-77651457D01*
X62186800Y-76587743D01*
X62187643Y-76579184D01*
X62189178Y-76574124D01*
X62193958Y-76550091D01*
X62193958Y-76525587D01*
X62189177Y-76501553D01*
X62179800Y-76478915D01*
X62166186Y-76458540D01*
X62148859Y-76441213D01*
X62128485Y-76427600D01*
X62105846Y-76418222D01*
X62081813Y-76413442D01*
X62057309Y-76413442D01*
X62033276Y-76418222D01*
X62028216Y-76419757D01*
X62019657Y-76420600D01*
X60955943Y-76420600D01*
X60947384Y-76419757D01*
X60945055Y-76419050D01*
X60942913Y-76417905D01*
X60941035Y-76416365D01*
X60939495Y-76414487D01*
X60938350Y-76412345D01*
X60937643Y-76410016D01*
X60936800Y-76401457D01*
X60936800Y-76137743D01*
X60937643Y-76129184D01*
X60938350Y-76126855D01*
X60939495Y-76124713D01*
X60941035Y-76122835D01*
X60942913Y-76121295D01*
X60945055Y-76120150D01*
X60947384Y-76119443D01*
X60955943Y-76118600D01*
X61011801Y-76118600D01*
X61036187Y-76116198D01*
X61059636Y-76109085D01*
X61081247Y-76097534D01*
X61100189Y-76081989D01*
X61115734Y-76063047D01*
X61127285Y-76041436D01*
X61134398Y-76017987D01*
X61136800Y-75993601D01*
X61136800Y-75737743D01*
X61137643Y-75729184D01*
X61138899Y-75725044D01*
X61146835Y-75705884D01*
X61151615Y-75681850D01*
X61151615Y-75657346D01*
X61146834Y-75633313D01*
X61138899Y-75614155D01*
X61137643Y-75610016D01*
X61136800Y-75601457D01*
X61136800Y-75337743D01*
X61137643Y-75329184D01*
X61138899Y-75325044D01*
X61146835Y-75305884D01*
X61151615Y-75281850D01*
X61151615Y-75257346D01*
X61146834Y-75233313D01*
X61138899Y-75214155D01*
X61137643Y-75210016D01*
X61136800Y-75201457D01*
X61136800Y-74937743D01*
X61137643Y-74929184D01*
X61138899Y-74925044D01*
X61146835Y-74905884D01*
X61151615Y-74881850D01*
X61151615Y-74857346D01*
X61146834Y-74833313D01*
X61138899Y-74814155D01*
X61137643Y-74810016D01*
X61136800Y-74801457D01*
X61136800Y-74537743D01*
X61137643Y-74529184D01*
X61138899Y-74525044D01*
X61146835Y-74505884D01*
X61151615Y-74481850D01*
X61151615Y-74457346D01*
X61146834Y-74433313D01*
X61138899Y-74414155D01*
X61137643Y-74410016D01*
X61136800Y-74401457D01*
X61136800Y-74137743D01*
X61137643Y-74129184D01*
X61138899Y-74125044D01*
X61146835Y-74105884D01*
X61151615Y-74081850D01*
X61151615Y-74057346D01*
X61146834Y-74033313D01*
X61138899Y-74014155D01*
X61137643Y-74010016D01*
X61136800Y-74001457D01*
X61136800Y-73737743D01*
X61137643Y-73729184D01*
X61138899Y-73725044D01*
X61146835Y-73705884D01*
X61151615Y-73681850D01*
X61151615Y-73657346D01*
X61146834Y-73633313D01*
X61138899Y-73614155D01*
X61137643Y-73610016D01*
X61136800Y-73601457D01*
X61136800Y-73337743D01*
X61137643Y-73329184D01*
X61138899Y-73325044D01*
X61146835Y-73305884D01*
X61151615Y-73281850D01*
X61151615Y-73257346D01*
X61146834Y-73233313D01*
X61138899Y-73214155D01*
X61137643Y-73210016D01*
X61136800Y-73201457D01*
X61136800Y-72937743D01*
X61137643Y-72929184D01*
X61138899Y-72925044D01*
X61146835Y-72905884D01*
X61151615Y-72881850D01*
X61151615Y-72857346D01*
X61146834Y-72833313D01*
X61138899Y-72814155D01*
X61137643Y-72810016D01*
X61136800Y-72801457D01*
X61136800Y-72545599D01*
X61134398Y-72521213D01*
X61127285Y-72497764D01*
X61115734Y-72476153D01*
X61100189Y-72457211D01*
X61081247Y-72441666D01*
X61059636Y-72430115D01*
X61036187Y-72423002D01*
X61011801Y-72420600D01*
X60955943Y-72420600D01*
X60947384Y-72419757D01*
X60945055Y-72419050D01*
X60942913Y-72417905D01*
X60941035Y-72416365D01*
X60939495Y-72414487D01*
X60938350Y-72412345D01*
X60937643Y-72410016D01*
X60936800Y-72401457D01*
X60936800Y-72137743D01*
X60937643Y-72129184D01*
X60938899Y-72125044D01*
X60946835Y-72105884D01*
X60951615Y-72081850D01*
X60951615Y-72057346D01*
X60946834Y-72033313D01*
X60938899Y-72014155D01*
X60937643Y-72010016D01*
X60936800Y-72001457D01*
X60936800Y-71737743D01*
X60937643Y-71729184D01*
X60938350Y-71726855D01*
X60939495Y-71724713D01*
X60941035Y-71722835D01*
X60942913Y-71721295D01*
X60945055Y-71720150D01*
X60947384Y-71719443D01*
X60955943Y-71718600D01*
X62019657Y-71718600D01*
X62028216Y-71719443D01*
X62033276Y-71720978D01*
X62057309Y-71725758D01*
X62081813Y-71725758D01*
X62105847Y-71720977D01*
X62128485Y-71711600D01*
X62148860Y-71697986D01*
X62166187Y-71680659D01*
X62179800Y-71660285D01*
X62189178Y-71637646D01*
X62193958Y-71613613D01*
X62193958Y-71589109D01*
X62189178Y-71565076D01*
X62187643Y-71560016D01*
X62186800Y-71551457D01*
X62186800Y-70687743D01*
X62187643Y-70679184D01*
X62188350Y-70676855D01*
X62189495Y-70674713D01*
X62191035Y-70672835D01*
X62192913Y-70671295D01*
X62195055Y-70670150D01*
X62197384Y-70669443D01*
X62205943Y-70668600D01*
X62469657Y-70668600D01*
X62478216Y-70669443D01*
X62482356Y-70670699D01*
X62501516Y-70678635D01*
X62525550Y-70683415D01*
X62550054Y-70683415D01*
X62574087Y-70678634D01*
X62593245Y-70670699D01*
X62597384Y-70669443D01*
X62605943Y-70668600D01*
X62861801Y-70668600D01*
X62886187Y-70666198D01*
X62909636Y-70659085D01*
X62931247Y-70647534D01*
X62950189Y-70631989D01*
X62965734Y-70613047D01*
X62977285Y-70591436D01*
X62984398Y-70567987D01*
X62986800Y-70543601D01*
X62986800Y-70487743D01*
X62987643Y-70479184D01*
X62988350Y-70476855D01*
X62989495Y-70474713D01*
X62991035Y-70472835D01*
X62992913Y-70471295D01*
X62995055Y-70470150D01*
X62997384Y-70469443D01*
X63005943Y-70468600D01*
X63269657Y-70468600D01*
X63278216Y-70469443D01*
G37*
G36*
X69725538Y-76087716D02*
G01*
X69746157Y-76093971D01*
X69765153Y-76104124D01*
X69781808Y-76117792D01*
X69795476Y-76134447D01*
X69805629Y-76153443D01*
X69811884Y-76174062D01*
X69814600Y-76201640D01*
X69814600Y-76660360D01*
X69811884Y-76687938D01*
X69805629Y-76708557D01*
X69795476Y-76727553D01*
X69781808Y-76744208D01*
X69765153Y-76757875D01*
X69755824Y-76762862D01*
X69735450Y-76776476D01*
X69718123Y-76793803D01*
X69704510Y-76814177D01*
X69695133Y-76836816D01*
X69690353Y-76860850D01*
X69690353Y-76885354D01*
X69695134Y-76909387D01*
X69704512Y-76932026D01*
X69718126Y-76952400D01*
X69735453Y-76969727D01*
X69755824Y-76983338D01*
X69765153Y-76988325D01*
X69781808Y-77001992D01*
X69795476Y-77018647D01*
X69805629Y-77037643D01*
X69811884Y-77058262D01*
X69814600Y-77085840D01*
X69814600Y-77544560D01*
X69811884Y-77572138D01*
X69805629Y-77592757D01*
X69795476Y-77611753D01*
X69781808Y-77628408D01*
X69765153Y-77642076D01*
X69746157Y-77652229D01*
X69725538Y-77658484D01*
X69697960Y-77661200D01*
X69189240Y-77661200D01*
X69161662Y-77658484D01*
X69141043Y-77652229D01*
X69122047Y-77642076D01*
X69105392Y-77628408D01*
X69091724Y-77611753D01*
X69081571Y-77592757D01*
X69075316Y-77572138D01*
X69072600Y-77544560D01*
X69072600Y-77085840D01*
X69075316Y-77058262D01*
X69081571Y-77037643D01*
X69091724Y-77018647D01*
X69105392Y-77001992D01*
X69122047Y-76988325D01*
X69131376Y-76983338D01*
X69151750Y-76969724D01*
X69169077Y-76952397D01*
X69182690Y-76932023D01*
X69192067Y-76909384D01*
X69196847Y-76885350D01*
X69196847Y-76860846D01*
X69192066Y-76836813D01*
X69182688Y-76814174D01*
X69169074Y-76793800D01*
X69151747Y-76776473D01*
X69131376Y-76762862D01*
X69122047Y-76757875D01*
X69105392Y-76744208D01*
X69091724Y-76727553D01*
X69081571Y-76708557D01*
X69075316Y-76687938D01*
X69072600Y-76660360D01*
X69072600Y-76201640D01*
X69075316Y-76174062D01*
X69081571Y-76153443D01*
X69091724Y-76134447D01*
X69105392Y-76117792D01*
X69122047Y-76104124D01*
X69141043Y-76093971D01*
X69161662Y-76087716D01*
X69189240Y-76085000D01*
X69697960Y-76085000D01*
X69725538Y-76087716D01*
G37*
G36*
X43105800Y-77532400D02*
G01*
X40303800Y-77532400D01*
X40303800Y-76330400D01*
X43105800Y-76330400D01*
X43105800Y-77532400D01*
G37*
G36*
X44798868Y-75986965D02*
G01*
X44837538Y-75998696D01*
X44873177Y-76017746D01*
X44904417Y-76043383D01*
X44930054Y-76074623D01*
X44949104Y-76110262D01*
X44960835Y-76148932D01*
X44965400Y-76195288D01*
X44965400Y-77271512D01*
X44960835Y-77317868D01*
X44949104Y-77356538D01*
X44930054Y-77392177D01*
X44904417Y-77423417D01*
X44873177Y-77449054D01*
X44837538Y-77468104D01*
X44798868Y-77479835D01*
X44752512Y-77484400D01*
X44101288Y-77484400D01*
X44054932Y-77479835D01*
X44016262Y-77468104D01*
X43980623Y-77449054D01*
X43949383Y-77423417D01*
X43923746Y-77392177D01*
X43904696Y-77356538D01*
X43892965Y-77317868D01*
X43888400Y-77271512D01*
X43888400Y-76195288D01*
X43892965Y-76148932D01*
X43904696Y-76110262D01*
X43923746Y-76074623D01*
X43949383Y-76043383D01*
X43980623Y-76017746D01*
X44016262Y-75998696D01*
X44054932Y-75986965D01*
X44101288Y-75982400D01*
X44752512Y-75982400D01*
X44798868Y-75986965D01*
G37*
G36*
X46673868Y-75986965D02*
G01*
X46712538Y-75998696D01*
X46748177Y-76017746D01*
X46779417Y-76043383D01*
X46805054Y-76074623D01*
X46824104Y-76110262D01*
X46835835Y-76148932D01*
X46840400Y-76195288D01*
X46840400Y-77271512D01*
X46835835Y-77317868D01*
X46824104Y-77356538D01*
X46805054Y-77392177D01*
X46779417Y-77423417D01*
X46748177Y-77449054D01*
X46712538Y-77468104D01*
X46673868Y-77479835D01*
X46627512Y-77484400D01*
X45976288Y-77484400D01*
X45929932Y-77479835D01*
X45891262Y-77468104D01*
X45855623Y-77449054D01*
X45824383Y-77423417D01*
X45798746Y-77392177D01*
X45779696Y-77356538D01*
X45767965Y-77317868D01*
X45763400Y-77271512D01*
X45763400Y-76195288D01*
X45767965Y-76148932D01*
X45779696Y-76110262D01*
X45798746Y-76074623D01*
X45824383Y-76043383D01*
X45855623Y-76017746D01*
X45891262Y-75998696D01*
X45929932Y-75986965D01*
X45976288Y-75982400D01*
X46627512Y-75982400D01*
X46673868Y-75986965D01*
G37*
G36*
X59517538Y-75780916D02*
G01*
X59538157Y-75787171D01*
X59557153Y-75797324D01*
X59573808Y-75810992D01*
X59587476Y-75827647D01*
X59597629Y-75846643D01*
X59603884Y-75867262D01*
X59606600Y-75894840D01*
X59606600Y-76403560D01*
X59603884Y-76431138D01*
X59597629Y-76451757D01*
X59587476Y-76470753D01*
X59573808Y-76487408D01*
X59557153Y-76501076D01*
X59542586Y-76508862D01*
X59522212Y-76522476D01*
X59504885Y-76539803D01*
X59491272Y-76560178D01*
X59481895Y-76582817D01*
X59477115Y-76606850D01*
X59477115Y-76631354D01*
X59481896Y-76655387D01*
X59491274Y-76678026D01*
X59504888Y-76698400D01*
X59522215Y-76715727D01*
X59542586Y-76729338D01*
X59557153Y-76737124D01*
X59573808Y-76750792D01*
X59587476Y-76767447D01*
X59597629Y-76786443D01*
X59603884Y-76807062D01*
X59606600Y-76834640D01*
X59606600Y-77343360D01*
X59603884Y-77370938D01*
X59597629Y-77391557D01*
X59587476Y-77410553D01*
X59573808Y-77427208D01*
X59557153Y-77440876D01*
X59538157Y-77451029D01*
X59517538Y-77457284D01*
X59489960Y-77460000D01*
X59031240Y-77460000D01*
X59003662Y-77457284D01*
X58983043Y-77451029D01*
X58964047Y-77440876D01*
X58947392Y-77427208D01*
X58933724Y-77410553D01*
X58923571Y-77391557D01*
X58917316Y-77370938D01*
X58914600Y-77343360D01*
X58914600Y-76834640D01*
X58917316Y-76807062D01*
X58923571Y-76786443D01*
X58933724Y-76767447D01*
X58947392Y-76750792D01*
X58964047Y-76737124D01*
X58978614Y-76729338D01*
X58998988Y-76715724D01*
X59016315Y-76698397D01*
X59029928Y-76678022D01*
X59039305Y-76655383D01*
X59044085Y-76631350D01*
X59044085Y-76606846D01*
X59039304Y-76582813D01*
X59029926Y-76560174D01*
X59016312Y-76539800D01*
X58998985Y-76522473D01*
X58978614Y-76508862D01*
X58964047Y-76501076D01*
X58947392Y-76487408D01*
X58933724Y-76470753D01*
X58923571Y-76451757D01*
X58917316Y-76431138D01*
X58914600Y-76403560D01*
X58914600Y-75894840D01*
X58917316Y-75867262D01*
X58923571Y-75846643D01*
X58933724Y-75827647D01*
X58947392Y-75810992D01*
X58964047Y-75797324D01*
X58983043Y-75787171D01*
X59003662Y-75780916D01*
X59031240Y-75778200D01*
X59489960Y-75778200D01*
X59517538Y-75780916D01*
G37*
G36*
X58547538Y-75780916D02*
G01*
X58568157Y-75787171D01*
X58587153Y-75797324D01*
X58603808Y-75810992D01*
X58617476Y-75827647D01*
X58627629Y-75846643D01*
X58633884Y-75867262D01*
X58636600Y-75894840D01*
X58636600Y-76403560D01*
X58633884Y-76431138D01*
X58627629Y-76451757D01*
X58617476Y-76470753D01*
X58603808Y-76487408D01*
X58587153Y-76501076D01*
X58572586Y-76508862D01*
X58552212Y-76522476D01*
X58534885Y-76539803D01*
X58521272Y-76560178D01*
X58511895Y-76582817D01*
X58507115Y-76606850D01*
X58507115Y-76631354D01*
X58511896Y-76655387D01*
X58521274Y-76678026D01*
X58534888Y-76698400D01*
X58552215Y-76715727D01*
X58572586Y-76729338D01*
X58587153Y-76737124D01*
X58603808Y-76750792D01*
X58617476Y-76767447D01*
X58627629Y-76786443D01*
X58633884Y-76807062D01*
X58636600Y-76834640D01*
X58636600Y-77343360D01*
X58633884Y-77370938D01*
X58627629Y-77391557D01*
X58617476Y-77410553D01*
X58603808Y-77427208D01*
X58587153Y-77440876D01*
X58568157Y-77451029D01*
X58547538Y-77457284D01*
X58519960Y-77460000D01*
X58061240Y-77460000D01*
X58033662Y-77457284D01*
X58013043Y-77451029D01*
X57994047Y-77440876D01*
X57977392Y-77427208D01*
X57963724Y-77410553D01*
X57953571Y-77391557D01*
X57947316Y-77370938D01*
X57944600Y-77343360D01*
X57944600Y-76834640D01*
X57947316Y-76807062D01*
X57953571Y-76786443D01*
X57963724Y-76767447D01*
X57977392Y-76750792D01*
X57994047Y-76737124D01*
X58008614Y-76729338D01*
X58028988Y-76715724D01*
X58046315Y-76698397D01*
X58059928Y-76678022D01*
X58069305Y-76655383D01*
X58074085Y-76631350D01*
X58074085Y-76606846D01*
X58069304Y-76582813D01*
X58059926Y-76560174D01*
X58046312Y-76539800D01*
X58028985Y-76522473D01*
X58008614Y-76508862D01*
X57994047Y-76501076D01*
X57977392Y-76487408D01*
X57963724Y-76470753D01*
X57953571Y-76451757D01*
X57947316Y-76431138D01*
X57944600Y-76403560D01*
X57944600Y-75894840D01*
X57947316Y-75867262D01*
X57953571Y-75846643D01*
X57963724Y-75827647D01*
X57977392Y-75810992D01*
X57994047Y-75797324D01*
X58013043Y-75787171D01*
X58033662Y-75780916D01*
X58061240Y-75778200D01*
X58519960Y-75778200D01*
X58547538Y-75780916D01*
G37*
G36*
X52758338Y-76722716D02*
G01*
X52778957Y-76728971D01*
X52797953Y-76739124D01*
X52814608Y-76752792D01*
X52828276Y-76769447D01*
X52838429Y-76788443D01*
X52844684Y-76809062D01*
X52847400Y-76836640D01*
X52847400Y-77295360D01*
X52844684Y-77322938D01*
X52838429Y-77343557D01*
X52828276Y-77362553D01*
X52814608Y-77379208D01*
X52797953Y-77392876D01*
X52778957Y-77403029D01*
X52758338Y-77409284D01*
X52730760Y-77412000D01*
X52222040Y-77412000D01*
X52194462Y-77409284D01*
X52173843Y-77403029D01*
X52154847Y-77392876D01*
X52138192Y-77379208D01*
X52124524Y-77362553D01*
X52114371Y-77343557D01*
X52108116Y-77322938D01*
X52105400Y-77295360D01*
X52105400Y-76836640D01*
X52108116Y-76809062D01*
X52114371Y-76788443D01*
X52124524Y-76769447D01*
X52138192Y-76752792D01*
X52154847Y-76739124D01*
X52173843Y-76728971D01*
X52194462Y-76722716D01*
X52222040Y-76720000D01*
X52730760Y-76720000D01*
X52758338Y-76722716D01*
G37*
G36*
X55561791Y-76363885D02*
G01*
X55595769Y-76374193D01*
X55627090Y-76390934D01*
X55654539Y-76413461D01*
X55677066Y-76440910D01*
X55693807Y-76472231D01*
X55704115Y-76506209D01*
X55708200Y-76547690D01*
X55708200Y-77223910D01*
X55704115Y-77265391D01*
X55693807Y-77299369D01*
X55677066Y-77330690D01*
X55654539Y-77358139D01*
X55627090Y-77380666D01*
X55595769Y-77397407D01*
X55561791Y-77407715D01*
X55520310Y-77411800D01*
X54919090Y-77411800D01*
X54877609Y-77407715D01*
X54843631Y-77397407D01*
X54812310Y-77380666D01*
X54784861Y-77358139D01*
X54762334Y-77330690D01*
X54745593Y-77299369D01*
X54735285Y-77265391D01*
X54731200Y-77223910D01*
X54731200Y-76547690D01*
X54735285Y-76506209D01*
X54745593Y-76472231D01*
X54762334Y-76440910D01*
X54784861Y-76413461D01*
X54812310Y-76390934D01*
X54843631Y-76374193D01*
X54877609Y-76363885D01*
X54919090Y-76359800D01*
X55520310Y-76359800D01*
X55561791Y-76363885D01*
G37*
G36*
X53986791Y-76363885D02*
G01*
X54020769Y-76374193D01*
X54052090Y-76390934D01*
X54079539Y-76413461D01*
X54102066Y-76440910D01*
X54118807Y-76472231D01*
X54129115Y-76506209D01*
X54133200Y-76547690D01*
X54133200Y-77223910D01*
X54129115Y-77265391D01*
X54118807Y-77299369D01*
X54102066Y-77330690D01*
X54079539Y-77358139D01*
X54052090Y-77380666D01*
X54020769Y-77397407D01*
X53986791Y-77407715D01*
X53945310Y-77411800D01*
X53344090Y-77411800D01*
X53302609Y-77407715D01*
X53268631Y-77397407D01*
X53237310Y-77380666D01*
X53209861Y-77358139D01*
X53187334Y-77330690D01*
X53170593Y-77299369D01*
X53160285Y-77265391D01*
X53156200Y-77223910D01*
X53156200Y-76547690D01*
X53160285Y-76506209D01*
X53170593Y-76472231D01*
X53187334Y-76440910D01*
X53209861Y-76413461D01*
X53237310Y-76390934D01*
X53268631Y-76374193D01*
X53302609Y-76363885D01*
X53344090Y-76359800D01*
X53945310Y-76359800D01*
X53986791Y-76363885D01*
G37*
G36*
X48186338Y-76438516D02*
G01*
X48206957Y-76444771D01*
X48225953Y-76454924D01*
X48242608Y-76468592D01*
X48256276Y-76485247D01*
X48266429Y-76504243D01*
X48272684Y-76524862D01*
X48275303Y-76551455D01*
X48280083Y-76575488D01*
X48289461Y-76598127D01*
X48303074Y-76618501D01*
X48320401Y-76635828D01*
X48340776Y-76649442D01*
X48363414Y-76658819D01*
X48387448Y-76663600D01*
X48411952Y-76663600D01*
X48435985Y-76658820D01*
X48458624Y-76649442D01*
X48478998Y-76635829D01*
X48496325Y-76618502D01*
X48509939Y-76598127D01*
X48519316Y-76575489D01*
X48524097Y-76551455D01*
X48526716Y-76524862D01*
X48532971Y-76504243D01*
X48543124Y-76485247D01*
X48556792Y-76468592D01*
X48573447Y-76454924D01*
X48592443Y-76444771D01*
X48613062Y-76438516D01*
X48640640Y-76435800D01*
X49149360Y-76435800D01*
X49176938Y-76438516D01*
X49197557Y-76444771D01*
X49216553Y-76454924D01*
X49233208Y-76468592D01*
X49246876Y-76485247D01*
X49257029Y-76504243D01*
X49263284Y-76524862D01*
X49266000Y-76552440D01*
X49266000Y-77011160D01*
X49263284Y-77038738D01*
X49257029Y-77059357D01*
X49246876Y-77078353D01*
X49233208Y-77095008D01*
X49216553Y-77108676D01*
X49197557Y-77118829D01*
X49176938Y-77125084D01*
X49149360Y-77127800D01*
X48640640Y-77127800D01*
X48613062Y-77125084D01*
X48592443Y-77118829D01*
X48573447Y-77108676D01*
X48556792Y-77095008D01*
X48543124Y-77078353D01*
X48532971Y-77059357D01*
X48526716Y-77038738D01*
X48524097Y-77012145D01*
X48519317Y-76988112D01*
X48509939Y-76965473D01*
X48496326Y-76945099D01*
X48478999Y-76927772D01*
X48458624Y-76914158D01*
X48435986Y-76904781D01*
X48411952Y-76900000D01*
X48387448Y-76900000D01*
X48363415Y-76904780D01*
X48340776Y-76914158D01*
X48320402Y-76927771D01*
X48303075Y-76945098D01*
X48289461Y-76965473D01*
X48280084Y-76988111D01*
X48275303Y-77012145D01*
X48272684Y-77038738D01*
X48266429Y-77059357D01*
X48256276Y-77078353D01*
X48242608Y-77095008D01*
X48225953Y-77108676D01*
X48206957Y-77118829D01*
X48186338Y-77125084D01*
X48158760Y-77127800D01*
X47650040Y-77127800D01*
X47622462Y-77125084D01*
X47601843Y-77118829D01*
X47582847Y-77108676D01*
X47566192Y-77095008D01*
X47552524Y-77078353D01*
X47542371Y-77059357D01*
X47536116Y-77038738D01*
X47533400Y-77011160D01*
X47533400Y-76552440D01*
X47536116Y-76524862D01*
X47542371Y-76504243D01*
X47552524Y-76485247D01*
X47566192Y-76468592D01*
X47582847Y-76454924D01*
X47601843Y-76444771D01*
X47622462Y-76438516D01*
X47650040Y-76435800D01*
X48158760Y-76435800D01*
X48186338Y-76438516D01*
G37*
G36*
X88968200Y-76957000D02*
G01*
X84666200Y-76957000D01*
X84666200Y-75505000D01*
X88968200Y-75505000D01*
X88968200Y-76957000D01*
G37*
G36*
X71042391Y-75740885D02*
G01*
X71076369Y-75751193D01*
X71107690Y-75767934D01*
X71135139Y-75790461D01*
X71157666Y-75817910D01*
X71174407Y-75849231D01*
X71184715Y-75883209D01*
X71188800Y-75924690D01*
X71188800Y-76525910D01*
X71184715Y-76567391D01*
X71174407Y-76601369D01*
X71157666Y-76632690D01*
X71135139Y-76660139D01*
X71107690Y-76682666D01*
X71076369Y-76699407D01*
X71042391Y-76709715D01*
X71000910Y-76713800D01*
X70324690Y-76713800D01*
X70283209Y-76709715D01*
X70249231Y-76699407D01*
X70217910Y-76682666D01*
X70190461Y-76660139D01*
X70167934Y-76632690D01*
X70151193Y-76601369D01*
X70140885Y-76567391D01*
X70136800Y-76525910D01*
X70136800Y-75924690D01*
X70140885Y-75883209D01*
X70151193Y-75849231D01*
X70167934Y-75817910D01*
X70190461Y-75790461D01*
X70217910Y-75767934D01*
X70249231Y-75751193D01*
X70283209Y-75740885D01*
X70324690Y-75736800D01*
X71000910Y-75736800D01*
X71042391Y-75740885D01*
G37*
G36*
X39097643Y-74994100D02*
G01*
X39173859Y-75009260D01*
X39310532Y-75065872D01*
X39433535Y-75148060D01*
X39538140Y-75252665D01*
X39620328Y-75375668D01*
X39620329Y-75375670D01*
X39676940Y-75512341D01*
X39705800Y-75657432D01*
X39705800Y-75805368D01*
X39676940Y-75950459D01*
X39625510Y-76074623D01*
X39620328Y-76087132D01*
X39538140Y-76210135D01*
X39433535Y-76314740D01*
X39310532Y-76396928D01*
X39310531Y-76396929D01*
X39310530Y-76396929D01*
X39173859Y-76453540D01*
X39028768Y-76482400D01*
X38880832Y-76482400D01*
X38735741Y-76453540D01*
X38599070Y-76396929D01*
X38599069Y-76396929D01*
X38599068Y-76396928D01*
X38476065Y-76314740D01*
X38371460Y-76210135D01*
X38289272Y-76087132D01*
X38284091Y-76074623D01*
X38232660Y-75950459D01*
X38203800Y-75805368D01*
X38203800Y-75657432D01*
X38232660Y-75512341D01*
X38289271Y-75375670D01*
X38289272Y-75375668D01*
X38371460Y-75252665D01*
X38476065Y-75148060D01*
X38599068Y-75065872D01*
X38735741Y-75009260D01*
X38811957Y-74994100D01*
X38880832Y-74980400D01*
X39028768Y-74980400D01*
X39097643Y-74994100D01*
G37*
G36*
X52758338Y-75752716D02*
G01*
X52778957Y-75758971D01*
X52797953Y-75769124D01*
X52814608Y-75782792D01*
X52828276Y-75799447D01*
X52838429Y-75818443D01*
X52844684Y-75839062D01*
X52847400Y-75866640D01*
X52847400Y-76325360D01*
X52844684Y-76352938D01*
X52838429Y-76373557D01*
X52828276Y-76392553D01*
X52814608Y-76409208D01*
X52797953Y-76422876D01*
X52778957Y-76433029D01*
X52758338Y-76439284D01*
X52730760Y-76442000D01*
X52222040Y-76442000D01*
X52194462Y-76439284D01*
X52173843Y-76433029D01*
X52154847Y-76422876D01*
X52138192Y-76409208D01*
X52124524Y-76392553D01*
X52114371Y-76373557D01*
X52108116Y-76352938D01*
X52105400Y-76325360D01*
X52105400Y-75866640D01*
X52108116Y-75839062D01*
X52114371Y-75818443D01*
X52124524Y-75799447D01*
X52138192Y-75782792D01*
X52154847Y-75769124D01*
X52173843Y-75758971D01*
X52194462Y-75752716D01*
X52222040Y-75750000D01*
X52730760Y-75750000D01*
X52758338Y-75752716D01*
G37*
G36*
X69725538Y-75117716D02*
G01*
X69746157Y-75123971D01*
X69765153Y-75134124D01*
X69781808Y-75147792D01*
X69795476Y-75164447D01*
X69805629Y-75183443D01*
X69811884Y-75204062D01*
X69814600Y-75231640D01*
X69814600Y-75690360D01*
X69811884Y-75717938D01*
X69805629Y-75738557D01*
X69795476Y-75757553D01*
X69781808Y-75774208D01*
X69765153Y-75787876D01*
X69746157Y-75798029D01*
X69725538Y-75804284D01*
X69697960Y-75807000D01*
X69189240Y-75807000D01*
X69161662Y-75804284D01*
X69141043Y-75798029D01*
X69122047Y-75787876D01*
X69105392Y-75774208D01*
X69091724Y-75757553D01*
X69081571Y-75738557D01*
X69075316Y-75717938D01*
X69072600Y-75690360D01*
X69072600Y-75231640D01*
X69075316Y-75204062D01*
X69081571Y-75183443D01*
X69091724Y-75164447D01*
X69105392Y-75147792D01*
X69122047Y-75134124D01*
X69141043Y-75123971D01*
X69161662Y-75117716D01*
X69189240Y-75115000D01*
X69697960Y-75115000D01*
X69725538Y-75117716D01*
G37*
G36*
X52758338Y-74792316D02*
G01*
X52778957Y-74798571D01*
X52797953Y-74808724D01*
X52814608Y-74822392D01*
X52828276Y-74839047D01*
X52838429Y-74858043D01*
X52844684Y-74878662D01*
X52847400Y-74906240D01*
X52847400Y-75364960D01*
X52844684Y-75392538D01*
X52838429Y-75413157D01*
X52828276Y-75432153D01*
X52814608Y-75448808D01*
X52797953Y-75462476D01*
X52778957Y-75472629D01*
X52758338Y-75478884D01*
X52730760Y-75481600D01*
X52222040Y-75481600D01*
X52194462Y-75478884D01*
X52173843Y-75472629D01*
X52154847Y-75462476D01*
X52138192Y-75448808D01*
X52124524Y-75432153D01*
X52114371Y-75413157D01*
X52108116Y-75392538D01*
X52105400Y-75364960D01*
X52105400Y-74906240D01*
X52108116Y-74878662D01*
X52114371Y-74858043D01*
X52124524Y-74839047D01*
X52138192Y-74822392D01*
X52154847Y-74808724D01*
X52173843Y-74798571D01*
X52194462Y-74792316D01*
X52222040Y-74789600D01*
X52730760Y-74789600D01*
X52758338Y-74792316D01*
G37*
G36*
X53986791Y-74433485D02*
G01*
X54020769Y-74443793D01*
X54052090Y-74460534D01*
X54079539Y-74483061D01*
X54102066Y-74510510D01*
X54118807Y-74541831D01*
X54129115Y-74575809D01*
X54133200Y-74617290D01*
X54133200Y-75293510D01*
X54129115Y-75334991D01*
X54118807Y-75368969D01*
X54102066Y-75400290D01*
X54079539Y-75427739D01*
X54052090Y-75450266D01*
X54020769Y-75467007D01*
X53986791Y-75477315D01*
X53945310Y-75481400D01*
X53344090Y-75481400D01*
X53302609Y-75477315D01*
X53268631Y-75467007D01*
X53237310Y-75450266D01*
X53209861Y-75427739D01*
X53187334Y-75400290D01*
X53170593Y-75368969D01*
X53160285Y-75334991D01*
X53156200Y-75293510D01*
X53156200Y-74617290D01*
X53160285Y-74575809D01*
X53170593Y-74541831D01*
X53187334Y-74510510D01*
X53209861Y-74483061D01*
X53237310Y-74460534D01*
X53268631Y-74443793D01*
X53302609Y-74433485D01*
X53344090Y-74429400D01*
X53945310Y-74429400D01*
X53986791Y-74433485D01*
G37*
G36*
X59600291Y-74433485D02*
G01*
X59634269Y-74443793D01*
X59665590Y-74460534D01*
X59693039Y-74483061D01*
X59715566Y-74510510D01*
X59732307Y-74541831D01*
X59742615Y-74575809D01*
X59746700Y-74617290D01*
X59746700Y-75293510D01*
X59742615Y-75334991D01*
X59732307Y-75368969D01*
X59715566Y-75400290D01*
X59693039Y-75427739D01*
X59665590Y-75450266D01*
X59634269Y-75467007D01*
X59600291Y-75477315D01*
X59558810Y-75481400D01*
X58957590Y-75481400D01*
X58916109Y-75477315D01*
X58882131Y-75467007D01*
X58850810Y-75450266D01*
X58823361Y-75427739D01*
X58800834Y-75400290D01*
X58784093Y-75368969D01*
X58773785Y-75334991D01*
X58769700Y-75293510D01*
X58769700Y-74617290D01*
X58773785Y-74575809D01*
X58784093Y-74541831D01*
X58800834Y-74510510D01*
X58823361Y-74483061D01*
X58850810Y-74460534D01*
X58882131Y-74443793D01*
X58916109Y-74433485D01*
X58957590Y-74429400D01*
X59558810Y-74429400D01*
X59600291Y-74433485D01*
G37*
G36*
X55561791Y-74433485D02*
G01*
X55595769Y-74443793D01*
X55627090Y-74460534D01*
X55654539Y-74483061D01*
X55677066Y-74510510D01*
X55693807Y-74541831D01*
X55704115Y-74575809D01*
X55708200Y-74617290D01*
X55708200Y-75293510D01*
X55704115Y-75334991D01*
X55693807Y-75368969D01*
X55677066Y-75400290D01*
X55654539Y-75427739D01*
X55627090Y-75450266D01*
X55595769Y-75467007D01*
X55561791Y-75477315D01*
X55520310Y-75481400D01*
X54919090Y-75481400D01*
X54877609Y-75477315D01*
X54843631Y-75467007D01*
X54812310Y-75450266D01*
X54784861Y-75427739D01*
X54762334Y-75400290D01*
X54745593Y-75368969D01*
X54735285Y-75334991D01*
X54731200Y-75293510D01*
X54731200Y-74617290D01*
X54735285Y-74575809D01*
X54745593Y-74541831D01*
X54762334Y-74510510D01*
X54784861Y-74483061D01*
X54812310Y-74460534D01*
X54843631Y-74443793D01*
X54877609Y-74433485D01*
X54919090Y-74429400D01*
X55520310Y-74429400D01*
X55561791Y-74433485D01*
G37*
G36*
X58025291Y-74433485D02*
G01*
X58059269Y-74443793D01*
X58090590Y-74460534D01*
X58118039Y-74483061D01*
X58140566Y-74510510D01*
X58157307Y-74541831D01*
X58167615Y-74575809D01*
X58171700Y-74617290D01*
X58171700Y-75293510D01*
X58167615Y-75334991D01*
X58157307Y-75368969D01*
X58140566Y-75400290D01*
X58118039Y-75427739D01*
X58090590Y-75450266D01*
X58059269Y-75467007D01*
X58025291Y-75477315D01*
X57983810Y-75481400D01*
X57382590Y-75481400D01*
X57341109Y-75477315D01*
X57307131Y-75467007D01*
X57275810Y-75450266D01*
X57248361Y-75427739D01*
X57225834Y-75400290D01*
X57209093Y-75368969D01*
X57198785Y-75334991D01*
X57194700Y-75293510D01*
X57194700Y-74617290D01*
X57198785Y-74575809D01*
X57209093Y-74541831D01*
X57225834Y-74510510D01*
X57248361Y-74483061D01*
X57275810Y-74460534D01*
X57307131Y-74443793D01*
X57341109Y-74433485D01*
X57382590Y-74429400D01*
X57983810Y-74429400D01*
X58025291Y-74433485D01*
G37*
G36*
X49249555Y-70183583D02*
G01*
X49254229Y-70185001D01*
X49258530Y-70187300D01*
X49264902Y-70192529D01*
X49285276Y-70206143D01*
X49307915Y-70215520D01*
X49331949Y-70220300D01*
X49356453Y-70220300D01*
X49380486Y-70215519D01*
X49403125Y-70206142D01*
X49423498Y-70192529D01*
X49429870Y-70187300D01*
X49434171Y-70185001D01*
X49438845Y-70183583D01*
X49449841Y-70182500D01*
X49738559Y-70182500D01*
X49749555Y-70183583D01*
X49754229Y-70185001D01*
X49758530Y-70187300D01*
X49764902Y-70192529D01*
X49785276Y-70206143D01*
X49807915Y-70215520D01*
X49831949Y-70220300D01*
X49856453Y-70220300D01*
X49880486Y-70215519D01*
X49903125Y-70206142D01*
X49923498Y-70192529D01*
X49929870Y-70187300D01*
X49934171Y-70185001D01*
X49938845Y-70183583D01*
X49949841Y-70182500D01*
X50238559Y-70182500D01*
X50249555Y-70183583D01*
X50254229Y-70185001D01*
X50258531Y-70187300D01*
X50262304Y-70190396D01*
X50265400Y-70194169D01*
X50267699Y-70198471D01*
X50269117Y-70203145D01*
X50270200Y-70214141D01*
X50270200Y-71220001D01*
X50272602Y-71244387D01*
X50279715Y-71267836D01*
X50291266Y-71289447D01*
X50306811Y-71308389D01*
X50325753Y-71323934D01*
X50347364Y-71335485D01*
X50370813Y-71342598D01*
X50395199Y-71345000D01*
X51401059Y-71345000D01*
X51412055Y-71346083D01*
X51416729Y-71347501D01*
X51421031Y-71349800D01*
X51424804Y-71352896D01*
X51427900Y-71356669D01*
X51430199Y-71360971D01*
X51431617Y-71365645D01*
X51432700Y-71376641D01*
X51432700Y-71665359D01*
X51431617Y-71676355D01*
X51430199Y-71681029D01*
X51427900Y-71685331D01*
X51424804Y-71689104D01*
X51421031Y-71692200D01*
X51416729Y-71694499D01*
X51412055Y-71695917D01*
X51401059Y-71697000D01*
X51361501Y-71697000D01*
X51337115Y-71699402D01*
X51313666Y-71706515D01*
X51292055Y-71718066D01*
X51273113Y-71733611D01*
X51257568Y-71752553D01*
X51246017Y-71774164D01*
X51238904Y-71797613D01*
X51236502Y-71821999D01*
X51241884Y-71858284D01*
X51244117Y-71865645D01*
X51245200Y-71876641D01*
X51245200Y-72165359D01*
X51244117Y-72176355D01*
X51242699Y-72181029D01*
X51240400Y-72185330D01*
X51235171Y-72191702D01*
X51221557Y-72212076D01*
X51212180Y-72234715D01*
X51207400Y-72258749D01*
X51207400Y-72283253D01*
X51212181Y-72307286D01*
X51221558Y-72329925D01*
X51235171Y-72350298D01*
X51240400Y-72356670D01*
X51242699Y-72360971D01*
X51244117Y-72365645D01*
X51245200Y-72376641D01*
X51245200Y-72665359D01*
X51244117Y-72676355D01*
X51242699Y-72681029D01*
X51240400Y-72685330D01*
X51235171Y-72691702D01*
X51221557Y-72712076D01*
X51212180Y-72734715D01*
X51207400Y-72758749D01*
X51207400Y-72783253D01*
X51212181Y-72807286D01*
X51221558Y-72829925D01*
X51235171Y-72850298D01*
X51240400Y-72856670D01*
X51242699Y-72860971D01*
X51244117Y-72865645D01*
X51245200Y-72876641D01*
X51245200Y-73165359D01*
X51244117Y-73176355D01*
X51241884Y-73183716D01*
X51237104Y-73207749D01*
X51237104Y-73232253D01*
X51241885Y-73256287D01*
X51251262Y-73278925D01*
X51264876Y-73299300D01*
X51282203Y-73316627D01*
X51302577Y-73330240D01*
X51325216Y-73339618D01*
X51361501Y-73345000D01*
X51401059Y-73345000D01*
X51412055Y-73346083D01*
X51416729Y-73347501D01*
X51421031Y-73349800D01*
X51424804Y-73352896D01*
X51427900Y-73356669D01*
X51430199Y-73360971D01*
X51431617Y-73365645D01*
X51432700Y-73376641D01*
X51432700Y-73665359D01*
X51431617Y-73676355D01*
X51430199Y-73681029D01*
X51427900Y-73685330D01*
X51422671Y-73691702D01*
X51409057Y-73712076D01*
X51399680Y-73734715D01*
X51394900Y-73758749D01*
X51394900Y-73783253D01*
X51399681Y-73807286D01*
X51409058Y-73829925D01*
X51422671Y-73850298D01*
X51427900Y-73856670D01*
X51430199Y-73860971D01*
X51431617Y-73865645D01*
X51432700Y-73876641D01*
X51432700Y-74165359D01*
X51431617Y-74176355D01*
X51430199Y-74181029D01*
X51427900Y-74185331D01*
X51424804Y-74189104D01*
X51421031Y-74192200D01*
X51416729Y-74194499D01*
X51412055Y-74195917D01*
X51401059Y-74197000D01*
X50395199Y-74197000D01*
X50370813Y-74199402D01*
X50347364Y-74206515D01*
X50325753Y-74218066D01*
X50306811Y-74233611D01*
X50291266Y-74252553D01*
X50279715Y-74274164D01*
X50272602Y-74297613D01*
X50270200Y-74321999D01*
X50270200Y-75140359D01*
X50269117Y-75151355D01*
X50267699Y-75156029D01*
X50265400Y-75160331D01*
X50262304Y-75164104D01*
X50258531Y-75167200D01*
X50254229Y-75169499D01*
X50249555Y-75170917D01*
X50238559Y-75172000D01*
X49949841Y-75172000D01*
X49938845Y-75170917D01*
X49934171Y-75169499D01*
X49929870Y-75167200D01*
X49923498Y-75161971D01*
X49903124Y-75148357D01*
X49880485Y-75138980D01*
X49856451Y-75134200D01*
X49831947Y-75134200D01*
X49807914Y-75138981D01*
X49785275Y-75148358D01*
X49764902Y-75161971D01*
X49758530Y-75167200D01*
X49754229Y-75169499D01*
X49749555Y-75170917D01*
X49738559Y-75172000D01*
X49449841Y-75172000D01*
X49438845Y-75170917D01*
X49434171Y-75169499D01*
X49429870Y-75167200D01*
X49423498Y-75161971D01*
X49403124Y-75148357D01*
X49380485Y-75138980D01*
X49356451Y-75134200D01*
X49331947Y-75134200D01*
X49307914Y-75138981D01*
X49285275Y-75148358D01*
X49264902Y-75161971D01*
X49258530Y-75167200D01*
X49254229Y-75169499D01*
X49249555Y-75170917D01*
X49238559Y-75172000D01*
X48949841Y-75172000D01*
X48938845Y-75170917D01*
X48931484Y-75168684D01*
X48907451Y-75163904D01*
X48882947Y-75163904D01*
X48858913Y-75168685D01*
X48836275Y-75178062D01*
X48815900Y-75191676D01*
X48798573Y-75209003D01*
X48784960Y-75229377D01*
X48775582Y-75252016D01*
X48770200Y-75288301D01*
X48770200Y-75327859D01*
X48769117Y-75338855D01*
X48767699Y-75343529D01*
X48765400Y-75347831D01*
X48762304Y-75351604D01*
X48758531Y-75354700D01*
X48754229Y-75356999D01*
X48749555Y-75358417D01*
X48738559Y-75359500D01*
X48449841Y-75359500D01*
X48438845Y-75358417D01*
X48434171Y-75356999D01*
X48429870Y-75354700D01*
X48423498Y-75349471D01*
X48403124Y-75335857D01*
X48380485Y-75326480D01*
X48356451Y-75321700D01*
X48331947Y-75321700D01*
X48307914Y-75326481D01*
X48285275Y-75335858D01*
X48264902Y-75349471D01*
X48258530Y-75354700D01*
X48254229Y-75356999D01*
X48249555Y-75358417D01*
X48238559Y-75359500D01*
X47949841Y-75359500D01*
X47938845Y-75358417D01*
X47934171Y-75356999D01*
X47929870Y-75354700D01*
X47923498Y-75349471D01*
X47903124Y-75335857D01*
X47880485Y-75326480D01*
X47856451Y-75321700D01*
X47831947Y-75321700D01*
X47807914Y-75326481D01*
X47785275Y-75335858D01*
X47764902Y-75349471D01*
X47758530Y-75354700D01*
X47754229Y-75356999D01*
X47749555Y-75358417D01*
X47738559Y-75359500D01*
X47449841Y-75359500D01*
X47438845Y-75358417D01*
X47434171Y-75356999D01*
X47429869Y-75354700D01*
X47426096Y-75351604D01*
X47423000Y-75347831D01*
X47420701Y-75343529D01*
X47419283Y-75338855D01*
X47418200Y-75327859D01*
X47418200Y-74321999D01*
X47415798Y-74297613D01*
X47408685Y-74274164D01*
X47397134Y-74252553D01*
X47381589Y-74233611D01*
X47362647Y-74218066D01*
X47341036Y-74206515D01*
X47317587Y-74199402D01*
X47293201Y-74197000D01*
X46287341Y-74197000D01*
X46276345Y-74195917D01*
X46271671Y-74194499D01*
X46267369Y-74192200D01*
X46263596Y-74189104D01*
X46260500Y-74185331D01*
X46258201Y-74181029D01*
X46256783Y-74176355D01*
X46255700Y-74165359D01*
X46255700Y-73876641D01*
X46256783Y-73865645D01*
X46258201Y-73860971D01*
X46260500Y-73856670D01*
X46265729Y-73850298D01*
X46279343Y-73829924D01*
X46288720Y-73807285D01*
X46293500Y-73783251D01*
X46293500Y-73758747D01*
X46288719Y-73734714D01*
X46279342Y-73712075D01*
X46265729Y-73691702D01*
X46260500Y-73685330D01*
X46258201Y-73681029D01*
X46256783Y-73676355D01*
X46255700Y-73665359D01*
X46255700Y-73376641D01*
X46256783Y-73365645D01*
X46258201Y-73360971D01*
X46260500Y-73356670D01*
X46265729Y-73350298D01*
X46279343Y-73329924D01*
X46288720Y-73307285D01*
X46293500Y-73283251D01*
X46293500Y-73258747D01*
X46288719Y-73234714D01*
X46279342Y-73212075D01*
X46265729Y-73191702D01*
X46260500Y-73185330D01*
X46258201Y-73181029D01*
X46256783Y-73176355D01*
X46255700Y-73165359D01*
X46255700Y-72876641D01*
X46256783Y-72865645D01*
X46258201Y-72860971D01*
X46260500Y-72856670D01*
X46265729Y-72850298D01*
X46279343Y-72829924D01*
X46288720Y-72807285D01*
X46293500Y-72783251D01*
X46293500Y-72758747D01*
X46288719Y-72734714D01*
X46279342Y-72712075D01*
X46265729Y-72691702D01*
X46260500Y-72685330D01*
X46258201Y-72681029D01*
X46256783Y-72676355D01*
X46255700Y-72665359D01*
X46255700Y-72376641D01*
X46256783Y-72365645D01*
X46258201Y-72360971D01*
X46260500Y-72356670D01*
X46265729Y-72350298D01*
X46279343Y-72329924D01*
X46288720Y-72307285D01*
X46293500Y-72283251D01*
X46293500Y-72258747D01*
X46288719Y-72234714D01*
X46279342Y-72212075D01*
X46265729Y-72191702D01*
X46260500Y-72185330D01*
X46258201Y-72181029D01*
X46256783Y-72176355D01*
X46255700Y-72165359D01*
X46255700Y-71876641D01*
X46256783Y-71865645D01*
X46258201Y-71860971D01*
X46260500Y-71856669D01*
X46263596Y-71852896D01*
X46267369Y-71849800D01*
X46271671Y-71847501D01*
X46276345Y-71846083D01*
X46287341Y-71845000D01*
X46326899Y-71845000D01*
X46351285Y-71842598D01*
X46374734Y-71835485D01*
X46396345Y-71823934D01*
X46415287Y-71808389D01*
X46430832Y-71789447D01*
X46442383Y-71767836D01*
X46449496Y-71744387D01*
X46451898Y-71720001D01*
X46446516Y-71683716D01*
X46444283Y-71676355D01*
X46443200Y-71665359D01*
X46443200Y-71376641D01*
X46444283Y-71365645D01*
X46445701Y-71360971D01*
X46448000Y-71356669D01*
X46451096Y-71352896D01*
X46454869Y-71349800D01*
X46459171Y-71347501D01*
X46463845Y-71346083D01*
X46474841Y-71345000D01*
X47293201Y-71345000D01*
X47317587Y-71342598D01*
X47341036Y-71335485D01*
X47362647Y-71323934D01*
X47381589Y-71308389D01*
X47397134Y-71289447D01*
X47408685Y-71267836D01*
X47415798Y-71244387D01*
X47418200Y-71220001D01*
X47418200Y-70401641D01*
X47419283Y-70390645D01*
X47420701Y-70385971D01*
X47423000Y-70381669D01*
X47426096Y-70377896D01*
X47429869Y-70374800D01*
X47434171Y-70372501D01*
X47438845Y-70371083D01*
X47449841Y-70370000D01*
X47738559Y-70370000D01*
X47749555Y-70371083D01*
X47754229Y-70372501D01*
X47758530Y-70374800D01*
X47764902Y-70380029D01*
X47785276Y-70393643D01*
X47807915Y-70403020D01*
X47831949Y-70407800D01*
X47856453Y-70407800D01*
X47880486Y-70403019D01*
X47903125Y-70393642D01*
X47923498Y-70380029D01*
X47929870Y-70374800D01*
X47934171Y-70372501D01*
X47938845Y-70371083D01*
X47949841Y-70370000D01*
X48238559Y-70370000D01*
X48249555Y-70371083D01*
X48254229Y-70372501D01*
X48258530Y-70374800D01*
X48264902Y-70380029D01*
X48285276Y-70393643D01*
X48307915Y-70403020D01*
X48331949Y-70407800D01*
X48356453Y-70407800D01*
X48380486Y-70403019D01*
X48403125Y-70393642D01*
X48423498Y-70380029D01*
X48429870Y-70374800D01*
X48434171Y-70372501D01*
X48438845Y-70371083D01*
X48449841Y-70370000D01*
X48738559Y-70370000D01*
X48749555Y-70371083D01*
X48756916Y-70373316D01*
X48780949Y-70378096D01*
X48805453Y-70378096D01*
X48829487Y-70373315D01*
X48852125Y-70363938D01*
X48872500Y-70350324D01*
X48889827Y-70332997D01*
X48903440Y-70312623D01*
X48912818Y-70289984D01*
X48918200Y-70253699D01*
X48918200Y-70214141D01*
X48919283Y-70203145D01*
X48920701Y-70198471D01*
X48923000Y-70194169D01*
X48926096Y-70190396D01*
X48929869Y-70187300D01*
X48934171Y-70185001D01*
X48938845Y-70183583D01*
X48949841Y-70182500D01*
X49238559Y-70182500D01*
X49249555Y-70183583D01*
G37*
G36*
X71042391Y-74344085D02*
G01*
X71076369Y-74354393D01*
X71107690Y-74371134D01*
X71135139Y-74393661D01*
X71157666Y-74421110D01*
X71174407Y-74452431D01*
X71184715Y-74486409D01*
X71188800Y-74527890D01*
X71188800Y-75129110D01*
X71184715Y-75170591D01*
X71174407Y-75204569D01*
X71157666Y-75235890D01*
X71135139Y-75263339D01*
X71107690Y-75285866D01*
X71076369Y-75302607D01*
X71042391Y-75312915D01*
X71000910Y-75317000D01*
X70324690Y-75317000D01*
X70283209Y-75312915D01*
X70249231Y-75302607D01*
X70217910Y-75285866D01*
X70190461Y-75263339D01*
X70167934Y-75235890D01*
X70151193Y-75204569D01*
X70140885Y-75170591D01*
X70136800Y-75129110D01*
X70136800Y-74527890D01*
X70140885Y-74486409D01*
X70151193Y-74452431D01*
X70167934Y-74421110D01*
X70190461Y-74393661D01*
X70217910Y-74371134D01*
X70249231Y-74354393D01*
X70283209Y-74344085D01*
X70324690Y-74340000D01*
X71000910Y-74340000D01*
X71042391Y-74344085D01*
G37*
G36*
X43105800Y-75032400D02*
G01*
X40303800Y-75032400D01*
X40303800Y-73830400D01*
X43105800Y-73830400D01*
X43105800Y-75032400D01*
G37*
G36*
X80698338Y-74106516D02*
G01*
X80718957Y-74112771D01*
X80737953Y-74122924D01*
X80754608Y-74136592D01*
X80768276Y-74153247D01*
X80778429Y-74172243D01*
X80784684Y-74192862D01*
X80787400Y-74220440D01*
X80787400Y-74679160D01*
X80784684Y-74706738D01*
X80778429Y-74727357D01*
X80768276Y-74746353D01*
X80754608Y-74763008D01*
X80737953Y-74776676D01*
X80718957Y-74786829D01*
X80698338Y-74793084D01*
X80670760Y-74795800D01*
X80162040Y-74795800D01*
X80134462Y-74793084D01*
X80113843Y-74786829D01*
X80094847Y-74776676D01*
X80078192Y-74763008D01*
X80064524Y-74746353D01*
X80054371Y-74727357D01*
X80048116Y-74706738D01*
X80045400Y-74679160D01*
X80045400Y-74220440D01*
X80048116Y-74192862D01*
X80054371Y-74172243D01*
X80064524Y-74153247D01*
X80078192Y-74136592D01*
X80094847Y-74122924D01*
X80113843Y-74112771D01*
X80134462Y-74106516D01*
X80162040Y-74103800D01*
X80670760Y-74103800D01*
X80698338Y-74106516D01*
G37*
G36*
X81917538Y-74106516D02*
G01*
X81938157Y-74112771D01*
X81957153Y-74122924D01*
X81973808Y-74136592D01*
X81987476Y-74153247D01*
X81997629Y-74172243D01*
X82003884Y-74192862D01*
X82006600Y-74220440D01*
X82006600Y-74679160D01*
X82003884Y-74706738D01*
X81997629Y-74727357D01*
X81987476Y-74746353D01*
X81973808Y-74763008D01*
X81957153Y-74776676D01*
X81938157Y-74786829D01*
X81917538Y-74793084D01*
X81889960Y-74795800D01*
X81381240Y-74795800D01*
X81353662Y-74793084D01*
X81333043Y-74786829D01*
X81314047Y-74776676D01*
X81297392Y-74763008D01*
X81283724Y-74746353D01*
X81273571Y-74727357D01*
X81267316Y-74706738D01*
X81264600Y-74679160D01*
X81264600Y-74220440D01*
X81267316Y-74192862D01*
X81273571Y-74172243D01*
X81283724Y-74153247D01*
X81297392Y-74136592D01*
X81314047Y-74122924D01*
X81333043Y-74112771D01*
X81353662Y-74106516D01*
X81381240Y-74103800D01*
X81889960Y-74103800D01*
X81917538Y-74106516D01*
G37*
G36*
X75643738Y-74106516D02*
G01*
X75664357Y-74112771D01*
X75683353Y-74122924D01*
X75700008Y-74136592D01*
X75713676Y-74153247D01*
X75723829Y-74172243D01*
X75730084Y-74192862D01*
X75732800Y-74220440D01*
X75732800Y-74679160D01*
X75730084Y-74706738D01*
X75723829Y-74727357D01*
X75713676Y-74746353D01*
X75700008Y-74763008D01*
X75683353Y-74776676D01*
X75664357Y-74786829D01*
X75643738Y-74793084D01*
X75616160Y-74795800D01*
X75107440Y-74795800D01*
X75079862Y-74793084D01*
X75059243Y-74786829D01*
X75040247Y-74776676D01*
X75023592Y-74763008D01*
X75009924Y-74746353D01*
X74999771Y-74727357D01*
X74993516Y-74706738D01*
X74990800Y-74679160D01*
X74990800Y-74220440D01*
X74993516Y-74192862D01*
X74999771Y-74172243D01*
X75009924Y-74153247D01*
X75023592Y-74136592D01*
X75040247Y-74122924D01*
X75059243Y-74112771D01*
X75079862Y-74106516D01*
X75107440Y-74103800D01*
X75616160Y-74103800D01*
X75643738Y-74106516D01*
G37*
G36*
X52758338Y-73822316D02*
G01*
X52778957Y-73828571D01*
X52797953Y-73838724D01*
X52814608Y-73852392D01*
X52828276Y-73869047D01*
X52838429Y-73888043D01*
X52844684Y-73908662D01*
X52847400Y-73936240D01*
X52847400Y-74394960D01*
X52844684Y-74422538D01*
X52838429Y-74443157D01*
X52828276Y-74462153D01*
X52814608Y-74478808D01*
X52797953Y-74492476D01*
X52778957Y-74502629D01*
X52758338Y-74508884D01*
X52730760Y-74511600D01*
X52222040Y-74511600D01*
X52194462Y-74508884D01*
X52173843Y-74502629D01*
X52154847Y-74492476D01*
X52138192Y-74478808D01*
X52124524Y-74462153D01*
X52114371Y-74443157D01*
X52108116Y-74422538D01*
X52105400Y-74394960D01*
X52105400Y-73936240D01*
X52108116Y-73908662D01*
X52114371Y-73888043D01*
X52124524Y-73869047D01*
X52138192Y-73852392D01*
X52154847Y-73838724D01*
X52173843Y-73828571D01*
X52194462Y-73822316D01*
X52222040Y-73819600D01*
X52730760Y-73819600D01*
X52758338Y-73822316D01*
G37*
G36*
X88868200Y-74155500D02*
G01*
X85166200Y-74155500D01*
X85166200Y-72656500D01*
X88868200Y-72656500D01*
X88868200Y-74155500D01*
G37*
G36*
X59600391Y-72960285D02*
G01*
X59634369Y-72970593D01*
X59665690Y-72987334D01*
X59693139Y-73009861D01*
X59715666Y-73037310D01*
X59732407Y-73068631D01*
X59742715Y-73102609D01*
X59746800Y-73144090D01*
X59746800Y-73820310D01*
X59742715Y-73861791D01*
X59732407Y-73895769D01*
X59715666Y-73927090D01*
X59693139Y-73954539D01*
X59665690Y-73977066D01*
X59634369Y-73993807D01*
X59600391Y-74004115D01*
X59558910Y-74008200D01*
X58957690Y-74008200D01*
X58916209Y-74004115D01*
X58882231Y-73993807D01*
X58850910Y-73977066D01*
X58823461Y-73954539D01*
X58800934Y-73927090D01*
X58784193Y-73895769D01*
X58773885Y-73861791D01*
X58769800Y-73820310D01*
X58769800Y-73144090D01*
X58773885Y-73102609D01*
X58784193Y-73068631D01*
X58800934Y-73037310D01*
X58823461Y-73009861D01*
X58850910Y-72987334D01*
X58882231Y-72970593D01*
X58916209Y-72960285D01*
X58957690Y-72956200D01*
X59558910Y-72956200D01*
X59600391Y-72960285D01*
G37*
G36*
X58025391Y-72960285D02*
G01*
X58059369Y-72970593D01*
X58090690Y-72987334D01*
X58118139Y-73009861D01*
X58140666Y-73037310D01*
X58157407Y-73068631D01*
X58167715Y-73102609D01*
X58171800Y-73144090D01*
X58171800Y-73820310D01*
X58167715Y-73861791D01*
X58157407Y-73895769D01*
X58140666Y-73927090D01*
X58118139Y-73954539D01*
X58090690Y-73977066D01*
X58059369Y-73993807D01*
X58025391Y-74004115D01*
X57983910Y-74008200D01*
X57382690Y-74008200D01*
X57341209Y-74004115D01*
X57307231Y-73993807D01*
X57275910Y-73977066D01*
X57248461Y-73954539D01*
X57225934Y-73927090D01*
X57209193Y-73895769D01*
X57198885Y-73861791D01*
X57194800Y-73820310D01*
X57194800Y-73144090D01*
X57198885Y-73102609D01*
X57209193Y-73068631D01*
X57225934Y-73037310D01*
X57248461Y-73009861D01*
X57275910Y-72987334D01*
X57307231Y-72970593D01*
X57341209Y-72960285D01*
X57382690Y-72956200D01*
X57983910Y-72956200D01*
X58025391Y-72960285D01*
G37*
G36*
X56796938Y-73192116D02*
G01*
X56817557Y-73198371D01*
X56836553Y-73208524D01*
X56853208Y-73222192D01*
X56866876Y-73238847D01*
X56877029Y-73257843D01*
X56883284Y-73278462D01*
X56886000Y-73306040D01*
X56886000Y-73764760D01*
X56883284Y-73792338D01*
X56877029Y-73812957D01*
X56866876Y-73831953D01*
X56853208Y-73848608D01*
X56836553Y-73862276D01*
X56817557Y-73872429D01*
X56796938Y-73878684D01*
X56769360Y-73881400D01*
X56260640Y-73881400D01*
X56233062Y-73878684D01*
X56212443Y-73872429D01*
X56193447Y-73862276D01*
X56176792Y-73848608D01*
X56163124Y-73831953D01*
X56152971Y-73812957D01*
X56146716Y-73792338D01*
X56144000Y-73764760D01*
X56144000Y-73306040D01*
X56146716Y-73278462D01*
X56152971Y-73257843D01*
X56163124Y-73238847D01*
X56176792Y-73222192D01*
X56193447Y-73208524D01*
X56212443Y-73198371D01*
X56233062Y-73192116D01*
X56260640Y-73189400D01*
X56769360Y-73189400D01*
X56796938Y-73192116D01*
G37*
G36*
X75643738Y-73136516D02*
G01*
X75664357Y-73142771D01*
X75683353Y-73152924D01*
X75700008Y-73166592D01*
X75713676Y-73183247D01*
X75723829Y-73202243D01*
X75730084Y-73222862D01*
X75732800Y-73250440D01*
X75732800Y-73709160D01*
X75730084Y-73736738D01*
X75723829Y-73757357D01*
X75713676Y-73776353D01*
X75700008Y-73793008D01*
X75683353Y-73806676D01*
X75664357Y-73816829D01*
X75643738Y-73823084D01*
X75616160Y-73825800D01*
X75107440Y-73825800D01*
X75079862Y-73823084D01*
X75059243Y-73816829D01*
X75040247Y-73806676D01*
X75023592Y-73793008D01*
X75009924Y-73776353D01*
X74999771Y-73757357D01*
X74993516Y-73736738D01*
X74990800Y-73709160D01*
X74990800Y-73250440D01*
X74993516Y-73222862D01*
X74999771Y-73202243D01*
X75009924Y-73183247D01*
X75023592Y-73166592D01*
X75040247Y-73152924D01*
X75059243Y-73142771D01*
X75079862Y-73136516D01*
X75107440Y-73133800D01*
X75616160Y-73133800D01*
X75643738Y-73136516D01*
G37*
G36*
X81917538Y-73136516D02*
G01*
X81938157Y-73142771D01*
X81957153Y-73152924D01*
X81973808Y-73166592D01*
X81987476Y-73183247D01*
X81997629Y-73202243D01*
X82003884Y-73222862D01*
X82006600Y-73250440D01*
X82006600Y-73709160D01*
X82003884Y-73736738D01*
X81997629Y-73757357D01*
X81987476Y-73776353D01*
X81973808Y-73793008D01*
X81957153Y-73806676D01*
X81938157Y-73816829D01*
X81917538Y-73823084D01*
X81889960Y-73825800D01*
X81381240Y-73825800D01*
X81353662Y-73823084D01*
X81333043Y-73816829D01*
X81314047Y-73806676D01*
X81297392Y-73793008D01*
X81283724Y-73776353D01*
X81273571Y-73757357D01*
X81267316Y-73736738D01*
X81264600Y-73709160D01*
X81264600Y-73250440D01*
X81267316Y-73222862D01*
X81273571Y-73202243D01*
X81283724Y-73183247D01*
X81297392Y-73166592D01*
X81314047Y-73152924D01*
X81333043Y-73142771D01*
X81353662Y-73136516D01*
X81381240Y-73133800D01*
X81889960Y-73133800D01*
X81917538Y-73136516D01*
G37*
G36*
X80698338Y-73136516D02*
G01*
X80718957Y-73142771D01*
X80737953Y-73152924D01*
X80754608Y-73166592D01*
X80768276Y-73183247D01*
X80778429Y-73202243D01*
X80784684Y-73222862D01*
X80787400Y-73250440D01*
X80787400Y-73709160D01*
X80784684Y-73736738D01*
X80778429Y-73757357D01*
X80768276Y-73776353D01*
X80754608Y-73793008D01*
X80737953Y-73806676D01*
X80718957Y-73816829D01*
X80698338Y-73823084D01*
X80670760Y-73825800D01*
X80162040Y-73825800D01*
X80134462Y-73823084D01*
X80113843Y-73816829D01*
X80094847Y-73806676D01*
X80078192Y-73793008D01*
X80064524Y-73776353D01*
X80054371Y-73757357D01*
X80048116Y-73736738D01*
X80045400Y-73709160D01*
X80045400Y-73250440D01*
X80048116Y-73222862D01*
X80054371Y-73202243D01*
X80064524Y-73183247D01*
X80078192Y-73166592D01*
X80094847Y-73152924D01*
X80113843Y-73142771D01*
X80134462Y-73136516D01*
X80162040Y-73133800D01*
X80670760Y-73133800D01*
X80698338Y-73136516D01*
G37*
G36*
X79132991Y-72731685D02*
G01*
X79166969Y-72741993D01*
X79198290Y-72758734D01*
X79225739Y-72781261D01*
X79248266Y-72808710D01*
X79265007Y-72840031D01*
X79275315Y-72874009D01*
X79279400Y-72915490D01*
X79279400Y-73591710D01*
X79275315Y-73633191D01*
X79265007Y-73667169D01*
X79248266Y-73698490D01*
X79225739Y-73725939D01*
X79198290Y-73748466D01*
X79166969Y-73765207D01*
X79132991Y-73775515D01*
X79091510Y-73779600D01*
X78490290Y-73779600D01*
X78448809Y-73775515D01*
X78414831Y-73765207D01*
X78383510Y-73748466D01*
X78356061Y-73725939D01*
X78333534Y-73698490D01*
X78316793Y-73667169D01*
X78306485Y-73633191D01*
X78302400Y-73591710D01*
X78302400Y-72915490D01*
X78306485Y-72874009D01*
X78316793Y-72840031D01*
X78333534Y-72808710D01*
X78356061Y-72781261D01*
X78383510Y-72758734D01*
X78414831Y-72741993D01*
X78448809Y-72731685D01*
X78490290Y-72727600D01*
X79091510Y-72727600D01*
X79132991Y-72731685D01*
G37*
G36*
X77557991Y-72731685D02*
G01*
X77591969Y-72741993D01*
X77623290Y-72758734D01*
X77650739Y-72781261D01*
X77673266Y-72808710D01*
X77690007Y-72840031D01*
X77700315Y-72874009D01*
X77704400Y-72915490D01*
X77704400Y-73591710D01*
X77700315Y-73633191D01*
X77690007Y-73667169D01*
X77673266Y-73698490D01*
X77650739Y-73725939D01*
X77623290Y-73748466D01*
X77591969Y-73765207D01*
X77557991Y-73775515D01*
X77516510Y-73779600D01*
X76915290Y-73779600D01*
X76873809Y-73775515D01*
X76839831Y-73765207D01*
X76808510Y-73748466D01*
X76781061Y-73725939D01*
X76758534Y-73698490D01*
X76741793Y-73667169D01*
X76731485Y-73633191D01*
X76727400Y-73591710D01*
X76727400Y-72915490D01*
X76731485Y-72874009D01*
X76741793Y-72840031D01*
X76758534Y-72808710D01*
X76781061Y-72781261D01*
X76808510Y-72758734D01*
X76839831Y-72741993D01*
X76873809Y-72731685D01*
X76915290Y-72727600D01*
X77516510Y-72727600D01*
X77557991Y-72731685D01*
G37*
G36*
X71042391Y-72769085D02*
G01*
X71076369Y-72779393D01*
X71107690Y-72796134D01*
X71135139Y-72818661D01*
X71157666Y-72846110D01*
X71174407Y-72877431D01*
X71184715Y-72911409D01*
X71188800Y-72952890D01*
X71188800Y-73554110D01*
X71184715Y-73595591D01*
X71174407Y-73629569D01*
X71157666Y-73660890D01*
X71135139Y-73688339D01*
X71107690Y-73710866D01*
X71076369Y-73727607D01*
X71042391Y-73737915D01*
X71000910Y-73742000D01*
X70324690Y-73742000D01*
X70283209Y-73737915D01*
X70249231Y-73727607D01*
X70217910Y-73710866D01*
X70190461Y-73688339D01*
X70167934Y-73660890D01*
X70151193Y-73629569D01*
X70140885Y-73595591D01*
X70136800Y-73554110D01*
X70136800Y-72952890D01*
X70140885Y-72911409D01*
X70151193Y-72877431D01*
X70167934Y-72846110D01*
X70190461Y-72818661D01*
X70217910Y-72796134D01*
X70249231Y-72779393D01*
X70283209Y-72769085D01*
X70324690Y-72765000D01*
X71000910Y-72765000D01*
X71042391Y-72769085D01*
G37*
G36*
X72974738Y-72885316D02*
G01*
X72995357Y-72891571D01*
X73014353Y-72901724D01*
X73031008Y-72915392D01*
X73044676Y-72932047D01*
X73054829Y-72951043D01*
X73061084Y-72971662D01*
X73063800Y-72999240D01*
X73063800Y-73507960D01*
X73061084Y-73535538D01*
X73054829Y-73556157D01*
X73044676Y-73575153D01*
X73031008Y-73591808D01*
X73014353Y-73605476D01*
X72995357Y-73615629D01*
X72974738Y-73621884D01*
X72947160Y-73624600D01*
X72488440Y-73624600D01*
X72460862Y-73621884D01*
X72440243Y-73615629D01*
X72421247Y-73605476D01*
X72404592Y-73591808D01*
X72390924Y-73575153D01*
X72380771Y-73556157D01*
X72374516Y-73535538D01*
X72371800Y-73507960D01*
X72371800Y-72999240D01*
X72374516Y-72971662D01*
X72380771Y-72951043D01*
X72390924Y-72932047D01*
X72404592Y-72915392D01*
X72421247Y-72901724D01*
X72440243Y-72891571D01*
X72460862Y-72885316D01*
X72488440Y-72882600D01*
X72947160Y-72882600D01*
X72974738Y-72885316D01*
G37*
G36*
X73944738Y-72885316D02*
G01*
X73965357Y-72891571D01*
X73984353Y-72901724D01*
X74001008Y-72915392D01*
X74014676Y-72932047D01*
X74024829Y-72951043D01*
X74031084Y-72971662D01*
X74033800Y-72999240D01*
X74033800Y-73507960D01*
X74031084Y-73535538D01*
X74024829Y-73556157D01*
X74014676Y-73575153D01*
X74001008Y-73591808D01*
X73984353Y-73605476D01*
X73965357Y-73615629D01*
X73944738Y-73621884D01*
X73917160Y-73624600D01*
X73458440Y-73624600D01*
X73430862Y-73621884D01*
X73410243Y-73615629D01*
X73391247Y-73605476D01*
X73374592Y-73591808D01*
X73360924Y-73575153D01*
X73350771Y-73556157D01*
X73344516Y-73535538D01*
X73341800Y-73507960D01*
X73341800Y-72999240D01*
X73344516Y-72971662D01*
X73350771Y-72951043D01*
X73360924Y-72932047D01*
X73374592Y-72915392D01*
X73391247Y-72901724D01*
X73410243Y-72891571D01*
X73430862Y-72885316D01*
X73458440Y-72882600D01*
X73917160Y-72882600D01*
X73944738Y-72885316D01*
G37*
G36*
X55561791Y-72452285D02*
G01*
X55595769Y-72462593D01*
X55627090Y-72479334D01*
X55654539Y-72501861D01*
X55677066Y-72529310D01*
X55693807Y-72560631D01*
X55704115Y-72594609D01*
X55708200Y-72636090D01*
X55708200Y-73312310D01*
X55704115Y-73353791D01*
X55693807Y-73387769D01*
X55677066Y-73419090D01*
X55654539Y-73446539D01*
X55627090Y-73469066D01*
X55595769Y-73485807D01*
X55561791Y-73496115D01*
X55520310Y-73500200D01*
X54919090Y-73500200D01*
X54877609Y-73496115D01*
X54843631Y-73485807D01*
X54812310Y-73469066D01*
X54784861Y-73446539D01*
X54762334Y-73419090D01*
X54745593Y-73387769D01*
X54735285Y-73353791D01*
X54731200Y-73312310D01*
X54731200Y-72636090D01*
X54735285Y-72594609D01*
X54745593Y-72560631D01*
X54762334Y-72529310D01*
X54784861Y-72501861D01*
X54812310Y-72479334D01*
X54843631Y-72462593D01*
X54877609Y-72452285D01*
X54919090Y-72448200D01*
X55520310Y-72448200D01*
X55561791Y-72452285D01*
G37*
G36*
X53986791Y-72452285D02*
G01*
X54020769Y-72462593D01*
X54052090Y-72479334D01*
X54079539Y-72501861D01*
X54102066Y-72529310D01*
X54118807Y-72560631D01*
X54129115Y-72594609D01*
X54133200Y-72636090D01*
X54133200Y-73312310D01*
X54129115Y-73353791D01*
X54118807Y-73387769D01*
X54102066Y-73419090D01*
X54079539Y-73446539D01*
X54052090Y-73469066D01*
X54020769Y-73485807D01*
X53986791Y-73496115D01*
X53945310Y-73500200D01*
X53344090Y-73500200D01*
X53302609Y-73496115D01*
X53268631Y-73485807D01*
X53237310Y-73469066D01*
X53209861Y-73446539D01*
X53187334Y-73419090D01*
X53170593Y-73387769D01*
X53160285Y-73353791D01*
X53156200Y-73312310D01*
X53156200Y-72636090D01*
X53160285Y-72594609D01*
X53170593Y-72560631D01*
X53187334Y-72529310D01*
X53209861Y-72501861D01*
X53237310Y-72479334D01*
X53268631Y-72462593D01*
X53302609Y-72452285D01*
X53344090Y-72448200D01*
X53945310Y-72448200D01*
X53986791Y-72452285D01*
G37*
G36*
X69344538Y-72480916D02*
G01*
X69365157Y-72487171D01*
X69384153Y-72497324D01*
X69400808Y-72510992D01*
X69414476Y-72527647D01*
X69424629Y-72546643D01*
X69430884Y-72567262D01*
X69433600Y-72594840D01*
X69433600Y-73053560D01*
X69430884Y-73081138D01*
X69424629Y-73101757D01*
X69414476Y-73120753D01*
X69400808Y-73137408D01*
X69384153Y-73151076D01*
X69365157Y-73161229D01*
X69344538Y-73167484D01*
X69316960Y-73170200D01*
X68808240Y-73170200D01*
X68780662Y-73167484D01*
X68760043Y-73161229D01*
X68741047Y-73151076D01*
X68724392Y-73137408D01*
X68710724Y-73120753D01*
X68700571Y-73101757D01*
X68694316Y-73081138D01*
X68691600Y-73053560D01*
X68691600Y-72594840D01*
X68694316Y-72567262D01*
X68700571Y-72546643D01*
X68710724Y-72527647D01*
X68724392Y-72510992D01*
X68741047Y-72497324D01*
X68760043Y-72487171D01*
X68780662Y-72480916D01*
X68808240Y-72478200D01*
X69316960Y-72478200D01*
X69344538Y-72480916D01*
G37*
G36*
X43105800Y-73032400D02*
G01*
X40303800Y-73032400D01*
X40303800Y-71830400D01*
X43105800Y-71830400D01*
X43105800Y-73032400D01*
G37*
G36*
X56796938Y-72222116D02*
G01*
X56817557Y-72228371D01*
X56836553Y-72238524D01*
X56853208Y-72252192D01*
X56866876Y-72268847D01*
X56877029Y-72287843D01*
X56883284Y-72308462D01*
X56886000Y-72336040D01*
X56886000Y-72794760D01*
X56883284Y-72822338D01*
X56877029Y-72842957D01*
X56866876Y-72861953D01*
X56853208Y-72878608D01*
X56836553Y-72892276D01*
X56817557Y-72902429D01*
X56796938Y-72908684D01*
X56769360Y-72911400D01*
X56260640Y-72911400D01*
X56233062Y-72908684D01*
X56212443Y-72902429D01*
X56193447Y-72892276D01*
X56176792Y-72878608D01*
X56163124Y-72861953D01*
X56152971Y-72842957D01*
X56146716Y-72822338D01*
X56144000Y-72794760D01*
X56144000Y-72336040D01*
X56146716Y-72308462D01*
X56152971Y-72287843D01*
X56163124Y-72268847D01*
X56176792Y-72252192D01*
X56193447Y-72238524D01*
X56212443Y-72228371D01*
X56233062Y-72222116D01*
X56260640Y-72219400D01*
X56769360Y-72219400D01*
X56796938Y-72222116D01*
G37*
G36*
X69344538Y-71510916D02*
G01*
X69365157Y-71517171D01*
X69384153Y-71527324D01*
X69400808Y-71540992D01*
X69414476Y-71557647D01*
X69424629Y-71576643D01*
X69430884Y-71597262D01*
X69433600Y-71624840D01*
X69433600Y-72083560D01*
X69430884Y-72111138D01*
X69424629Y-72131757D01*
X69414476Y-72150753D01*
X69400808Y-72167408D01*
X69384153Y-72181076D01*
X69365157Y-72191229D01*
X69344538Y-72197484D01*
X69316960Y-72200200D01*
X68808240Y-72200200D01*
X68780662Y-72197484D01*
X68760043Y-72191229D01*
X68741047Y-72181076D01*
X68724392Y-72167408D01*
X68710724Y-72150753D01*
X68700571Y-72131757D01*
X68694316Y-72111138D01*
X68691600Y-72083560D01*
X68691600Y-71624840D01*
X68694316Y-71597262D01*
X68700571Y-71576643D01*
X68710724Y-71557647D01*
X68724392Y-71540992D01*
X68741047Y-71527324D01*
X68760043Y-71517171D01*
X68780662Y-71510916D01*
X68808240Y-71508200D01*
X69316960Y-71508200D01*
X69344538Y-71510916D01*
G37*
G36*
X39173859Y-70409260D02*
G01*
X39291528Y-70458000D01*
X39310532Y-70465872D01*
X39433535Y-70548060D01*
X39538140Y-70652665D01*
X39620328Y-70775668D01*
X39620329Y-70775670D01*
X39676940Y-70912341D01*
X39705800Y-71057432D01*
X39705800Y-71205368D01*
X39676940Y-71350459D01*
X39621949Y-71483220D01*
X39620328Y-71487132D01*
X39538140Y-71610135D01*
X39433535Y-71714740D01*
X39310532Y-71796928D01*
X39310531Y-71796929D01*
X39310530Y-71796929D01*
X39173859Y-71853540D01*
X39028768Y-71882400D01*
X38880832Y-71882400D01*
X38735741Y-71853540D01*
X38599070Y-71796929D01*
X38599069Y-71796929D01*
X38599068Y-71796928D01*
X38476065Y-71714740D01*
X38371460Y-71610135D01*
X38289272Y-71487132D01*
X38287652Y-71483220D01*
X38232660Y-71350459D01*
X38203800Y-71205368D01*
X38203800Y-71057432D01*
X38232660Y-70912341D01*
X38289271Y-70775670D01*
X38289272Y-70775668D01*
X38371460Y-70652665D01*
X38476065Y-70548060D01*
X38599068Y-70465872D01*
X38618073Y-70458000D01*
X38735741Y-70409260D01*
X38880832Y-70380400D01*
X39028768Y-70380400D01*
X39173859Y-70409260D01*
G37*
G36*
X56796938Y-71185516D02*
G01*
X56817557Y-71191771D01*
X56836553Y-71201924D01*
X56853208Y-71215592D01*
X56866876Y-71232247D01*
X56877029Y-71251243D01*
X56883284Y-71271862D01*
X56886000Y-71299440D01*
X56886000Y-71758160D01*
X56883284Y-71785738D01*
X56877029Y-71806357D01*
X56866876Y-71825353D01*
X56853208Y-71842008D01*
X56836553Y-71855676D01*
X56817557Y-71865829D01*
X56796938Y-71872084D01*
X56769360Y-71874800D01*
X56260640Y-71874800D01*
X56233062Y-71872084D01*
X56212443Y-71865829D01*
X56193447Y-71855676D01*
X56176792Y-71842008D01*
X56163124Y-71825353D01*
X56152971Y-71806357D01*
X56146716Y-71785738D01*
X56144000Y-71758160D01*
X56144000Y-71299440D01*
X56146716Y-71271862D01*
X56152971Y-71251243D01*
X56163124Y-71232247D01*
X56176792Y-71215592D01*
X56193447Y-71201924D01*
X56212443Y-71191771D01*
X56233062Y-71185516D01*
X56260640Y-71182800D01*
X56769360Y-71182800D01*
X56796938Y-71185516D01*
G37*
G36*
X59485391Y-70661085D02*
G01*
X59519369Y-70671393D01*
X59550690Y-70688134D01*
X59578139Y-70710661D01*
X59600666Y-70738110D01*
X59617407Y-70769431D01*
X59627715Y-70803409D01*
X59631800Y-70844890D01*
X59631800Y-71446110D01*
X59627715Y-71487591D01*
X59617407Y-71521569D01*
X59600666Y-71552890D01*
X59578139Y-71580339D01*
X59550690Y-71602866D01*
X59519369Y-71619607D01*
X59485391Y-71629915D01*
X59443910Y-71634000D01*
X58767690Y-71634000D01*
X58726209Y-71629915D01*
X58692231Y-71619607D01*
X58660910Y-71602866D01*
X58633461Y-71580339D01*
X58610934Y-71552890D01*
X58594193Y-71521569D01*
X58583885Y-71487591D01*
X58579800Y-71446110D01*
X58579800Y-70844890D01*
X58583885Y-70803409D01*
X58594193Y-70769431D01*
X58610934Y-70738110D01*
X58633461Y-70710661D01*
X58660910Y-70688134D01*
X58692231Y-70671393D01*
X58726209Y-70661085D01*
X58767690Y-70657000D01*
X59443910Y-70657000D01*
X59485391Y-70661085D01*
G37*
G36*
X55561791Y-70572685D02*
G01*
X55595769Y-70582993D01*
X55627090Y-70599734D01*
X55654539Y-70622261D01*
X55677066Y-70649710D01*
X55693807Y-70681031D01*
X55704115Y-70715009D01*
X55708200Y-70756490D01*
X55708200Y-71432710D01*
X55704115Y-71474191D01*
X55693807Y-71508169D01*
X55677066Y-71539490D01*
X55654539Y-71566939D01*
X55627090Y-71589466D01*
X55595769Y-71606207D01*
X55561791Y-71616515D01*
X55520310Y-71620600D01*
X54919090Y-71620600D01*
X54877609Y-71616515D01*
X54843631Y-71606207D01*
X54812310Y-71589466D01*
X54784861Y-71566939D01*
X54762334Y-71539490D01*
X54745593Y-71508169D01*
X54735285Y-71474191D01*
X54731200Y-71432710D01*
X54731200Y-70756490D01*
X54735285Y-70715009D01*
X54745593Y-70681031D01*
X54762334Y-70649710D01*
X54784861Y-70622261D01*
X54812310Y-70599734D01*
X54843631Y-70582993D01*
X54877609Y-70572685D01*
X54919090Y-70568600D01*
X55520310Y-70568600D01*
X55561791Y-70572685D01*
G37*
G36*
X53986791Y-70572685D02*
G01*
X54020769Y-70582993D01*
X54052090Y-70599734D01*
X54079539Y-70622261D01*
X54102066Y-70649710D01*
X54118807Y-70681031D01*
X54129115Y-70715009D01*
X54133200Y-70756490D01*
X54133200Y-71432710D01*
X54129115Y-71474191D01*
X54118807Y-71508169D01*
X54102066Y-71539490D01*
X54079539Y-71566939D01*
X54052090Y-71589466D01*
X54020769Y-71606207D01*
X53986791Y-71616515D01*
X53945310Y-71620600D01*
X53344090Y-71620600D01*
X53302609Y-71616515D01*
X53268631Y-71606207D01*
X53237310Y-71589466D01*
X53209861Y-71566939D01*
X53187334Y-71539490D01*
X53170593Y-71508169D01*
X53160285Y-71474191D01*
X53156200Y-71432710D01*
X53156200Y-70756490D01*
X53160285Y-70715009D01*
X53170593Y-70681031D01*
X53187334Y-70649710D01*
X53209861Y-70622261D01*
X53237310Y-70599734D01*
X53268631Y-70582993D01*
X53302609Y-70572685D01*
X53344090Y-70568600D01*
X53945310Y-70568600D01*
X53986791Y-70572685D01*
G37*
G36*
X88968200Y-71307000D02*
G01*
X84666200Y-71307000D01*
X84666200Y-69855000D01*
X88968200Y-69855000D01*
X88968200Y-71307000D01*
G37*
G36*
X56796938Y-70215516D02*
G01*
X56817557Y-70221771D01*
X56836553Y-70231924D01*
X56853208Y-70245592D01*
X56866876Y-70262247D01*
X56877029Y-70281243D01*
X56883284Y-70301862D01*
X56886000Y-70329440D01*
X56886000Y-70788160D01*
X56883284Y-70815738D01*
X56877029Y-70836357D01*
X56866876Y-70855353D01*
X56853208Y-70872008D01*
X56836553Y-70885676D01*
X56817557Y-70895829D01*
X56796938Y-70902084D01*
X56769360Y-70904800D01*
X56260640Y-70904800D01*
X56233062Y-70902084D01*
X56212443Y-70895829D01*
X56193447Y-70885676D01*
X56176792Y-70872008D01*
X56163124Y-70855353D01*
X56152971Y-70836357D01*
X56146716Y-70815738D01*
X56144000Y-70788160D01*
X56144000Y-70329440D01*
X56146716Y-70301862D01*
X56152971Y-70281243D01*
X56163124Y-70262247D01*
X56176792Y-70245592D01*
X56193447Y-70231924D01*
X56212443Y-70221771D01*
X56233062Y-70215516D01*
X56260640Y-70212800D01*
X56769360Y-70212800D01*
X56796938Y-70215516D01*
G37*
G36*
X43105800Y-70532400D02*
G01*
X40303800Y-70532400D01*
X40303800Y-69330400D01*
X43105800Y-69330400D01*
X43105800Y-70532400D01*
G37*
G36*
X59485391Y-69086085D02*
G01*
X59519369Y-69096393D01*
X59550690Y-69113134D01*
X59578139Y-69135661D01*
X59600666Y-69163110D01*
X59617407Y-69194431D01*
X59627715Y-69228409D01*
X59631800Y-69269890D01*
X59631800Y-69871110D01*
X59627715Y-69912591D01*
X59617407Y-69946569D01*
X59600666Y-69977890D01*
X59578139Y-70005339D01*
X59550690Y-70027866D01*
X59519369Y-70044607D01*
X59485391Y-70054915D01*
X59443910Y-70059000D01*
X58767690Y-70059000D01*
X58726209Y-70054915D01*
X58692231Y-70044607D01*
X58660910Y-70027866D01*
X58633461Y-70005339D01*
X58610934Y-69977890D01*
X58594193Y-69946569D01*
X58583885Y-69912591D01*
X58579800Y-69871110D01*
X58579800Y-69269890D01*
X58583885Y-69228409D01*
X58594193Y-69194431D01*
X58610934Y-69163110D01*
X58633461Y-69135661D01*
X58660910Y-69113134D01*
X58692231Y-69096393D01*
X58726209Y-69086085D01*
X58767690Y-69082000D01*
X59443910Y-69082000D01*
X59485391Y-69086085D01*
G37*
G36*
X56796938Y-69229716D02*
G01*
X56817557Y-69235971D01*
X56836553Y-69246124D01*
X56853208Y-69259792D01*
X56866876Y-69276447D01*
X56877029Y-69295443D01*
X56883284Y-69316062D01*
X56886000Y-69343640D01*
X56886000Y-69802360D01*
X56883284Y-69829938D01*
X56877029Y-69850557D01*
X56866876Y-69869553D01*
X56853208Y-69886208D01*
X56836553Y-69899876D01*
X56817557Y-69910029D01*
X56796938Y-69916284D01*
X56769360Y-69919000D01*
X56260640Y-69919000D01*
X56233062Y-69916284D01*
X56212443Y-69910029D01*
X56193447Y-69899876D01*
X56176792Y-69886208D01*
X56163124Y-69869553D01*
X56152971Y-69850557D01*
X56146716Y-69829938D01*
X56144000Y-69802360D01*
X56144000Y-69343640D01*
X56146716Y-69316062D01*
X56152971Y-69295443D01*
X56163124Y-69276447D01*
X56176792Y-69259792D01*
X56193447Y-69246124D01*
X56212443Y-69235971D01*
X56233062Y-69229716D01*
X56260640Y-69227000D01*
X56769360Y-69227000D01*
X56796938Y-69229716D01*
G37*
G36*
X55561791Y-68743885D02*
G01*
X55595769Y-68754193D01*
X55627090Y-68770934D01*
X55654539Y-68793461D01*
X55677066Y-68820910D01*
X55693807Y-68852231D01*
X55704115Y-68886209D01*
X55708200Y-68927690D01*
X55708200Y-69603910D01*
X55704115Y-69645391D01*
X55693807Y-69679369D01*
X55677066Y-69710690D01*
X55654539Y-69738139D01*
X55627090Y-69760666D01*
X55595769Y-69777407D01*
X55561791Y-69787715D01*
X55520310Y-69791800D01*
X54919090Y-69791800D01*
X54877609Y-69787715D01*
X54843631Y-69777407D01*
X54812310Y-69760666D01*
X54784861Y-69738139D01*
X54762334Y-69710690D01*
X54745593Y-69679369D01*
X54735285Y-69645391D01*
X54731200Y-69603910D01*
X54731200Y-68927690D01*
X54735285Y-68886209D01*
X54745593Y-68852231D01*
X54762334Y-68820910D01*
X54784861Y-68793461D01*
X54812310Y-68770934D01*
X54843631Y-68754193D01*
X54877609Y-68743885D01*
X54919090Y-68739800D01*
X55520310Y-68739800D01*
X55561791Y-68743885D01*
G37*
G36*
X53986791Y-68743885D02*
G01*
X54020769Y-68754193D01*
X54052090Y-68770934D01*
X54079539Y-68793461D01*
X54102066Y-68820910D01*
X54118807Y-68852231D01*
X54129115Y-68886209D01*
X54133200Y-68927690D01*
X54133200Y-69603910D01*
X54129115Y-69645391D01*
X54118807Y-69679369D01*
X54102066Y-69710690D01*
X54079539Y-69738139D01*
X54052090Y-69760666D01*
X54020769Y-69777407D01*
X53986791Y-69787715D01*
X53945310Y-69791800D01*
X53344090Y-69791800D01*
X53302609Y-69787715D01*
X53268631Y-69777407D01*
X53237310Y-69760666D01*
X53209861Y-69738139D01*
X53187334Y-69710690D01*
X53170593Y-69679369D01*
X53160285Y-69645391D01*
X53156200Y-69603910D01*
X53156200Y-68927690D01*
X53160285Y-68886209D01*
X53170593Y-68852231D01*
X53187334Y-68820910D01*
X53209861Y-68793461D01*
X53237310Y-68770934D01*
X53268631Y-68754193D01*
X53302609Y-68743885D01*
X53344090Y-68739800D01*
X53945310Y-68739800D01*
X53986791Y-68743885D01*
G37*
G36*
X50495738Y-66738516D02*
G01*
X50516357Y-66744771D01*
X50535353Y-66754924D01*
X50552008Y-66768592D01*
X50565676Y-66785247D01*
X50575829Y-66804243D01*
X50582084Y-66824862D01*
X50584800Y-66852440D01*
X50584800Y-67361160D01*
X50582084Y-67388738D01*
X50575829Y-67409357D01*
X50565676Y-67428353D01*
X50552008Y-67445008D01*
X50535353Y-67458676D01*
X50516357Y-67468829D01*
X50495738Y-67475084D01*
X50469145Y-67477703D01*
X50445112Y-67482483D01*
X50422473Y-67491861D01*
X50402099Y-67505474D01*
X50384772Y-67522801D01*
X50371158Y-67543176D01*
X50361781Y-67565814D01*
X50357000Y-67589848D01*
X50357000Y-67614352D01*
X50361780Y-67638385D01*
X50371158Y-67661024D01*
X50384771Y-67681398D01*
X50402098Y-67698725D01*
X50422473Y-67712339D01*
X50445111Y-67721716D01*
X50469145Y-67726497D01*
X50495738Y-67729116D01*
X50516357Y-67735371D01*
X50535353Y-67745524D01*
X50552008Y-67759192D01*
X50565676Y-67775847D01*
X50575829Y-67794843D01*
X50582084Y-67815462D01*
X50584800Y-67843040D01*
X50584800Y-68351760D01*
X50582084Y-68379338D01*
X50575829Y-68399957D01*
X50565676Y-68418953D01*
X50552008Y-68435608D01*
X50535353Y-68449276D01*
X50516357Y-68459429D01*
X50495738Y-68465684D01*
X50470345Y-68468185D01*
X50446311Y-68472966D01*
X50423673Y-68482343D01*
X50403298Y-68495957D01*
X50385971Y-68513284D01*
X50372358Y-68533658D01*
X50362980Y-68556297D01*
X50358200Y-68580330D01*
X50358200Y-68604834D01*
X50362981Y-68628868D01*
X50372358Y-68651506D01*
X50385972Y-68671881D01*
X50403299Y-68689208D01*
X50423673Y-68702821D01*
X50446312Y-68712199D01*
X50470346Y-68716979D01*
X50498138Y-68719716D01*
X50518757Y-68725971D01*
X50537753Y-68736124D01*
X50554408Y-68749792D01*
X50568076Y-68766447D01*
X50578229Y-68785443D01*
X50584484Y-68806062D01*
X50587200Y-68833640D01*
X50587200Y-69342360D01*
X50584484Y-69369938D01*
X50578229Y-69390557D01*
X50568076Y-69409553D01*
X50554408Y-69426208D01*
X50537753Y-69439876D01*
X50518757Y-69450029D01*
X50498138Y-69456284D01*
X50470560Y-69459000D01*
X50011840Y-69459000D01*
X49984262Y-69456284D01*
X49963643Y-69450029D01*
X49944647Y-69439876D01*
X49927992Y-69426208D01*
X49914324Y-69409553D01*
X49904171Y-69390557D01*
X49897916Y-69369938D01*
X49895200Y-69342360D01*
X49895200Y-68833640D01*
X49897916Y-68806062D01*
X49904171Y-68785443D01*
X49914324Y-68766447D01*
X49927992Y-68749792D01*
X49944647Y-68736124D01*
X49963643Y-68725971D01*
X49984262Y-68719716D01*
X50009655Y-68717215D01*
X50033689Y-68712434D01*
X50056327Y-68703057D01*
X50076702Y-68689443D01*
X50094029Y-68672116D01*
X50107642Y-68651742D01*
X50117020Y-68629103D01*
X50121800Y-68605070D01*
X50121800Y-68580566D01*
X50117019Y-68556532D01*
X50107642Y-68533894D01*
X50094028Y-68513519D01*
X50076701Y-68496192D01*
X50056327Y-68482579D01*
X50033688Y-68473201D01*
X50009654Y-68468421D01*
X49981862Y-68465684D01*
X49961243Y-68459429D01*
X49942247Y-68449276D01*
X49925592Y-68435608D01*
X49911924Y-68418953D01*
X49901771Y-68399957D01*
X49895516Y-68379338D01*
X49892800Y-68351760D01*
X49892800Y-67843040D01*
X49895516Y-67815462D01*
X49901771Y-67794843D01*
X49911924Y-67775847D01*
X49925592Y-67759192D01*
X49942247Y-67745524D01*
X49961243Y-67735371D01*
X49981862Y-67729116D01*
X50008455Y-67726497D01*
X50032488Y-67721717D01*
X50055127Y-67712339D01*
X50075501Y-67698726D01*
X50092828Y-67681399D01*
X50106442Y-67661024D01*
X50115819Y-67638386D01*
X50120600Y-67614352D01*
X50120600Y-67589848D01*
X50115820Y-67565815D01*
X50106442Y-67543176D01*
X50092829Y-67522802D01*
X50075502Y-67505475D01*
X50055127Y-67491861D01*
X50032489Y-67482484D01*
X50008455Y-67477703D01*
X49981862Y-67475084D01*
X49961243Y-67468829D01*
X49942247Y-67458676D01*
X49925592Y-67445008D01*
X49911924Y-67428353D01*
X49901771Y-67409357D01*
X49895516Y-67388738D01*
X49892800Y-67361160D01*
X49892800Y-66852440D01*
X49895516Y-66824862D01*
X49901771Y-66804243D01*
X49911924Y-66785247D01*
X49925592Y-66768592D01*
X49942247Y-66754924D01*
X49961243Y-66744771D01*
X49981862Y-66738516D01*
X50009440Y-66735800D01*
X50468160Y-66735800D01*
X50495738Y-66738516D01*
G37*
G36*
X51465738Y-66738516D02*
G01*
X51486357Y-66744771D01*
X51505353Y-66754924D01*
X51522008Y-66768592D01*
X51535676Y-66785247D01*
X51545829Y-66804243D01*
X51552084Y-66824862D01*
X51554800Y-66852440D01*
X51554800Y-67361160D01*
X51552084Y-67388738D01*
X51545829Y-67409357D01*
X51535676Y-67428353D01*
X51522008Y-67445008D01*
X51505353Y-67458676D01*
X51486357Y-67468829D01*
X51465738Y-67475084D01*
X51439145Y-67477703D01*
X51415112Y-67482483D01*
X51392473Y-67491861D01*
X51372099Y-67505474D01*
X51354772Y-67522801D01*
X51341158Y-67543176D01*
X51331781Y-67565814D01*
X51327000Y-67589848D01*
X51327000Y-67614352D01*
X51331780Y-67638385D01*
X51341158Y-67661024D01*
X51354771Y-67681398D01*
X51372098Y-67698725D01*
X51392473Y-67712339D01*
X51415111Y-67721716D01*
X51439145Y-67726497D01*
X51465738Y-67729116D01*
X51486357Y-67735371D01*
X51505353Y-67745524D01*
X51522008Y-67759192D01*
X51535676Y-67775847D01*
X51545829Y-67794843D01*
X51552084Y-67815462D01*
X51554800Y-67843040D01*
X51554800Y-68351760D01*
X51552084Y-68379338D01*
X51545829Y-68399957D01*
X51535676Y-68418953D01*
X51522008Y-68435608D01*
X51505353Y-68449276D01*
X51486357Y-68459429D01*
X51465738Y-68465684D01*
X51440345Y-68468185D01*
X51416311Y-68472966D01*
X51393673Y-68482343D01*
X51373298Y-68495957D01*
X51355971Y-68513284D01*
X51342358Y-68533658D01*
X51332980Y-68556297D01*
X51328200Y-68580330D01*
X51328200Y-68604834D01*
X51332981Y-68628868D01*
X51342358Y-68651506D01*
X51355972Y-68671881D01*
X51373299Y-68689208D01*
X51393673Y-68702821D01*
X51416312Y-68712199D01*
X51440346Y-68716979D01*
X51468138Y-68719716D01*
X51488757Y-68725971D01*
X51507753Y-68736124D01*
X51524408Y-68749792D01*
X51538076Y-68766447D01*
X51548229Y-68785443D01*
X51554484Y-68806062D01*
X51557200Y-68833640D01*
X51557200Y-69342360D01*
X51554484Y-69369938D01*
X51548229Y-69390557D01*
X51538076Y-69409553D01*
X51524408Y-69426208D01*
X51507753Y-69439876D01*
X51488757Y-69450029D01*
X51468138Y-69456284D01*
X51440560Y-69459000D01*
X50981840Y-69459000D01*
X50954262Y-69456284D01*
X50933643Y-69450029D01*
X50914647Y-69439876D01*
X50897992Y-69426208D01*
X50884324Y-69409553D01*
X50874171Y-69390557D01*
X50867916Y-69369938D01*
X50865200Y-69342360D01*
X50865200Y-68833640D01*
X50867916Y-68806062D01*
X50874171Y-68785443D01*
X50884324Y-68766447D01*
X50897992Y-68749792D01*
X50914647Y-68736124D01*
X50933643Y-68725971D01*
X50954262Y-68719716D01*
X50979655Y-68717215D01*
X51003689Y-68712434D01*
X51026327Y-68703057D01*
X51046702Y-68689443D01*
X51064029Y-68672116D01*
X51077642Y-68651742D01*
X51087020Y-68629103D01*
X51091800Y-68605070D01*
X51091800Y-68580566D01*
X51087019Y-68556532D01*
X51077642Y-68533894D01*
X51064028Y-68513519D01*
X51046701Y-68496192D01*
X51026327Y-68482579D01*
X51003688Y-68473201D01*
X50979654Y-68468421D01*
X50951862Y-68465684D01*
X50931243Y-68459429D01*
X50912247Y-68449276D01*
X50895592Y-68435608D01*
X50881924Y-68418953D01*
X50871771Y-68399957D01*
X50865516Y-68379338D01*
X50862800Y-68351760D01*
X50862800Y-67843040D01*
X50865516Y-67815462D01*
X50871771Y-67794843D01*
X50881924Y-67775847D01*
X50895592Y-67759192D01*
X50912247Y-67745524D01*
X50931243Y-67735371D01*
X50951862Y-67729116D01*
X50978455Y-67726497D01*
X51002488Y-67721717D01*
X51025127Y-67712339D01*
X51045501Y-67698726D01*
X51062828Y-67681399D01*
X51076442Y-67661024D01*
X51085819Y-67638386D01*
X51090600Y-67614352D01*
X51090600Y-67589848D01*
X51085820Y-67565815D01*
X51076442Y-67543176D01*
X51062829Y-67522802D01*
X51045502Y-67505475D01*
X51025127Y-67491861D01*
X51002489Y-67482484D01*
X50978455Y-67477703D01*
X50951862Y-67475084D01*
X50931243Y-67468829D01*
X50912247Y-67458676D01*
X50895592Y-67445008D01*
X50881924Y-67428353D01*
X50871771Y-67409357D01*
X50865516Y-67388738D01*
X50862800Y-67361160D01*
X50862800Y-66852440D01*
X50865516Y-66824862D01*
X50871771Y-66804243D01*
X50881924Y-66785247D01*
X50895592Y-66768592D01*
X50912247Y-66754924D01*
X50931243Y-66744771D01*
X50951862Y-66738516D01*
X50979440Y-66735800D01*
X51438160Y-66735800D01*
X51465738Y-66738516D01*
G37*
G36*
X67846800Y-69121400D02*
G01*
X66544800Y-69121400D01*
X66544800Y-66819400D01*
X67846800Y-66819400D01*
X67846800Y-69121400D01*
G37*
G36*
X69446800Y-69121400D02*
G01*
X68144800Y-69121400D01*
X68144800Y-66819400D01*
X69446800Y-66819400D01*
X69446800Y-69121400D01*
G37*
G36*
X56796938Y-67375516D02*
G01*
X56817557Y-67381771D01*
X56836553Y-67391924D01*
X56853208Y-67405592D01*
X56866876Y-67422247D01*
X56877029Y-67441243D01*
X56883284Y-67461862D01*
X56886000Y-67489440D01*
X56886000Y-67948160D01*
X56883284Y-67975738D01*
X56877029Y-67996357D01*
X56866876Y-68015353D01*
X56853208Y-68032008D01*
X56836553Y-68045675D01*
X56827224Y-68050662D01*
X56806850Y-68064276D01*
X56789523Y-68081603D01*
X56775910Y-68101977D01*
X56766533Y-68124616D01*
X56761753Y-68148650D01*
X56761753Y-68173154D01*
X56766534Y-68197187D01*
X56775912Y-68219826D01*
X56789526Y-68240200D01*
X56806853Y-68257527D01*
X56827224Y-68271138D01*
X56836553Y-68276125D01*
X56853208Y-68289792D01*
X56866876Y-68306447D01*
X56877029Y-68325443D01*
X56883284Y-68346062D01*
X56886000Y-68373640D01*
X56886000Y-68832360D01*
X56883284Y-68859938D01*
X56877029Y-68880557D01*
X56866876Y-68899553D01*
X56853208Y-68916208D01*
X56836553Y-68929876D01*
X56817557Y-68940029D01*
X56796938Y-68946284D01*
X56769360Y-68949000D01*
X56260640Y-68949000D01*
X56233062Y-68946284D01*
X56212443Y-68940029D01*
X56193447Y-68929876D01*
X56176792Y-68916208D01*
X56163124Y-68899553D01*
X56152971Y-68880557D01*
X56146716Y-68859938D01*
X56144000Y-68832360D01*
X56144000Y-68373640D01*
X56146716Y-68346062D01*
X56152971Y-68325443D01*
X56163124Y-68306447D01*
X56176792Y-68289792D01*
X56193447Y-68276125D01*
X56202776Y-68271138D01*
X56223150Y-68257524D01*
X56240477Y-68240197D01*
X56254090Y-68219823D01*
X56263467Y-68197184D01*
X56268247Y-68173150D01*
X56268247Y-68148646D01*
X56263466Y-68124613D01*
X56254088Y-68101974D01*
X56240474Y-68081600D01*
X56223147Y-68064273D01*
X56202776Y-68050662D01*
X56193447Y-68045675D01*
X56176792Y-68032008D01*
X56163124Y-68015353D01*
X56152971Y-67996357D01*
X56146716Y-67975738D01*
X56144000Y-67948160D01*
X56144000Y-67489440D01*
X56146716Y-67461862D01*
X56152971Y-67441243D01*
X56163124Y-67422247D01*
X56176792Y-67405592D01*
X56193447Y-67391924D01*
X56212443Y-67381771D01*
X56233062Y-67375516D01*
X56260640Y-67372800D01*
X56769360Y-67372800D01*
X56796938Y-67375516D01*
G37*
G36*
X63751600Y-68743600D02*
G01*
X62649600Y-68743600D01*
X62649600Y-66841600D01*
X63751600Y-66841600D01*
X63751600Y-68743600D01*
G37*
G36*
X61251600Y-68743600D02*
G01*
X60149600Y-68743600D01*
X60149600Y-66841600D01*
X61251600Y-66841600D01*
X61251600Y-68743600D01*
G37*
G36*
X40101028Y-66744883D02*
G01*
X40289722Y-66802123D01*
X40463615Y-66895071D01*
X40616039Y-67020161D01*
X40741129Y-67172585D01*
X40834077Y-67346478D01*
X40891317Y-67535172D01*
X40910643Y-67731400D01*
X40891317Y-67927628D01*
X40834077Y-68116322D01*
X40741129Y-68290215D01*
X40616039Y-68442639D01*
X40463615Y-68567729D01*
X40289722Y-68660677D01*
X40101028Y-68717917D01*
X39953975Y-68732400D01*
X37955625Y-68732400D01*
X37808572Y-68717917D01*
X37619878Y-68660677D01*
X37445985Y-68567729D01*
X37293561Y-68442639D01*
X37168471Y-68290215D01*
X37075523Y-68116322D01*
X37018283Y-67927628D01*
X36998957Y-67731400D01*
X37018283Y-67535172D01*
X37075523Y-67346478D01*
X37168471Y-67172585D01*
X37293561Y-67020161D01*
X37445985Y-66895071D01*
X37619878Y-66802123D01*
X37808572Y-66744883D01*
X37955625Y-66730400D01*
X39953975Y-66730400D01*
X40101028Y-66744883D01*
G37*
G36*
X65813938Y-67631916D02*
G01*
X65834557Y-67638171D01*
X65853553Y-67648324D01*
X65870208Y-67661992D01*
X65883876Y-67678647D01*
X65894029Y-67697643D01*
X65900284Y-67718262D01*
X65903000Y-67745840D01*
X65903000Y-68204560D01*
X65900284Y-68232138D01*
X65894029Y-68252757D01*
X65883876Y-68271753D01*
X65870208Y-68288408D01*
X65853553Y-68302076D01*
X65834557Y-68312229D01*
X65813938Y-68318484D01*
X65786360Y-68321200D01*
X65277640Y-68321200D01*
X65250062Y-68318484D01*
X65229443Y-68312229D01*
X65210447Y-68302076D01*
X65193792Y-68288408D01*
X65180124Y-68271753D01*
X65169971Y-68252757D01*
X65163716Y-68232138D01*
X65161000Y-68204560D01*
X65161000Y-67745840D01*
X65163716Y-67718262D01*
X65169971Y-67697643D01*
X65180124Y-67678647D01*
X65193792Y-67661992D01*
X65210447Y-67648324D01*
X65229443Y-67638171D01*
X65250062Y-67631916D01*
X65277640Y-67629200D01*
X65786360Y-67629200D01*
X65813938Y-67631916D01*
G37*
G36*
X47078191Y-67194485D02*
G01*
X47112169Y-67204793D01*
X47143490Y-67221534D01*
X47170939Y-67244061D01*
X47193466Y-67271510D01*
X47210207Y-67302831D01*
X47220515Y-67336809D01*
X47224600Y-67378290D01*
X47224600Y-68054510D01*
X47220515Y-68095991D01*
X47210207Y-68129969D01*
X47193466Y-68161290D01*
X47170939Y-68188739D01*
X47143490Y-68211266D01*
X47112169Y-68228007D01*
X47078191Y-68238315D01*
X47036710Y-68242400D01*
X46435490Y-68242400D01*
X46394009Y-68238315D01*
X46360031Y-68228007D01*
X46328710Y-68211266D01*
X46301261Y-68188739D01*
X46278734Y-68161290D01*
X46261993Y-68129969D01*
X46251685Y-68095991D01*
X46247600Y-68054510D01*
X46247600Y-67378290D01*
X46251685Y-67336809D01*
X46261993Y-67302831D01*
X46278734Y-67271510D01*
X46301261Y-67244061D01*
X46328710Y-67221534D01*
X46360031Y-67204793D01*
X46394009Y-67194485D01*
X46435490Y-67190400D01*
X47036710Y-67190400D01*
X47078191Y-67194485D01*
G37*
G36*
X45503191Y-67194485D02*
G01*
X45537169Y-67204793D01*
X45568490Y-67221534D01*
X45595939Y-67244061D01*
X45618466Y-67271510D01*
X45635207Y-67302831D01*
X45645515Y-67336809D01*
X45649600Y-67378290D01*
X45649600Y-68054510D01*
X45645515Y-68095991D01*
X45635207Y-68129969D01*
X45618466Y-68161290D01*
X45595939Y-68188739D01*
X45568490Y-68211266D01*
X45537169Y-68228007D01*
X45503191Y-68238315D01*
X45461710Y-68242400D01*
X44860490Y-68242400D01*
X44819009Y-68238315D01*
X44785031Y-68228007D01*
X44753710Y-68211266D01*
X44726261Y-68188739D01*
X44703734Y-68161290D01*
X44686993Y-68129969D01*
X44676685Y-68095991D01*
X44672600Y-68054510D01*
X44672600Y-67378290D01*
X44676685Y-67336809D01*
X44686993Y-67302831D01*
X44703734Y-67271510D01*
X44726261Y-67244061D01*
X44753710Y-67221534D01*
X44785031Y-67204793D01*
X44819009Y-67194485D01*
X44860490Y-67190400D01*
X45461710Y-67190400D01*
X45503191Y-67194485D01*
G37*
G36*
X53986791Y-66889685D02*
G01*
X54020769Y-66899993D01*
X54052090Y-66916734D01*
X54079539Y-66939261D01*
X54102066Y-66966710D01*
X54118807Y-66998031D01*
X54129115Y-67032009D01*
X54133200Y-67073490D01*
X54133200Y-67749710D01*
X54129115Y-67791191D01*
X54118807Y-67825169D01*
X54102066Y-67856490D01*
X54079539Y-67883939D01*
X54052090Y-67906466D01*
X54020769Y-67923207D01*
X53986791Y-67933515D01*
X53945310Y-67937600D01*
X53344090Y-67937600D01*
X53302609Y-67933515D01*
X53268631Y-67923207D01*
X53237310Y-67906466D01*
X53209861Y-67883939D01*
X53187334Y-67856490D01*
X53170593Y-67825169D01*
X53160285Y-67791191D01*
X53156200Y-67749710D01*
X53156200Y-67073490D01*
X53160285Y-67032009D01*
X53170593Y-66998031D01*
X53187334Y-66966710D01*
X53209861Y-66939261D01*
X53237310Y-66916734D01*
X53268631Y-66899993D01*
X53302609Y-66889685D01*
X53344090Y-66885600D01*
X53945310Y-66885600D01*
X53986791Y-66889685D01*
G37*
G36*
X55561791Y-66889685D02*
G01*
X55595769Y-66899993D01*
X55627090Y-66916734D01*
X55654539Y-66939261D01*
X55677066Y-66966710D01*
X55693807Y-66998031D01*
X55704115Y-67032009D01*
X55708200Y-67073490D01*
X55708200Y-67749710D01*
X55704115Y-67791191D01*
X55693807Y-67825169D01*
X55677066Y-67856490D01*
X55654539Y-67883939D01*
X55627090Y-67906466D01*
X55595769Y-67923207D01*
X55561791Y-67933515D01*
X55520310Y-67937600D01*
X54919090Y-67937600D01*
X54877609Y-67933515D01*
X54843631Y-67923207D01*
X54812310Y-67906466D01*
X54784861Y-67883939D01*
X54762334Y-67856490D01*
X54745593Y-67825169D01*
X54735285Y-67791191D01*
X54731200Y-67749710D01*
X54731200Y-67073490D01*
X54735285Y-67032009D01*
X54745593Y-66998031D01*
X54762334Y-66966710D01*
X54784861Y-66939261D01*
X54812310Y-66916734D01*
X54843631Y-66899993D01*
X54877609Y-66889685D01*
X54919090Y-66885600D01*
X55520310Y-66885600D01*
X55561791Y-66889685D01*
G37*
G36*
X65813938Y-66661916D02*
G01*
X65834557Y-66668171D01*
X65853553Y-66678324D01*
X65870208Y-66691992D01*
X65883876Y-66708647D01*
X65894029Y-66727643D01*
X65900284Y-66748262D01*
X65903000Y-66775840D01*
X65903000Y-67234560D01*
X65900284Y-67262138D01*
X65894029Y-67282757D01*
X65883876Y-67301753D01*
X65870208Y-67318408D01*
X65853553Y-67332076D01*
X65834557Y-67342229D01*
X65813938Y-67348484D01*
X65786360Y-67351200D01*
X65277640Y-67351200D01*
X65250062Y-67348484D01*
X65229443Y-67342229D01*
X65210447Y-67332076D01*
X65193792Y-67318408D01*
X65180124Y-67301753D01*
X65169971Y-67282757D01*
X65163716Y-67262138D01*
X65161000Y-67234560D01*
X65161000Y-66775840D01*
X65163716Y-66748262D01*
X65169971Y-66727643D01*
X65180124Y-66708647D01*
X65193792Y-66691992D01*
X65210447Y-66678324D01*
X65229443Y-66668171D01*
X65250062Y-66661916D01*
X65277640Y-66659200D01*
X65786360Y-66659200D01*
X65813938Y-66661916D01*
G37*
G36*
X56796938Y-66405516D02*
G01*
X56817557Y-66411771D01*
X56836553Y-66421924D01*
X56853208Y-66435592D01*
X56866876Y-66452247D01*
X56877029Y-66471243D01*
X56883284Y-66491862D01*
X56886000Y-66519440D01*
X56886000Y-66978160D01*
X56883284Y-67005738D01*
X56877029Y-67026357D01*
X56866876Y-67045353D01*
X56853208Y-67062008D01*
X56836553Y-67075676D01*
X56817557Y-67085829D01*
X56796938Y-67092084D01*
X56769360Y-67094800D01*
X56260640Y-67094800D01*
X56233062Y-67092084D01*
X56212443Y-67085829D01*
X56193447Y-67075676D01*
X56176792Y-67062008D01*
X56163124Y-67045353D01*
X56152971Y-67026357D01*
X56146716Y-67005738D01*
X56144000Y-66978160D01*
X56144000Y-66519440D01*
X56146716Y-66491862D01*
X56152971Y-66471243D01*
X56163124Y-66452247D01*
X56176792Y-66435592D01*
X56193447Y-66421924D01*
X56212443Y-66411771D01*
X56233062Y-66405516D01*
X56260640Y-66402800D01*
X56769360Y-66402800D01*
X56796938Y-66405516D01*
G37*
G36*
X41293843Y-65762414D02*
G01*
X41293846Y-65762415D01*
X41293845Y-65762415D01*
X41384839Y-65800106D01*
X41426063Y-65827651D01*
X41466730Y-65854824D01*
X41536376Y-65924470D01*
X41591095Y-66006363D01*
X41628786Y-66097357D01*
X41648000Y-66193953D01*
X41648000Y-66292447D01*
X41628786Y-66389043D01*
X41591240Y-66479686D01*
X41591094Y-66480039D01*
X41536375Y-66561931D01*
X41466731Y-66631575D01*
X41384839Y-66686294D01*
X41384838Y-66686295D01*
X41384837Y-66686295D01*
X41293843Y-66723986D01*
X41197247Y-66743200D01*
X41098753Y-66743200D01*
X41002157Y-66723986D01*
X40911163Y-66686295D01*
X40911162Y-66686295D01*
X40911161Y-66686294D01*
X40829269Y-66631575D01*
X40759625Y-66561931D01*
X40704906Y-66480039D01*
X40704760Y-66479686D01*
X40667214Y-66389043D01*
X40648000Y-66292447D01*
X40648000Y-66193953D01*
X40667214Y-66097357D01*
X40704905Y-66006363D01*
X40759624Y-65924470D01*
X40829270Y-65854824D01*
X40869937Y-65827651D01*
X40911161Y-65800106D01*
X41002155Y-65762415D01*
X41002154Y-65762415D01*
X41002157Y-65762414D01*
X41098753Y-65743200D01*
X41197247Y-65743200D01*
X41293843Y-65762414D01*
G37*
M02*
