G04 #@! TF.GenerationSoftware,KiCad,Pcbnew,(5.1.5)-3*
G04 #@! TF.CreationDate,2020-07-02T22:05:55+02:00*
G04 #@! TF.ProjectId,Theo3,5468656f-332e-46b6-9963-61645f706362,rev?*
G04 #@! TF.SameCoordinates,Original*
G04 #@! TF.FileFunction,Soldermask,Bot*
G04 #@! TF.FilePolarity,Negative*
%FSLAX46Y46*%
G04 Gerber Fmt 4.6, Leading zero omitted, Abs format (unit mm)*
G04 Created by KiCad (PCBNEW (5.1.5)-3) date 2020-07-02 22:05:55*
%MOMM*%
%LPD*%
G04 APERTURE LIST*
%ADD10C,0.100000*%
G04 APERTURE END LIST*
D10*
G36*
X87852043Y-80037214D02*
G01*
X87908690Y-80060678D01*
X87943039Y-80074906D01*
X87984263Y-80102451D01*
X88024930Y-80129624D01*
X88094576Y-80199270D01*
X88149295Y-80281163D01*
X88186986Y-80372157D01*
X88206200Y-80468753D01*
X88206200Y-80567247D01*
X88186986Y-80663843D01*
X88186985Y-80663845D01*
X88149294Y-80754839D01*
X88094575Y-80836731D01*
X88024931Y-80906375D01*
X87943039Y-80961094D01*
X87943038Y-80961095D01*
X87943037Y-80961095D01*
X87852043Y-80998786D01*
X87755447Y-81018000D01*
X87656953Y-81018000D01*
X87560357Y-80998786D01*
X87469363Y-80961095D01*
X87469362Y-80961095D01*
X87469361Y-80961094D01*
X87387469Y-80906375D01*
X87317825Y-80836731D01*
X87263106Y-80754839D01*
X87225415Y-80663845D01*
X87225414Y-80663843D01*
X87206200Y-80567247D01*
X87206200Y-80468753D01*
X87225414Y-80372157D01*
X87263105Y-80281163D01*
X87317824Y-80199270D01*
X87387470Y-80129624D01*
X87428137Y-80102451D01*
X87469361Y-80074906D01*
X87503710Y-80060678D01*
X87560357Y-80037214D01*
X87656953Y-80018000D01*
X87755447Y-80018000D01*
X87852043Y-80037214D01*
G37*
G36*
X56857200Y-80453800D02*
G01*
X55055200Y-80453800D01*
X55055200Y-78651800D01*
X56857200Y-78651800D01*
X56857200Y-80453800D01*
G37*
G36*
X48449712Y-78656727D02*
G01*
X48599012Y-78686424D01*
X48762984Y-78754344D01*
X48910554Y-78852947D01*
X49036053Y-78978446D01*
X49134656Y-79126016D01*
X49202576Y-79289988D01*
X49237200Y-79464059D01*
X49237200Y-79641541D01*
X49202576Y-79815612D01*
X49134656Y-79979584D01*
X49036053Y-80127154D01*
X48910554Y-80252653D01*
X48762984Y-80351256D01*
X48599012Y-80419176D01*
X48449712Y-80448873D01*
X48424942Y-80453800D01*
X48247458Y-80453800D01*
X48222688Y-80448873D01*
X48073388Y-80419176D01*
X47909416Y-80351256D01*
X47761846Y-80252653D01*
X47636347Y-80127154D01*
X47537744Y-79979584D01*
X47469824Y-79815612D01*
X47435200Y-79641541D01*
X47435200Y-79464059D01*
X47469824Y-79289988D01*
X47537744Y-79126016D01*
X47636347Y-78978446D01*
X47761846Y-78852947D01*
X47909416Y-78754344D01*
X48073388Y-78686424D01*
X48222688Y-78656727D01*
X48247458Y-78651800D01*
X48424942Y-78651800D01*
X48449712Y-78656727D01*
G37*
G36*
X53529712Y-78656727D02*
G01*
X53679012Y-78686424D01*
X53842984Y-78754344D01*
X53990554Y-78852947D01*
X54116053Y-78978446D01*
X54214656Y-79126016D01*
X54282576Y-79289988D01*
X54317200Y-79464059D01*
X54317200Y-79641541D01*
X54282576Y-79815612D01*
X54214656Y-79979584D01*
X54116053Y-80127154D01*
X53990554Y-80252653D01*
X53842984Y-80351256D01*
X53679012Y-80419176D01*
X53529712Y-80448873D01*
X53504942Y-80453800D01*
X53327458Y-80453800D01*
X53302688Y-80448873D01*
X53153388Y-80419176D01*
X52989416Y-80351256D01*
X52841846Y-80252653D01*
X52716347Y-80127154D01*
X52617744Y-79979584D01*
X52549824Y-79815612D01*
X52515200Y-79641541D01*
X52515200Y-79464059D01*
X52549824Y-79289988D01*
X52617744Y-79126016D01*
X52716347Y-78978446D01*
X52841846Y-78852947D01*
X52989416Y-78754344D01*
X53153388Y-78686424D01*
X53302688Y-78656727D01*
X53327458Y-78651800D01*
X53504942Y-78651800D01*
X53529712Y-78656727D01*
G37*
G36*
X50989712Y-78656727D02*
G01*
X51139012Y-78686424D01*
X51302984Y-78754344D01*
X51450554Y-78852947D01*
X51576053Y-78978446D01*
X51674656Y-79126016D01*
X51742576Y-79289988D01*
X51777200Y-79464059D01*
X51777200Y-79641541D01*
X51742576Y-79815612D01*
X51674656Y-79979584D01*
X51576053Y-80127154D01*
X51450554Y-80252653D01*
X51302984Y-80351256D01*
X51139012Y-80419176D01*
X50989712Y-80448873D01*
X50964942Y-80453800D01*
X50787458Y-80453800D01*
X50762688Y-80448873D01*
X50613388Y-80419176D01*
X50449416Y-80351256D01*
X50301846Y-80252653D01*
X50176347Y-80127154D01*
X50077744Y-79979584D01*
X50009824Y-79815612D01*
X49975200Y-79641541D01*
X49975200Y-79464059D01*
X50009824Y-79289988D01*
X50077744Y-79126016D01*
X50176347Y-78978446D01*
X50301846Y-78852947D01*
X50449416Y-78754344D01*
X50613388Y-78686424D01*
X50762688Y-78656727D01*
X50787458Y-78651800D01*
X50964942Y-78651800D01*
X50989712Y-78656727D01*
G37*
G36*
X40101028Y-78144883D02*
G01*
X40289722Y-78202123D01*
X40463615Y-78295071D01*
X40616039Y-78420161D01*
X40741129Y-78572585D01*
X40834077Y-78746478D01*
X40891317Y-78935172D01*
X40910643Y-79131400D01*
X40891317Y-79327628D01*
X40834077Y-79516322D01*
X40741129Y-79690215D01*
X40616039Y-79842639D01*
X40463615Y-79967729D01*
X40289722Y-80060677D01*
X40101028Y-80117917D01*
X39953975Y-80132400D01*
X37955625Y-80132400D01*
X37808572Y-80117917D01*
X37619878Y-80060677D01*
X37445985Y-79967729D01*
X37293561Y-79842639D01*
X37168471Y-79690215D01*
X37075523Y-79516322D01*
X37018283Y-79327628D01*
X36998957Y-79131400D01*
X37018283Y-78935172D01*
X37075523Y-78746478D01*
X37168471Y-78572585D01*
X37293561Y-78420161D01*
X37445985Y-78295071D01*
X37619878Y-78202123D01*
X37808572Y-78144883D01*
X37955625Y-78130400D01*
X39953975Y-78130400D01*
X40101028Y-78144883D01*
G37*
G36*
X45339538Y-79209916D02*
G01*
X45360157Y-79216171D01*
X45379153Y-79226324D01*
X45395808Y-79239992D01*
X45409476Y-79256647D01*
X45419629Y-79275643D01*
X45425884Y-79296262D01*
X45428600Y-79323840D01*
X45428600Y-79832560D01*
X45425884Y-79860138D01*
X45419629Y-79880757D01*
X45409476Y-79899753D01*
X45395808Y-79916408D01*
X45379153Y-79930076D01*
X45360157Y-79940229D01*
X45339538Y-79946484D01*
X45311960Y-79949200D01*
X44853240Y-79949200D01*
X44825662Y-79946484D01*
X44805043Y-79940229D01*
X44786047Y-79930076D01*
X44769392Y-79916408D01*
X44755724Y-79899753D01*
X44745571Y-79880757D01*
X44739316Y-79860138D01*
X44736600Y-79832560D01*
X44736600Y-79323840D01*
X44739316Y-79296262D01*
X44745571Y-79275643D01*
X44755724Y-79256647D01*
X44769392Y-79239992D01*
X44786047Y-79226324D01*
X44805043Y-79216171D01*
X44825662Y-79209916D01*
X44853240Y-79207200D01*
X45311960Y-79207200D01*
X45339538Y-79209916D01*
G37*
G36*
X46309538Y-79209916D02*
G01*
X46330157Y-79216171D01*
X46349153Y-79226324D01*
X46365808Y-79239992D01*
X46379476Y-79256647D01*
X46389629Y-79275643D01*
X46395884Y-79296262D01*
X46398600Y-79323840D01*
X46398600Y-79832560D01*
X46395884Y-79860138D01*
X46389629Y-79880757D01*
X46379476Y-79899753D01*
X46365808Y-79916408D01*
X46349153Y-79930076D01*
X46330157Y-79940229D01*
X46309538Y-79946484D01*
X46281960Y-79949200D01*
X45823240Y-79949200D01*
X45795662Y-79946484D01*
X45775043Y-79940229D01*
X45756047Y-79930076D01*
X45739392Y-79916408D01*
X45725724Y-79899753D01*
X45715571Y-79880757D01*
X45709316Y-79860138D01*
X45706600Y-79832560D01*
X45706600Y-79323840D01*
X45709316Y-79296262D01*
X45715571Y-79275643D01*
X45725724Y-79256647D01*
X45739392Y-79239992D01*
X45756047Y-79226324D01*
X45775043Y-79216171D01*
X45795662Y-79209916D01*
X45823240Y-79207200D01*
X46281960Y-79207200D01*
X46309538Y-79209916D01*
G37*
G36*
X66832000Y-78365800D02*
G01*
X65430000Y-78365800D01*
X65430000Y-76713800D01*
X66832000Y-76713800D01*
X66832000Y-78365800D01*
G37*
G36*
X62332000Y-78365800D02*
G01*
X60930000Y-78365800D01*
X60930000Y-76713800D01*
X62332000Y-76713800D01*
X62332000Y-78365800D01*
G37*
G36*
X51508000Y-77955000D02*
G01*
X50006000Y-77955000D01*
X50006000Y-76853000D01*
X51508000Y-76853000D01*
X51508000Y-77955000D01*
G37*
G36*
X49308000Y-77955000D02*
G01*
X47806000Y-77955000D01*
X47806000Y-76853000D01*
X49308000Y-76853000D01*
X49308000Y-77955000D01*
G37*
G36*
X88968200Y-76957000D02*
G01*
X84666200Y-76957000D01*
X84666200Y-75505000D01*
X88968200Y-75505000D01*
X88968200Y-76957000D01*
G37*
G36*
X39173859Y-75009260D02*
G01*
X39310532Y-75065872D01*
X39433535Y-75148060D01*
X39538140Y-75252665D01*
X39620328Y-75375668D01*
X39676940Y-75512341D01*
X39705800Y-75657433D01*
X39705800Y-75805367D01*
X39676940Y-75950459D01*
X39620328Y-76087132D01*
X39538140Y-76210135D01*
X39433535Y-76314740D01*
X39310532Y-76396928D01*
X39310531Y-76396929D01*
X39310530Y-76396929D01*
X39173859Y-76453540D01*
X39028768Y-76482400D01*
X38880832Y-76482400D01*
X38735741Y-76453540D01*
X38599070Y-76396929D01*
X38599069Y-76396929D01*
X38599068Y-76396928D01*
X38476065Y-76314740D01*
X38371460Y-76210135D01*
X38289272Y-76087132D01*
X38232660Y-75950459D01*
X38203800Y-75805367D01*
X38203800Y-75657433D01*
X38232660Y-75512341D01*
X38289272Y-75375668D01*
X38371460Y-75252665D01*
X38476065Y-75148060D01*
X38599068Y-75065872D01*
X38735741Y-75009260D01*
X38880832Y-74980400D01*
X39028768Y-74980400D01*
X39173859Y-75009260D01*
G37*
G36*
X49308000Y-76335000D02*
G01*
X47806000Y-76335000D01*
X47806000Y-75033000D01*
X49308000Y-75033000D01*
X49308000Y-76335000D01*
G37*
G36*
X51508000Y-76055000D02*
G01*
X50006000Y-76055000D01*
X50006000Y-74953000D01*
X51508000Y-74953000D01*
X51508000Y-76055000D01*
G37*
G36*
X45874938Y-75224116D02*
G01*
X45895557Y-75230371D01*
X45914553Y-75240524D01*
X45931208Y-75254192D01*
X45944876Y-75270847D01*
X45955029Y-75289843D01*
X45961284Y-75310462D01*
X45964000Y-75338040D01*
X45964000Y-75796760D01*
X45961284Y-75824338D01*
X45955029Y-75844957D01*
X45944876Y-75863953D01*
X45931208Y-75880608D01*
X45914553Y-75894276D01*
X45895557Y-75904429D01*
X45874938Y-75910684D01*
X45847360Y-75913400D01*
X45338640Y-75913400D01*
X45311062Y-75910684D01*
X45290443Y-75904429D01*
X45271447Y-75894276D01*
X45254792Y-75880608D01*
X45241124Y-75863953D01*
X45230971Y-75844957D01*
X45224716Y-75824338D01*
X45222000Y-75796760D01*
X45222000Y-75338040D01*
X45224716Y-75310462D01*
X45230971Y-75289843D01*
X45241124Y-75270847D01*
X45254792Y-75254192D01*
X45271447Y-75240524D01*
X45290443Y-75230371D01*
X45311062Y-75224116D01*
X45338640Y-75221400D01*
X45847360Y-75221400D01*
X45874938Y-75224116D01*
G37*
G36*
X42628600Y-75180800D02*
G01*
X41526600Y-75180800D01*
X41526600Y-73678800D01*
X42628600Y-73678800D01*
X42628600Y-75180800D01*
G37*
G36*
X44528600Y-75180800D02*
G01*
X43426600Y-75180800D01*
X43426600Y-73678800D01*
X44528600Y-73678800D01*
X44528600Y-75180800D01*
G37*
G36*
X45874938Y-74254116D02*
G01*
X45895557Y-74260371D01*
X45914553Y-74270524D01*
X45931208Y-74284192D01*
X45944876Y-74300847D01*
X45955029Y-74319843D01*
X45961284Y-74340462D01*
X45964000Y-74368040D01*
X45964000Y-74826760D01*
X45961284Y-74854338D01*
X45955029Y-74874957D01*
X45944876Y-74893953D01*
X45931208Y-74910608D01*
X45914553Y-74924276D01*
X45895557Y-74934429D01*
X45874938Y-74940684D01*
X45847360Y-74943400D01*
X45338640Y-74943400D01*
X45311062Y-74940684D01*
X45290443Y-74934429D01*
X45271447Y-74924276D01*
X45254792Y-74910608D01*
X45241124Y-74893953D01*
X45230971Y-74874957D01*
X45224716Y-74854338D01*
X45222000Y-74826760D01*
X45222000Y-74368040D01*
X45224716Y-74340462D01*
X45230971Y-74319843D01*
X45241124Y-74300847D01*
X45254792Y-74284192D01*
X45271447Y-74270524D01*
X45290443Y-74260371D01*
X45311062Y-74254116D01*
X45338640Y-74251400D01*
X45847360Y-74251400D01*
X45874938Y-74254116D01*
G37*
G36*
X45972591Y-72515285D02*
G01*
X46006569Y-72525593D01*
X46037890Y-72542334D01*
X46065339Y-72564861D01*
X46087866Y-72592310D01*
X46104607Y-72623631D01*
X46114915Y-72657609D01*
X46119000Y-72699090D01*
X46119000Y-73300310D01*
X46114915Y-73341791D01*
X46104607Y-73375769D01*
X46087866Y-73407090D01*
X46065339Y-73434539D01*
X46037890Y-73457066D01*
X46006569Y-73473807D01*
X45972591Y-73484115D01*
X45931110Y-73488200D01*
X45254890Y-73488200D01*
X45213409Y-73484115D01*
X45179431Y-73473807D01*
X45148110Y-73457066D01*
X45120661Y-73434539D01*
X45098134Y-73407090D01*
X45081393Y-73375769D01*
X45071085Y-73341791D01*
X45067000Y-73300310D01*
X45067000Y-72699090D01*
X45071085Y-72657609D01*
X45081393Y-72623631D01*
X45098134Y-72592310D01*
X45120661Y-72564861D01*
X45148110Y-72542334D01*
X45179431Y-72525593D01*
X45213409Y-72515285D01*
X45254890Y-72511200D01*
X45931110Y-72511200D01*
X45972591Y-72515285D01*
G37*
G36*
X42628600Y-72980800D02*
G01*
X41526600Y-72980800D01*
X41526600Y-71478800D01*
X42628600Y-71478800D01*
X42628600Y-72980800D01*
G37*
G36*
X44448600Y-72980800D02*
G01*
X43146600Y-72980800D01*
X43146600Y-71478800D01*
X44448600Y-71478800D01*
X44448600Y-72980800D01*
G37*
G36*
X45972591Y-70940285D02*
G01*
X46006569Y-70950593D01*
X46037890Y-70967334D01*
X46065339Y-70989861D01*
X46087866Y-71017310D01*
X46104607Y-71048631D01*
X46114915Y-71082609D01*
X46119000Y-71124090D01*
X46119000Y-71725310D01*
X46114915Y-71766791D01*
X46104607Y-71800769D01*
X46087866Y-71832090D01*
X46065339Y-71859539D01*
X46037890Y-71882066D01*
X46006569Y-71898807D01*
X45972591Y-71909115D01*
X45931110Y-71913200D01*
X45254890Y-71913200D01*
X45213409Y-71909115D01*
X45179431Y-71898807D01*
X45148110Y-71882066D01*
X45120661Y-71859539D01*
X45098134Y-71832090D01*
X45081393Y-71800769D01*
X45071085Y-71766791D01*
X45067000Y-71725310D01*
X45067000Y-71124090D01*
X45071085Y-71082609D01*
X45081393Y-71048631D01*
X45098134Y-71017310D01*
X45120661Y-70989861D01*
X45148110Y-70967334D01*
X45179431Y-70950593D01*
X45213409Y-70940285D01*
X45254890Y-70936200D01*
X45931110Y-70936200D01*
X45972591Y-70940285D01*
G37*
G36*
X39173859Y-70409260D02*
G01*
X39310532Y-70465872D01*
X39433535Y-70548060D01*
X39538140Y-70652665D01*
X39538141Y-70652667D01*
X39620329Y-70775670D01*
X39676940Y-70912341D01*
X39695916Y-71007739D01*
X39705800Y-71057433D01*
X39705800Y-71205367D01*
X39676940Y-71350459D01*
X39620328Y-71487132D01*
X39538140Y-71610135D01*
X39433535Y-71714740D01*
X39310532Y-71796928D01*
X39310531Y-71796929D01*
X39310530Y-71796929D01*
X39173859Y-71853540D01*
X39028768Y-71882400D01*
X38880832Y-71882400D01*
X38735741Y-71853540D01*
X38599070Y-71796929D01*
X38599069Y-71796929D01*
X38599068Y-71796928D01*
X38476065Y-71714740D01*
X38371460Y-71610135D01*
X38289272Y-71487132D01*
X38232660Y-71350459D01*
X38203800Y-71205367D01*
X38203800Y-71057433D01*
X38213685Y-71007739D01*
X38232660Y-70912341D01*
X38289271Y-70775670D01*
X38371459Y-70652667D01*
X38371460Y-70652665D01*
X38476065Y-70548060D01*
X38599068Y-70465872D01*
X38735741Y-70409260D01*
X38880832Y-70380400D01*
X39028768Y-70380400D01*
X39173859Y-70409260D01*
G37*
G36*
X88968200Y-71307000D02*
G01*
X84666200Y-71307000D01*
X84666200Y-69855000D01*
X88968200Y-69855000D01*
X88968200Y-71307000D01*
G37*
G36*
X66832000Y-71215800D02*
G01*
X65430000Y-71215800D01*
X65430000Y-69563800D01*
X66832000Y-69563800D01*
X66832000Y-71215800D01*
G37*
G36*
X62332000Y-71215800D02*
G01*
X60930000Y-71215800D01*
X60930000Y-69563800D01*
X62332000Y-69563800D01*
X62332000Y-71215800D01*
G37*
G36*
X40101028Y-66744883D02*
G01*
X40289722Y-66802123D01*
X40463615Y-66895071D01*
X40616039Y-67020161D01*
X40741129Y-67172585D01*
X40834077Y-67346478D01*
X40834078Y-67346481D01*
X40844732Y-67381604D01*
X40891317Y-67535172D01*
X40910643Y-67731400D01*
X40891317Y-67927628D01*
X40834077Y-68116322D01*
X40741129Y-68290215D01*
X40616039Y-68442639D01*
X40463615Y-68567729D01*
X40289722Y-68660677D01*
X40101028Y-68717917D01*
X39953975Y-68732400D01*
X37955625Y-68732400D01*
X37808572Y-68717917D01*
X37619878Y-68660677D01*
X37445985Y-68567729D01*
X37293561Y-68442639D01*
X37168471Y-68290215D01*
X37075523Y-68116322D01*
X37018283Y-67927628D01*
X36998957Y-67731400D01*
X37018283Y-67535172D01*
X37064868Y-67381604D01*
X37075522Y-67346481D01*
X37075523Y-67346478D01*
X37168471Y-67172585D01*
X37293561Y-67020161D01*
X37445985Y-66895071D01*
X37619878Y-66802123D01*
X37808572Y-66744883D01*
X37955625Y-66730400D01*
X39953975Y-66730400D01*
X40101028Y-66744883D01*
G37*
G36*
X67185538Y-68010516D02*
G01*
X67206157Y-68016771D01*
X67225153Y-68026924D01*
X67241808Y-68040592D01*
X67255476Y-68057247D01*
X67265629Y-68076243D01*
X67271884Y-68096862D01*
X67274600Y-68124440D01*
X67274600Y-68583160D01*
X67271884Y-68610738D01*
X67265629Y-68631357D01*
X67255476Y-68650353D01*
X67241808Y-68667008D01*
X67225153Y-68680676D01*
X67206157Y-68690829D01*
X67185538Y-68697084D01*
X67157960Y-68699800D01*
X66649240Y-68699800D01*
X66621662Y-68697084D01*
X66601043Y-68690829D01*
X66582047Y-68680676D01*
X66565392Y-68667008D01*
X66551724Y-68650353D01*
X66541571Y-68631357D01*
X66535316Y-68610738D01*
X66532600Y-68583160D01*
X66532600Y-68124440D01*
X66535316Y-68096862D01*
X66541571Y-68076243D01*
X66551724Y-68057247D01*
X66565392Y-68040592D01*
X66582047Y-68026924D01*
X66601043Y-68016771D01*
X66621662Y-68010516D01*
X66649240Y-68007800D01*
X67157960Y-68007800D01*
X67185538Y-68010516D01*
G37*
G36*
X69344538Y-67807316D02*
G01*
X69365157Y-67813571D01*
X69384153Y-67823724D01*
X69400808Y-67837392D01*
X69414476Y-67854047D01*
X69424629Y-67873043D01*
X69430884Y-67893662D01*
X69433600Y-67921240D01*
X69433600Y-68379960D01*
X69430884Y-68407538D01*
X69424629Y-68428157D01*
X69414476Y-68447153D01*
X69400808Y-68463808D01*
X69384153Y-68477476D01*
X69365157Y-68487629D01*
X69344538Y-68493884D01*
X69316960Y-68496600D01*
X68808240Y-68496600D01*
X68780662Y-68493884D01*
X68760043Y-68487629D01*
X68741047Y-68477476D01*
X68724392Y-68463808D01*
X68710724Y-68447153D01*
X68700571Y-68428157D01*
X68694316Y-68407538D01*
X68691600Y-68379960D01*
X68691600Y-67921240D01*
X68694316Y-67893662D01*
X68700571Y-67873043D01*
X68710724Y-67854047D01*
X68724392Y-67837392D01*
X68741047Y-67823724D01*
X68760043Y-67813571D01*
X68780662Y-67807316D01*
X68808240Y-67804600D01*
X69316960Y-67804600D01*
X69344538Y-67807316D01*
G37*
G36*
X67185538Y-67040516D02*
G01*
X67206157Y-67046771D01*
X67225153Y-67056924D01*
X67241808Y-67070592D01*
X67255476Y-67087247D01*
X67265629Y-67106243D01*
X67271884Y-67126862D01*
X67274600Y-67154440D01*
X67274600Y-67613160D01*
X67271884Y-67640738D01*
X67265629Y-67661357D01*
X67255476Y-67680353D01*
X67241808Y-67697008D01*
X67225153Y-67710676D01*
X67206157Y-67720829D01*
X67185538Y-67727084D01*
X67157960Y-67729800D01*
X66649240Y-67729800D01*
X66621662Y-67727084D01*
X66601043Y-67720829D01*
X66582047Y-67710676D01*
X66565392Y-67697008D01*
X66551724Y-67680353D01*
X66541571Y-67661357D01*
X66535316Y-67640738D01*
X66532600Y-67613160D01*
X66532600Y-67154440D01*
X66535316Y-67126862D01*
X66541571Y-67106243D01*
X66551724Y-67087247D01*
X66565392Y-67070592D01*
X66582047Y-67056924D01*
X66601043Y-67046771D01*
X66621662Y-67040516D01*
X66649240Y-67037800D01*
X67157960Y-67037800D01*
X67185538Y-67040516D01*
G37*
G36*
X61727338Y-66840116D02*
G01*
X61747957Y-66846371D01*
X61766953Y-66856524D01*
X61783608Y-66870192D01*
X61797276Y-66886847D01*
X61807429Y-66905843D01*
X61813684Y-66926462D01*
X61816400Y-66954040D01*
X61816400Y-67462760D01*
X61813684Y-67490338D01*
X61807429Y-67510957D01*
X61797276Y-67529953D01*
X61783608Y-67546608D01*
X61766953Y-67560276D01*
X61747957Y-67570429D01*
X61727338Y-67576684D01*
X61699760Y-67579400D01*
X61241040Y-67579400D01*
X61213462Y-67576684D01*
X61192843Y-67570429D01*
X61173847Y-67560276D01*
X61157192Y-67546608D01*
X61143524Y-67529953D01*
X61133371Y-67510957D01*
X61127116Y-67490338D01*
X61124400Y-67462760D01*
X61124400Y-66954040D01*
X61127116Y-66926462D01*
X61133371Y-66905843D01*
X61143524Y-66886847D01*
X61157192Y-66870192D01*
X61173847Y-66856524D01*
X61192843Y-66846371D01*
X61213462Y-66840116D01*
X61241040Y-66837400D01*
X61699760Y-66837400D01*
X61727338Y-66840116D01*
G37*
G36*
X63660138Y-66840116D02*
G01*
X63680757Y-66846371D01*
X63699753Y-66856524D01*
X63716408Y-66870192D01*
X63730076Y-66886847D01*
X63740229Y-66905843D01*
X63746484Y-66926462D01*
X63749200Y-66954040D01*
X63749200Y-67462760D01*
X63746484Y-67490338D01*
X63740229Y-67510957D01*
X63730076Y-67529953D01*
X63716408Y-67546608D01*
X63699753Y-67560276D01*
X63680757Y-67570429D01*
X63660138Y-67576684D01*
X63632560Y-67579400D01*
X63173840Y-67579400D01*
X63146262Y-67576684D01*
X63125643Y-67570429D01*
X63106647Y-67560276D01*
X63089992Y-67546608D01*
X63076324Y-67529953D01*
X63066171Y-67510957D01*
X63059916Y-67490338D01*
X63057200Y-67462760D01*
X63057200Y-66954040D01*
X63059916Y-66926462D01*
X63066171Y-66905843D01*
X63076324Y-66886847D01*
X63089992Y-66870192D01*
X63106647Y-66856524D01*
X63125643Y-66846371D01*
X63146262Y-66840116D01*
X63173840Y-66837400D01*
X63632560Y-66837400D01*
X63660138Y-66840116D01*
G37*
G36*
X62690138Y-66840116D02*
G01*
X62710757Y-66846371D01*
X62729753Y-66856524D01*
X62746408Y-66870192D01*
X62760076Y-66886847D01*
X62770229Y-66905843D01*
X62776484Y-66926462D01*
X62779200Y-66954040D01*
X62779200Y-67462760D01*
X62776484Y-67490338D01*
X62770229Y-67510957D01*
X62760076Y-67529953D01*
X62746408Y-67546608D01*
X62729753Y-67560276D01*
X62710757Y-67570429D01*
X62690138Y-67576684D01*
X62662560Y-67579400D01*
X62203840Y-67579400D01*
X62176262Y-67576684D01*
X62155643Y-67570429D01*
X62136647Y-67560276D01*
X62119992Y-67546608D01*
X62106324Y-67529953D01*
X62096171Y-67510957D01*
X62089916Y-67490338D01*
X62087200Y-67462760D01*
X62087200Y-66954040D01*
X62089916Y-66926462D01*
X62096171Y-66905843D01*
X62106324Y-66886847D01*
X62119992Y-66870192D01*
X62136647Y-66856524D01*
X62155643Y-66846371D01*
X62176262Y-66840116D01*
X62203840Y-66837400D01*
X62662560Y-66837400D01*
X62690138Y-66840116D01*
G37*
G36*
X60757338Y-66840116D02*
G01*
X60777957Y-66846371D01*
X60796953Y-66856524D01*
X60813608Y-66870192D01*
X60827276Y-66886847D01*
X60837429Y-66905843D01*
X60843684Y-66926462D01*
X60846400Y-66954040D01*
X60846400Y-67462760D01*
X60843684Y-67490338D01*
X60837429Y-67510957D01*
X60827276Y-67529953D01*
X60813608Y-67546608D01*
X60796953Y-67560276D01*
X60777957Y-67570429D01*
X60757338Y-67576684D01*
X60729760Y-67579400D01*
X60271040Y-67579400D01*
X60243462Y-67576684D01*
X60222843Y-67570429D01*
X60203847Y-67560276D01*
X60187192Y-67546608D01*
X60173524Y-67529953D01*
X60163371Y-67510957D01*
X60157116Y-67490338D01*
X60154400Y-67462760D01*
X60154400Y-66954040D01*
X60157116Y-66926462D01*
X60163371Y-66905843D01*
X60173524Y-66886847D01*
X60187192Y-66870192D01*
X60203847Y-66856524D01*
X60222843Y-66846371D01*
X60243462Y-66840116D01*
X60271040Y-66837400D01*
X60729760Y-66837400D01*
X60757338Y-66840116D01*
G37*
G36*
X69344538Y-66837316D02*
G01*
X69365157Y-66843571D01*
X69384153Y-66853724D01*
X69400808Y-66867392D01*
X69414476Y-66884047D01*
X69424629Y-66903043D01*
X69430884Y-66923662D01*
X69433600Y-66951240D01*
X69433600Y-67409960D01*
X69430884Y-67437538D01*
X69424629Y-67458157D01*
X69414476Y-67477153D01*
X69400808Y-67493808D01*
X69384153Y-67507476D01*
X69365157Y-67517629D01*
X69344538Y-67523884D01*
X69316960Y-67526600D01*
X68808240Y-67526600D01*
X68780662Y-67523884D01*
X68760043Y-67517629D01*
X68741047Y-67507476D01*
X68724392Y-67493808D01*
X68710724Y-67477153D01*
X68700571Y-67458157D01*
X68694316Y-67437538D01*
X68691600Y-67409960D01*
X68691600Y-66951240D01*
X68694316Y-66923662D01*
X68700571Y-66903043D01*
X68710724Y-66884047D01*
X68724392Y-66867392D01*
X68741047Y-66853724D01*
X68760043Y-66843571D01*
X68780662Y-66837316D01*
X68808240Y-66834600D01*
X69316960Y-66834600D01*
X69344538Y-66837316D01*
G37*
G36*
X41293843Y-65762414D02*
G01*
X41293846Y-65762415D01*
X41293845Y-65762415D01*
X41384839Y-65800106D01*
X41426063Y-65827651D01*
X41466730Y-65854824D01*
X41536376Y-65924470D01*
X41591095Y-66006363D01*
X41628786Y-66097357D01*
X41648000Y-66193953D01*
X41648000Y-66292447D01*
X41628786Y-66389043D01*
X41628785Y-66389045D01*
X41591094Y-66480039D01*
X41536375Y-66561931D01*
X41466731Y-66631575D01*
X41384839Y-66686294D01*
X41384838Y-66686295D01*
X41384837Y-66686295D01*
X41293843Y-66723986D01*
X41197247Y-66743200D01*
X41098753Y-66743200D01*
X41002157Y-66723986D01*
X40911163Y-66686295D01*
X40911162Y-66686295D01*
X40911161Y-66686294D01*
X40829269Y-66631575D01*
X40759625Y-66561931D01*
X40704906Y-66480039D01*
X40667215Y-66389045D01*
X40667214Y-66389043D01*
X40648000Y-66292447D01*
X40648000Y-66193953D01*
X40667214Y-66097357D01*
X40704905Y-66006363D01*
X40759624Y-65924470D01*
X40829270Y-65854824D01*
X40869937Y-65827651D01*
X40911161Y-65800106D01*
X41002155Y-65762415D01*
X41002154Y-65762415D01*
X41002157Y-65762414D01*
X41098753Y-65743200D01*
X41197247Y-65743200D01*
X41293843Y-65762414D01*
G37*
M02*
